<?xml version="1.0" encoding="utf-8"?>
<!-- Generator: Adobe Illustrator 24.1.1, SVG Export Plug-In . SVG Version: 6.00 Build 0)  -->
<svg version="1.1" id="레이어_1" xmlns="http://www.w3.org/2000/svg" xmlns:xlink="http://www.w3.org/1999/xlink" x="0px"
	 y="0px" viewBox="0 0 40 40" style="enable-background:new 0 0 40 40;" xml:space="preserve">
<style type="text/css">
	.st0{fill:#45B035;}
	.st1{opacity:0.6;fill:#38A038;enable-background:new    ;}
	.st2{fill:#FFFFFF;}
	.st3{opacity:0.6;fill:#2FAC38;enable-background:new    ;}
	.st4{fill:#38A038;}
</style>
<g>
	<path class="st0" d="M40,36.5c0,1.9-1.5,3.5-3.5,3.5H3.5C1.5,40,0,38.5,0,36.5V3.5C0,1.5,1.5,0,3.5,0h33.1C38.5,0,40,1.5,40,3.5
		V36.5z"/>
	<polygon class="st1" points="10.4,28.8 18.2,40 36.8,40 40,36.3 40,25.6 29.5,11.3 25.2,25.6 14.7,15.7 	"/>
	<g>
		<polygon class="st2" points="23,11.3 23,20.1 17,11.3 10.4,11.3 10.4,28.8 17,28.8 17,19.9 23,28.8 29.5,28.8 29.5,11.3 		"/>
	</g>
	<path class="st3" d="M36.5,0.6c1.6,0,2.9,1.3,2.9,2.9v33.1c0,1.6-1.3,2.9-2.9,2.9H3.5c-1.6,0-2.9-1.3-2.9-2.9V3.5
		c0-1.6,1.3-2.9,2.9-2.9L36.5,0.6 M36.5,0H3.5C1.5,0,0,1.5,0,3.5v33.1C0,38.5,1.5,40,3.5,40h33.1c1.9,0,3.5-1.5,3.5-3.5V3.5
		C40,1.5,38.5,0,36.5,0L36.5,0z"/>
</g>
<path class="st4" d="M17.4,11.6"/>
</svg>
