<svg width="869" height="781" xmlns="http://www.w3.org/2000/svg">
 <defs>
  <style>.cls-1{fill:#e8eff7;}.cls-2{fill:#e3ecff;}.cls-3{fill:#1c2777;}.cls-4{fill:#bdcdee;}.cls-5{fill:#82a3e6;}.cls-6{fill:#fff;}.cls-7{fill:#ef8750;}.cls-36,.cls-38,.cls-39,.cls-8,.cls-9{fill:none;stroke-linecap:round;stroke-linejoin:round;}.cls-8{stroke:#1c2777;stroke-width:4.34px;}.cls-9{stroke:#000;}.cls-10{fill:#3542a8;}.cls-11{fill:#7493d6;}.cls-12{fill:#fa6465;}.cls-13{fill:#151e64;}.cls-14{fill:#fdb086;}.cls-15{fill:#ee5758;}.cls-16{fill:#6574f1;}.cls-17{fill:#7d8bff;}.cls-18{fill:#ff7778;}.cls-19{fill:#3443a8;}.cls-20{fill:#212c87;}.cls-21{fill:#2e3a9d;}.cls-22{fill:#009982;}.cls-23{fill:#00c4a6;}.cls-24{fill:#00d0b0;}.cls-25{fill:#e99d73;}.cls-26{fill:#8da1cb;}.cls-27{fill:#a6b8de;}.cls-28{fill:#252732;}.cls-29{fill:#ff9962;}.cls-30{fill:#6f7cde;}.cls-31{fill:#6f7df1;}.cls-32{fill:#7988ff;}.cls-33{fill:#ed864e;}.cls-34{fill:#ffb73e;}.cls-35{fill:#141d64;}.cls-36{stroke:#029f84;}.cls-36,.cls-38,.cls-39{stroke-width:2px;}.cls-37{fill:#e65a5b;}.cls-38{stroke:#fa6465;}.cls-39{stroke:#3542a8;}</style>
 </defs>
 <title>Artboard 17</title>
 <g>
  <title>background</title>
  <rect fill="none" id="canvas_background" height="783" width="871" y="-1" x="-1"/>
 </g>
 <g>
  <title>Layer 1</title>
  <g id="svg_164">
   <g id="Layer0_0_MEMBER_0_FILL">
    <path id="svg_1" d="m600.84823,562.26361q70.96855,-70.92379 70.96862,-171.2758t-70.96862,-171.32064q-70.92381,-70.92376 -171.2758,-70.92377t-171.32064,70.92377q-70.92376,70.96864 -70.92378,171.32064t70.92378,171.2758q70.96865,70.96857 171.32064,70.96862t171.2758,-70.96862z" class="cls-1"/>
   </g>
   <g id="Layer0_0_MEMBER_1_FILL">
    <path id="svg_2" d="m821.87977,285.78q-47.28247,-47.28255 -114.16889,-47.28253t-114.21375,47.28253q-47.2825,47.32746 -47.2825,114.21379t47.2825,114.16889q47.32741,47.32741 114.21375,47.32738t114.16889,-47.32738q47.32741,-47.28255 47.32738,-114.16889t-47.32738,-114.21379z" class="cls-1"/>
   </g>
   <g id="Layer0_0_MEMBER_2_FILL">
    <path id="svg_3" d="m703.09027,207.23q-31.53659,-31.53662 -76.12753,-31.53663t-76.12753,31.53663q-31.53666,31.53666 -31.53666,76.12756t31.53666,76.12755q31.53657,31.53661 76.12753,31.53663t76.12753,-31.53663q31.53674,-31.53665 31.53665,-76.12755t-31.53665,-76.12756z" class="cls-1"/>
   </g>
   <g id="Layer0_0_MEMBER_3_FILL">
    <path id="svg_4" d="m66.01569,492.51394q0,70.60977 49.92927,120.539t120.539,49.92929q70.60977,0 120.539,-49.92929t49.92926,-120.539q0,-70.60977 -49.92926,-120.539t-120.539,-49.92926q-70.60977,0 -120.539,49.92926t-49.92927,120.539z" class="cls-1"/>
   </g>
   <g id="Layer0_0_MEMBER_4_FILL">
    <path id="svg_5" d="m338.9162,195.52156a52.91043,52.91043 0 0 0 -90.30336,-37.41331a52.8787,52.8787 0 1 0 74.78179,74.78175a50.84358,50.84358 0 0 0 15.52157,-37.36844z" class="cls-1"/>
   </g>
   <g id="Layer0_0_MEMBER_5_FILL">
    <path id="svg_6" d="m694.25285,588.40611q0,-39.02826 -27.58894,-66.61721t-66.61722,-27.589q-39.02826,0 -66.61721,27.589t-27.58895,66.61721q0,39.02827 27.58895,66.61721t66.61721,27.58895q39.02828,0 66.61722,-27.58895t27.58894,-66.61721z" class="cls-1"/>
   </g>
   <g id="Layer0_0_MEMBER_6_FILL">
    <path id="svg_7" d="m552.58471,629.45308q0,-32.38895 -22.87864,-55.26759t-55.26759,-22.87864q-32.389,0 -55.26762,22.87864t-22.87864,55.26759q0,32.389 22.87864,55.26759t55.26762,22.87864q32.38894,-0.00007 55.26759,-22.87864q22.87865,-22.87872 22.87864,-55.26759z" class="cls-1"/>
   </g>
   <g id="Layer0_0_MEMBER_7_FILL">
    <path id="svg_8" d="m757.05696,597.37813a22.51527,22.51527 0 1 0 -6.59441,15.83562a21.64706,21.64706 0 0 0 6.59441,-15.83562z" class="cls-1"/>
   </g>
   <g id="Layer0_0_MEMBER_8_FILL">
    <path id="svg_9" d="m779.487,579.4341a8.977,8.977 0 1 0 -8.972,8.972a9.03741,9.03741 0 0 0 8.972,-8.972z" class="cls-1"/>
   </g>
   <g id="Layer0_0_MEMBER_9_FILL">
    <path id="svg_10" d="m705.06412,662.78414a8.61,8.61 0 0 0 -6.32526,-2.60191a8.88493,8.88493 0 0 0 -8.972,8.972a8.972,8.972 0 1 0 15.29727,-6.37011l-0.00001,0.00002z" class="cls-1"/>
   </g>
   <g id="Layer0_0_MEMBER_10_FILL">
    <path id="svg_11" d="m151.44592,189.15143a31.39818,31.39818 0 1 0 22.20574,9.19631a30.25688,30.25688 0 0 0 -22.20574,-9.19631z" class="cls-1"/>
   </g>
   <g id="Layer0_0_MEMBER_11_FILL">
    <path id="svg_12" d="m124.52988,310.27363a8.977,8.977 0 1 0 -8.972,8.972a9.03737,9.03737 0 0 0 8.972,-8.972z" class="cls-1"/>
   </g>
   <g id="Layer0_0_MEMBER_12_FILL">
    <path id="svg_13" d="m335.37224,59.0572a22.51538,22.51538 0 1 0 -6.59444,15.8356a21.64677,21.64677 0 0 0 6.59444,-15.8356z" class="cls-1"/>
   </g>
   <g id="Layer0_0_MEMBER_13_FILL">
    <path id="svg_14" d="m621.71413,73.27785a17.9782,17.9782 0 1 0 5.24861,12.6954a17.29405,17.29405 0 0 0 -5.24861,-12.6954z" class="cls-1"/>
   </g>
   <g id="Layer0_0_MEMBER_14_FILL">
    <path id="svg_15" d="m733.50542,174.5719a27.02182,27.02182 0 1 0 19.06553,-7.85051a26.05278,26.05278 0 0 0 -19.06553,7.85051z" class="cls-1"/>
   </g>
   <g id="Layer0_0_MEMBER_15_FILL">
    <path id="svg_16" d="m61.72577,364.10573a26.88,26.88 0 0 0 -26.916,-26.91605a26.91606,26.91606 0 1 0 19.02067,45.93673a25.83023,25.83023 0 0 0 7.89533,-19.02068z" class="cls-1"/>
   </g>
   <g id="Layer0_1_MEMBER_0_FILL">
    <path id="svg_17" d="m684.7615,217.5041a16.98462,16.98462 0 1 0 4.96786,12.00312a16.3537,16.3537 0 0 0 -4.96786,-12.00312z" class="cls-2"/>
   </g>
   <g id="Layer0_1_MEMBER_1_FILL">
    <path id="svg_18" d="m682.50155,243.36171a0.04236,0.04236 0 0 0 -0.03087,-0.01544l-1.94394,0a0.04379,0.04379 0 0 0 -0.03085,0.07714a0.04264,0.04264 0 0 0 0.03085,0.01544l1.94394,0a0.04379,0.04379 0 0 0 0.03087,-0.07714m1.62,-1.32684a0.04238,0.04238 0 0 0 -0.03086,-0.01542l-1.94395,0a0.04645,0.04645 0 0 0 0,0.09257l1.94389,0a0.04379,0.04379 0 0 0 0.03086,-0.07715m1.296,-1.31139a0.04235,0.04235 0 0 0 -0.03086,-0.01542l-1.944,0a0.04644,0.04644 0 0 0 0,0.09256l1.944,0a0.04379,0.04379 0 0 0 0.03086,-0.07714m1.06453,-1.31139a0.04246,0.04246 0 0 0 -0.03085,-0.01543l-1.94394,0a0.04644,0.04644 0 0 0 0,0.09257l1.94394,0a0.04378,0.04378 0 0 0 0.03085,-0.07714m-8.13063,5.32271a0.04258,0.04258 0 0 0 0.03085,0.01545l1.944,0a0.04646,0.04646 0 0 0 0,-0.09259l-1.944,0a0.04379,0.04379 0 0 0 -0.03085,0.07714m-3.62562,1.32684a0.04244,0.04244 0 0 0 0.03085,0.01542l1.944,0a0.04644,0.04644 0 0 0 0,-0.09256l-1.944,0a0.04379,0.04379 0 0 0 -0.03085,0.07714m13.34536,-9.28776a0.04244,0.04244 0 0 0 -0.03085,-0.01543l-1.944,0a0.04645,0.04645 0 0 0 0,0.09257l1.944,0a0.04379,0.04379 0 0 0 0.03085,-0.07714m0.57083,-1.32682a0.04239,0.04239 0 0 0 -0.03084,-0.01543l-1.95939,0a0.04644,0.04644 0 0 0 0,0.09257l1.95937,0a0.04378,0.04378 0 0 0 0.03084,-0.07714m-1.55824,-1.32682a0.04644,0.04644 0 0 0 0,0.09256l1.94393,0a0.04644,0.04644 0 0 0 0,-0.09256l-1.94395,0m2.28338,-1.31139a0.04249,0.04249 0 0 0 -0.03087,-0.01543l-1.94394,0a0.04645,0.04645 0 0 0 0,0.09257l1.94394,0a0.04379,0.04379 0 0 0 0.03087,-0.07714m-4.01132,5.33814a0.04254,0.04254 0 0 0 0.03085,0.01542l1.95938,0a0.04645,0.04645 0 0 0 0,-0.09257l-1.95934,0a0.04379,0.04379 0 0 0 -0.03085,0.07715m2.28335,-7.89922a0.04251,0.04251 0 0 0 0.03087,0.01543l1.944,0a0.04645,0.04645 0 0 0 0,-0.09257l-1.944,0a0.04379,0.04379 0 0 0 -0.03087,0.07714m-0.06169,1.23426a0.04644,0.04644 0 0 0 0,0.09256l1.94394,0a0.04644,0.04644 0 0 0 0,-0.09256l-1.94394,0m0.108,-2.63823a0.04378,0.04378 0 0 0 -0.03085,0.07714a0.0426,0.0426 0 0 0 0.03085,0.01544l1.94394,0a0.04379,0.04379 0 0 0 0.03087,-0.07714a0.04232,0.04232 0 0 0 -0.03087,-0.01544l-1.94394,0m1.404,-3.93418a0.04239,0.04239 0 0 0 -0.03084,-0.01543l-1.94395,0a0.04644,0.04644 0 0 0 0,0.09257l1.94395,0a0.04379,0.04379 0 0 0 0.03084,-0.07714m0.47827,2.63823a0.04241,0.04241 0 0 0 -0.03084,-0.01545l-1.94395,0a0.04646,0.04646 0 0 0 0,0.09259l1.94395,0a0.04378,0.04378 0 0 0 0.03084,-0.07714m-0.18513,-1.32684a0.04246,0.04246 0 0 0 -0.03085,-0.01543l-1.944,0a0.04645,0.04645 0 0 0 0,0.09257l1.944,0a0.04379,0.04379 0 0 0 0.03085,-0.07714m-2.6845,-2.65364a0.04645,0.04645 0 0 0 0,0.09257l1.94394,0a0.04644,0.04644 0 0 0 0,-0.09257l-1.94394,0m-0.58626,-1.23425a0.04251,0.04251 0 0 0 0.03085,0.01542l1.94394,0a0.04644,0.04644 0 0 0 0,-0.09256l-1.94398,0a0.04378,0.04378 0 0 0 -0.03085,0.07714m-0.69427,-1.32682a0.04261,0.04261 0 0 0 0.03085,0.01543l1.94395,0a0.04379,0.04379 0 0 0 0.03086,-0.07714a0.04229,0.04229 0 0 0 -0.03086,-0.01543l-1.94395,0a0.04378,0.04378 0 0 0 -0.03085,0.07714m-0.864,-1.31139a0.04266,0.04266 0 0 0 0.03087,0.01542l1.94394,0a0.04378,0.04378 0 0 0 0.03085,-0.07714a0.04234,0.04234 0 0 0 -0.03085,-0.01542l-1.94394,0a0.04379,0.04379 0 0 0 -0.03087,0.07714m-1.03368,-1.38854a0.04645,0.04645 0 0 0 0,0.09257l1.94395,0a0.04645,0.04645 0 0 0 0,-0.09257l-1.94395,0m0.69427,-1.28054a0.0545,0.0545 0 0 0 -0.04629,-0.04627l-1.94398,0a0.04644,0.04644 0 0 0 0,0.09256l1.94395,0a0.0545,0.0545 0 0 0 0.04629,-0.04629m-3.5639,-1.35767a0.04644,0.04644 0 0 0 0,0.09257l1.94394,0a0.04645,0.04645 0 0 0 0,-0.09257l-1.94394,0m-2.14452,-1.24969a0.0426,0.0426 0 0 0 0.03085,0.01544l1.944,0a0.04646,0.04646 0 0 0 0,-0.09259l-1.944,0a0.0438,0.0438 0 0 0 -0.03085,0.07715m-3.40962,-1.3114a0.04265,0.04265 0 0 0 0.03085,0.01545l1.94394,0a0.04379,0.04379 0 0 0 0.03087,-0.07715a0.04236,0.04236 0 0 0 -0.03087,-0.01544l-1.94394,0a0.04379,0.04379 0 0 0 -0.03085,0.07714z" class="cls-3"/>
   </g>
   <g id="Layer0_1_MEMBER_2_FILL">
    <path id="svg_19" d="m682.81755,217.5041a16.98462,16.98462 0 1 0 4.96786,12.00312a16.35364,16.35364 0 0 0 -4.96786,-12.00312z" class="cls-4"/>
   </g>
   <g id="Layer0_1_MEMBER_3_FILL">
    <path id="svg_20" d="m680.34448,219.975a13.499,13.499 0 1 0 3.94835,9.53981a12.99749,12.99749 0 0 0 -3.94835,-9.53981z" class="cls-5"/>
   </g>
   <g id="Layer0_1_MEMBER_4_FILL">
    <path id="svg_21" d="m667.27725,224.08531a3.25219,3.25219 0 0 0 -0.93431,2.4025a3.56355,3.56355 0 0 0 0.27584,1.4682a3.193,3.193 0 0 0 0.76524,1.07668a5.05879,5.05879 0 0 0 1.17456,0.80974a16.65112,16.65112 0 0 0 1.62836,0.70294a3.58458,3.58458 0 0 1 1.35252,0.78305a1.60966,1.60966 0 0 1 0.38262,1.13006a1.42981,1.42981 0 0 1 -0.436,1.09448a1.74218,1.74218 0 0 1 -1.21015,0.40041a1.76387,1.76387 0 0 1 -1.40591,-0.55168a2.28458,2.28458 0 0 1 -0.49829,-1.58387l-2.50928,0a4.08263,4.08263 0 0 0 0.9788,2.8563a4.21354,4.21354 0 0 0 2.75843,1.26355l0,1.71733l1.37921,0l0,-1.72625a4.05321,4.05321 0 0 0 2.536,-1.08557a3.25019,3.25019 0 0 0 0.92541,-2.4025a3.51255,3.51255 0 0 0 -0.24915,-1.37922a3.036,3.036 0 0 0 -0.703,-1.05888a4.54981,4.54981 0 0 0 -1.13006,-0.83643a15.33256,15.33256 0 0 0 -1.69955,-0.79193a4.21862,4.21862 0 0 1 -1.42371,-0.81864a1.46882,1.46882 0 0 1 -0.38262,-1.05888a1.52322,1.52322 0 0 1 0.39152,-1.11227a1.45459,1.45459 0 0 1 1.10337,-0.40931a1.42854,1.42854 0 0 1 1.15677,0.525a2.41717,2.41717 0 0 1 0.4182,1.55718l2.51819,0a4.19845,4.19845 0 0 0 -0.872,-2.75843a3.64876,3.64876 0 0 0 -2.40251,-1.29024l0,-1.87751l-1.397,0l0,1.85972a3.90968,3.90968 0 0 0 -2.4915,1.09447z" class="cls-6"/>
   </g>
   <g id="Layer0_2_MEMBER_0_FILL">
    <path id="svg_22" d="m173.36148,404.20409a16.98463,16.98463 0 1 0 4.96786,12.00312a16.3537,16.3537 0 0 0 -4.96786,-12.00312z" class="cls-2"/>
   </g>
   <g id="Layer0_2_MEMBER_1_FILL">
    <path id="svg_23" d="m171.10154,430.06171a0.04236,0.04236 0 0 0 -0.03087,-0.01544l-1.94394,0a0.04379,0.04379 0 0 0 -0.03085,0.07714a0.04264,0.04264 0 0 0 0.03085,0.01544l1.9439,0a0.04379,0.04379 0 0 0 0.03087,-0.07714m1.62,-1.32684a0.0424,0.0424 0 0 0 -0.03087,-0.01542l-1.94394,0a0.04644,0.04644 0 0 0 0,0.09256l1.94394,0a0.04379,0.04379 0 0 0 0.03087,-0.07714m1.296,-1.31139a0.04242,0.04242 0 0 0 -0.03087,-0.01543l-1.944,0a0.04645,0.04645 0 0 0 0,0.09257l1.944,0a0.04379,0.04379 0 0 0 0.03087,-0.07714m1.06453,-1.3114a0.04243,0.04243 0 0 0 -0.03085,-0.01542l-1.944,0a0.04644,0.04644 0 0 0 0,0.09257l1.944,0a0.04379,0.04379 0 0 0 0.03085,-0.07715m-8.13064,5.32272a0.0426,0.0426 0 0 0 0.03085,0.01544l1.944,0a0.04379,0.04379 0 0 0 0.03085,-0.07714a0.04237,0.04237 0 0 0 -0.03085,-0.01544l-1.944,0a0.04379,0.04379 0 0 0 -0.03085,0.07714m-3.62562,1.32684a0.04245,0.04245 0 0 0 0.03085,0.01542l1.944,0a0.04644,0.04644 0 0 0 0,-0.09256l-1.944,0a0.04379,0.04379 0 0 0 -0.03085,0.07714m13.9162,-10.61459a0.0424,0.0424 0 0 0 -0.03085,-0.01542l-1.95937,0a0.04644,0.04644 0 0 0 0,0.09257l1.95937,0a0.04379,0.04379 0 0 0 0.03085,-0.07715m-0.57084,1.32682a0.04241,0.04241 0 0 0 -0.03084,-0.01542l-1.944,0a0.04644,0.04644 0 0 0 0,0.09256l1.944,0a0.04379,0.04379 0 0 0 0.03084,-0.07714m-0.9874,-2.65363a0.04379,0.04379 0 0 0 -0.03085,0.07714a0.04262,0.04262 0 0 0 0.03085,0.01542l1.9439,0a0.04379,0.04379 0 0 0 0.03087,-0.07714a0.04233,0.04233 0 0 0 -0.03087,-0.01542l-1.94394,0m2.28337,-1.3114a0.04246,0.04246 0 0 0 -0.03086,-0.01542l-1.944,0a0.04644,0.04644 0 0 0 0,0.09256l1.944,0a0.04379,0.04379 0 0 0 0.03086,-0.07714m-4.01132,5.33814a0.04252,0.04252 0 0 0 0.03085,0.01543l1.95939,0a0.04645,0.04645 0 0 0 0,-0.09257l-1.95935,0a0.04379,0.04379 0 0 0 -0.03085,0.07714m2.28336,-7.89921a0.04252,0.04252 0 0 0 0.03087,0.01543l1.94394,0a0.04645,0.04645 0 0 0 0,-0.09257l-1.94394,0a0.04379,0.04379 0 0 0 -0.03087,0.07714m-0.0617,1.23425a0.04644,0.04644 0 0 0 0,0.09257l1.94394,0a0.04645,0.04645 0 0 0 0,-0.09257l-1.94394,0m0.108,-2.63823a0.04646,0.04646 0 0 0 0,0.09259l1.94394,0a0.04646,0.04646 0 0 0 0,-0.09259l-1.94394,0m1.404,-3.93418a0.0424,0.0424 0 0 0 -0.03085,-0.01542l-1.94394,0a0.04644,0.04644 0 0 0 0,0.09256l1.94394,0a0.04379,0.04379 0 0 0 0.03085,-0.07714m0.29314,1.3114a0.04244,0.04244 0 0 0 -0.03085,-0.01543l-1.944,0a0.04645,0.04645 0 0 0 0,0.09257l1.944,0a0.04379,0.04379 0 0 0 0.03085,-0.07714m0.18513,1.32683a0.04238,0.04238 0 0 0 -0.03085,-0.01544l-1.944,0a0.04379,0.04379 0 0 0 -0.03086,0.07714a0.04268,0.04268 0 0 0 0.03086,0.01544l1.944,0a0.04378,0.04378 0 0 0 0.03085,-0.07714m-3.425,-5.29186a0.04644,0.04644 0 0 0 0,0.09256l1.944,0a0.04644,0.04644 0 0 0 0,-0.09256l-1.944,0m0.52456,1.38853a0.04261,0.04261 0 0 0 0.03085,0.01543l1.944,0a0.04644,0.04644 0 0 0 0,-0.09257l-1.944,0a0.04379,0.04379 0 0 0 -0.03085,0.07714m-1.24967,-2.63821a0.04258,0.04258 0 0 0 0.03085,0.01542l1.94394,0a0.04379,0.04379 0 0 0 0.03087,-0.07714a0.0423,0.0423 0 0 0 -0.03087,-0.01542l-1.94394,0a0.04378,0.04378 0 0 0 -0.03085,0.07714m-0.864,-1.31139a0.04265,0.04265 0 0 0 0.03086,0.01542l1.944,0a0.04645,0.04645 0 0 0 0,-0.09257l-1.944,0a0.04379,0.04379 0 0 0 -0.03086,0.07715m-1.03368,-1.38854a0.04645,0.04645 0 0 0 0,0.09257l1.94394,0a0.04644,0.04644 0 0 0 0,-0.09257l-1.94394,0m0.69426,-1.28054a0.05453,0.05453 0 0 0 -0.04629,-0.04628l-1.94406,0a0.04645,0.04645 0 0 0 0,0.09257l1.94394,0a0.05453,0.05453 0 0 0 0.04629,-0.04629m-3.5639,-1.35767a0.04644,0.04644 0 0 0 0,0.09256l1.944,0a0.04644,0.04644 0 0 0 0,-0.09256l-1.944,0m-2.14452,-1.2497a0.0426,0.0426 0 0 0 0.03085,0.01545l1.944,0a0.04646,0.04646 0 0 0 0,-0.09259l-1.944,0a0.04379,0.04379 0 0 0 -0.03085,0.07714m-3.40962,-1.31139a0.04266,0.04266 0 0 0 0.03085,0.01544l1.944,0a0.04379,0.04379 0 0 0 0.03086,-0.07714a0.04234,0.04234 0 0 0 -0.03086,-0.01544l-1.944,0a0.04379,0.04379 0 0 0 -0.03085,0.07714z" class="cls-3"/>
   </g>
   <g id="Layer0_2_MEMBER_2_FILL">
    <path id="svg_24" d="m171.41754,404.20409a16.98463,16.98463 0 1 0 4.96786,12.00312a16.35368,16.35368 0 0 0 -4.96786,-12.00312z" class="cls-4"/>
   </g>
   <g id="Layer0_2_MEMBER_3_FILL">
    <path id="svg_25" d="m168.9445,406.675a13.499,13.499 0 1 0 3.94834,9.53981a12.99756,12.99756 0 0 0 -3.94834,-9.53981z" class="cls-5"/>
   </g>
   <g id="Layer0_2_MEMBER_4_FILL">
    <path id="svg_26" d="m155.87727,410.78532a3.2522,3.2522 0 0 0 -0.93431,2.40251a3.56354,3.56354 0 0 0 0.27584,1.46819a3.19285,3.19285 0 0 0 0.76524,1.07668a5.059,5.059 0 0 0 1.17456,0.80974a16.65341,16.65341 0 0 0 1.62836,0.70295a3.5845,3.5845 0 0 1 1.35252,0.783a1.60962,1.60962 0 0 1 0.38263,1.13006a1.42982,1.42982 0 0 1 -0.436,1.09448a1.74216,1.74216 0 0 1 -1.21014,0.40042a1.76393,1.76393 0 0 1 -1.40592,-0.55168a2.28461,2.28461 0 0 1 -0.49829,-1.58388l-2.50928,0a4.08267,4.08267 0 0 0 0.9788,2.85631a4.21358,4.21358 0 0 0 2.75843,1.26354l0,1.71736l1.37921,0l0,-1.72625a4.05321,4.05321 0 0 0 2.536,-1.08557a3.25019,3.25019 0 0 0 0.92541,-2.4025a3.51259,3.51259 0 0 0 -0.24915,-1.37922a3.036,3.036 0 0 0 -0.703,-1.05888a4.54981,4.54981 0 0 0 -1.13006,-0.83643a15.33256,15.33256 0 0 0 -1.69955,-0.79193a4.21846,4.21846 0 0 1 -1.4237,-0.81863a1.46882,1.46882 0 0 1 -0.38263,-1.05889a1.52324,1.52324 0 0 1 0.39152,-1.11227a1.45465,1.45465 0 0 1 1.10338,-0.40931a1.42856,1.42856 0 0 1 1.15676,0.525a2.41719,2.41719 0 0 1 0.41821,1.55718l2.51818,0a4.19845,4.19845 0 0 0 -0.872,-2.75843a3.64877,3.64877 0 0 0 -2.40251,-1.29023l0,-1.87751l-1.397,0l0,1.85971a3.90973,3.90973 0 0 0 -2.49151,1.09448z" class="cls-6"/>
   </g>
   <g id="Layer0_3_FILL">
    <path id="svg_27" d="m322.72169,292.95765l-4.08225,-3.90283q-8.03,5.42806 -22.34032,11.5739a185.98565,185.98565 0 0 1 -28.217,9.64491l6.415,17.944a401.5041,401.5041 0 0 0 48.22457,-35.25998z" class="cls-7"/>
   </g>
   <g id="Layer0_4_MEMBER_0_FILL">
    <path id="svg_28" d="m354.27745,561.22242l0,-10.15956l-198.37241,0l0,10.15956l198.37241,0z" class="cls-4"/>
   </g>
   <g id="Layer0_4_MEMBER_1_FILL">
    <path id="svg_29" d="m184.17991,553.56542l-6.31228,0l-61.74164,207.59809l6.31241,0l9.56186,-32.04733l58.19323,0l-9.52456,32.04733l6.31232,0l61.74159,-207.59809l-6.31232,0l-12.58734,42.35625l-58.23062,0l12.58735,-42.35625m-14.567,49.00479l58.19323,0l-10.6451,35.85718l-58.23051,0l10.6824,-35.85718m45.56849,42.50571l-10.6451,35.85718l-58.23052,0l10.68249,-35.85718l58.19313,0m-23.0083,77.39173l-58.23061,0l10.38365,-34.88606l58.19323,0l-10.34627,34.88606z" class="cls-4"/>
   </g>
   <g id="Layer0_4_MEMBER_2_FILL">
    <path id="svg_30" d="m334.70831,553.56542l-6.31241,0l12.58744,42.35625l-58.23062,0l-12.58735,-42.35625l-6.31232,0l61.74151,207.59809l6.31241,0l-9.52456,-32.04733l58.19322,0l9.56186,32.04733l6.31241,0l-61.7416,-207.59809m-49.93857,49.00479l58.19314,0l10.68249,35.85718l-58.23052,0l-10.6451,-35.85718m70.81789,42.50571l10.68249,35.85718l-58.23064,0l-10.6451,-35.85718l58.19325,0m12.66212,42.50567l10.38357,34.88606l-58.23055,0l-10.34627,-34.88606l58.19325,0z" class="cls-4"/>
   </g>
   <path d="m45.85952,580.77642l-44.85952,0q7.699,88.328 61.009,111.96937a96.09892,96.09892 0 0 0 19.73818,6.23546a135.64394,135.64394 0 0 0 35.88762,2.04111a208.5228,208.5228 0 0 0 26.91571,-3.61122m-10.09338,2.243l35.88762,53.83142m-88.59762,-54.50431l0,52.26132m35.88762,-50.22021l26.91571,68.164m-82.54151,-76.44059l-34.09324,76.44061" class="cls-8" id="Layer0_5_1_STROKES"/>
   <path d="m239.81522,781.00806l537.01731,0" class="cls-9" id="Layer0_6_1_STROKES"/>
   <g id="Layer0_7_STROKES_1_FILL">
    <path id="svg_31" d="m494.27763,348.421a1.02527,1.02527 0 1 0 0.7,0.3a0.9595,0.9595 0 0 0 -0.7,-0.3m0.1,-3.85a1.0253,1.0253 0 1 0 -0.3,0.7a0.95934,0.95934 0 0 0 0.3,-0.7m-2.25,-5.65a0.96659,0.96659 0 1 0 0.7,-0.3a0.95927,0.95927 0 0 0 -0.7,0.3m-0.25,-5a0.96659,0.96659 0 1 0 0.7,-0.3a0.95927,0.95927 0 0 0 -0.7,0.3m0.05,-4.95a0.96671,0.96671 0 1 0 0.7,-0.3a0.95933,0.95933 0 0 0 -0.7,0.3m1.05,-5.3a1.02527,1.02527 0 1 0 0.7,0.3a0.95971,0.95971 0 0 0 -0.7,-0.3m1.6,-4a1.02542,1.02542 0 1 0 -0.3,0.7a0.95938,0.95938 0 0 0 0.3,-0.7m0.65,-5.6a0.96669,0.96669 0 1 0 0.3,0.7a0.95919,0.95919 0 0 0 -0.3,-0.7m1,40.85a0.96665,0.96665 0 1 0 -0.7,0.3a0.95933,0.95933 0 0 0 0.7,-0.3m0.55,-44.95a1.02527,1.02527 0 1 0 -0.3,0.7a0.95933,0.95933 0 0 0 0.3,-0.7m-0.2,-5.45a0.96665,0.96665 0 1 0 0.7,-0.3a0.95938,0.95938 0 0 0 -0.7,0.3m3.2,-3.2a0.96665,0.96665 0 1 0 -0.7,0.3a0.95943,0.95943 0 0 0 0.7,-0.3m0.7,-5.95a0.96671,0.96671 0 1 0 0.7,-0.3a0.95961,0.95961 0 0 0 -0.7,0.3m2.35,-4.45a0.96659,0.96659 0 1 0 0.7,-0.3a0.95932,0.95932 0 0 0 -0.7,0.3m45.05,-37.75a0.96659,0.96659 0 1 0 0.7,-0.3a0.95927,0.95927 0 0 0 -0.7,0.3m4.7,-1.65a0.96665,0.96665 0 1 0 0.7,-0.3a0.95938,0.95938 0 0 0 -0.7,0.3m-13.9,5.8a0.96667,0.96667 0 1 0 0.7,-0.3a0.95934,0.95934 0 0 0 -0.7,0.3m5.95,-2.2a0.96669,0.96669 0 1 0 0.3,0.7a0.95938,0.95938 0 0 0 -0.3,-0.7m12.75,-5.05a0.96661,0.96661 0 1 0 0.7,-0.3a0.95934,0.95934 0 0 0 -0.7,0.3m6.35,-1.2a0.96669,0.96669 0 1 0 0.3,0.7a0.95928,0.95928 0 0 0 -0.3,-0.7m10.05,-1.45a0.96657,0.96657 0 1 0 0.3,0.7a0.9593,0.9593 0 0 0 -0.3,-0.7m-5,0.55a0.96657,0.96657 0 1 0 0.3,0.7a0.9595,0.9595 0 0 0 -0.3,-0.7m-49.25,23.7a0.96657,0.96657 0 1 0 0.3,0.7a0.9593,0.9593 0 0 0 -0.3,-0.7m3.05,-3.6a1.02536,1.02536 0 1 0 0.7,0.3a0.95928,0.95928 0 0 0 -0.7,-0.3m4.9,-2.1a1.02527,1.02527 0 1 0 -0.3,0.7a0.95933,0.95933 0 0 0 0.3,-0.7m4.2,-2.9a1.0253,1.0253 0 1 0 -0.3,0.7a0.95961,0.95961 0 0 0 0.3,-0.7m-24.85,23.7a0.96671,0.96671 0 1 0 0.3,0.7a0.95955,0.95955 0 0 0 -0.3,-0.7m3.05,-3.3a1.02527,1.02527 0 1 0 -0.3,0.7a0.95929,0.95929 0 0 0 0.3,-0.7m3.1,-3.9a1.0253,1.0253 0 1 0 -0.3,0.7a0.95938,0.95938 0 0 0 0.3,-0.7m1.6,-4.4a0.96659,0.96659 0 1 0 0.7,-0.3a0.95932,0.95932 0 0 0 -0.7,0.3m19.6,-15.4a0.96671,0.96671 0 1 0 0.7,-0.3a0.95933,0.95933 0 0 0 -0.7,0.3m139.1,-8.1a1.02542,1.02542 0 1 0 -0.7,-0.3a0.9591,0.9591 0 0 0 0.7,0.3m-5.9,0a1.02527,1.02527 0 1 0 0.3,-0.7a0.95931,0.95931 0 0 0 -0.3,0.7m-3.3,1.4a0.96671,0.96671 0 1 0 -0.7,0.3a0.95934,0.95934 0 0 0 0.7,-0.3m24,-8a0.96669,0.96669 0 1 0 0.3,0.7a0.95938,0.95938 0 0 0 -0.3,-0.7m-9.05,4.35a1.02532,1.02532 0 1 0 -0.3,0.7a0.9596,0.9596 0 0 0 0.3,-0.7m2.95,-0.9a0.96669,0.96669 0 1 0 -0.3,-0.7a0.9594,0.9594 0 0 0 0.3,0.7m9.1,-5.8a0.96665,0.96665 0 1 0 0.7,-0.3a0.95911,0.95911 0 0 0 -0.7,0.3m4.15,-2.7a0.96671,0.96671 0 1 0 0.7,-0.3a0.95956,0.95956 0 0 0 -0.7,0.3m15.1,-14.6a0.96668,0.96668 0 1 0 0.3,0.7a0.95951,0.95951 0 0 0 -0.3,-0.7m-10.45,11.1a1.0253,1.0253 0 1 0 0.7,0.3a0.95928,0.95928 0 0 0 -0.7,-0.3m2.65,-2.5a1.0254,1.0254 0 1 0 0.3,-0.7a0.95911,0.95911 0 0 0 -0.3,0.7m3.6,-4.6a0.96659,0.96659 0 1 0 0.7,-0.3a0.95954,0.95954 0 0 0 -0.7,0.3m5.2,-8.35a0.96661,0.96661 0 1 0 0.7,-0.3a0.95912,0.95912 0 0 0 -0.7,0.3m3.25,-4.65a0.96668,0.96668 0 1 0 0.3,0.7a0.95951,0.95951 0 0 0 -0.3,-0.7m-0.15,-4.85a0.96667,0.96667 0 1 0 0.7,-0.3a0.95934,0.95934 0 0 0 -0.7,0.3m1.95,-3.6a0.96671,0.96671 0 1 0 -0.7,0.3a0.95951,0.95951 0 0 0 0.7,-0.3m-3.65,-1.55a0.96668,0.96668 0 1 0 0.3,0.7a0.95922,0.95922 0 0 0 -0.3,-0.7m3.6,-2.1a0.96671,0.96671 0 1 0 -0.7,0.3a0.95934,0.95934 0 0 0 0.7,-0.3m-8.6,5.6a0.96665,0.96665 0 1 0 0.7,-0.3a0.9595,0.9595 0 0 0 -0.7,0.3m14.35,0.15a0.96661,0.96661 0 1 0 0.7,-0.3a0.95912,0.95912 0 0 0 -0.7,0.3m-2.2,-3.6a0.96668,0.96668 0 1 0 0.3,0.7a0.9595,0.9595 0 0 0 -0.3,-0.7m-91.95,44.45a0.96665,0.96665 0 1 0 0.7,-0.3a0.95927,0.95927 0 0 0 -0.7,0.3m5,0.55a0.96671,0.96671 0 1 0 0.7,-0.3a0.95933,0.95933 0 0 0 -0.7,0.3m-8.5,0.2a0.96671,0.96671 0 1 0 -0.7,0.3a0.95933,0.95933 0 0 0 0.7,-0.3m-5.75,-2.3a1.02532,1.02532 0 1 0 0.7,0.3a0.95941,0.95941 0 0 0 -0.7,-0.3m30.9,3.65a1.02536,1.02536 0 1 0 -0.3,0.7a0.95912,0.95912 0 0 0 0.3,-0.7m4.95,0a1.02527,1.02527 0 1 0 -0.3,0.7a0.95961,0.95961 0 0 0 0.3,-0.7m3.15,-0.9a0.96671,0.96671 0 1 0 0.7,-0.3a0.95938,0.95938 0 0 0 -0.7,0.3m-18.4,-0.25a0.96658,0.96658 0 1 0 0.3,0.7a0.95927,0.95927 0 0 0 -0.3,-0.7m5.3,1a1.02536,1.02536 0 1 0 -0.3,0.7a0.959,0.959 0 0 0 0.3,-0.7m-60.7,-5.95a0.96668,0.96668 0 1 0 0.3,0.7a0.95941,0.95941 0 0 0 -0.3,-0.7m-5.05,0.1a0.96671,0.96671 0 1 0 0.3,0.7a0.95955,0.95955 0 0 0 -0.3,-0.7m15.15,0.1a0.96669,0.96669 0 1 0 0.3,0.7a0.95928,0.95928 0 0 0 -0.3,-0.7m-6.45,-0.2a0.96665,0.96665 0 1 0 0.7,-0.3a0.95923,0.95923 0 0 0 -0.7,0.3m16.55,1a0.96668,0.96668 0 1 0 0.3,0.7a0.95951,0.95951 0 0 0 -0.3,-0.7m-6.55,-0.45a0.96671,0.96671 0 1 0 0.7,-0.3a0.95929,0.95929 0 0 0 -0.7,0.3m16.8,1.55a0.96671,0.96671 0 1 0 0.3,0.7a0.95955,0.95955 0 0 0 -0.3,-0.7m-5.1,-0.55a0.96668,0.96668 0 1 0 0.3,0.7a0.95951,0.95951 0 0 0 -0.3,-0.7z" class="cls-10"/>
   </g>
   <g id="Layer0_8_MEMBER_0_FILL">
    <path id="svg_32" d="m301.96044,495.80664a828.09,828.09 0 0 0 -71.23782,59.6639q-34.58706,36.38152 -22.56459,89.67531l34.09366,135.88115l10.13837,0q3.0504,-68.14249 19.64868,-99.58937a81.25217,81.25217 0 0 1 21.57774,-26.3329q12.42616,-9.73455 31.088,-16.10472q19.49187,-92.20927 -22.74404,-143.19337z" class="cls-11"/>
   </g>
   <g id="Layer0_8_MEMBER_1_FILL">
    <path id="svg_33" d="m548.19742,495.49264l-27.63386,0l-23.91044,143.50736l27.90306,0q54.99833,19.82808 64.37421,71.59667l7.80561,70.43032l11.17011,0l33.73487,-134.04189q13.09906,-59.26015 -23.46184,-91.91831l-69.98172,-59.57415z" class="cls-11"/>
   </g>
   <g id="Layer0_8_MEMBER_2_FILL">
    <path id="svg_34" d="m423.30695,1q-49.66014,84.02292 -79.31264,169.75053a798.44737,798.44737 0 0 0 -39.432,172.03839q-18.57205,163.201 31.35721,339.187l176.61411,0q53.11438,-173.96724 31.62638,-344.34592a803.4021,803.4021 0 0 0 -39.65638,-166.87946q-30.5047,-86.40054 -81.19668,-169.75054z" class="cls-5"/>
   </g>
   <g id="Layer0_8_MEMBER_3_FILL">
    <path id="svg_35" d="m500.51113,688.83957l3.858,-8.52341l-159.8365,0l3.27475,7.26731q4.88979,10.09351 19.51413,10.45242l117.6232,0q10.76649,-0.35889 15.56642,-9.19632z" class="cls-12"/>
   </g>
   <g id="Layer0_8_MEMBER_4_FILL">
    <path id="svg_36" d="m512.53363,681.976q5.65231,-18.34773 10.40752,-36.65066l-196.66652,0q4.486,18.258 9.64492,36.65066l176.61408,0z" class="cls-3"/>
   </g>
   <g id="Layer0_8_MEMBER_5_FILL">
    <path id="svg_37" d="m520.00147,637.12056a2.9888,2.9888 0 0 0 -0.94267,-2.1757a2.86523,2.86523 0 0 0 -2.10328,-0.87034a2.97437,2.97437 0 0 0 -3.046,3.046a2.866,2.866 0 0 0 0.87024,2.1032a2.98889,2.98889 0 0 0 2.17571,0.94275a3.23678,3.23678 0 0 0 3.04595,-3.046l0.00005,0.00009z" class="cls-3"/>
   </g>
   <g id="Layer0_8_MEMBER_6_FILL">
    <path id="svg_38" d="m496.95142,637.12056a2.98882,2.98882 0 0 0 -0.94266,-2.1757a2.86527,2.86527 0 0 0 -2.10329,-0.87034a2.97437,2.97437 0 0 0 -3.04595,3.046a2.866,2.866 0 0 0 0.87024,2.1032a2.98889,2.98889 0 0 0 2.17571,0.94275a3.23676,3.23676 0 0 0 3.046,-3.046l-0.00005,0.00009z" class="cls-3"/>
   </g>
   <g id="Layer0_8_MEMBER_7_FILL">
    <path id="svg_39" d="m473.85144,637.12056a2.98882,2.98882 0 0 0 -0.94266,-2.1757a2.86526,2.86526 0 0 0 -2.10329,-0.87034a2.97439,2.97439 0 0 0 -3.046,3.046a2.866,2.866 0 0 0 0.87025,2.1032a2.98887,2.98887 0 0 0 2.1757,0.94275a3.23676,3.23676 0 0 0 3.04595,-3.046l0.00005,0.00009z" class="cls-3"/>
   </g>
   <g id="Layer0_8_MEMBER_8_FILL">
    <path id="svg_40" d="m450.75147,637.12056a2.9888,2.9888 0 0 0 -0.94267,-2.1757a2.86523,2.86523 0 0 0 -2.10328,-0.87034a2.97437,2.97437 0 0 0 -3.046,3.046a2.866,2.866 0 0 0 0.87024,2.1032a2.98889,2.98889 0 0 0 2.17571,0.94275a3.23678,3.23678 0 0 0 3.04595,-3.046l0.00005,0.00009z" class="cls-3"/>
   </g>
   <g id="Layer0_8_MEMBER_9_FILL">
    <path id="svg_41" d="m404.15149,637.12056a2.98882,2.98882 0 0 0 -0.94266,-2.1757a2.86526,2.86526 0 0 0 -2.10329,-0.87034a2.97439,2.97439 0 0 0 -3.04595,3.046a2.866,2.866 0 0 0 0.87025,2.1032a2.98887,2.98887 0 0 0 2.1757,0.94275a3.23676,3.23676 0 0 0 3.046,-3.046l-0.00005,0.00009z" class="cls-3"/>
   </g>
   <g id="Layer0_8_MEMBER_10_FILL">
    <path id="svg_42" d="m381.05152,637.12056a2.9888,2.9888 0 0 0 -0.94267,-2.1757a2.86525,2.86525 0 0 0 -2.10328,-0.87034a2.97439,2.97439 0 0 0 -3.046,3.046a2.866,2.866 0 0 0 0.87025,2.1032a2.98889,2.98889 0 0 0 2.17571,0.94275a3.23678,3.23678 0 0 0 3.046,-3.046l-0.00001,0.00009z" class="cls-3"/>
   </g>
   <g id="Layer0_8_MEMBER_11_FILL">
    <path id="svg_43" d="m357.95142,637.12056a2.98882,2.98882 0 0 0 -0.94266,-2.1757a2.86527,2.86527 0 0 0 -2.10329,-0.87034a2.97437,2.97437 0 0 0 -3.046,3.046a2.866,2.866 0 0 0 0.87024,2.1032a2.98889,2.98889 0 0 0 2.17571,0.94275a3.23676,3.23676 0 0 0 3.046,-3.046l0,0.00009z" class="cls-3"/>
   </g>
   <g id="Layer0_8_MEMBER_12_FILL">
    <path id="svg_44" d="m334.85144,637.12056a2.98882,2.98882 0 0 0 -0.94266,-2.1757a2.86526,2.86526 0 0 0 -2.10329,-0.87034a2.97439,2.97439 0 0 0 -3.04595,3.046a2.866,2.866 0 0 0 0.87025,2.1032a2.98887,2.98887 0 0 0 2.1757,0.94275a3.23676,3.23676 0 0 0 3.046,-3.046l-0.00005,0.00009z" class="cls-3"/>
   </g>
   <g id="Layer0_8_MEMBER_13_FILL">
    <path id="svg_45" d="m497.40149,173.77056a2.98884,2.98884 0 0 0 -0.94266,-2.17571a2.86529,2.86529 0 0 0 -2.10329,-0.87033a2.97437,2.97437 0 0 0 -3.04595,3.046a2.866,2.866 0 0 0 0.87025,2.10319a2.98884,2.98884 0 0 0 2.1757,0.94276a3.23678,3.23678 0 0 0 3.046,-3.046l-0.00005,0.00009z" class="cls-3"/>
   </g>
   <g id="Layer0_8_MEMBER_14_FILL">
    <path id="svg_46" d="m474.75147,171.82054a2.98881,2.98881 0 0 0 -0.94267,-2.1757a2.86523,2.86523 0 0 0 -2.10328,-0.87034a2.97437,2.97437 0 0 0 -3.046,3.046a2.866,2.866 0 0 0 0.87024,2.1032a2.98889,2.98889 0 0 0 2.17571,0.94275a3.23678,3.23678 0 0 0 3.04595,-3.046l0.00005,0.00009z" class="cls-3"/>
   </g>
   <g id="Layer0_8_MEMBER_15_FILL">
    <path id="svg_47" d="m451.60144,169.47057a2.98884,2.98884 0 0 0 -0.94266,-2.17571a2.86529,2.86529 0 0 0 -2.10329,-0.87033a2.97437,2.97437 0 0 0 -3.046,3.046a2.866,2.866 0 0 0 0.87025,2.1032a2.98887,2.98887 0 0 0 2.1757,0.94275a3.23676,3.23676 0 0 0 3.04595,-3.04595l0.00005,0.00004z" class="cls-3"/>
   </g>
   <g id="Layer0_8_MEMBER_16_FILL">
    <path id="svg_48" d="m428.20142,169.17058a2.98886,2.98886 0 0 0 -0.94266,-2.17571a2.8653,2.8653 0 0 0 -2.10329,-0.87033a2.97436,2.97436 0 0 0 -3.046,3.046a2.866,2.866 0 0 0 0.87024,2.1032a2.98889,2.98889 0 0 0 2.17571,0.94275a3.23676,3.23676 0 0 0 3.046,-3.046l0,0.00009z" class="cls-3"/>
   </g>
   <g id="Layer0_8_MEMBER_17_FILL">
    <path id="svg_49" d="m405.30152,169.67058a2.98883,2.98883 0 0 0 -0.94267,-2.17571a2.86528,2.86528 0 0 0 -2.10328,-0.87033a2.97437,2.97437 0 0 0 -3.046,3.046a2.866,2.866 0 0 0 0.87025,2.1032a2.98889,2.98889 0 0 0 2.17571,0.94275a3.23678,3.23678 0 0 0 3.046,-3.046l-0.00001,0.00009z" class="cls-3"/>
   </g>
   <g id="Layer0_8_MEMBER_18_FILL">
    <path id="svg_50" d="m382.60144,171.12059a2.98882,2.98882 0 0 0 -0.94266,-2.1757a2.86526,2.86526 0 0 0 -2.10329,-0.87034a2.97439,2.97439 0 0 0 -3.04595,3.046a2.866,2.866 0 0 0 0.87025,2.1032a2.98887,2.98887 0 0 0 2.1757,0.94275a3.23676,3.23676 0 0 0 3.046,-3.046l-0.00005,0.00009z" class="cls-3"/>
   </g>
   <g id="Layer0_8_MEMBER_19_FILL">
    <path id="svg_51" d="m358.75147,173.77056a2.98882,2.98882 0 0 0 -0.94267,-2.17571a2.86526,2.86526 0 0 0 -2.10328,-0.87033a2.97436,2.97436 0 0 0 -3.046,3.046a2.866,2.866 0 0 0 0.87024,2.10319a2.98886,2.98886 0 0 0 2.17571,0.94276a3.2368,3.2368 0 0 0 3.046,-3.046l0,0.00009z" class="cls-3"/>
   </g>
   <g id="Layer0_8_MEMBER_20_FILL">
    <path id="svg_52" d="m423.30695,1q-48.22455,81.60048 -77.60793,164.81592q76.89012,-15.2076 157.05512,0q-30.23563,-83.84348 -79.44719,-164.81592z" class="cls-3"/>
   </g>
   <g id="Layer0_8_MEMBER_21_FILL">
    <path id="svg_53" d="m427.25147,268.87059a2.9888,2.9888 0 0 0 -0.94267,-2.1757a2.86523,2.86523 0 0 0 -2.10328,-0.87034a2.97437,2.97437 0 0 0 -3.046,3.046a2.866,2.866 0 0 0 0.87024,2.1032a2.98889,2.98889 0 0 0 2.17571,0.94275a3.23678,3.23678 0 0 0 3.046,-3.046l0,0.00009z" class="cls-3"/>
   </g>
   <g id="Layer0_8_MEMBER_22_FILL">
    <path id="svg_54" d="m448.25147,271.72057a2.98882,2.98882 0 0 0 -0.94267,-2.17571a2.86526,2.86526 0 0 0 -2.10328,-0.87033a2.97436,2.97436 0 0 0 -3.046,3.046a2.86606,2.86606 0 0 0 0.87024,2.1032a2.98889,2.98889 0 0 0 2.17571,0.94275a3.23678,3.23678 0 0 0 3.046,-3.04595l0,0.00004z" class="cls-3"/>
   </g>
   <g id="Layer0_8_MEMBER_23_FILL">
    <path id="svg_55" d="m467.40149,280.37059a2.98882,2.98882 0 0 0 -0.94266,-2.1757a2.86526,2.86526 0 0 0 -2.10329,-0.87034a2.97439,2.97439 0 0 0 -3.04595,3.046a2.866,2.866 0 0 0 0.87025,2.1032a2.98887,2.98887 0 0 0 2.1757,0.94275a3.23676,3.23676 0 0 0 3.046,-3.046l-0.00005,0.00009z" class="cls-3"/>
   </g>
   <g id="Layer0_8_MEMBER_24_FILL">
    <path id="svg_56" d="m483.15149,292.77056a2.98884,2.98884 0 0 0 -0.94266,-2.17571a2.86529,2.86529 0 0 0 -2.10329,-0.87033a2.97437,2.97437 0 0 0 -3.04595,3.046a2.866,2.866 0 0 0 0.87025,2.10319a2.98884,2.98884 0 0 0 2.1757,0.94276a3.23678,3.23678 0 0 0 3.046,-3.046l-0.00005,0.00009z" class="cls-3"/>
   </g>
   <g id="Layer0_8_MEMBER_25_FILL">
    <path id="svg_57" d="m495.00147,309.92058a2.98883,2.98883 0 0 0 -0.94267,-2.17571a2.86526,2.86526 0 0 0 -2.10328,-0.87033a2.97436,2.97436 0 0 0 -3.046,3.046a2.866,2.866 0 0 0 0.87024,2.1032a2.98889,2.98889 0 0 0 2.17571,0.94275a3.23678,3.23678 0 0 0 3.04595,-3.046l0.00005,0.00009z" class="cls-3"/>
   </g>
   <g id="Layer0_8_MEMBER_26_FILL">
    <path id="svg_58" d="m502.20142,329.02056a2.98884,2.98884 0 0 0 -0.94266,-2.17571a2.8653,2.8653 0 0 0 -2.10329,-0.87033a2.97436,2.97436 0 0 0 -3.04595,3.046a2.866,2.866 0 0 0 0.87024,2.10319a2.98886,2.98886 0 0 0 2.17571,0.94276a3.23678,3.23678 0 0 0 3.046,-3.046l-0.00005,0.00009z" class="cls-3"/>
   </g>
   <g id="Layer0_8_MEMBER_27_FILL">
    <path id="svg_59" d="m503.15149,350.52056a2.98884,2.98884 0 0 0 -0.94266,-2.17571a2.86529,2.86529 0 0 0 -2.10329,-0.87033a2.97437,2.97437 0 0 0 -3.04595,3.046a2.866,2.866 0 0 0 0.87025,2.10319a2.98884,2.98884 0 0 0 2.1757,0.94276a3.23678,3.23678 0 0 0 3.046,-3.046l-0.00005,0.00009z" class="cls-3"/>
   </g>
   <g id="Layer0_8_MEMBER_28_FILL">
    <path id="svg_60" d="m498.80152,371.47057a2.98882,2.98882 0 0 0 -0.94267,-2.17571a2.86528,2.86528 0 0 0 -2.10328,-0.87033a2.97437,2.97437 0 0 0 -3.046,3.046a2.866,2.866 0 0 0 0.87025,2.1032a2.98889,2.98889 0 0 0 2.17571,0.94275a3.23678,3.23678 0 0 0 3.046,-3.046l-0.00001,0.00009z" class="cls-3"/>
   </g>
   <g id="Layer0_8_MEMBER_29_FILL">
    <path id="svg_61" d="m488.85144,389.62059a2.98882,2.98882 0 0 0 -0.94266,-2.1757a2.86526,2.86526 0 0 0 -2.10329,-0.87034a2.97439,2.97439 0 0 0 -3.046,3.046a2.866,2.866 0 0 0 0.87025,2.1032a2.98887,2.98887 0 0 0 2.1757,0.94275a3.23676,3.23676 0 0 0 3.04595,-3.04595l0.00005,0.00004z" class="cls-3"/>
   </g>
   <g id="Layer0_8_MEMBER_30_FILL">
    <path id="svg_62" d="m475.50147,404.42058a2.98883,2.98883 0 0 0 -0.94267,-2.17571a2.86526,2.86526 0 0 0 -2.10328,-0.87033a2.97436,2.97436 0 0 0 -3.046,3.046a2.866,2.866 0 0 0 0.87024,2.1032a2.98889,2.98889 0 0 0 2.17571,0.94275a3.23678,3.23678 0 0 0 3.04595,-3.046l0.00005,0.00009z" class="cls-3"/>
   </g>
   <g id="Layer0_8_MEMBER_31_FILL">
    <path id="svg_63" d="m458.25147,415.42058a2.98883,2.98883 0 0 0 -0.94267,-2.17571a2.86526,2.86526 0 0 0 -2.10328,-0.87033a2.97436,2.97436 0 0 0 -3.046,3.046a2.866,2.866 0 0 0 0.87024,2.1032a2.98889,2.98889 0 0 0 2.17571,0.94275a3.23678,3.23678 0 0 0 3.04595,-3.046l0.00005,0.00009z" class="cls-3"/>
   </g>
   <g id="Layer0_8_MEMBER_32_FILL">
    <path id="svg_64" d="m438.20142,421.17058a2.98886,2.98886 0 0 0 -0.94266,-2.17571a2.8653,2.8653 0 0 0 -2.10329,-0.87033a2.97436,2.97436 0 0 0 -3.046,3.046a2.866,2.866 0 0 0 0.87024,2.1032a2.98889,2.98889 0 0 0 2.17571,0.94275a3.23676,3.23676 0 0 0 3.046,-3.046l0,0.00009z" class="cls-3"/>
   </g>
   <g id="Layer0_8_MEMBER_33_FILL">
    <path id="svg_65" d="m416.75147,420.67058a2.98883,2.98883 0 0 0 -0.94267,-2.17571a2.86526,2.86526 0 0 0 -2.10328,-0.87033a2.97436,2.97436 0 0 0 -3.046,3.046a2.866,2.866 0 0 0 0.87024,2.1032a2.98889,2.98889 0 0 0 2.17571,0.94275a3.23678,3.23678 0 0 0 3.046,-3.046l0,0.00009z" class="cls-3"/>
   </g>
   <g id="Layer0_8_MEMBER_34_FILL">
    <path id="svg_66" d="m396.25147,414.92058a2.98883,2.98883 0 0 0 -0.94267,-2.17571a2.86526,2.86526 0 0 0 -2.10328,-0.87033a2.97436,2.97436 0 0 0 -3.046,3.046a2.866,2.866 0 0 0 0.87024,2.1032a2.98889,2.98889 0 0 0 2.17571,0.94275a3.23678,3.23678 0 0 0 3.046,-3.046l0,0.00009z" class="cls-3"/>
   </g>
   <g id="Layer0_8_MEMBER_35_FILL">
    <path id="svg_67" d="m378.55152,403.92058a2.98883,2.98883 0 0 0 -0.94267,-2.17571a2.86528,2.86528 0 0 0 -2.10328,-0.87033a2.97437,2.97437 0 0 0 -3.046,3.046a2.866,2.866 0 0 0 0.87025,2.1032a2.98889,2.98889 0 0 0 2.17571,0.94275a3.23678,3.23678 0 0 0 3.046,-3.046l-0.00001,0.00009z" class="cls-3"/>
   </g>
   <g id="Layer0_8_MEMBER_36_FILL">
    <path id="svg_68" d="m365.20142,389.12059a2.98882,2.98882 0 0 0 -0.94266,-2.1757a2.86527,2.86527 0 0 0 -2.10329,-0.87034a2.97437,2.97437 0 0 0 -3.046,3.046a2.866,2.866 0 0 0 0.87024,2.1032a2.98889,2.98889 0 0 0 2.17571,0.94275a3.23676,3.23676 0 0 0 3.046,-3.04595l0,0.00004z" class="cls-3"/>
   </g>
   <g id="Layer0_8_MEMBER_37_FILL">
    <path id="svg_69" d="m355.65149,371.47057a2.98884,2.98884 0 0 0 -0.94266,-2.17571a2.86529,2.86529 0 0 0 -2.10329,-0.87033a2.97437,2.97437 0 0 0 -3.04595,3.046a2.866,2.866 0 0 0 0.87025,2.1032a2.98887,2.98887 0 0 0 2.1757,0.94275a3.23676,3.23676 0 0 0 3.046,-3.046l-0.00005,0.00009z" class="cls-3"/>
   </g>
   <g id="Layer0_8_MEMBER_38_FILL">
    <path id="svg_70" d="m350.90149,350.52056a2.98884,2.98884 0 0 0 -0.94266,-2.17571a2.86529,2.86529 0 0 0 -2.10329,-0.87033a2.97437,2.97437 0 0 0 -3.04595,3.046a2.866,2.866 0 0 0 0.87025,2.10319a2.98884,2.98884 0 0 0 2.1757,0.94276a3.23678,3.23678 0 0 0 3.046,-3.046l-0.00005,0.00009z" class="cls-3"/>
   </g>
   <g id="Layer0_8_MEMBER_39_FILL">
    <path id="svg_71" d="m352.30152,329.47057a2.98882,2.98882 0 0 0 -0.94267,-2.17571a2.86528,2.86528 0 0 0 -2.10328,-0.87033a2.97437,2.97437 0 0 0 -3.046,3.046a2.866,2.866 0 0 0 0.87025,2.1032a2.98889,2.98889 0 0 0 2.17571,0.94275a3.23678,3.23678 0 0 0 3.046,-3.04595l-0.00001,0.00004z" class="cls-3"/>
   </g>
   <g id="Layer0_8_MEMBER_40_FILL">
    <path id="svg_72" d="m359.95142,310.42058a2.98886,2.98886 0 0 0 -0.94266,-2.17571a2.8653,2.8653 0 0 0 -2.10329,-0.87033a2.97436,2.97436 0 0 0 -3.046,3.046a2.866,2.866 0 0 0 0.87024,2.1032a2.98889,2.98889 0 0 0 2.17571,0.94275a3.23676,3.23676 0 0 0 3.046,-3.046l0,0.00009z" class="cls-3"/>
   </g>
   <g id="Layer0_8_MEMBER_41_FILL">
    <path id="svg_73" d="m371.40149,293.17058a2.98886,2.98886 0 0 0 -0.94266,-2.17571a2.86529,2.86529 0 0 0 -2.10329,-0.87033a2.97437,2.97437 0 0 0 -3.04595,3.046a2.866,2.866 0 0 0 0.87025,2.1032a2.98887,2.98887 0 0 0 2.1757,0.94275a3.23676,3.23676 0 0 0 3.046,-3.046l-0.00005,0.00009z" class="cls-3"/>
   </g>
   <g id="Layer0_8_MEMBER_42_FILL">
    <path id="svg_74" d="m387.15149,280.37059a2.98882,2.98882 0 0 0 -0.94266,-2.1757a2.86526,2.86526 0 0 0 -2.10329,-0.87034a2.97439,2.97439 0 0 0 -3.04595,3.046a2.866,2.866 0 0 0 0.87025,2.1032a2.98887,2.98887 0 0 0 2.1757,0.94275a3.23676,3.23676 0 0 0 3.046,-3.046l-0.00005,0.00009z" class="cls-3"/>
   </g>
   <g id="Layer0_8_MEMBER_43_FILL">
    <path id="svg_75" d="m406.30152,272.22057a2.98882,2.98882 0 0 0 -0.94267,-2.17571a2.86528,2.86528 0 0 0 -2.10328,-0.87033a2.97437,2.97437 0 0 0 -3.046,3.046a2.866,2.866 0 0 0 0.87025,2.1032a2.98889,2.98889 0 0 0 2.17571,0.94275a3.23678,3.23678 0 0 0 3.046,-3.04595l-0.00001,0.00004z" class="cls-3"/>
   </g>
   <g id="Layer0_8_MEMBER_44_FILL">
    <path id="svg_76" d="m433.35563,507.38056q-0.04485,-12.11221 -9.10662,-12.29167a7.273,7.273 0 0 0 -6.54956,3.22991q-2.28787,3.1851 -2.51215,9.42061l5.7869,273.28762l6.54962,0l5.83181,-273.64647z" class="cls-11"/>
   </g>
   <g id="Layer0_8_MEMBER_45_FILL">
    <path id="svg_77" d="m424.4733,279.76052q-27.27492,0 -46.60963,19.28984q-19.28988,19.37954 -19.28983,46.60964a63.45017,63.45017 0 0 0 19.28979,46.56471q19.33473,19.33475 46.60963,19.33474t46.56478,-19.33474q19.33465,-19.28981 19.33469,-46.56472q0,-27.23007 -19.33469,-46.60963a63.45039,63.45039 0 0 0 -46.56478,-19.28984m-39.65632,26.5123a55.82841,55.82841 0 0 1 95.28282,39.432a55.01288,55.01288 0 0 1 -3.67851,20.27676a50.18019,50.18019 0 0 1 -12.06737,18.6169q-1.59692,1.60644 -3.27481,3.05051a55.79493,55.79493 0 0 1 -76.26213,-81.37619l0,0.00002z" class="cls-3"/>
    <path id="svg_78" d="m427.92751,296.6279a51.56669,51.56669 0 0 0 0,103.13333a49.171,49.171 0 0 0 33.1516,-12.11222q1.34984,-1.20806 2.64676,-2.51216a54.62091,54.62091 0 0 0 12.69542,-19.15525a51.04225,51.04225 0 0 0 3.05045,-17.80946a51.61569,51.61569 0 0 0 -51.54423,-51.54424z" class="cls-4"/>
    <path id="svg_79" d="m424.29385,289.89889a55.82843,55.82843 0 1 0 36.78526,97.75011a51.54715,51.54715 0 0 1 -84.69579,-39.47687a51.54423,51.54423 0 0 1 103.08842,0a51.04225,51.04225 0 0 1 -3.05045,17.80946a55.01288,55.01288 0 0 0 3.67851,-20.27676a55.90439,55.90439 0 0 0 -55.806,-55.80595l0.00005,0.00001z" class="cls-13"/>
   </g>
   <g id="Layer0_9_MEMBER_0_FILL">
    <path id="svg_80" d="m518.28405,261.82475l0.2243,0.13458a9.3195,9.3195 0 0 1 2.55706,2.6916a5.14416,5.14416 0 0 1 -3.1402,0.35888a12.12175,12.12175 0 0 0 -1.52526,-0.13458a1.95562,1.95562 0 0 0 -1.1215,0.40375q-1.301,0.98692 0.0897,2.15328a1.98173,1.98173 0 0 1 1.5701,-0.35887a10.31168,10.31168 0 0 1 1.70471,0.58317a6.99908,6.99908 0 0 1 1.5701,0.8972a17.61594,17.61594 0 0 1 1.7944,1.25608a3.85194,3.85194 0 0 0 2.01871,0.71778a5.99149,5.99149 0 0 0 4.21685,-1.74956a3.74845,3.74845 0 0 0 0.71775,-0.98692a2.34782,2.34782 0 0 0 0.35891,-1.16636a16.67857,16.67857 0 0 0 -2.91591,-5.60751a9.93556,9.93556 0 0 0 -4.71031,-3.00563a7.63126,7.63126 0 0 0 -3.5888,-0.40375q-1.83365,0.46894 -1.929,1.57011a1.85335,1.85335 0 0 0 0.4486,1.21122a4.69529,4.69529 0 0 0 1.65979,1.43553z" class="cls-14"/>
   </g>
   <g id="Layer0_9_MEMBER_1_FILL">
    <path id="svg_81" d="m583.84029,516.36188l0,6.83168l7.8789,0l0,-6.83168l-7.8789,0z" class="cls-14"/>
   </g>
   <g id="Layer0_9_MEMBER_2_FILL">
    <path id="svg_82" d="m632.48763,516.36188l1.7658,6.83168l7.8789,0l-1.7658,-6.83168l-7.8789,0z" class="cls-14"/>
   </g>
   <g id="Layer0_9_MEMBER_3_FILL">
    <path id="svg_83" d="m565.47689,314.13159l20.32158,-12.87482l0,-24.76277l-33.1067,27.4095a7.46618,7.46618 0 0 0 -2.78136,6.86358q0.40373,3.858 3.18511,5.06921a9.8891,9.8891 0 0 0 5.51775,0.80748a17.42815,17.42815 0 0 0 6.86362,-2.51218z" class="cls-15"/>
   </g>
   <g id="Layer0_9_MEMBER_4_FILL">
    <path id="svg_84" d="m611.53713,361.989l-30.819,0l2.10851,155.171l11.66362,0l17.04687,-155.171z" class="cls-16"/>
   </g>
   <g id="Layer0_9_MEMBER_5_FILL">
    <path id="svg_85" d="m598.84171,410.84165q1.2561,9.15143 2.871,13.00942l29.92165,92.95011l10.273,0l-12.38142,-87.7463l-0.0448,-0.31405q-2.55705,-29.11414 -3.0505,-66.75179l-34.67684,0l7.08791,48.85261z" class="cls-17"/>
   </g>
   <g id="Layer0_9_MEMBER_6_FILL">
    <path id="svg_86" d="m607.81373,275.05021l-16.50853,0q-9.6,0.22429 -10.587,14.35523l0,72.58356a187.34524,187.34524 0 0 0 46.02649,0l-4.03741,-74.064q-2.24298,-11.57385 -14.89355,-12.87479z" class="cls-12"/>
   </g>
   <g id="Layer0_9_MEMBER_7_FILL">
    <path id="svg_87" d="m538.10817,323.73083a8.64856,8.64856 0 0 0 0.08664,-7.12419l-9.29408,-3.64764l-3.91036,1.72283a7.05516,7.05516 0 0 0 -3.03424,2.98251a9.526,9.526 0 0 0 2.25521,5.00652a5.67338,5.67338 0 0 0 4.24361,-0.65111l0.95436,-0.52952q4.31586,5.1787 8.69886,2.2406z" class="cls-14"/>
   </g>
   <g id="Layer0_9_MEMBER_8_FILL">
    <path id="svg_88" d="m593.22071,324.80165q12.37624,-10.587 25.34541,-33.57177q0.97615,-6.82988 -3.51485,-9.89075q-5.13789,-3.00667 -12.34237,4.38606a296.89179,296.89179 0 0 1 -21.25342,29.54681q-20.309,1.27981 -44.13789,0.78434a32.61168,32.61168 0 0 1 -0.18551,8.58751q12.85024,2.66958 23.09243,4.0285q11.13818,1.46889 19.33024,1.74747a1.00059,1.00059 0 0 1 0.38318,0.00656a18.308,18.308 0 0 0 1.88322,-0.19318q5.45993,-0.8452 11.39956,-5.43155z" class="cls-18"/>
   </g>
   <g id="Layer0_9_MEMBER_9_FILL">
    <path id="svg_89" d="m586.50519,253.51738l-1.4355,4.93461l6.68411,14.89355l12.02252,-3.858l3.72341,-12.78512l1.92889,-13.99632l-20.63563,-3.14021a40.4847,40.4847 0 0 1 -4.26171,13.95148l1.97391,0.00001z" class="cls-14"/>
   </g>
   <g id="Layer0_9_MEMBER_10_FILL">
    <path id="svg_90" d="m603.77632,268.27635l-13.27863,0l-0.4486,8.16452q0.40381,3.94765 5.47291,4.21685a9.03428,9.03428 0 0 0 7.716,-3.45423l0.53832,-8.92714z" class="cls-14"/>
   </g>
   <g id="Layer0_9_MEMBER_11_FILL">
    <path id="svg_91" d="m569.09946,526.80494l0,2.28791l12.06731,0a16.00557,16.00557 0 0 0 7.17762,-1.97385l0,1.97385l4.30661,0q1.5252,-4.35142 -0.314,-7.13276a31.951,31.951 0 0 1 -8.61311,0a49.76908,49.76908 0 0 1 -14.62443,4.84485z" class="cls-19"/>
   </g>
   <g id="Layer0_9_MEMBER_12_FILL">
    <path id="svg_92" d="m618.93905,526.80494l0,2.28791l12.06731,0a16.00557,16.00557 0 0 0 7.17762,-1.97385l0,1.97385l4.30665,0q1.5252,-4.35142 -0.31411,-7.13276a31.951,31.951 0 0 1 -8.61311,0a49.76715,49.76715 0 0 1 -14.62436,4.84485z" class="cls-19"/>
   </g>
   <g id="Layer0_9_MEMBER_13_FILL">
    <path id="svg_93" d="m610.90903,245.75659q1.0767,-8.92716 -6.19072,-9.55519a43.24711,43.24711 0 0 1 -12.20191,0q-4.26183,-0.71779 -5.47291,-2.82621q-2.42235,3.858 -1.3458,6.32529q1.12155,2.60187 5.3832,2.60188a41.15918,41.15918 0 0 1 8.07482,0.53832q0.26925,6.37014 -1.9738,16.86738a7.23432,7.23432 0 0 1 -1.5701,3.45423a1.83444,1.83444 0 0 1 -1.83931,0.2243a3.13134,3.13134 0 0 1 -2.0187,-1.52525q-2.82617,-4.172 -6.68411,-3.40935l0,3.67853q-2.55706,8.88227 -0.71781,11.215q1.97387,1.70468 8.38882,-0.26918q5.9664,-2.01874 6.86361,-3.58881l2.1084,-17.8543q0.7626,-3.14022 3.544,-3.31963q2.7813,-0.13459 2.0635,3.31963q-1.301,6.28039 -1.5701,8.88229q-0.31395,3.49909 0.7626,4.84491a56.76579,56.76579 0 0 1 2.0187,-8.61314a58.30622,58.30622 0 0 0 2.37762,-10.9907z" class="cls-19"/>
   </g>
   <g id="Layer0_9_MEMBER_14_FILL">
    <path id="svg_94" d="m529.76828,265.41356l-6.101,5.69723l27.0955,42.61708l10.94585,-12.42625l-31.94035,-35.88806z" class="cls-15"/>
   </g>
   <g id="Layer0_10_MEMBER_0_FILL">
    <path id="svg_95" d="m210.21979,738.62112l-17.73841,6.62267a197.90733,197.90733 0 0 0 10.93694,20.63077l13.20217,-8.28009l-6.4007,-18.97335z" class="cls-14"/>
   </g>
   <g id="Layer0_10_MEMBER_1_FILL">
    <path id="svg_96" d="m221.88137,747.20252l-1.97385,-6.19071l-3.49911,0.987l-24.22444,6.59441l-3.544,0.98695l2.06361,6.28041l31.17779,-8.65806z" class="cls-20"/>
    <path id="svg_97" d="m194.92042,668.11419q-5.78693,-15.88046 -17.944,-16.19448q-21.3085,-0.8523 -100.08282,4.53086l-6.59444,25.21143a384.63152,384.63152 0 0 0 47.50681,1.57011q24.7179,-0.58321 45.6227,-3.14021q13.144,41.89928 28.7553,68.50132l24.22444,-6.59441l-21.48799,-73.88462z" class="cls-21"/>
   </g>
   <g id="Layer0_10_MEMBER_2_FILL">
    <path id="svg_98" d="m245.38801,755.77079q-12.20192,-4.71032 -29.92165,-2.243q-0.04485,2.82616 -5.38321,5.787q-5.38322,2.91594 -8.92717,2.46731q-2.33273,7.49161 1.70471,12.42622l43.82827,-14.62438l-1.30095,-3.81315z" class="cls-21"/>
   </g>
   <g id="Layer0_10_MEMBER_3_FILL">
    <path id="svg_99" d="m179.54801,749.67617l-18.93463,0a197.91,197.91 0 0 0 3.03087,23.15333l15.26449,-3.13941l0.63927,-20.01392z" class="cls-14"/>
   </g>
   <g id="Layer0_10_MEMBER_4_FILL">
    <path id="svg_100" d="m157.82116,647.16455l2.87106,0l0,-12.91972l-2.87106,0l0,12.91972z" class="cls-22"/>
    <path id="svg_101" d="m100.84886,567.58277l-11.48417,17.58523l21.84684,57.4209q2.557,5.114 6.86361,5.83181q8.38884,0.26918 18.43748,0.04485q13.0543,-0.26919 21.30854,-1.301l0,-12.91973l-31.98523,-3.14021q-10.49724,-35.70862 -24.98707,-63.52185z" class="cls-23"/>
   </g>
   <g id="Layer0_10_MEMBER_5_FILL">
    <path id="svg_102" d="m156.38563,751.01563l-3.14021,0l0,7.043l33.82446,0l0,-7.043l-30.68425,0z" class="cls-20"/>
    <path id="svg_103" d="m184.8269,681.07876q-0.58311,-11.08044 -5.60751,-15.387q-3.90277,-3.45429 -14.13092,-5.02437q-35.79831,-5.4729 -90.34818,-2.3327l-26.46744,13.32342q1.65982,11.8879 13.81689,18.34779q12.24681,6.45982 33.82451,6.86361q31.80579,0.89722 55.5368,-4.30661a8.72223,8.72223 0 0 0 3.14021,5.60751a445.85988,445.85988 0 0 0 1.7944,52.84519l27.45434,0a520.88544,520.88544 0 0 0 0.9869,-69.93684z" class="cls-10"/>
   </g>
   <g id="Layer0_10_MEMBER_6_FILL">
    <path id="svg_104" d="m171.99693,767.92786q-5.96633,1.07663 -9.24116,-0.49345q-4.57567,6.37021 -2.3327,12.33652l46.20588,0l0,-4.03741q-10.09353,-8.29914 -27.67871,-11.57387q-0.98693,2.64677 -6.95331,3.76821z" class="cls-21"/>
   </g>
   <g id="Layer0_10_MEMBER_7_FILL">
    <path id="svg_105" d="m92.9535,559.73225q-8.79261,-5.60754 -21.93659,-5.92151q-20.32163,0.71775 -30.2357,10.63182q-2.557,3.99255 -1.8841,11.75337q0.49341,4.62052 3.3645,17.67483a233.5695,233.5695 0 0 1 4.88973,34.632a265.00982,265.00982 0 0 1 -0.98692,41.49557q-1.4804,8.03 2.4673,8.83742q3.90282,0.6729 13.63748,-5.69721q15.79071,-11.79821 28.6656,-17.58519l17.36083,-1.16635q2.557,-38.26559 -5.51778,-80.92759q-1.16638,-8.34398 -9.82435,-13.72716z" class="cls-24"/>
   </g>
   <g id="Layer0_10_MEMBER_8_FILL">
    <path id="svg_106" d="m108.3405,647.90941a10.48689,10.48689 0 0 0 -3.72338,-1.70465a17.72325,17.72325 0 0 0 -3.94771,-0.08976q-3.22992,0.26918 -6.05611,0.40375q-3.185,0.1794 -4.03741,0.22431l0,6.95331a26.86385,26.86385 0 0 0 5.29351,0.0897a20.47911,20.47911 0 0 0 4.88974,-1.39066q1.07663,0.26919 3.45423,1.03181q2.19813,0.71775 3.45423,0.9869a6.10311,6.10311 0 0 0 2.33273,0q1.25605,-0.1794 1.16635,-0.5383q-0.26913,-0.987 -3.00563,-3.544q0.09956,0.07763 0.17945,0.1346a31.46886,31.46886 0 0 1 2.64673,2.243q0.99218,0.98463 1.52525,0.80745q0.53832,-0.22434 0.314,-1.07666a13.22,13.22 0 0 0 -4.48598,-4.5308z" class="cls-14"/>
   </g>
   <g id="Layer0_10_MEMBER_9_FILL">
    <path id="svg_107" d="m87.79463,655.07817l4.66543,-0.49351l0,-9.51031l-4.66543,-0.49345l0,10.49727z" class="cls-22"/>
    <path id="svg_108" d="m46.38872,564.32621a9.14893,9.14893 0 0 0 -5.60751,1.16635q-8.02992,5.38321 -9.42062,17.45058a335.13628,335.13628 0 0 0 -3.31963,42.976q-0.22428,17.8543 1.83925,27.18519a6.67249,6.67249 0 0 0 2.73649,4.97946a12.018,12.018 0 0 0 4.8,1.6598a190.28473,190.28473 0 0 0 22.38519,-1.5701q19.96275,-2.37758 22.65434,-2.60185l5.33836,-0.49345l0,-10.49729q-33.55532,-2.46727 -38.08622,-3.27481q7.17763,-28.57587 7.17762,-62.4452a21.2114,21.2114 0 0 0 -0.58318,-6.54956a10.732,10.732 0 0 0 -3.72338,-5.33836a11.58447,11.58447 0 0 0 -6.19071,-2.64676z" class="cls-23"/>
   </g>
   <g id="Layer0_10_MEMBER_10_FILL">
    <path id="svg_109" d="m68.19073,543.76208a34.83173,34.83173 0 0 0 10.40754,7.76081a38.45121,38.45121 0 0 1 0.71775,-4.84491l-16.32907,-10.99072l5.20378,8.07482z" class="cls-25"/>
    <path id="svg_110" d="m79.27118,556.4575a18.69284,18.69284 0 0 1 -0.67291,-4.93461a34.83173,34.83173 0 0 1 -10.40754,-7.76081l-5.20378,-8.07482a67.68532,67.68532 0 0 1 0.40375,9.91407q-0.04485,1.88415 -0.53833,10.00382l12.1571,6.50471l4.26171,-5.65236z" class="cls-14"/>
   </g>
   <g id="Layer0_10_MEMBER_11_FILL">
    <path id="svg_111" d="m124.66955,657.39267l1.07665,-3.00566l-30.63942,0q-3.27482,0.44857 -2.87106,3.00566l32.43383,0z" class="cls-26"/>
    <path id="svg_112" d="m201.82888,603.51568l-56.16479,0l-19.06553,53.877l57.062,-2.4673l18.16833,-51.40969m-32.0301,23.55154a4.58477,4.58477 0 0 1 0.76265,4.0374a7.31227,7.31227 0 0 1 -2.6019,4.08231a6.9541,6.9541 0 0 1 -4.44116,1.6598a4.40327,4.40327 0 0 1 -3.67851,-1.6598a4.69977,4.69977 0 0 1 -0.7626,-4.08231a7.10882,7.10882 0 0 1 2.60186,-4.0374a6.84617,6.84617 0 0 1 4.44115,-1.70465a4.35673,4.35673 0 0 1 3.6785,1.70464l0.00001,0.00001z" class="cls-4"/>
    <path id="svg_113" d="m170.56143,631.10462a4.58477,4.58477 0 0 0 -0.76265,-4.0374a4.35673,4.35673 0 0 0 -3.67851,-1.70465a6.84617,6.84617 0 0 0 -4.44115,1.70465a7.10882,7.10882 0 0 0 -2.60186,4.0374a4.69977,4.69977 0 0 0 0.7626,4.08231a4.40327,4.40327 0 0 0 3.67851,1.6598a6.9541,6.9541 0 0 0 4.44116,-1.6598a7.31227,7.31227 0 0 0 2.6019,-4.08231z" class="cls-6"/>
    <path id="svg_114" d="m145.66409,603.51568l-1.929,0l-17.98889,50.87132l-1.07665,3.00566l1.929,0l19.06554,-53.87698z" class="cls-27"/>
   </g>
   <g id="Layer0_10_MEMBER_12_FILL">
    <path id="svg_115" d="m93.41334,519.14461a30.33755,30.33755 0 0 0 -1.24863,-8.59664l-21.59923,0l-11.30908,21.68535a46.05029,46.05029 0 0 0 7.07534,9.88829a23.95064,23.95064 0 0 0 7.66377,5.23835a14.07018,14.07018 0 0 0 8.35269,0.4449q4.14761,-0.94721 6.88879,-5.89852a34.08284,34.08284 0 0 0 3.4444,-10.936a61.30639,61.30639 0 0 0 0.73195,-11.82573z" class="cls-14"/>
   </g>
   <g id="Layer0_10_MEMBER_13_FILL">
    <path id="svg_116" d="m95.22163,504.76426a8.01607,8.01607 0 0 0 -2.02353,-4.449a10.71021,10.71021 0 0 0 -3.9898,-2.74116a15.83327,15.83327 0 0 0 -4.79344,-1.09073a22.99905,22.99905 0 0 0 -12.90212,3.01385a49.70887,49.70887 0 0 0 -6.774,4.26244q-3.88924,3.12866 -4.14761,6.30038q-3.00366,0.12511 -4.62126,3.35828a26.02029,26.02029 0 0 0 -0.50231,16.0882q2.28193,8.56794 8.05129,12.61511q-0.95844,-9.54974 2.65506,-9.90264l0.67455,-10.3619q5.98627,-2.00228 5.43926,-7.27628a37.00255,37.00255 0 0 0 14.42342,-0.74629a17.0102,17.0102 0 0 0 4.13324,-1.66479a9.67913,9.67913 0 0 0 3.35835,-2.76987a6.41276,6.41276 0 0 0 1.0189,-4.6356z" class="cls-10"/>
   </g>
   <g id="Layer0_10_MEMBER_14_FILL">
    <path id="svg_117" d="m93.71463,521.35908a4.48436,4.48436 0 0 0 -3.57823,-0.90792a5.19267,5.19267 0 0 0 -3.36864,1.93689a5.28375,5.28375 0 0 0 -1.04316,3.76778a4.68524,4.68524 0 0 0 5.39975,4.25133a4.81722,4.81722 0 0 0 3.28978,-1.99893a4.89682,4.89682 0 0 0 1.122,-3.70569a4.67381,4.67381 0 0 0 -1.8215,-3.34346m-3.54217,-0.54456a4.15353,4.15353 0 0 1 3.31675,0.836a4.34083,4.34083 0 0 1 1.68884,3.105a4.53915,4.53915 0 0 1 -1.03982,3.4354a4.465,4.465 0 0 1 -3.04994,1.85283a4.33431,4.33431 0 0 1 -5.00561,-3.941a4.90213,4.90213 0 0 1 0.961,-3.49753a4.81723,4.81723 0 0 1 3.12873,-1.7907l0.00005,0z" class="cls-28"/>
   </g>
   <g id="Layer0_10_MEMBER_15_FILL">
    <path id="svg_118" d="m80.97303,522.89927a4.70858,4.70858 0 0 0 -3.75708,-0.95333a5.45219,5.45219 0 0 0 -3.537,2.03366a5.54768,5.54768 0 0 0 -1.09533,3.95605a4.91946,4.91946 0 0 0 5.66963,4.46383a5.058,5.058 0 0 0 3.45423,-2.0988a5.14149,5.14149 0 0 0 1.1781,-3.89085a4.90741,4.90741 0 0 0 -1.91253,-3.51056m-3.71923,-0.57181a4.36117,4.36117 0 0 1 3.48253,0.87783a4.55771,4.55771 0 0 1 1.77324,3.26022a4.76589,4.76589 0 0 1 -1.09181,3.60706a4.68809,4.68809 0 0 1 -3.20239,1.94539a4.55095,4.55095 0 0 1 -5.25578,-4.138a5.147,5.147 0 0 1 1.009,-3.6723a5.058,5.058 0 0 1 3.28519,-1.8802l0.00002,0z" class="cls-28"/>
   </g>
   <g id="Layer0_10_MEMBER_16_FILL">
    <path id="svg_119" d="m82.21651,524.48859a0.22439,0.22439 0 1 0 0.26918,0.3589a2.36247,2.36247 0 0 1 3.31963,0a0.16546,0.16546 0 0 0 0.13457,0.04485a0.2583,0.2583 0 0 0 0.17945,-0.0897a0.21441,0.21441 0 0 0 -0.04485,-0.31405a2.72786,2.72786 0 0 0 -3.85798,0z" class="cls-28"/>
   </g>
   <g id="Layer0_10_MEMBER_17_FILL">
    <path id="svg_120" d="m63.8393,525.9975a0.28971,0.28971 0 0 0 0.17945,0.04484l9.06171,-0.6729a0.21236,0.21236 0 0 0 0.17945,-0.08969a0.21675,0.21675 0 0 0 0.04485,-0.17946a0.178,0.178 0 0 0 -0.08969,-0.1346a0.2164,0.2164 0 0 0 -0.17946,-0.04485l-9.06174,0.6729a0.24559,0.24559 0 0 0 -0.13457,0.04485a0.289,0.289 0 0 0 -0.04485,0.17945a0.325,0.325 0 0 0 0.04485,0.17946z" class="cls-28"/>
   </g>
   <g id="Layer0_10_MEMBER_18_FILL">
    <path id="svg_121" d="m65.05053,525.59374a2.34148,2.34148 0 0 0 -2.10843,-0.4486a2.37186,2.37186 0 0 0 -1.48038,0.8972a4.5845,4.5845 0 0 0 -0.2243,1.65981a15.2688,15.2688 0 0 0 1.1215,5.1589a4.30851,4.30851 0 0 0 1.03178,1.48041a2.24584,2.24584 0 0 0 1.65983,0.4486q2.92431,-1.1112 2.42242,-3.81311a22.3181,22.3181 0 0 0 -0.628,-2.9159a4.23185,4.23185 0 0 0 -1.79442,-2.46731z" class="cls-14"/>
   </g>
   <g id="Layer0_11_MEMBER_0_FILL">
    <path id="svg_122" d="m193.60694,543.62453l2.67171,-10.54969l-8.9502,-0.03925l-2.97,10.54838l9.24849,0.04056z" class="cls-29"/>
   </g>
   <g id="Layer0_11_MEMBER_1_MEMBER_0_FILL">
    <path id="svg_123" d="m220.20813,546.18769q-0.8983,-4.35665 -7.61762,-4.56832l-18.4374,-0.08086q-3.96237,2.32968 -9.43068,0.67471a5.70788,5.70788 0 0 0 -1.98946,4.64542a5.27128,5.27128 0 0 0 1.95125,4.06609l33.29473,0.146q1.82384,-0.04258 2.21741,-2.198l0.01177,-2.68504z" class="cls-10"/>
   </g>
   <g id="Layer0_11_MEMBER_1_MEMBER_1_FILL">
    <path id="svg_124" d="m196.10331,545.84328a1.79535,1.79535 0 0 0 1.49248,-0.17249a1.647,1.647 0 0 0 0.84034,-1.13l0.78876,-2.98l-3.93809,-0.01727l-0.486,1.967a2.15633,2.15633 0 0 0 0.17245,1.49248a1.83617,1.83617 0 0 0 1.13006,0.84028z" class="cls-30"/>
   </g>
   <g id="Layer0_11_MEMBER_1_MEMBER_2_FILL">
    <path id="svg_125" d="m201.77363,545.45042a1.79532,1.79532 0 0 0 1.49249,-0.17242a1.64736,1.64736 0 0 0 0.84034,-1.13l0.66758,-2.56287l-3.87842,-0.017l-0.42447,1.54959a2.15641,2.15641 0 0 0 0.17246,1.49248a1.83635,1.83635 0 0 0 1.13002,0.84022z" class="cls-30"/>
   </g>
   <g id="Layer0_11_MEMBER_2_FILL">
    <path id="svg_126" d="m258.2042,522.18216l9.21259,0.81052l1.57936,-10.46263l-8.91541,-0.78437l-1.87654,10.43648z" class="cls-29"/>
   </g>
   <g id="Layer0_11_MEMBER_3_MEMBER_0_FILL">
    <path id="svg_127" d="m292.29257,509.34057q-2.66894,-3.55844 -8.83768,-0.88692l-16.7136,7.78276q-2.59186,3.79584 -8.24386,4.62865a5.70765,5.70765 0 0 0 0.17961,5.0501a5.271,5.271 0 0 0 3.49767,2.84693l30.18187,-14.0543q1.63174,-0.81564 1.0694,-2.9332l-1.13341,-2.43402z" class="cls-10"/>
   </g>
   <g id="Layer0_11_MEMBER_3_MEMBER_1_FILL">
    <path id="svg_128" d="m270.33971,519.29972a1.79527,1.79527 0 0 0 1.27666,-0.792a1.647,1.647 0 0 0 0.2787,-1.38033l-0.55619,-3.0319l-3.5699,1.66234l0.39847,1.98647a2.15636,2.15636 0 0 0 0.79194,1.27668a1.83612,1.83612 0 0 0 1.38032,0.27874z" class="cls-30"/>
   </g>
   <g id="Layer0_11_MEMBER_3_MEMBER_2_FILL">
    <path id="svg_129" d="m275.30187,516.5283a1.79527,1.79527 0 0 0 1.27669,-0.7919a1.64728,1.64728 0 0 0 0.27871,-1.38034l-0.48808,-2.60292l-3.51581,1.63715l0.27627,1.58268a2.15637,2.15637 0 0 0 0.79193,1.27668a1.83631,1.83631 0 0 0 1.38029,0.27865z" class="cls-30"/>
   </g>
   <g id="Layer0_11_MEMBER_4_FILL">
    <path id="svg_130" d="m207.92339,368.33592q1.17324,8.66326 3.46985,27.11078q2.12661,16.29356 4.14137,27.42773q1.61964,9.15857 -4.69674,27.5684l-24.41286,83.82632l10.856,0.04763q9.49644,-17.27432 13.8836,-25.41968q7.55302,-14.0081 11.94579,-23.40948q13.08654,-27.80076 18.18659,-45.04952a276.22019,276.22019 0 0 0 7.24369,-35.49746q2.22172,-15.60156 3.65883,-36.41044l-44.27612,-0.19428z" class="cls-31"/>
   </g>
   <g id="Layer0_11_MEMBER_5_FILL">
    <path id="svg_131" d="m255.16243,368.27771l-46.83393,-0.08973q3.37713,22.74743 23.86556,31.80581l37.95162,26.82635l-12.29165,88.15l12.83,-1.39071l31.31233,-97.70521l-46.83393,-47.59651z" class="cls-32"/>
   </g>
   <g id="Layer0_11_MEMBER_6_FILL">
    <path id="svg_132" d="m242.10813,277.43605q0.231,-2.374 0.5832,-4.57573q0.35887,-2.46732 0.8972,-4.71031l-11.39447,0.8075q4.315,6.8664 9.91407,8.47854m-13.90663,-8.16454a0.07613,0.07613 0 0 0 0.04488,-0.04485l-0.04488,0a0.06421,0.06421 0 0 1 -0.04485,0.04485l0,0.2243a0.82513,0.82513 0 0 0 0.04485,-0.2243z" class="cls-33"/>
    <path id="svg_133" d="m232.19406,268.95751l-3.99256,0.314a0.82513,0.82513 0 0 1 -0.04485,0.2243a84.37615,84.37615 0 0 1 -4.12713,16.46366a100.86,100.86 0 0 1 17.67488,-1.83926q0.04485,-3.14018 0.40373,-6.59443a0.47691,0.47691 0 0 0 0,-0.08973q-5.59908,-1.61218 -9.91407,-8.47854z" class="cls-29"/>
   </g>
   <g id="Layer0_11_MEMBER_7_FILL">
    <path id="svg_134" d="m242.39789,279.86209l-4.16294,-0.2726a23.28128,23.28128 0 0 0 -17.46064,6.45406q-7.61568,7.14361 -8.67268,19.16745l-4.13887,63.20559a87.91947,87.91947 0 0 0 24.26031,2.98229a208.53314,208.53314 0 0 0 25.40018,-2.068a666.17827,666.17827 0 0 0 -0.95769,-73.24968l-0.08736,-0.725q-1.22003,-12.26279 -14.18031,-15.49411z" class="cls-34"/>
   </g>
   <g id="Layer0_11_MEMBER_8_FILL">
    <path id="svg_135" d="m276.73544,312.96034a216.517,216.517 0 0 1 -17.16944,-19.19644q-7.49912,-8.86032 -10.751,-10.60729l-19.24481,25.61209a135.85579,135.85579 0 0 0 26.90374,22.18492a89.99825,89.99825 0 0 0 11.63185,6.155a30.66993,30.66993 0 0 0 8.48322,-13.31167q2.47821,-7.37473 0.14644,-10.83661z" class="cls-34"/>
    <path id="svg_136" d="m326.88453,304.26813l-5.44824,-5.25116q-13.88133,13.1132 -25.41829,20.27577l-1.70559,1.00934a11.49684,11.49684 0 0 1 -4.8616,1.8483a6.03729,6.03729 0 0 1 -4.48221,-1.689q-4.08494,-3.44617 -8.23316,-7.501q2.33179,3.46186 -0.14644,10.83666a30.66993,30.66993 0 0 1 -8.48322,13.31167a63.31546,63.31546 0 0 0 14.059,4.45916a6.90784,6.90784 0 0 0 4.96842,-1.31693q16.46965,-9.44933 39.75133,-35.98281z" class="cls-29"/>
   </g>
   <g id="Layer0_11_MEMBER_9_FILL">
    <path id="svg_137" d="m325.80746,304.76869l1.07707,-0.50056a39.7895,39.7895 0 0 0 8.96437,-5.36167q4.02583,-3.23663 3.23571,-7.09164a16.11824,16.11824 0 0 0 -5.48556,-7.6028q-1.62771,-1.25941 -3.99406,0.06077q-4.48221,2.68089 -8.1687,14.74418l-0.38038,1.15946l4.75155,4.59226z" class="cls-29"/>
   </g>
   <g id="Layer0_11_MEMBER_10_MEMBER_0_FILL">
    <path id="svg_138" d="m234.21586,271.97434q8.66594,5.68182 12.74988,2.47591a9.817,9.817 0 0 0 3.0893,-3.97817q1.52027,-2.437 2.27655,-12.45147a162.01337,162.01337 0 0 0 0.55094,-16.24776l-21.56506,4.42038l-9.02071,13.50234q3.24087,6.37313 11.9191,12.27877z" class="cls-29"/>
   </g>
   <g id="Layer0_11_MEMBER_10_MEMBER_1_FILL">
    <path id="svg_139" d="m259.66239,242.36425q3.15129,-3.66712 -0.13013,-6.83037a3.40419,3.40419 0 0 0 -4.29181,-0.43966a4.71447,4.71447 0 0 1 -2.89918,0.3828a6.70907,6.70907 0 0 1 -3.08442,-1.03564a16.89614,16.89614 0 0 0 -13.14745,-3.01126a17.21257,17.21257 0 0 0 -10.69347,6.55852q-5.04509,6.5018 -5.86015,12.9705a17.66253,17.66253 0 0 0 1.93022,10.83822q3.61359,6.94584 9.969,9.14167a38.81665,38.81665 0 0 0 2.82184,-10.36081q0.87553,-4.70191 7.86461,-1.75894a18.58431,18.58431 0 0 0 1.88339,-4.83782q0.4498,-1.96524 1.301,-7.27685q0.475,-2.326 2.45235,-1.49053q7.0142,2.74392 11.8842,-2.84983z" class="cls-10"/>
   </g>
   <g id="Layer0_11_MEMBER_10_MEMBER_2_FILL">
    <path id="svg_140" d="m238.8937,259.40084a3.44288,3.44288 0 0 0 0.50027,-2.68682a3.27312,3.27312 0 0 0 -1.47831,-2.22845a3.5228,3.5228 0 0 0 -4.91528,0.978a3.273,3.273 0 0 0 -0.51265,2.62461a3.44258,3.44258 0 0 0 1.49069,2.29066a3.68458,3.68458 0 0 0 4.91528,-0.978z" class="cls-29"/>
   </g>
   <g id="Layer0_12_MEMBER_0_FILL">
    <path id="svg_141" d="m469.32763,559.021a4.614,4.614 0 0 0 4.5,4.5a4.37261,4.37261 0 0 0 3.2,-1.35a4.29,4.29 0 0 0 1.3,-3.15a4.43985,4.43985 0 0 0 -4.5,-4.5a4.29,4.29 0 0 0 -3.15,1.3a4.37311,4.37311 0 0 0 -1.35,3.2z" class="cls-35"/>
   </g>
   <g id="Layer0_12_MEMBER_0_MEMBER_0_FILL">
    <path id="svg_142" d="m465.37003,556.75349a2.989,2.989 0 0 1 2.1981,-0.8972l4.88971,0a3.06635,3.06635 0 0 1 3.1402,3.14021l0,0.04485a2.98936,2.98936 0 0 1 -0.8972,2.19815a3.06281,3.06281 0 0 1 -2.243,0.942l-4.88971,0a3.21972,3.21972 0 0 1 -3.1402,-3.1402l0,-0.04485a3.06277,3.06277 0 0 1 0.9421,-2.24296z" class="cls-3"/>
   </g>
   <path d="m113.05963,656.02046q-3.27474,-0.04486 -3.58876,3.58876l0,100.57505q0.35886,15.74569 13.68216,16.23918l309.2166,0q17.22607,-1.25609 17.71954,-16.14946l0,-190.47353q-0.08971,-10.76628 10.67657,-10.67657l5.92143,0" class="cls-36" id="Layer0_12_MEMBER_1_1_STROKES"/>
   <g id="Layer0_13_MEMBER_0_FILL">
    <path id="svg_143" d="m794.02168,540.989l0,-12.202l-297.46716,0l0,12.202l297.46716,0z" class="cls-4"/>
   </g>
   <g id="Layer0_13_MEMBER_1_FILL">
    <path id="svg_144" d="m530.53255,531.78446l-7.58131,0l-74.15373,249.33227l7.58142,0l11.48411,-38.48991l69.892,0l-11.43932,38.48991l7.58131,0l74.15372,-249.33227l-7.5813,0l-15.11782,50.87128l-69.9369,0l15.11782,-50.87128m-17.49543,58.8564l69.892,0l-12.78512,43.06567l-69.9368,0l12.82992,-43.06567m54.72929,51.05078l-12.78512,43.06568l-69.93681,0l12.83,-43.06568l69.89191,0m-27.63376,92.95006l-69.93688,0l12.47112,-41.89932l69.892,0l-12.42624,41.89932z" class="cls-4"/>
   </g>
   <g id="Layer0_13_MEMBER_2_FILL">
    <path id="svg_145" d="m769.00903,531.78446l-7.5814,0l15.11793,50.87128l-69.93693,0l-15.11783,-50.87128l-7.58131,0l74.15362,249.33227l7.58142,0l-11.43932,-38.48991l69.892,0l11.48412,38.48991l7.58142,0l-74.15372,-249.33227m-59.9779,58.8564l69.89191,0l12.83,43.06567l-69.93679,0l-12.78512,-43.06567m85.05464,51.05078l12.83,43.06568l-69.9369,0l-12.78513,-43.06568l69.892,0m15.20763,51.05074l12.471,41.89932l-69.93674,0l-12.42621,-41.89932l69.89195,0z" class="cls-4"/>
   </g>
   <g id="Layer0_14_FILL">
    <path id="svg_146" d="m536.57763,440.871a4.21125,4.21125 0 0 0 1.35,-3.15a4.37289,4.37289 0 0 0 -1.35,-3.2a4.28977,4.28977 0 0 0 -3.15,-1.3a4.39882,4.39882 0 0 0 -3.15,1.3a4.45734,4.45734 0 0 0 -1.3,3.2a4.5246,4.5246 0 0 0 4.45,4.5a4.2113,4.2113 0 0 0 3.15,-1.35z" class="cls-35"/>
   </g>
   <g id="Layer0_14_MEMBER_0_FILL">
    <path id="svg_147" d="m541.98521,435.45349a2.98894,2.98894 0 0 0 -2.1981,-0.8972l-4.8897,0a3.06635,3.06635 0 0 0 -3.14021,3.1402l0,0.04485a2.98944,2.98944 0 0 0 0.8972,2.19816a3.06285,3.06285 0 0 0 2.243,0.942l4.8897,0a3.21974,3.21974 0 0 0 3.14021,-3.14021l0,-0.04485a3.06273,3.06273 0 0 0 -0.9421,-2.24295z" class="cls-3"/>
   </g>
   <g id="Layer0_14_MEMBER_1_FILL">
    <path id="svg_148" d="m104.55896,654.67022a1.22558,1.22558 0 0 0 -1.2112,1.2112l0,0.04485a1.22568,1.22568 0 0 0 1.2112,1.21126l2.33276,0a1.22558,1.22558 0 0 0 1.2112,-1.21126l0,-0.04485a1.22547,1.22547 0 0 0 -1.2112,-1.2112l-2.33276,0z" class="cls-37"/>
   </g>
   <path d="m540.48109,437.734l6.23554,0q6.19062,0.85235 9.51019,4.30653q4.17192,4.3963 4.172,13.18867l0,63.566q-0.71777,9.5102 -8.299,9.9588l-29.069,0q-5.47285,-0.17935 -7.89528,2.28781q-2.33274,2.33265 -2.10838,7.49155l0,228.55927q0.04486,7.31214 -3.3196,10.856q-2.91582,3.00564 -8.56819,3.40932l-105.19565,0q-3.14018,-0.08971 -4.48593,-1.57t-1.52522,-5.06915l0,-4.71021a4.354,4.354 0 0 0 -1.34578,-3.18508a4.27941,4.27941 0 0 0 -3.14019,-1.30088a4.44229,4.44229 0 0 0 -4.48594,4.486l0,7.49155q-0.35887,3.40929 -3.45418,3.85786l-168.49236,0a5.933,5.933 0 0 1 -4.486,-1.57q-1.30091,-1.43553 -1.52522,-5.06915l0,-4.71021a4.354,4.354 0 0 0 -1.34577,-3.18508a4.27936,4.27936 0 0 0 -3.14019,-1.30088a4.44229,4.44229 0 0 0 -4.48594,4.486l0,7.49155a3.97922,3.97922 0 0 1 -3.45418,3.85786l-22.56431,0a5.93294,5.93294 0 0 1 -4.486,-1.57q-1.30092,-1.43553 -1.52521,-5.06915l0,-0.58318a4.35378,4.35378 0 0 0 -1.3458,-3.185a4.27885,4.27885 0 0 0 -3.14016,-1.30089a4.44231,4.44231 0 0 0 -4.486,4.48591l0,3.36452a3.97922,3.97922 0 0 1 -3.45419,3.85786l-34.27258,0q-13.3233,-0.49336 -13.68216,-16.23912l0,-105.50986q0.314,-3.63358 3.58877,-3.58876" class="cls-38" id="Layer0_14_MEMBER_2_1_STROKES"/>
   <g id="Layer0_15_FILL">
    <path id="svg_149" d="m156.23202,214.58986l8.56828,5.56266l-7.26734,-6.45986l-1.30094,0.8972z" class="cls-3"/>
    <path id="svg_150" d="m157.53296,213.69266l-28.531,-30.68431l16.28421,39.118l10.94585,-7.53648l1.30094,-0.8972m7.89538,-5.38321l8.47855,-5.92154l-44.90493,-19.37956l36.42638,25.3011z" class="cls-4"/>
    <path id="svg_151" d="m129.00196,183.00835l28.531,30.68431l7.26734,6.45986l0.628,-11.84307l-36.42634,-25.3011z" class="cls-5"/>
   </g>
   <g id="Layer0_16_STROKES_1_FILL">
    <path id="svg_152" d="m187.01996,470.87271a0.86732,0.86732 0 1 0 0.26916,0.62805a0.8607,0.8607 0 0 0 -0.26916,-0.62805m-4.486,-1.25611a0.86733,0.86733 0 1 0 0.26916,0.62806a0.86067,0.86067 0 0 0 -0.26916,-0.62806m-9.77949,-2.9159a0.86732,0.86732 0 1 0 0.628,-0.26915a0.8609,0.8609 0 0 0 -0.628,0.26915m4.30657,1.5701a0.86732,0.86732 0 1 0 0.628,-0.26915a0.86086,0.86086 0 0 0 -0.628,0.26915m-8.52341,-3.3196a0.86719,0.86719 0 1 0 0.628,-0.2692a0.86062,0.86062 0 0 0 -0.628,0.2692m-2.8262,-1.929a0.86729,0.86729 0 1 0 0.26917,0.62805a0.86064,0.86064 0 0 0 -0.26917,-0.62805m-3.99254,-2.15331a0.86732,0.86732 0 1 0 0.26916,0.62805a0.86071,0.86071 0 0 0 -0.26916,-0.62805m-7.22248,-4.39625a0.91987,0.91987 0 1 0 -0.26915,0.62805a0.86085,0.86085 0 0 0 0.26915,-0.62805m2.78133,1.74955a0.91988,0.91988 0 1 0 0.628,0.26915a0.86071,0.86071 0 0 0 -0.628,-0.26915m-15.34211,-15.56648a0.86732,0.86732 0 1 0 0.26916,0.62805a0.86087,0.86087 0 0 0 -0.26916,-0.62805m-2.243,-3.94765a0.86726,0.86726 0 1 0 0.26916,0.628a0.86072,0.86072 0 0 0 -0.26916,-0.628m-3.09535,-4.08232a0.86736,0.86736 0 1 0 0.628,-0.26914a0.86092,0.86092 0 0 0 -0.628,0.26914m14.13093,18.34779a0.86732,0.86732 0 1 0 0.26916,0.62805a0.86091,0.86091 0 0 0 -0.26916,-0.62805m-4.486,-3.14021a0.86733,0.86733 0 1 0 0.628,-0.26915a0.86072,0.86072 0 0 0 -0.628,0.26915m-1.43551,-2.82615a0.92,0.92 0 1 0 -0.26917,0.628a0.86067,0.86067 0 0 0 0.26917,-0.628m-8.3889,-16.64317a0.86732,0.86732 0 1 0 0.26916,0.62805a0.86071,0.86071 0 0 0 -0.26916,-0.62805m-1.07664,-4.30656a0.86733,0.86733 0 1 0 0.26916,0.62805a0.86094,0.86094 0 0 0 -0.26916,-0.62805m-0.6729,-4.39625a0.86726,0.86726 0 1 0 0.26916,0.628a0.86081,0.86081 0 0 0 -0.26916,-0.628m-0.40374,-4.53092a0.86735,0.86735 0 1 0 0.26915,0.62806a0.86071,0.86071 0 0 0 -0.26915,-0.62806m-1.301,-4.486a0.86733,0.86733 0 1 0 0.62805,-0.26915a0.86087,0.86087 0 0 0 -0.62805,0.26915m1.43552,-4.486a0.86729,0.86729 0 1 0 0.26917,0.62805a0.86067,0.86067 0 0 0 -0.26917,-0.62805m0.40374,-4.486a0.86733,0.86733 0 1 0 0.26916,0.62805a0.86071,0.86071 0 0 0 -0.26916,-0.62805m0,-4.71028a0.91988,0.91988 0 1 0 0.628,0.26915a0.86071,0.86071 0 0 0 -0.628,-0.26915m1.43553,-4.12713a0.86729,0.86729 0 1 0 0.26916,0.62805a0.86094,0.86094 0 0 0 -0.26916,-0.62805m0.94206,-4.39628a0.8673,0.8673 0 1 0 0.26915,0.628a0.8606,0.8606 0 0 0 -0.26915,-0.628m0.40374,-4.75519a0.91994,0.91994 0 1 0 0.628,0.26918a0.86061,0.86061 0 0 0 -0.628,-0.26918m1.16642,-2.42239a0.91988,0.91988 0 1 0 -0.62806,-0.26917a0.8608,0.8608 0 0 0 0.62806,0.26917m1.88411,-5.83181a0.86729,0.86729 0 1 0 0.26916,0.628a0.86062,0.86062 0 0 0 -0.26916,-0.628m0.08973,-4.30658a0.8673,0.8673 0 1 0 0.628,-0.26915a0.86074,0.86074 0 0 0 -0.628,0.26915m2.64674,-4.21683a0.86729,0.86729 0 1 0 0.26916,0.628a0.86067,0.86067 0 0 0 -0.26916,-0.628m0.85234,-4.486a0.91988,0.91988 0 1 0 0.628,0.26915a0.86071,0.86071 0 0 0 -0.628,-0.26915m2.10843,-3.94768a0.86729,0.86729 0 1 0 0.26916,0.628a0.86078,0.86078 0 0 0 -0.26916,-0.628m0.314,-4.172a0.86733,0.86733 0 1 0 0.62805,-0.26915a0.8608,0.8608 0 0 0 -0.62805,0.26915m3.94769,-6.90843a0.92,0.92 0 1 0 -0.628,-0.26918a0.86073,0.86073 0 0 0 0.628,0.26918m-1.65982,2.33273a0.9199,0.9199 0 1 0 0.628,0.26915a0.86087,0.86087 0 0 0 -0.628,-0.26915m3.99254,-8.07482a0.86729,0.86729 0 1 0 0.26916,0.628a0.86071,0.86071 0 0 0 -0.26916,-0.628m1.7944,-7.71594a0.9199,0.9199 0 1 0 0.26917,-0.628a0.86069,0.86069 0 0 0 -0.26917,0.628m2.557,-3.31965a0.91988,0.91988 0 1 0 -0.628,-0.26915a0.86071,0.86071 0 0 0 0.628,0.26915m-4.21684,7.49163a0.91988,0.91988 0 1 0 0.26916,-0.628a0.86077,0.86077 0 0 0 -0.26916,0.628m6.50471,-13.23372a0.86729,0.86729 0 1 0 0.26916,0.62805a0.861,0.861 0 0 0 -0.26916,-0.62805m0.13457,-3.63365a0.91988,0.91988 0 1 0 0.26917,-0.62806a0.86074,0.86074 0 0 0 -0.26917,0.62806m3.18507,-3.63369a0.86724,0.86724 0 1 0 -0.628,0.26918a0.86074,0.86074 0 0 0 0.628,-0.26918m1.70468,-5.60751a0.86729,0.86729 0 1 0 0.26916,0.62806a0.86067,0.86067 0 0 0 -0.26916,-0.62806m1.5701,-4.2617a0.86726,0.86726 0 1 0 0.26917,0.62805a0.86066,0.86066 0 0 0 -0.26917,-0.62805m0.94207,-4.53086a0.91988,0.91988 0 1 0 0.628,0.26915a0.86071,0.86071 0 0 0 -0.628,-0.26915m2.15329,-3.94768a0.86732,0.86732 0 1 0 0.26915,0.628a0.86075,0.86075 0 0 0 -0.26915,-0.628m4.172,-12.91972a0.86732,0.86732 0 1 0 0.26916,0.62805a0.86079,0.86079 0 0 0 -0.26916,-0.62805m-2.73647,8.658a0.86727,0.86727 0 1 0 0.26917,0.628a0.86071,0.86071 0 0 0 -0.26917,-0.628m0.76263,-4.57573a0.91988,0.91988 0 1 0 0.628,0.26915a0.8607,0.8607 0 0 0 -0.628,-0.26915m3.22992,-8.43369a0.86729,0.86729 0 1 0 0.26916,0.628a0.86073,0.86073 0 0 0 -0.26916,-0.628m1.39066,-3.858a0.91988,0.91988 0 1 0 -0.26916,0.628a0.86072,0.86072 0 0 0 0.26916,-0.628m1.615,-9.68977a0.86729,0.86729 0 1 0 0.26916,0.628a0.86067,0.86067 0 0 0 -0.26916,-0.628m-1.48038,4.21683a0.91994,0.91994 0 1 0 0.628,0.26918a0.86063,0.86063 0 0 0 -0.628,-0.26918m2.19814,-8.70284a0.86727,0.86727 0 1 0 0.26917,0.628a0.86065,0.86065 0 0 0 -0.26917,-0.628m0.49347,-4.53088a0.86734,0.86734 0 1 0 0.26915,0.628a0.86084,0.86084 0 0 0 -0.26915,-0.628m-0.40376,-4.8a0.91987,0.91987 0 1 0 0.62806,0.26915a0.861,0.861 0 0 0 -0.62806,-0.26915m-0.6729,-4.2617a0.86726,0.86726 0 1 0 0.62805,-0.26918a0.86079,0.86079 0 0 0 -0.62805,0.26918m0.94207,-3.27481a0.86727,0.86727 0 1 0 -0.628,0.26917a0.86068,0.86068 0 0 0 0.628,-0.26917m-0.71777,-5.83181a0.86729,0.86729 0 1 0 0.26917,0.62805a0.86074,0.86074 0 0 0 -0.26917,-0.62805m-2.60188,-3.90281a0.9199,0.9199 0 1 0 0.26917,-0.628a0.86073,0.86073 0 0 0 -0.26917,0.628m0.04487,-4.93461a0.86729,0.86729 0 1 0 0.26916,0.628a0.86077,0.86077 0 0 0 -0.26916,-0.628m-1.929,-4.12713a0.86729,0.86729 0 1 0 0.26916,0.628a0.86072,0.86072 0 0 0 -0.26916,-0.628m-2.33272,-3.858a0.86732,0.86732 0 1 0 0.26916,0.628a0.86086,0.86086 0 0 0 -0.26916,-0.628m-2.4673,-2.96076a0.9199,0.9199 0 1 0 -0.26917,0.62806a0.86081,0.86081 0 0 0 0.26917,-0.62806m-3.31965,-3.90283a0.86732,0.86732 0 1 0 0.26915,0.628a0.86072,0.86072 0 0 0 -0.26915,-0.628z" class="cls-10"/>
   </g>
   <path d="m806.37663,391.02078a8.95985,8.95985 0 1 1 -2.62427,-6.3476a8.647,8.647 0 0 1 2.62427,6.3476z" class="cls-39" id="Layer0_17_1_STROKES"/>
   <path d="m582.12098,175.70957a9.03718,9.03718 0 0 1 -8.97187,8.97191a8.97694,8.97694 0 1 1 8.97187,-8.97191z" class="cls-39" id="Layer0_18_1_STROKES"/>
   <path d="m299.50601,211.59719a4.59945,4.59945 0 0 1 -4.48593,4.486a4.354,4.354 0 0 1 -3.18505,-1.34578a4.27906,4.27906 0 0 1 -1.30092,-3.14019a4.44236,4.44236 0 0 1 4.486,-4.48594a4.27891,4.27891 0 0 1 3.14015,1.30092a4.35385,4.35385 0 0 1 1.34575,3.18499z" class="cls-39" id="Layer0_19_1_STROKES"/>
   <path d="m151.39908,489.66563a8.95985,8.95985 0 1 1 -2.62427,-6.34759a8.64706,8.64706 0 0 1 2.62427,6.34759z" class="cls-39" id="Layer0_20_1_STROKES"/>
   <path d="m327.22163,117.36914l4.48593,4.486m-4.48593,-4.486l-4.486,4.486m0,-8.97191l4.486,4.48594l4.48593,-4.48594" class="cls-39" id="Layer0_21_1_STROKES"/>
   <path d="m129.04381,305.78249l4.486,4.486l4.486,-4.486m-4.486,4.486l4.486,4.48594m-4.486,-4.48594l-4.486,4.48594" class="cls-39" id="Layer0_22_1_STROKES"/>
   <path d="m704.46136,489.65392l4.486,4.48591l4.48591,-4.48591m-4.48591,4.48591l4.48591,4.486m-4.48591,-4.486l-4.486,4.486" class="cls-39" id="Layer0_23_1_STROKES"/>
   <path d="m718.492,284.6287l4.486,4.486m-4.486,-4.486l-4.486,4.486m0,-8.9719l4.486,4.48593l4.486,-4.48593" class="cls-39" id="Layer0_24_1_STROKES"/>
   <g id="Layer0_25_MEMBER_0_FILL">
    <path id="svg_153" d="m701.22249,442.30587a1.00357,1.00357 0 0 0 -0.368,-1.37367l-8.32637,-4.808a1.00358,1.00358 0 0 0 -1.37368,0.368a4.76287,4.76287 0 0 0 -0.37252,4.29567a6.64069,6.64069 0 0 0 6.90627,3.988a4.76286,4.76286 0 0 0 3.5343,-2.47z" class="cls-3"/>
   </g>
   <g id="Layer0_25_MEMBER_1_FILL">
    <path id="svg_154" d="m694.50606,423.51064a1.162,1.162 0 0 0 -1.585,0.42458l-3.57413,6.18951a5.44438,5.44438 0 0 0 1.9955,7.44953l8.84887,5.10977a5.44755,5.44755 0 0 0 7.44953,-1.99551l3.57412,-6.18951a1.11756,1.11756 0 0 0 0.11528,-0.88025a1.09231,1.09231 0 0 0 -0.53315,-0.70089l-16.29102,-9.40723z" class="cls-5"/>
   </g>
   <g id="Layer0_25_MEMBER_2_FILL">
    <path id="svg_155" d="m691.58816,426.10425a1.16028,1.16028 0 0 0 -1.16043,2.00958l18.43457,10.645a1.16028,1.16028 0 0 0 1.16043,-2.00958l-18.43457,-10.645z" class="cls-3"/>
   </g>
   <g id="Layer0_25_MEMBER_3_FILL">
    <path id="svg_156" d="m735.51374,409.72866a20.86144,20.86144 0 1 0 -41.45161,-4.72293a20.60071,20.60071 0 0 0 0.9346,8.668a5.73051,5.73051 0 0 1 -0.06676,2.66791a14.48545,14.48545 0 0 1 -1.23845,2.50047l-0.12765,0.221a6.89423,6.89423 0 0 0 -1.06672,4.19851a4.40051,4.40051 0 0 0 0.74857,2.07579a1.15906,1.15906 0 0 0 0.365,0.3269l16.02977,9.25637a1.11936,1.11936 0 0 0 0.33522,0.131a3.83858,3.83858 0 0 0 1.93409,-0.17833a6.57245,6.57245 0 0 0 3.57114,-3.19894a10.61231,10.61231 0 0 1 2.881,-3.133a13.26011,13.26011 0 0 1 2.085,-1.306a20.88747,20.88747 0 0 0 15.06674,-17.50692l0.00006,0.00017z" class="cls-4"/>
   </g>
   <g id="Layer0_25_MEMBER_4_FILL">
    <path id="svg_157" d="m743.73551,424.927a1.16028,1.16028 0 0 0 1.16043,-2.00958l-7.76369,-4.48313a1.16028,1.16028 0 0 0 -1.16043,2.00958l7.76369,4.48313z" class="cls-4"/>
   </g>
   <g id="Layer0_25_MEMBER_5_FILL">
    <path id="svg_158" d="m747.78839,398.6038a1.15644,1.15644 0 0 0 0.28018,-2.12486a1.13079,1.13079 0 0 0 -0.87638,-0.122l-8.81264,2.36064a1.15154,1.15154 0 0 0 -0.70475,0.53986a1.16508,1.16508 0 0 0 1.301,1.707l8.81259,-2.36064z" class="cls-4"/>
   </g>
   <g id="Layer0_25_MEMBER_6_FILL">
    <path id="svg_159" d="m693.05384,395.661a1.16028,1.16028 0 0 0 1.16043,-2.00958l-7.76369,-4.48313a1.16028,1.16028 0 0 0 -1.16043,2.00958l7.76369,4.48313z" class="cls-4"/>
   </g>
   <g id="Layer0_25_MEMBER_7_FILL">
    <path id="svg_160" d="m708.30677,373.90262a1.11418,1.11418 0 0 0 -0.54373,-0.69806a1.13074,1.13074 0 0 0 -0.87638,-0.122a1.11763,1.11763 0 0 0 -0.70476,0.53985a1.10135,1.10135 0 0 0 -0.11528,0.88025l2.35678,8.81934a1.06877,1.06877 0 0 0 0.54372,0.69806a1.11764,1.11764 0 0 0 0.88025,0.11528a1.10132,1.10132 0 0 0 0.70476,-0.53986a1.1176,1.1176 0 0 0 0.11528,-0.88025l-2.36064,-8.81261z" class="cls-4"/>
   </g>
   <g id="Layer0_25_MEMBER_8_FILL">
    <path id="svg_161" d="m733.24575,378.3263a1.16028,1.16028 0 0 0 -2.00958,-1.16043l-4.48313,7.76369a1.16028,1.16028 0 0 0 2.00959,1.16044l4.48312,-7.7637z" class="cls-4"/>
   </g>
   <g id="Layer0_25_MEMBER_9_FILL">
    <path id="svg_162" d="m689.49939,429.7215a1.16028,1.16028 0 0 0 -1.16044,2.00958l18.43458,10.645a1.16028,1.16028 0 0 0 1.16043,-2.00958l-18.43457,-10.645z" class="cls-3"/>
   </g>
   <g id="Layer0_25_MEMBER_10_FILL">
    <path id="svg_163" d="m731.70612,409.42359a16.8601,16.8601 0 0 0 -8.289,-16.67526a0.77353,0.77353 0 1 0 -0.77362,1.33972a15.29964,15.29964 0 0 1 5.59874,20.901a0.77353,0.77353 0 1 0 1.33972,0.77362a16.55565,16.55565 0 0 0 2.12416,-6.33908z" class="cls-6"/>
   </g>
  </g>
 </g>
</svg>