<svg width="947" height="724" xmlns="http://www.w3.org/2000/svg">
 <defs>
  <style>.cls-1{fill:#9db5e7;}.cls-2{fill:#3542a7;}.cls-3{fill:#e9eff6;}.cls-4{fill:#83a3e7;}.cls-5{fill:#bdcdee;}.cls-6{fill:#fff;}.cls-7{fill:#7393d6;}.cls-8{fill:#1d2777;}.cls-22,.cls-23,.cls-27,.cls-36,.cls-37,.cls-38,.cls-9{fill:none;}.cls-9{stroke:#9db5e7;}.cls-22,.cls-9{stroke-linecap:round;stroke-linejoin:round;}.cls-23,.cls-37,.cls-9{stroke-width:2px;}.cls-10{fill:#00a087;}.cls-11{fill:#00b498;}.cls-12{fill:#00d0b0;}.cls-13{fill:#ffb63c;}.cls-14{fill:#da9625;}.cls-15{fill-opacity:0.09804;}.cls-16{fill:#ffc563;}.cls-17{fill:#cc8817;}.cls-18{fill:#f5a623;}.cls-19{fill:#643f02;}.cls-20{fill:#724906;}.cls-21{fill:#d4e2ff;}.cls-22{stroke:#f2f6ff;}.cls-22,.cls-38{stroke-width:0.5px;}.cls-23,.cls-36{stroke:#1d2777;}.cls-23,.cls-27,.cls-36,.cls-37,.cls-38{stroke-miterlimit:3;}.cls-24{fill:#00bc9f;}.cls-25{fill:#fdaf85;}.cls-26{fill:#6574f0;}.cls-27,.cls-38{stroke:#a5afff;}.cls-28{fill:#7988ff;}.cls-29{fill:#e75555;}.cls-30{fill:#fb6464;}.cls-31{fill:#ee9f74;}.cls-32{fill:#ff7171;}.cls-33{fill:#6383c9;}.cls-34{fill:#7394da;}.cls-35{fill:#9dbbfb;}.cls-36{stroke-width:0.1px;}.cls-37{stroke:#bdcdee;}.cls-39{fill:#e6991a;}.cls-40{fill:#f3a479;}</style>
 </defs>
 <title>Artboard 18</title>
 <g>
  <title>background</title>
  <rect fill="none" id="canvas_background" height="726" width="949" y="-1" x="-1"/>
 </g>
 <g>
  <title>Layer 1</title>
  <g id="svg_218">
   <g id="Layer0_0_FILL">
    <path id="svg_1" d="m465.55044,499.004l0,-9.2l-15.4,0l0,9.2l15.4,0z" class="cls-1"/>
   </g>
   <g id="Layer0_1_FILL">
    <path id="svg_2" d="m470.15044,499.404a1.76781,1.76781 0 0 0 -2,-2l-21.9,0a1.76781,1.76781 0 0 0 -2,2l0,61.6a1.76778,1.76778 0 0 0 2,2l21.9,0a1.76779,1.76779 0 0 0 2,-2l0,-61.6z" class="cls-2"/>
   </g>
   <g id="Layer0_2_FILL">
    <path id="svg_3" d="m470.15044,517.054l0,-4.05l-25.9,0l0,4.05l25.9,0z" class="cls-1"/>
   </g>
   <g id="Layer0_3_FILL">
    <path id="svg_4" d="m470.15044,510.254l0,-4.05l-25.9,0l0,4.05l25.9,0z" class="cls-1"/>
   </g>
   <g id="Layer0_4_FILL">
    <path id="svg_5" d="m481.60051,434.204a33.07485,33.07485 0 1 0 9.7,23.4a31.80628,31.80628 0 0 0 -9.7,-23.4m-23.4,-3.4a26.83484,26.83484 0 1 1 -26.8,26.8a26.63264,26.63264 0 0 1 26.8,-26.8z" class="cls-1"/>
   </g>
   <g id="Layer0_5_FILL">
    <path id="svg_6" d="m729.45044,6.854a250.14788,250.14788 0 0 0 -89.8,-3.25q-35.3,5.1 -82.2,22.55q-13.45,5 -40,15.7q-26.5,10.65 -39.95,15.65q-46.4,17.1 -83.35,22.05q-46.4,6.2 -84,-5.55q-8.35,-2.55 -19.5,-7.15q-12.75,-5.4 -19.15,-8q-23.55,-9.75 -39.35,-12q-33.45,-4.65 -74.25,13.25a223.96361,223.96361 0 0 0 -61.25,40.4a249.61056,249.61056 0 0 0 -73.45,125.75a241.56823,241.56823 0 0 0 -4.35,24.1q-10.75313,57.17147 -14.4,81.5a284.78927,284.78927 0 0 0 -3.45,44.7q0.2,20.39547 9.3,41.95q10.45,24.7 30.35,36.25a99.93688,99.93688 0 0 0 19.5,8.3q6.85,2.2 20.7,6.2a101.52383,101.52383 0 0 1 19.2,7.85a45.97149,45.97149 0 0 1 15.1,13.15q6.05,8.45 8,20.9a105.16757,105.16757 0 0 1 0.6,22.95q-0.85,11.9999 -5.55,45.15q-4.05,28.25 -4.2,45.1q-0.2,24.7 7.1,45.1q8.3,23.2 25.05,36.55q18.25,14.55 47.1,17.3q20.55,2 52.65,-2.05q45.95,-5.65 82.15,-13.55a532.8494,532.8494 0 0 0 79.7,-23.7q15.8,-6.1 52.45,-22.85q33.4,-15.24993 52.7,-22.15q34.2,-12.19995 83.1,-21.35q28.35,-5.2499 85.35,-14.2q50.35,-8.6001 83.1,-18.7q43.7,-13.5 76.3,-34.9a243.85178,243.85178 0 0 0 97.75,-129.25q8.2499,-26.14993 8.6,-49.95q0.35,-27.2 -9.85,-48.65q-3.8,-8.15 -15.65,-26.1q-10.7,-16.2 -14.6,-26.4q-5.59992,-14.65 -6.5,-37.5q-0.09988,-25.95 -1,-38.75q-2.95,-44.45 -26.85,-85.05a208.52088,208.52088 0 0 0 -60.9,-65.95q-36.6,-25.4 -82.3,-35.4z" class="cls-3"/>
   </g>
   <g id="Layer0_6_MEMBER_0_FILL">
    <path id="svg_7" d="m399.17534,496.26q1.45961,28.77455 -2.5716,50.11221q-4.03138,21.19857 -12.4412,30.23415l156.24446,0q-8.40969,-9.03558 -12.44111,-30.23415q-4.03125,-21.33766 -2.57161,-50.11221l-126.21894,0z" class="cls-4"/>
   </g>
   <g id="Layer0_6_MEMBER_1_FILL">
    <path id="svg_8" d="m142.15031,483.8883q-0.00012,20.01717 20.01713,20.01713l602.18072,0q20.017,0 20.01712,-20.01713l0,-401.73183q0,-20.01709 -20.01712,-20.01708l-602.18072,0q-20.01717,0.00008 -20.01713,20.01708l0,401.73183z" class="cls-5"/>
   </g>
   <g id="Layer0_6_MEMBER_2_FILL">
    <path id="svg_9" d="m169.67388,87.29973l0,313.60112l587.09843,0l0,-313.60112l-587.09843,0z" class="cls-6"/>
   </g>
   <g id="Layer0_6_MEMBER_3_FILL">
    <path id="svg_10" d="m399.17534,496.26q0.59549,11.73959 0.278,22.24121l125.6628,0q-0.3174,-10.50155 0.27811,-22.24121l-126.21891,0z" class="cls-7"/>
   </g>
   <g id="Layer0_6_MEMBER_4_FILL">
    <path id="svg_11" d="m142.15031,426.4782l0,57.4101q-0.00012,20.01717 20.01713,20.01713l602.18072,0q20.017,0 20.01712,-20.01713l0,-57.4101l-642.21497,0z" class="cls-8"/>
   </g>
   <g id="Layer0_6_MEMBER_5_FILL">
    <path id="svg_12" d="m555.28091,593.56531a10.70361,10.70361 0 1 0 0,-21.4072l-187.10424,0a10.70361,10.70361 0 1 0 0,21.4072l187.10424,0z" class="cls-8"/>
   </g>
   <g id="Layer0_6_MEMBER_6_FILL">
    <path id="svg_13" d="m477.17913,465.15848a13.9085,13.9085 0 1 0 -13.90076,13.90076a14.0019,14.0019 0 0 0 13.90076,-13.90076z" class="cls-6"/>
   </g>
   <path d="m205.65044,299.154l125.5,-110.4l80,55.2l90,-73.7l120,100l80,-60" class="cls-9" id="Layer0_7_1_STROKES"/>
   <g id="Layer0_8_STROKES_1_FILL">
    <path id="svg_14" d="m398.16634,353.7027a0.88916,0.88916 0 1 0 0.64394,-0.276a0.8825,0.8825 0 0 0 -0.64394,0.276m10.76292,0.64389a0.94325,0.94325 0 1 0 0.276,-0.64389a0.88255,0.88255 0 0 0 -0.276,0.64389m-3.67963,0a0.94314,0.94314 0 1 0 -0.276,0.644a0.88254,0.88254 0 0 0 0.276,-0.644m-22.35372,-0.64389a0.88924,0.88924 0 1 0 0.276,0.64389a0.88255,0.88255 0 0 0 -0.276,-0.64389m-5.51944,0a0.88924,0.88924 0 1 0 0.276,0.64389a0.88255,0.88255 0 0 0 -0.276,-0.64389m16.55832,0a0.88924,0.88924 0 1 0 0.276,0.64389a0.88255,0.88255 0 0 0 -0.276,-0.64389m-5.51944,0a0.88924,0.88924 0 1 0 0.276,0.64389a0.88255,0.88255 0 0 0 -0.276,-0.64389m49.675,0a0.88924,0.88924 0 1 0 0.276,0.64389a0.88259,0.88259 0 0 0 -0.276,-0.64389m11.03888,0a0.88924,0.88924 0 1 0 0.276,0.64389a0.88259,0.88259 0 0 0 -0.276,-0.64389m-6.80733,0a0.88916,0.88916 0 1 0 0.64394,-0.276a0.88251,0.88251 0 0 0 -0.64394,0.276m-20.78987,0a0.88924,0.88924 0 1 0 0.276,0.64389a0.88257,0.88257 0 0 0 -0.276,-0.64389m-5.51944,0a0.88924,0.88924 0 1 0 0.276,0.64389a0.88255,0.88255 0 0 0 -0.276,-0.64389m15.27043,0a0.88916,0.88916 0 1 0 0.64394,-0.276a0.8825,0.8825 0 0 0 -0.64394,0.276m-4.8755,-0.276a0.94325,0.94325 0 1 0 0.64395,0.276a0.88255,0.88255 0 0 0 -0.64395,-0.276m-98.706,0.276a0.88924,0.88924 0 1 0 0.276,0.64389a0.88255,0.88255 0 0 0 -0.276,-0.64389m-6.80733,0a0.88916,0.88916 0 1 0 0.644,-0.276a0.88254,0.88254 0 0 0 -0.644,0.276m11.03888,0a0.88916,0.88916 0 1 0 0.644,-0.276a0.88254,0.88254 0 0 0 -0.644,0.276m-26.30931,0a0.88921,0.88921 0 1 0 0.276,0.64389a0.8826,0.8826 0 0 0 -0.276,-0.64389m11.03888,0a0.88924,0.88924 0 1 0 0.276,0.64389a0.8826,0.8826 0 0 0 -0.276,-0.64389m-5.51944,1.28784a0.88929,0.88929 0 1 0 -0.64394,0.276a0.88255,0.88255 0 0 0 0.64394,-0.276m55.1944,-1.28784a0.88924,0.88924 0 1 0 0.276,0.64389a0.88255,0.88255 0 0 0 -0.276,-0.64389m-6.80733,0a0.88916,0.88916 0 1 0 0.644,-0.276a0.88254,0.88254 0 0 0 -0.644,0.276m11.03888,0a0.88916,0.88916 0 1 0 0.64394,-0.276a0.8825,0.8825 0 0 0 -0.64394,0.276m-31.82871,1.28784a0.88929,0.88929 0 1 0 -0.64394,0.276a0.88255,0.88255 0 0 0 0.64394,-0.276m4.23155,-1.28784a0.88916,0.88916 0 1 0 0.64395,-0.276a0.88254,0.88254 0 0 0 -0.64395,0.276m12.32677,0a0.88924,0.88924 0 1 0 0.276,0.64389a0.88255,0.88255 0 0 0 -0.276,-0.64389m-5.51944,0a0.88924,0.88924 0 1 0 0.276,0.64389a0.88255,0.88255 0 0 0 -0.276,-0.64389m5.51944,-55.19442a0.88926,0.88926 0 1 0 0.276,0.64394a0.88246,0.88246 0 0 0 -0.276,-0.64394m-5.51944,0a0.88926,0.88926 0 1 0 0.276,0.64394a0.88246,0.88246 0 0 0 -0.276,-0.64394m-7.08329,0.64394a0.94316,0.94316 0 1 0 0.276,-0.64394a0.88256,0.88256 0 0 0 -0.276,0.64394m29.161,-0.64394a0.88926,0.88926 0 1 0 0.276,0.64394a0.88246,0.88246 0 0 0 -0.276,-0.64394m-5.51944,0a0.88926,0.88926 0 1 0 0.276,0.64394a0.88246,0.88246 0 0 0 -0.276,-0.64394m-6.80733,0a0.88927,0.88927 0 1 0 0.644,-0.276a0.88265,0.88265 0 0 0 -0.644,0.276m-42.86763,0a0.88926,0.88926 0 1 0 0.276,0.64394a0.88251,0.88251 0 0 0 -0.276,-0.64394m-6.16338,-0.276a0.94316,0.94316 0 1 0 0.64394,0.276a0.88251,0.88251 0 0 0 -0.64394,-0.276m-6.16339,0.276a0.88927,0.88927 0 1 0 0.64395,-0.276a0.88265,0.88265 0 0 0 -0.64395,0.276m33.76059,-0.276a0.94316,0.94316 0 1 0 0.64394,0.276a0.88246,0.88246 0 0 0 -0.64394,-0.276m-4.8755,0.276a0.88926,0.88926 0 1 0 0.276,0.64394a0.88246,0.88246 0 0 0 -0.276,-0.64394m-5.51944,0a0.88926,0.88926 0 1 0 0.276,0.64394a0.88246,0.88246 0 0 0 -0.276,-0.64394m-6.80733,0a0.88927,0.88927 0 1 0 0.644,-0.276a0.88265,0.88265 0 0 0 -0.644,0.276m-15.91437,-55.47036a0.94316,0.94316 0 1 0 0.64394,0.276a0.88256,0.88256 0 0 0 -0.64394,-0.276m5.51944,0a0.94314,0.94314 0 1 0 0.64394,0.276a0.88254,0.88254 0 0 0 -0.64394,-0.276m5.51944,0a0.94314,0.94314 0 1 0 0.64394,0.276a0.88254,0.88254 0 0 0 -0.64394,-0.276m5.51944,0a0.94314,0.94314 0 1 0 0.64394,0.276a0.88249,0.88249 0 0 0 -0.64394,-0.276m6.16338,0.276a0.88926,0.88926 0 1 0 0.276,0.64394a0.88248,0.88248 0 0 0 -0.276,-0.64394m5.51944,0a0.88926,0.88926 0 1 0 0.276,0.64394a0.88248,0.88248 0 0 0 -0.276,-0.64394m5.51944,1.28786a0.88923,0.88923 0 1 0 -0.64394,0.276a0.8825,0.8825 0 0 0 0.64394,-0.276m4.8755,-1.56382a0.94314,0.94314 0 1 0 0.64394,0.276a0.88249,0.88249 0 0 0 -0.64394,-0.276m5.51944,0a0.94314,0.94314 0 1 0 0.64394,0.276a0.88249,0.88249 0 0 0 -0.64394,-0.276m5.51944,0a0.94314,0.94314 0 1 0 0.64394,0.276a0.88249,0.88249 0 0 0 -0.64394,-0.276m5.51944,0a0.94314,0.94314 0 1 0 0.64394,0.276a0.88249,0.88249 0 0 0 -0.64394,-0.276m6.16338,0.276a0.88926,0.88926 0 1 0 0.276,0.64394a0.88248,0.88248 0 0 0 -0.276,-0.64394m5.51944,0a0.88926,0.88926 0 1 0 0.276,0.64394a0.88249,0.88249 0 0 0 -0.276,-0.64394m54.55041,54.91835a0.94316,0.94316 0 1 0 0.64395,0.276a0.88246,0.88246 0 0 0 -0.64395,-0.276m-4.87549,0.276a0.88926,0.88926 0 1 0 0.276,0.64394a0.88248,0.88248 0 0 0 -0.276,-0.64394m-6.80733,0a0.88927,0.88927 0 1 0 0.64394,-0.276a0.88261,0.88261 0 0 0 -0.64394,0.276m34.40453,0a0.88926,0.88926 0 1 0 0.276,0.64394a0.88249,0.88249 0 0 0 -0.276,-0.64394m-5.51944,0a0.88926,0.88926 0 1 0 0.276,0.64394a0.88249,0.88249 0 0 0 -0.276,-0.64394m-5.51944,0a0.88926,0.88926 0 1 0 0.276,0.64394a0.88249,0.88249 0 0 0 -0.276,-0.64394m-5.24348,0.64394a0.9432,0.9432 0 1 0 -0.276,0.64392a0.88265,0.88265 0 0 0 0.276,-0.64392m-38.912,-0.64394a0.88926,0.88926 0 1 0 0.276,0.64394a0.88246,0.88246 0 0 0 -0.276,-0.64394m-5.51944,0a0.88926,0.88926 0 1 0 0.276,0.64394a0.88246,0.88246 0 0 0 -0.276,-0.64394m-5.51944,0a0.88926,0.88926 0 1 0 0.276,0.64394a0.88246,0.88246 0 0 0 -0.276,-0.64394m-6.80733,0a0.88927,0.88927 0 1 0 0.64394,-0.276a0.88261,0.88261 0 0 0 -0.64394,0.276m32.84068,0.64394a0.94316,0.94316 0 1 0 0.276,-0.64394a0.88252,0.88252 0 0 0 -0.276,0.64394m-5.24348,-0.64394a0.88927,0.88927 0 1 0 0.64394,-0.276a0.88261,0.88261 0 0 0 -0.64394,0.276m-5.51944,0a0.88927,0.88927 0 1 0 0.64394,-0.276a0.88261,0.88261 0 0 0 -0.64394,0.276m-21.43382,-55.47036a0.94314,0.94314 0 1 0 0.64395,0.276a0.88248,0.88248 0 0 0 -0.64395,-0.276m5.51944,0a0.94314,0.94314 0 1 0 0.644,0.276a0.88248,0.88248 0 0 0 -0.644,-0.276m5.51944,0a0.94314,0.94314 0 1 0 0.64395,0.276a0.88248,0.88248 0 0 0 -0.64395,-0.276m5.51944,0a0.94314,0.94314 0 1 0 0.644,0.276a0.88248,0.88248 0 0 0 -0.644,-0.276m5.51944,0a0.94314,0.94314 0 1 0 0.644,0.276a0.88248,0.88248 0 0 0 -0.644,-0.276m11.68283,0.276a0.88926,0.88926 0 1 0 0.276,0.64394a0.88249,0.88249 0 0 0 -0.276,-0.64394m-5.51944,0a0.88926,0.88926 0 1 0 0.276,0.64394a0.88249,0.88249 0 0 0 -0.276,-0.64394m10.39493,-0.276a0.94314,0.94314 0 1 0 0.64395,0.276a0.88248,0.88248 0 0 0 -0.64395,-0.276m5.51944,0a0.94314,0.94314 0 1 0 0.644,0.276a0.88248,0.88248 0 0 0 -0.644,-0.276m5.51944,0a0.94314,0.94314 0 1 0 0.64395,0.276a0.88248,0.88248 0 0 0 -0.64395,-0.276m6.16339,0.276a0.88926,0.88926 0 1 0 0.276,0.64394a0.88252,0.88252 0 0 0 -0.276,-0.64394m4.87549,-0.276a0.94314,0.94314 0 1 0 0.64395,0.276a0.88248,0.88248 0 0 0 -0.64395,-0.276m11.68283,0.276a0.88926,0.88926 0 1 0 0.276,0.64394a0.88252,0.88252 0 0 0 -0.276,-0.64394m-5.51944,0a0.88926,0.88926 0 1 0 0.276,0.64394a0.88252,0.88252 0 0 0 -0.276,-0.64394m103.58146,110.38875a0.88916,0.88916 0 1 0 0.644,-0.276a0.88262,0.88262 0 0 0 -0.644,0.276m10.76292,0.64389a0.94325,0.94325 0 1 0 0.276,-0.64389a0.88267,0.88267 0 0 0 -0.276,0.64389m-3.67963,0a0.94314,0.94314 0 1 0 -0.276,0.644a0.88262,0.88262 0 0 0 0.276,-0.644m-22.35372,-0.64389a0.88924,0.88924 0 1 0 0.276,0.64389a0.8826,0.8826 0 0 0 -0.276,-0.64389m-5.51944,0a0.88924,0.88924 0 1 0 0.276,0.64389a0.8826,0.8826 0 0 0 -0.276,-0.64389m16.55832,0a0.88924,0.88924 0 1 0 0.276,0.64389a0.8826,0.8826 0 0 0 -0.276,-0.64389m-5.51944,0a0.88924,0.88924 0 1 0 0.276,0.64389a0.8826,0.8826 0 0 0 -0.276,-0.64389m49.675,0a0.88924,0.88924 0 1 0 0.276,0.64389a0.8826,0.8826 0 0 0 -0.276,-0.64389m11.03888,0a0.88924,0.88924 0 1 0 0.276,0.64389a0.8826,0.8826 0 0 0 -0.276,-0.64389m-6.80733,0a0.88916,0.88916 0 1 0 0.64394,-0.276a0.88262,0.88262 0 0 0 -0.64394,0.276m-20.78987,0a0.88924,0.88924 0 1 0 0.276,0.64389a0.8826,0.8826 0 0 0 -0.276,-0.64389m-5.51944,0a0.88924,0.88924 0 1 0 0.276,0.64389a0.8826,0.8826 0 0 0 -0.276,-0.64389m15.27043,0a0.88916,0.88916 0 1 0 0.64394,-0.276a0.88262,0.88262 0 0 0 -0.64394,0.276m-4.8755,-0.276a0.94325,0.94325 0 1 0 0.64395,0.276a0.8826,0.8826 0 0 0 -0.64395,-0.276m-98.706,0.276a0.88924,0.88924 0 1 0 0.276,0.64389a0.88263,0.88263 0 0 0 -0.276,-0.64389m-6.80734,0a0.88917,0.88917 0 1 0 0.64395,-0.276a0.88254,0.88254 0 0 0 -0.64395,0.276m11.03888,0a0.88916,0.88916 0 1 0 0.644,-0.276a0.88266,0.88266 0 0 0 -0.644,0.276m-26.3093,0a0.88924,0.88924 0 1 0 0.276,0.64389a0.88259,0.88259 0 0 0 -0.276,-0.64389m11.03888,0a0.88924,0.88924 0 1 0 0.276,0.64389a0.88259,0.88259 0 0 0 -0.276,-0.64389m-5.51944,1.28784a0.88931,0.88931 0 1 0 -0.644,0.276a0.88259,0.88259 0 0 0 0.644,-0.276m55.19437,-1.28784a0.88924,0.88924 0 1 0 0.276,0.64389a0.8826,0.8826 0 0 0 -0.276,-0.64389m-6.80733,0a0.88916,0.88916 0 1 0 0.644,-0.276a0.88266,0.88266 0 0 0 -0.644,0.276m11.03888,0a0.88916,0.88916 0 1 0 0.644,-0.276a0.88262,0.88262 0 0 0 -0.644,0.276m-31.82875,1.28784a0.88929,0.88929 0 1 0 -0.64394,0.276a0.88268,0.88268 0 0 0 0.64394,-0.276m4.23155,-1.28784a0.88916,0.88916 0 1 0 0.644,-0.276a0.88266,0.88266 0 0 0 -0.644,0.276m12.32677,0a0.88924,0.88924 0 1 0 0.276,0.64389a0.8826,0.8826 0 0 0 -0.276,-0.64389m-5.51944,0a0.88924,0.88924 0 1 0 0.276,0.64389a0.8826,0.8826 0 0 0 -0.276,-0.64389m5.51944,-55.19442a0.88926,0.88926 0 1 0 0.276,0.64394a0.88251,0.88251 0 0 0 -0.276,-0.64394m-5.51944,0a0.88926,0.88926 0 1 0 0.276,0.64394a0.88251,0.88251 0 0 0 -0.276,-0.64394m-7.08329,0.64394a0.94316,0.94316 0 1 0 0.276,-0.64394a0.88267,0.88267 0 0 0 -0.276,0.64394m29.161,-0.64394a0.88926,0.88926 0 1 0 0.276,0.64394a0.88251,0.88251 0 0 0 -0.276,-0.64394m-5.51944,0a0.88926,0.88926 0 1 0 0.276,0.64394a0.88251,0.88251 0 0 0 -0.276,-0.64394m-6.80733,0a0.88927,0.88927 0 1 0 0.644,-0.276a0.88277,0.88277 0 0 0 -0.644,0.276m-42.86762,0a0.88926,0.88926 0 1 0 0.276,0.64394a0.88249,0.88249 0 0 0 -0.276,-0.64394m-6.16339,-0.276a0.94316,0.94316 0 1 0 0.644,0.276a0.88249,0.88249 0 0 0 -0.644,-0.276m-6.16339,0.276a0.88928,0.88928 0 1 0 0.644,-0.276a0.88265,0.88265 0 0 0 -0.644,0.276m33.76059,-0.276a0.94318,0.94318 0 1 0 0.64394,0.276a0.88253,0.88253 0 0 0 -0.64394,-0.276m-4.8755,0.276a0.88924,0.88924 0 1 0 0.276,0.64394a0.88251,0.88251 0 0 0 -0.276,-0.64394m-5.51943,0a0.88926,0.88926 0 1 0 0.276,0.64394a0.88254,0.88254 0 0 0 -0.276,-0.64394m-6.80734,0a0.88928,0.88928 0 1 0 0.64395,-0.276a0.88265,0.88265 0 0 0 -0.64395,0.276m-15.91437,-55.47036a0.94314,0.94314 0 1 0 0.644,0.276a0.88252,0.88252 0 0 0 -0.644,-0.276m5.51944,0a0.94314,0.94314 0 1 0 0.644,0.276a0.88252,0.88252 0 0 0 -0.644,-0.276m5.51944,0a0.94314,0.94314 0 1 0 0.644,0.276a0.88252,0.88252 0 0 0 -0.644,-0.276m5.51944,0a0.94314,0.94314 0 1 0 0.644,0.276a0.88252,0.88252 0 0 0 -0.644,-0.276m6.16339,0.276a0.88926,0.88926 0 1 0 0.276,0.64394a0.88257,0.88257 0 0 0 -0.276,-0.64394m5.51943,0a0.88924,0.88924 0 1 0 0.276,0.64394a0.88253,0.88253 0 0 0 -0.276,-0.64394m5.51944,1.28786a0.88923,0.88923 0 1 0 -0.64394,0.276a0.88263,0.88263 0 0 0 0.64394,-0.276m4.8755,-1.56382a0.94314,0.94314 0 1 0 0.64394,0.276a0.88254,0.88254 0 0 0 -0.64394,-0.276m5.51944,0a0.94314,0.94314 0 1 0 0.64394,0.276a0.88254,0.88254 0 0 0 -0.64394,-0.276m5.51944,0a0.94314,0.94314 0 1 0 0.64394,0.276a0.88254,0.88254 0 0 0 -0.64394,-0.276m5.51944,0a0.94314,0.94314 0 1 0 0.64394,0.276a0.88254,0.88254 0 0 0 -0.64394,-0.276m6.16338,0.276a0.88926,0.88926 0 1 0 0.276,0.64394a0.88253,0.88253 0 0 0 -0.276,-0.64394m5.51944,0a0.88926,0.88926 0 1 0 0.276,0.64394a0.88253,0.88253 0 0 0 -0.276,-0.64394m54.55045,54.91843a0.94316,0.94316 0 1 0 0.64395,0.276a0.88251,0.88251 0 0 0 -0.64395,-0.276m-4.87549,0.276a0.88926,0.88926 0 1 0 0.276,0.64394a0.88251,0.88251 0 0 0 -0.276,-0.64394m-6.80733,0a0.88927,0.88927 0 1 0 0.64394,-0.276a0.88273,0.88273 0 0 0 -0.64394,0.276m34.40453,0a0.88926,0.88926 0 1 0 0.276,0.64394a0.88251,0.88251 0 0 0 -0.276,-0.64394m-5.51944,0a0.88926,0.88926 0 1 0 0.276,0.64394a0.88251,0.88251 0 0 0 -0.276,-0.64394m-5.51944,0a0.88926,0.88926 0 1 0 0.276,0.64394a0.88251,0.88251 0 0 0 -0.276,-0.64394m-5.24348,0.64394a0.9432,0.9432 0 1 0 -0.276,0.64392a0.88273,0.88273 0 0 0 0.276,-0.64392m-38.912,-0.64394a0.88926,0.88926 0 1 0 0.276,0.64394a0.88251,0.88251 0 0 0 -0.276,-0.64394m-5.51944,0a0.88926,0.88926 0 1 0 0.276,0.64394a0.88251,0.88251 0 0 0 -0.276,-0.64394m-5.51944,0a0.88926,0.88926 0 1 0 0.276,0.64394a0.88251,0.88251 0 0 0 -0.276,-0.64394m-6.80733,0a0.88927,0.88927 0 1 0 0.64395,-0.276a0.88273,0.88273 0 0 0 -0.64395,0.276m32.84068,0.64394a0.94316,0.94316 0 1 0 0.276,-0.64394a0.88263,0.88263 0 0 0 -0.276,0.64394m-5.24348,-0.64394a0.88927,0.88927 0 1 0 0.64394,-0.276a0.88273,0.88273 0 0 0 -0.64394,0.276m-5.51944,0a0.88927,0.88927 0 1 0 0.644,-0.276a0.88273,0.88273 0 0 0 -0.644,0.276m-21.43374,-55.47047a0.94314,0.94314 0 1 0 0.64394,0.276a0.88254,0.88254 0 0 0 -0.64394,-0.276m5.51944,0a0.94314,0.94314 0 1 0 0.64394,0.276a0.88254,0.88254 0 0 0 -0.64394,-0.276m5.51944,0a0.94314,0.94314 0 1 0 0.64394,0.276a0.88254,0.88254 0 0 0 -0.64394,-0.276m5.51944,0a0.94314,0.94314 0 1 0 0.64394,0.276a0.88254,0.88254 0 0 0 -0.64394,-0.276m5.51944,0a0.94314,0.94314 0 1 0 0.64394,0.276a0.88254,0.88254 0 0 0 -0.64394,-0.276m11.68282,0.276a0.88926,0.88926 0 1 0 0.276,0.64394a0.88254,0.88254 0 0 0 -0.276,-0.64394m-5.51944,0a0.88926,0.88926 0 1 0 0.276,0.64394a0.88254,0.88254 0 0 0 -0.276,-0.64394m10.39493,-0.276a0.94314,0.94314 0 1 0 0.644,0.276a0.88253,0.88253 0 0 0 -0.644,-0.276m5.51944,0a0.94314,0.94314 0 1 0 0.644,0.276a0.88253,0.88253 0 0 0 -0.644,-0.276m5.51944,0a0.94314,0.94314 0 1 0 0.64395,0.276a0.88253,0.88253 0 0 0 -0.64395,-0.276m6.16339,0.276a0.88926,0.88926 0 1 0 0.276,0.64394a0.88254,0.88254 0 0 0 -0.276,-0.64394m4.87549,-0.276a0.94314,0.94314 0 1 0 0.644,0.276a0.88253,0.88253 0 0 0 -0.644,-0.276m11.68283,0.276a0.88926,0.88926 0 1 0 0.276,0.64394a0.88254,0.88254 0 0 0 -0.276,-0.64394m-5.51944,0a0.88926,0.88926 0 1 0 0.276,0.64394a0.88254,0.88254 0 0 0 -0.276,-0.64394m-343.49322,110.38878a0.88916,0.88916 0 1 0 0.64394,-0.276a0.8825,0.8825 0 0 0 -0.64394,0.276m10.76291,0.64389a0.94327,0.94327 0 1 0 0.276,-0.64389a0.88256,0.88256 0 0 0 -0.276,0.64389m-3.67962,0a0.94314,0.94314 0 1 0 -0.276,0.644a0.88254,0.88254 0 0 0 0.276,-0.644m-22.35374,-0.64389a0.88919,0.88919 0 1 0 0.276,0.64389a0.88253,0.88253 0 0 0 -0.276,-0.64389m-5.51944,0a0.88919,0.88919 0 1 0 0.276,0.64389a0.88253,0.88253 0 0 0 -0.276,-0.64389m16.55834,0a0.88924,0.88924 0 1 0 0.276,0.64389a0.8826,0.8826 0 0 0 -0.276,-0.64389m-5.51944,0a0.88924,0.88924 0 1 0 0.276,0.64389a0.8826,0.8826 0 0 0 -0.276,-0.64389m49.675,0a0.88924,0.88924 0 1 0 0.276,0.64389a0.88263,0.88263 0 0 0 -0.276,-0.64389m11.03887,0a0.88921,0.88921 0 1 0 0.276,0.64389a0.8826,0.8826 0 0 0 -0.276,-0.64389m-6.80733,0a0.88917,0.88917 0 1 0 0.64395,-0.276a0.88254,0.88254 0 0 0 -0.64395,0.276m-20.78986,0a0.88924,0.88924 0 1 0 0.276,0.64389a0.88262,0.88262 0 0 0 -0.276,-0.64389m-5.51944,0a0.88924,0.88924 0 1 0 0.276,0.64389a0.88262,0.88262 0 0 0 -0.276,-0.64389m15.27042,0a0.88917,0.88917 0 1 0 0.644,-0.276a0.88254,0.88254 0 0 0 -0.644,0.276m-4.87549,-0.276a0.94325,0.94325 0 1 0 0.644,0.276a0.88263,0.88263 0 0 0 -0.644,-0.276m-60.0699,0.276a0.88921,0.88921 0 1 0 0.276,0.64389a0.88256,0.88256 0 0 0 -0.276,-0.64389m-6.80731,0a0.88914,0.88914 0 1 0 0.64393,-0.276a0.88243,0.88243 0 0 0 -0.64393,0.276m11.03888,0a0.88913,0.88913 0 1 0 0.64393,-0.276a0.88243,0.88243 0 0 0 -0.64393,0.276m-15.27045,0a0.88921,0.88921 0 1 0 0.276,0.64389a0.88256,0.88256 0 0 0 -0.276,-0.64389m-1.28787,-55.19442a0.88925,0.88925 0 1 0 0.64393,-0.276a0.88254,0.88254 0 0 0 -0.64393,0.276m17.84618,0a0.88921,0.88921 0 1 0 0.276,0.64394a0.88243,0.88243 0 0 0 -0.276,-0.64394m-5.51943,0a0.88924,0.88924 0 1 0 0.276,0.64394a0.88247,0.88247 0 0 0 -0.276,-0.64394m-6.80731,0a0.88925,0.88925 0 1 0 0.64393,-0.276a0.88254,0.88254 0 0 0 -0.64393,0.276m-5.51944,-55.1944a0.88927,0.88927 0 1 0 0.64393,-0.276a0.88254,0.88254 0 0 0 -0.64393,0.276m6.16337,-0.276a0.94316,0.94316 0 1 0 0.64394,0.276a0.8825,0.8825 0 0 0 -0.64394,-0.276m6.16338,0.276a0.88924,0.88924 0 1 0 0.276,0.64394a0.8825,0.8825 0 0 0 -0.276,-0.64394m5.51943,0a0.88921,0.88921 0 1 0 0.276,0.64394a0.88246,0.88246 0 0 0 -0.276,-0.64394m54.55047,54.91843a0.94316,0.94316 0 1 0 0.644,0.276a0.88254,0.88254 0 0 0 -0.644,-0.276m-4.87549,0.276a0.88926,0.88926 0 1 0 0.276,0.64394a0.88253,0.88253 0 0 0 -0.276,-0.64394m-6.80734,0a0.88928,0.88928 0 1 0 0.644,-0.276a0.88265,0.88265 0 0 0 -0.644,0.276m34.40453,0a0.88924,0.88924 0 1 0 0.276,0.64394a0.88251,0.88251 0 0 0 -0.276,-0.64394m-5.51943,0a0.88926,0.88926 0 1 0 0.276,0.64394a0.88254,0.88254 0 0 0 -0.276,-0.64394m-5.51944,0a0.88926,0.88926 0 1 0 0.276,0.64394a0.88254,0.88254 0 0 0 -0.276,-0.64394m-5.24348,0.64394a0.9432,0.9432 0 1 0 -0.276,0.64392a0.88265,0.88265 0 0 0 0.276,-0.64392m-38.912,-0.64394a0.88926,0.88926 0 1 0 0.276,0.64394a0.88251,0.88251 0 0 0 -0.276,-0.64394m-5.51944,0a0.88926,0.88926 0 1 0 0.276,0.64394a0.88251,0.88251 0 0 0 -0.276,-0.64394m-5.51946,0a0.88921,0.88921 0 1 0 0.276,0.64394a0.88243,0.88243 0 0 0 -0.276,-0.64394m-6.8073,0a0.88924,0.88924 0 1 0 0.64393,-0.276a0.88254,0.88254 0 0 0 -0.64393,0.276m32.84066,0.64394a0.94318,0.94318 0 1 0 0.276,-0.64394a0.88253,0.88253 0 0 0 -0.276,0.64394m-5.24347,-0.64394a0.88927,0.88927 0 1 0 0.64394,-0.276a0.88262,0.88262 0 0 0 -0.64394,0.276m-5.51944,0a0.88927,0.88927 0 1 0 0.64394,-0.276a0.88261,0.88261 0 0 0 -0.64394,0.276m-21.43382,-55.47036a0.94318,0.94318 0 1 0 0.64393,0.276a0.8825,0.8825 0 0 0 -0.64393,-0.276m5.51944,0a0.94318,0.94318 0 1 0 0.64393,0.276a0.8825,0.8825 0 0 0 -0.64393,-0.276m5.51944,0a0.94314,0.94314 0 1 0 0.644,0.276a0.8825,0.8825 0 0 0 -0.644,-0.276m5.51944,0a0.94314,0.94314 0 1 0 0.644,0.276a0.88253,0.88253 0 0 0 -0.644,-0.276m5.51944,0a0.94314,0.94314 0 1 0 0.644,0.276a0.88253,0.88253 0 0 0 -0.644,-0.276m11.68283,0.276a0.88926,0.88926 0 1 0 0.276,0.64394a0.88256,0.88256 0 0 0 -0.276,-0.64394m-5.51944,0a0.88926,0.88926 0 1 0 0.276,0.64394a0.88256,0.88256 0 0 0 -0.276,-0.64394m10.39493,-0.276a0.94314,0.94314 0 1 0 0.644,0.276a0.88257,0.88257 0 0 0 -0.644,-0.276m5.51944,0a0.94314,0.94314 0 1 0 0.64395,0.276a0.88257,0.88257 0 0 0 -0.64395,-0.276m5.51944,0a0.94314,0.94314 0 1 0 0.644,0.276a0.88257,0.88257 0 0 0 -0.644,-0.276m6.16339,0.276a0.88926,0.88926 0 1 0 0.276,0.64394a0.88257,0.88257 0 0 0 -0.276,-0.64394m4.87549,-0.276a0.94314,0.94314 0 1 0 0.644,0.276a0.88256,0.88256 0 0 0 -0.644,-0.276m11.68282,0.276a0.88924,0.88924 0 1 0 0.276,0.64394a0.88253,0.88253 0 0 0 -0.276,-0.64394m-5.51943,0a0.88926,0.88926 0 1 0 0.276,0.64394a0.88257,0.88257 0 0 0 -0.276,-0.64394m-28.8851,-55.1944a0.88931,0.88931 0 1 0 0.644,-0.276a0.88266,0.88266 0 0 0 -0.644,0.276m5.51944,0a0.88931,0.88931 0 1 0 0.644,-0.276a0.88266,0.88266 0 0 0 -0.644,0.276m7.0833,0.644a0.9432,0.9432 0 1 0 -0.276,0.64391a0.88266,0.88266 0 0 0 0.276,-0.64391m5.24348,-0.644a0.88926,0.88926 0 1 0 0.276,0.644a0.88257,0.88257 0 0 0 -0.276,-0.644m4.23154,0a0.88931,0.88931 0 1 0 0.644,-0.276a0.88266,0.88266 0 0 0 -0.644,0.276m5.51944,0a0.88931,0.88931 0 1 0 0.64395,-0.276a0.88266,0.88266 0 0 0 -0.64395,0.276m5.51944,0a0.88929,0.88929 0 1 0 0.644,-0.276a0.88266,0.88266 0 0 0 -0.644,0.276m-71.7527,0a0.88926,0.88926 0 1 0 0.64393,-0.276a0.88255,0.88255 0 0 0 -0.64393,0.276m5.51944,0a0.88926,0.88926 0 1 0 0.64393,-0.276a0.88255,0.88255 0 0 0 -0.64393,0.276m5.51944,0a0.88928,0.88928 0 1 0 0.64393,-0.276a0.88255,0.88255 0 0 0 -0.64393,0.276m6.80732,0a0.88926,0.88926 0 1 0 0.276,0.644a0.88254,0.88254 0 0 0 -0.276,-0.644m5.7954,0.644a0.9432,0.9432 0 1 0 -0.276,0.64391a0.88266,0.88266 0 0 0 0.276,-0.64391m5.51944,0a0.9432,0.9432 0 1 0 -0.276,0.64391a0.88266,0.88266 0 0 0 0.276,-0.64391m3.95559,-0.644a0.88929,0.88929 0 1 0 0.64394,-0.276a0.88263,0.88263 0 0 0 -0.64394,0.276m-55.19439,0a0.88927,0.88927 0 1 0 0.64393,-0.276a0.88255,0.88255 0 0 0 -0.64393,0.276m6.80731,0a0.88924,0.88924 0 1 0 0.276,0.644a0.8825,0.8825 0 0 0 -0.276,-0.644m4.23157,0a0.88927,0.88927 0 1 0 0.64393,-0.276a0.88255,0.88255 0 0 0 -0.64393,0.276m6.8073,0a0.88921,0.88921 0 1 0 0.276,0.644a0.88246,0.88246 0 0 0 -0.276,-0.644m0,-55.1944a0.88923,0.88923 0 1 0 0.276,0.64395a0.88246,0.88246 0 0 0 -0.276,-0.64395m-11.03887,0a0.88925,0.88925 0 1 0 0.276,0.64395a0.8825,0.8825 0 0 0 -0.276,-0.64395m5.51944,0a0.88925,0.88925 0 1 0 0.276,0.64395a0.8825,0.8825 0 0 0 -0.276,-0.64395m-11.03888,0a0.88925,0.88925 0 1 0 0.276,0.64395a0.8825,0.8825 0 0 0 -0.276,-0.64395m87.02315,0a0.88931,0.88931 0 1 0 0.64395,-0.276a0.88269,0.88269 0 0 0 -0.64395,0.276m5.51944,0a0.88929,0.88929 0 1 0 0.644,-0.276a0.88269,0.88269 0 0 0 -0.644,0.276m-9.751,0a0.88927,0.88927 0 1 0 0.276,0.64395a0.88257,0.88257 0 0 0 -0.276,-0.64395m-11.03891,1.28785a0.88924,0.88924 0 1 0 -0.644,0.276a0.88257,0.88257 0 0 0 0.644,-0.276m4.23154,-1.28787a0.88931,0.88931 0 1 0 0.644,-0.276a0.88269,0.88269 0 0 0 -0.644,0.276m-16.55832,0a0.88931,0.88931 0 1 0 0.644,-0.276a0.88269,0.88269 0 0 0 -0.644,0.276m5.51944,0a0.88931,0.88931 0 1 0 0.644,-0.276a0.88269,0.88269 0 0 0 -0.644,0.276m-11.03887,0a0.88929,0.88929 0 1 0 0.64394,-0.276a0.88266,0.88266 0 0 0 -0.64394,0.276m-9.751,1.28787a0.88923,0.88923 0 1 0 -0.644,0.276a0.88257,0.88257 0 0 0 0.644,-0.276m3.95558,-0.64392a0.94316,0.94316 0 1 0 0.276,-0.64395a0.88255,0.88255 0 0 0 -0.276,0.64395m-16.28234,-0.64395a0.88928,0.88928 0 1 0 0.64393,-0.276a0.88258,0.88258 0 0 0 -0.64393,0.276m5.51943,0a0.88929,0.88929 0 1 0 0.64394,-0.276a0.88265,0.88265 0 0 0 -0.64394,0.276m-16.55831,0a0.88926,0.88926 0 1 0 0.64393,-0.276a0.88258,0.88258 0 0 0 -0.64393,0.276m5.51944,0a0.88926,0.88926 0 1 0 0.64393,-0.276a0.88258,0.88258 0 0 0 -0.64393,0.276m331.16637,55.1944a0.88929,0.88929 0 1 0 0.64394,-0.276a0.88273,0.88273 0 0 0 -0.64394,0.276m5.51944,0a0.88929,0.88929 0 1 0 0.64394,-0.276a0.88273,0.88273 0 0 0 -0.64394,0.276m7.08329,0.644a0.9432,0.9432 0 1 0 -0.276,0.64391a0.88273,0.88273 0 0 0 0.276,-0.64391m5.24348,-0.644a0.88926,0.88926 0 1 0 0.276,0.644a0.88254,0.88254 0 0 0 -0.276,-0.644m4.23155,0a0.88929,0.88929 0 1 0 0.64394,-0.276a0.88273,0.88273 0 0 0 -0.64394,0.276m5.51944,0a0.88929,0.88929 0 1 0 0.64394,-0.276a0.88273,0.88273 0 0 0 -0.64394,0.276m5.51944,0a0.88929,0.88929 0 1 0 0.64394,-0.276a0.88273,0.88273 0 0 0 -0.64394,0.276m-71.75272,0a0.88929,0.88929 0 1 0 0.64395,-0.276a0.88273,0.88273 0 0 0 -0.64395,0.276m5.51944,0a0.88929,0.88929 0 1 0 0.644,-0.276a0.88273,0.88273 0 0 0 -0.644,0.276m5.51944,0a0.88929,0.88929 0 1 0 0.644,-0.276a0.88273,0.88273 0 0 0 -0.644,0.276m6.80733,0a0.88926,0.88926 0 1 0 0.276,0.644a0.88253,0.88253 0 0 0 -0.276,-0.644m5.7954,0.644a0.9432,0.9432 0 1 0 -0.276,0.64391a0.88273,0.88273 0 0 0 0.276,-0.64391m5.51944,0a0.9432,0.9432 0 1 0 -0.276,0.64391a0.88273,0.88273 0 0 0 0.276,-0.64391m3.95559,-0.644a0.88929,0.88929 0 1 0 0.64394,-0.276a0.88273,0.88273 0 0 0 -0.64394,0.276m-64.94539,0a0.88926,0.88926 0 1 0 0.276,0.644a0.88253,0.88253 0 0 0 -0.276,-0.644m4.23155,0a0.88929,0.88929 0 1 0 0.644,-0.276a0.88277,0.88277 0 0 0 -0.644,0.276m6.80733,0a0.88926,0.88926 0 1 0 0.276,0.644a0.88253,0.88253 0 0 0 -0.276,-0.644m5.51944,0a0.88926,0.88926 0 1 0 0.276,0.644a0.88253,0.88253 0 0 0 -0.276,-0.644m4.23155,0a0.88929,0.88929 0 1 0 0.644,-0.276a0.88273,0.88273 0 0 0 -0.644,0.276m6.80733,0a0.88926,0.88926 0 1 0 0.276,0.644a0.88253,0.88253 0 0 0 -0.276,-0.644m-67.52117,0a0.88931,0.88931 0 1 0 0.644,-0.276a0.88266,0.88266 0 0 0 -0.644,0.276m7.0833,0.644a0.9432,0.9432 0 1 0 -0.276,0.64391a0.88266,0.88266 0 0 0 0.276,-0.64391m5.51944,0a0.9432,0.9432 0 1 0 -0.276,0.64391a0.88266,0.88266 0 0 0 0.276,-0.64391m5.24348,-0.644a0.88926,0.88926 0 1 0 0.276,0.644a0.88252,0.88252 0 0 0 -0.276,-0.644m4.23154,0a0.88931,0.88931 0 1 0 0.644,-0.276a0.88277,0.88277 0 0 0 -0.644,0.276m5.51944,0a0.88929,0.88929 0 1 0 0.644,-0.276a0.88277,0.88277 0 0 0 -0.644,0.276m5.51944,0a0.88929,0.88929 0 1 0 0.644,-0.276a0.88277,0.88277 0 0 0 -0.644,0.276m34.40453,-55.1944a0.88927,0.88927 0 1 0 0.276,0.64395a0.88253,0.88253 0 0 0 -0.276,-0.64395m-11.03888,0a0.88927,0.88927 0 1 0 0.276,0.64395a0.88253,0.88253 0 0 0 -0.276,-0.64395m5.51944,0a0.88927,0.88927 0 1 0 0.276,0.64395a0.88253,0.88253 0 0 0 -0.276,-0.64395m-17.84621,0a0.88929,0.88929 0 1 0 0.644,-0.276a0.8828,0.8828 0 0 0 -0.644,0.276m5.51944,0a0.88929,0.88929 0 1 0 0.64395,-0.276a0.8828,0.8828 0 0 0 -0.64395,0.276m-9.751,0a0.88927,0.88927 0 1 0 0.276,0.64395a0.88253,0.88253 0 0 0 -0.276,-0.64395m-12.32677,0a0.88929,0.88929 0 1 0 0.644,-0.276a0.8828,0.8828 0 0 0 -0.644,0.276m5.51944,0a0.88929,0.88929 0 1 0 0.644,-0.276a0.8828,0.8828 0 0 0 -0.644,0.276m-15.27042,0a0.88927,0.88927 0 1 0 0.276,0.64395a0.88252,0.88252 0 0 0 -0.276,-0.64395m5.51944,0a0.88927,0.88927 0 1 0 0.276,0.64395a0.88257,0.88257 0 0 0 -0.276,-0.64395m-11.03888,0a0.88927,0.88927 0 1 0 0.276,0.64395a0.88252,0.88252 0 0 0 -0.276,-0.64395m-12.32678,0a0.88931,0.88931 0 1 0 0.644,-0.276a0.88269,0.88269 0 0 0 -0.644,0.276m5.51944,0a0.88931,0.88931 0 1 0 0.64395,-0.276a0.88269,0.88269 0 0 0 -0.64395,0.276m132.46656,0a0.88929,0.88929 0 1 0 0.64394,-0.276a0.88277,0.88277 0 0 0 -0.64394,0.276m5.51944,0a0.88929,0.88929 0 1 0 0.64394,-0.276a0.88277,0.88277 0 0 0 -0.64394,0.276m-9.751,0a0.88927,0.88927 0 1 0 0.276,0.64395a0.88254,0.88254 0 0 0 -0.276,-0.64395m-11.03885,1.28787a0.88923,0.88923 0 1 0 -0.64395,0.276a0.88265,0.88265 0 0 0 0.64395,-0.276m4.23155,-1.28787a0.88929,0.88929 0 1 0 0.64394,-0.276a0.88277,0.88277 0 0 0 -0.64394,0.276m-16.55832,0a0.88929,0.88929 0 1 0 0.64394,-0.276a0.88277,0.88277 0 0 0 -0.64394,0.276m5.51944,0a0.88929,0.88929 0 1 0 0.64394,-0.276a0.88277,0.88277 0 0 0 -0.64394,0.276m-11.03888,0a0.88929,0.88929 0 1 0 0.64394,-0.276a0.88277,0.88277 0 0 0 -0.64394,0.276m-9.751,1.28787a0.88923,0.88923 0 1 0 -0.64394,0.276a0.88265,0.88265 0 0 0 0.64394,-0.276m3.95559,-0.64392a0.94314,0.94314 0 1 0 0.276,-0.64395a0.88265,0.88265 0 0 0 -0.276,0.64395m-16.28236,-0.64395a0.88929,0.88929 0 1 0 0.644,-0.276a0.88277,0.88277 0 0 0 -0.644,0.276m5.51944,0a0.88929,0.88929 0 1 0 0.644,-0.276a0.88277,0.88277 0 0 0 -0.644,0.276m-16.55832,0a0.88929,0.88929 0 1 0 0.64395,-0.276a0.88277,0.88277 0 0 0 -0.64395,0.276m5.51944,0a0.88929,0.88929 0 1 0 0.644,-0.276a0.88277,0.88277 0 0 0 -0.644,0.276m-115.90823,55.1944a0.88929,0.88929 0 1 0 0.64394,-0.276a0.88262,0.88262 0 0 0 -0.64394,0.276m5.51944,0a0.88929,0.88929 0 1 0 0.64394,-0.276a0.88262,0.88262 0 0 0 -0.64394,0.276m7.08329,0.644a0.9432,0.9432 0 1 0 -0.276,0.64391a0.88266,0.88266 0 0 0 0.276,-0.64391m5.24348,-0.644a0.88926,0.88926 0 1 0 0.276,0.644a0.88252,0.88252 0 0 0 -0.276,-0.644m4.23155,0a0.88929,0.88929 0 1 0 0.64394,-0.276a0.88263,0.88263 0 0 0 -0.64394,0.276m5.51944,0a0.88929,0.88929 0 1 0 0.64394,-0.276a0.88263,0.88263 0 0 0 -0.64394,0.276m5.51943,0a0.88931,0.88931 0 1 0 0.64395,-0.276a0.88266,0.88266 0 0 0 -0.64395,0.276m-71.75271,0a0.88929,0.88929 0 1 0 0.64394,-0.276a0.88262,0.88262 0 0 0 -0.64394,0.276m5.51944,0a0.88929,0.88929 0 1 0 0.64394,-0.276a0.88262,0.88262 0 0 0 -0.64394,0.276m5.51944,0a0.88929,0.88929 0 1 0 0.64394,-0.276a0.88262,0.88262 0 0 0 -0.64394,0.276m6.80733,0a0.88926,0.88926 0 1 0 0.276,0.644a0.88249,0.88249 0 0 0 -0.276,-0.644m5.7954,0.644a0.9432,0.9432 0 1 0 -0.276,0.64391a0.88266,0.88266 0 0 0 0.276,-0.64391m5.51944,0a0.9432,0.9432 0 1 0 -0.276,0.64391a0.88266,0.88266 0 0 0 0.276,-0.64391m3.95559,-0.644a0.88929,0.88929 0 1 0 0.64394,-0.276a0.88262,0.88262 0 0 0 -0.64394,0.276m-64.94539,0a0.88926,0.88926 0 1 0 0.276,0.644a0.88248,0.88248 0 0 0 -0.276,-0.644m4.23155,0a0.88929,0.88929 0 1 0 0.644,-0.276a0.88266,0.88266 0 0 0 -0.644,0.276m6.80733,0a0.88926,0.88926 0 1 0 0.276,0.644a0.88248,0.88248 0 0 0 -0.276,-0.644m5.51944,0a0.88926,0.88926 0 1 0 0.276,0.644a0.88248,0.88248 0 0 0 -0.276,-0.644m4.23155,0a0.88929,0.88929 0 1 0 0.64395,-0.276a0.88262,0.88262 0 0 0 -0.64395,0.276m6.80733,0a0.88926,0.88926 0 1 0 0.276,0.644a0.88249,0.88249 0 0 0 -0.276,-0.644m-67.52117,0a0.88929,0.88929 0 1 0 0.64395,-0.276a0.88266,0.88266 0 0 0 -0.64395,0.276m7.08329,0.644a0.9432,0.9432 0 1 0 -0.276,0.64391a0.88262,0.88262 0 0 0 0.276,-0.64391m5.51944,0a0.9432,0.9432 0 1 0 -0.276,0.64391a0.88262,0.88262 0 0 0 0.276,-0.64391m5.24348,-0.644a0.88926,0.88926 0 1 0 0.276,0.644a0.88248,0.88248 0 0 0 -0.276,-0.644m4.23155,0a0.88929,0.88929 0 1 0 0.644,-0.276a0.88266,0.88266 0 0 0 -0.644,0.276m5.51944,0a0.88929,0.88929 0 1 0 0.644,-0.276a0.88266,0.88266 0 0 0 -0.644,0.276m5.51944,0a0.88929,0.88929 0 1 0 0.644,-0.276a0.88266,0.88266 0 0 0 -0.644,0.276m34.40453,-55.1944a0.88927,0.88927 0 1 0 0.276,0.64395a0.88249,0.88249 0 0 0 -0.276,-0.64395m-11.03888,0a0.88927,0.88927 0 1 0 0.276,0.64395a0.88248,0.88248 0 0 0 -0.276,-0.64395m5.51944,0a0.88927,0.88927 0 1 0 0.276,0.64395a0.88248,0.88248 0 0 0 -0.276,-0.64395m-17.84621,0a0.88929,0.88929 0 1 0 0.644,-0.276a0.88269,0.88269 0 0 0 -0.644,0.276m5.51944,0a0.88929,0.88929 0 1 0 0.64395,-0.276a0.88269,0.88269 0 0 0 -0.64395,0.276m-9.751,0a0.88927,0.88927 0 1 0 0.276,0.64395a0.88248,0.88248 0 0 0 -0.276,-0.64395m-12.32677,0a0.88929,0.88929 0 1 0 0.644,-0.276a0.88269,0.88269 0 0 0 -0.644,0.276m5.51944,0a0.88929,0.88929 0 1 0 0.644,-0.276a0.88269,0.88269 0 0 0 -0.644,0.276m-15.27043,0a0.88927,0.88927 0 1 0 0.276,0.64395a0.88248,0.88248 0 0 0 -0.276,-0.64395m5.51944,0a0.88927,0.88927 0 1 0 0.276,0.64395a0.88248,0.88248 0 0 0 -0.276,-0.64395m-11.03888,0a0.88927,0.88927 0 1 0 0.276,0.64395a0.88253,0.88253 0 0 0 -0.276,-0.64395m-12.32677,0a0.88929,0.88929 0 1 0 0.64395,-0.276a0.88269,0.88269 0 0 0 -0.64395,0.276m5.51944,0a0.88929,0.88929 0 1 0 0.644,-0.276a0.88269,0.88269 0 0 0 -0.644,0.276m132.46656,0a0.88929,0.88929 0 1 0 0.64394,-0.276a0.88266,0.88266 0 0 0 -0.64394,0.276m5.51943,0a0.88931,0.88931 0 1 0 0.64395,-0.276a0.88269,0.88269 0 0 0 -0.64395,0.276m-9.751,0a0.88927,0.88927 0 1 0 0.276,0.64395a0.88252,0.88252 0 0 0 -0.276,-0.64395m-11.03883,1.28787a0.88923,0.88923 0 1 0 -0.64395,0.276a0.88257,0.88257 0 0 0 0.64395,-0.276m4.23155,-1.28787a0.88929,0.88929 0 1 0 0.64394,-0.276a0.88265,0.88265 0 0 0 -0.64394,0.276m-16.55832,0a0.88929,0.88929 0 1 0 0.64394,-0.276a0.88265,0.88265 0 0 0 -0.64394,0.276m5.51944,0a0.88929,0.88929 0 1 0 0.64394,-0.276a0.88265,0.88265 0 0 0 -0.64394,0.276m-11.03888,0a0.88929,0.88929 0 1 0 0.64394,-0.276a0.88265,0.88265 0 0 0 -0.64394,0.276m-9.751,1.28787a0.88923,0.88923 0 1 0 -0.644,0.276a0.88257,0.88257 0 0 0 0.644,-0.276m3.95559,-0.64392a0.94314,0.94314 0 1 0 0.276,-0.64395a0.88253,0.88253 0 0 0 -0.276,0.64395m-16.28236,-0.64395a0.88929,0.88929 0 1 0 0.64394,-0.276a0.88265,0.88265 0 0 0 -0.64394,0.276m5.51944,0a0.88929,0.88929 0 1 0 0.64394,-0.276a0.88265,0.88265 0 0 0 -0.64394,0.276m-16.55832,0a0.88929,0.88929 0 1 0 0.64394,-0.276a0.88265,0.88265 0 0 0 -0.64394,0.276m5.51944,0a0.88929,0.88929 0 1 0 0.64394,-0.276a0.88265,0.88265 0 0 0 -0.64394,0.276m314.60806,220.77757a0.88916,0.88916 0 1 0 0.644,-0.276a0.88262,0.88262 0 0 0 -0.644,0.276m10.76292,0.64389a0.94325,0.94325 0 1 0 0.276,-0.64389a0.88267,0.88267 0 0 0 -0.276,0.64389m-3.67963,0a0.94314,0.94314 0 1 0 -0.276,0.644a0.88262,0.88262 0 0 0 0.276,-0.644m-22.35372,-0.64389a0.88924,0.88924 0 1 0 0.276,0.64389a0.8826,0.8826 0 0 0 -0.276,-0.64389m-5.51944,0a0.88924,0.88924 0 1 0 0.276,0.64389a0.8826,0.8826 0 0 0 -0.276,-0.64389m16.55832,0a0.88924,0.88924 0 1 0 0.276,0.64389a0.8826,0.8826 0 0 0 -0.276,-0.64389m-5.51944,0a0.88924,0.88924 0 1 0 0.276,0.64389a0.8826,0.8826 0 0 0 -0.276,-0.64389m33.11664,0a0.88924,0.88924 0 1 0 0.276,0.64389a0.8826,0.8826 0 0 0 -0.276,-0.64389m-5.51944,0a0.88924,0.88924 0 1 0 0.276,0.64389a0.8826,0.8826 0 0 0 -0.276,-0.64389m11.03888,0a0.88924,0.88924 0 1 0 0.276,0.64389a0.8826,0.8826 0 0 0 -0.276,-0.64389m-99.34991,0a0.88924,0.88924 0 1 0 0.276,0.64389a0.88262,0.88262 0 0 0 -0.276,-0.64389m-6.80733,0a0.88916,0.88916 0 1 0 0.64394,-0.276a0.88263,0.88263 0 0 0 -0.64394,0.276m11.03887,0a0.88917,0.88917 0 1 0 0.644,-0.276a0.88266,0.88266 0 0 0 -0.644,0.276m-26.3093,0a0.88924,0.88924 0 1 0 0.276,0.64389a0.8826,0.8826 0 0 0 -0.276,-0.64389m11.03888,0a0.88924,0.88924 0 1 0 0.276,0.64389a0.88262,0.88262 0 0 0 -0.276,-0.64389m-5.51944,1.28784a0.88929,0.88929 0 1 0 -0.644,0.276a0.88271,0.88271 0 0 0 0.644,-0.276m55.19439,-1.28784a0.88921,0.88921 0 1 0 0.276,0.64389a0.8826,0.8826 0 0 0 -0.276,-0.64389m-6.80733,0a0.88917,0.88917 0 1 0 0.644,-0.276a0.88266,0.88266 0 0 0 -0.644,0.276m11.03888,0a0.88916,0.88916 0 1 0 0.644,-0.276a0.88266,0.88266 0 0 0 -0.644,0.276m-31.82874,1.28784a0.88931,0.88931 0 1 0 -0.64395,0.276a0.88271,0.88271 0 0 0 0.64395,-0.276m4.23154,-1.28784a0.88917,0.88917 0 1 0 0.644,-0.276a0.88266,0.88266 0 0 0 -0.644,0.276m12.32678,0a0.88924,0.88924 0 1 0 0.276,0.64389a0.88263,0.88263 0 0 0 -0.276,-0.64389m-5.51944,0a0.88924,0.88924 0 1 0 0.276,0.64389a0.88263,0.88263 0 0 0 -0.276,-0.64389m5.51944,-55.19442a0.88926,0.88926 0 1 0 0.276,0.64394a0.88254,0.88254 0 0 0 -0.276,-0.64394m-5.51944,0a0.88926,0.88926 0 1 0 0.276,0.64394a0.88254,0.88254 0 0 0 -0.276,-0.64394m-7.0833,0.64394a0.94316,0.94316 0 1 0 0.276,-0.64394a0.88267,0.88267 0 0 0 -0.276,0.64394m29.16105,-0.64394a0.88924,0.88924 0 1 0 0.276,0.64394a0.88251,0.88251 0 0 0 -0.276,-0.64394m-5.51944,0a0.88924,0.88924 0 1 0 0.276,0.64394a0.88251,0.88251 0 0 0 -0.276,-0.64394m-6.80733,0a0.88928,0.88928 0 1 0 0.644,-0.276a0.88277,0.88277 0 0 0 -0.644,0.276m-42.86762,0a0.88926,0.88926 0 1 0 0.276,0.64394a0.88253,0.88253 0 0 0 -0.276,-0.64394m-6.16339,-0.276a0.94316,0.94316 0 1 0 0.644,0.276a0.88251,0.88251 0 0 0 -0.644,-0.276m-6.16338,0.276a0.88927,0.88927 0 1 0 0.64394,-0.276a0.88273,0.88273 0 0 0 -0.64394,0.276m33.76058,-0.276a0.94316,0.94316 0 1 0 0.64395,0.276a0.88254,0.88254 0 0 0 -0.64395,-0.276m-4.87549,0.276a0.88926,0.88926 0 1 0 0.276,0.64394a0.88253,0.88253 0 0 0 -0.276,-0.64394m-5.51944,0a0.88926,0.88926 0 1 0 0.276,0.64394a0.88253,0.88253 0 0 0 -0.276,-0.64394m-6.80733,0a0.88927,0.88927 0 1 0 0.64394,-0.276a0.88274,0.88274 0 0 0 -0.64394,0.276m-15.91438,-55.47036a0.94314,0.94314 0 1 0 0.644,0.276a0.88253,0.88253 0 0 0 -0.644,-0.276m5.51944,0a0.94314,0.94314 0 1 0 0.644,0.276a0.88253,0.88253 0 0 0 -0.644,-0.276m5.51944,0a0.94314,0.94314 0 1 0 0.644,0.276a0.88253,0.88253 0 0 0 -0.644,-0.276m5.51944,0a0.94314,0.94314 0 1 0 0.644,0.276a0.88253,0.88253 0 0 0 -0.644,-0.276m6.16339,0.276a0.88926,0.88926 0 1 0 0.276,0.64394a0.88256,0.88256 0 0 0 -0.276,-0.64394m5.51944,0a0.88926,0.88926 0 1 0 0.276,0.64394a0.88256,0.88256 0 0 0 -0.276,-0.64394m5.51944,1.28786a0.88924,0.88924 0 1 0 -0.64395,0.276a0.88266,0.88266 0 0 0 0.64395,-0.276m4.87549,-1.56382a0.94314,0.94314 0 1 0 0.644,0.276a0.88257,0.88257 0 0 0 -0.644,-0.276m5.51944,0a0.94314,0.94314 0 1 0 0.644,0.276a0.88257,0.88257 0 0 0 -0.644,-0.276m5.51944,0a0.94314,0.94314 0 1 0 0.644,0.276a0.88256,0.88256 0 0 0 -0.644,-0.276m5.51944,0a0.94314,0.94314 0 1 0 0.64395,0.276a0.88256,0.88256 0 0 0 -0.64395,-0.276m6.16338,0.276a0.88924,0.88924 0 1 0 0.276,0.64394a0.88253,0.88253 0 0 0 -0.276,-0.64394m5.51944,0a0.88924,0.88924 0 1 0 0.276,0.64394a0.88253,0.88253 0 0 0 -0.276,-0.64394m55.1944,55.1944a0.88926,0.88926 0 1 0 0.276,0.64394a0.88251,0.88251 0 0 0 -0.276,-0.64394m-5.51944,0a0.88926,0.88926 0 1 0 0.276,0.64394a0.88251,0.88251 0 0 0 -0.276,-0.64394m-5.51944,0a0.88926,0.88926 0 1 0 0.276,0.64394a0.88251,0.88251 0 0 0 -0.276,-0.64394m-22.07776,0a0.88926,0.88926 0 1 0 0.276,0.64394a0.88251,0.88251 0 0 0 -0.276,-0.64394m-5.51944,0a0.88926,0.88926 0 1 0 0.276,0.64394a0.88251,0.88251 0 0 0 -0.276,-0.64394m-5.51944,0a0.88926,0.88926 0 1 0 0.276,0.64394a0.88251,0.88251 0 0 0 -0.276,-0.64394m-6.80733,0a0.88927,0.88927 0 1 0 0.644,-0.276a0.88277,0.88277 0 0 0 -0.644,0.276m32.84068,0.64394a0.94316,0.94316 0 1 0 0.276,-0.64394a0.88263,0.88263 0 0 0 -0.276,0.64394m-5.24348,-0.64394a0.88927,0.88927 0 1 0 0.644,-0.276a0.88273,0.88273 0 0 0 -0.644,0.276m-5.51944,0a0.88927,0.88927 0 1 0 0.644,-0.276a0.88273,0.88273 0 0 0 -0.644,0.276m-21.43381,-55.47036a0.94314,0.94314 0 1 0 0.64394,0.276a0.88256,0.88256 0 0 0 -0.64394,-0.276m5.51944,0a0.94314,0.94314 0 1 0 0.64394,0.276a0.88254,0.88254 0 0 0 -0.64394,-0.276m5.51944,0a0.94314,0.94314 0 1 0 0.64394,0.276a0.88254,0.88254 0 0 0 -0.64394,-0.276m5.51944,0a0.94314,0.94314 0 1 0 0.64394,0.276a0.88254,0.88254 0 0 0 -0.64394,-0.276m5.51944,0a0.94314,0.94314 0 1 0 0.64394,0.276a0.88254,0.88254 0 0 0 -0.64394,-0.276m11.68282,0.276a0.88926,0.88926 0 1 0 0.276,0.64394a0.88253,0.88253 0 0 0 -0.276,-0.64394m-5.51944,0a0.88926,0.88926 0 1 0 0.276,0.64394a0.88253,0.88253 0 0 0 -0.276,-0.64394m16.55832,0a0.88926,0.88926 0 1 0 0.276,0.64394a0.88253,0.88253 0 0 0 -0.276,-0.64394m-5.51944,0a0.88926,0.88926 0 1 0 0.276,0.64394a0.88253,0.88253 0 0 0 -0.276,-0.64394m11.03888,0a0.88926,0.88926 0 1 0 0.276,0.64394a0.88253,0.88253 0 0 0 -0.276,-0.64394m-12.32673,-55.19452a0.88929,0.88929 0 1 0 0.644,-0.276a0.88273,0.88273 0 0 0 -0.644,0.276m5.51944,0a0.88929,0.88929 0 1 0 0.64395,-0.276a0.88273,0.88273 0 0 0 -0.64395,0.276m6.80733,0a0.88926,0.88926 0 1 0 0.276,0.644a0.88253,0.88253 0 0 0 -0.276,-0.644m-50.96285,0a0.88929,0.88929 0 1 0 0.644,-0.276a0.88277,0.88277 0 0 0 -0.644,0.276m5.51944,0a0.88929,0.88929 0 1 0 0.64395,-0.276a0.88277,0.88277 0 0 0 -0.64395,0.276m5.51944,0a0.88929,0.88929 0 1 0 0.644,-0.276a0.88277,0.88277 0 0 0 -0.644,0.276m6.80733,0a0.88926,0.88926 0 1 0 0.276,0.644a0.88253,0.88253 0 0 0 -0.276,-0.644m5.7954,0.644a0.9432,0.9432 0 1 0 -0.276,0.64391a0.88273,0.88273 0 0 0 0.276,-0.64391m5.51944,0a0.9432,0.9432 0 1 0 -0.276,0.64391a0.88273,0.88273 0 0 0 0.276,-0.64391m3.95559,-0.644a0.88929,0.88929 0 1 0 0.644,-0.276a0.88273,0.88273 0 0 0 -0.644,0.276m-64.94538,0a0.88926,0.88926 0 1 0 0.276,0.644a0.88257,0.88257 0 0 0 -0.276,-0.644m4.23154,0a0.88931,0.88931 0 1 0 0.644,-0.276a0.88277,0.88277 0 0 0 -0.644,0.276m6.80734,0a0.88926,0.88926 0 1 0 0.276,0.644a0.88257,0.88257 0 0 0 -0.276,-0.644m5.51944,0a0.88926,0.88926 0 1 0 0.276,0.644a0.88257,0.88257 0 0 0 -0.276,-0.644m4.23154,0a0.88929,0.88929 0 1 0 0.644,-0.276a0.88277,0.88277 0 0 0 -0.644,0.276m6.80733,0a0.88924,0.88924 0 1 0 0.276,0.644a0.88253,0.88253 0 0 0 -0.276,-0.644m-67.52116,0a0.88929,0.88929 0 1 0 0.64394,-0.276a0.88273,0.88273 0 0 0 -0.64394,0.276m7.08329,0.644a0.9432,0.9432 0 1 0 -0.276,0.64391a0.88277,0.88277 0 0 0 0.276,-0.64391m5.51944,0a0.9432,0.9432 0 1 0 -0.276,0.64391a0.88277,0.88277 0 0 0 0.276,-0.64391m5.24348,-0.644a0.88926,0.88926 0 1 0 0.276,0.644a0.88256,0.88256 0 0 0 -0.276,-0.644m4.23155,0a0.88929,0.88929 0 1 0 0.64394,-0.276a0.88274,0.88274 0 0 0 -0.64394,0.276m5.51943,0a0.88931,0.88931 0 1 0 0.644,-0.276a0.88277,0.88277 0 0 0 -0.644,0.276m5.51944,0a0.88931,0.88931 0 1 0 0.644,-0.276a0.88277,0.88277 0 0 0 -0.644,0.276m34.40453,-55.1944a0.88925,0.88925 0 1 0 0.276,0.64395a0.88253,0.88253 0 0 0 -0.276,-0.64395m-11.03887,0a0.88927,0.88927 0 1 0 0.276,0.64395a0.88257,0.88257 0 0 0 -0.276,-0.64395m5.51943,0a0.88925,0.88925 0 1 0 0.276,0.64395a0.88253,0.88253 0 0 0 -0.276,-0.64395m-17.84621,0a0.88931,0.88931 0 1 0 0.644,-0.276a0.8828,0.8828 0 0 0 -0.644,0.276m5.51944,0a0.88931,0.88931 0 1 0 0.644,-0.276a0.8828,0.8828 0 0 0 -0.644,0.276m-9.751,0a0.88927,0.88927 0 1 0 0.276,0.64395a0.88257,0.88257 0 0 0 -0.276,-0.64395m-12.32678,0a0.88931,0.88931 0 1 0 0.644,-0.276a0.8828,0.8828 0 0 0 -0.644,0.276m5.51944,0a0.88931,0.88931 0 1 0 0.644,-0.276a0.8828,0.8828 0 0 0 -0.644,0.276m-15.27042,0a0.88927,0.88927 0 1 0 0.276,0.64395a0.88256,0.88256 0 0 0 -0.276,-0.64395m5.51944,0a0.88927,0.88927 0 1 0 0.276,0.64395a0.88256,0.88256 0 0 0 -0.276,-0.64395m-11.03888,0a0.88927,0.88927 0 1 0 0.276,0.64395a0.88256,0.88256 0 0 0 -0.276,-0.64395m-12.32677,0a0.88929,0.88929 0 1 0 0.64394,-0.276a0.88277,0.88277 0 0 0 -0.64394,0.276m5.51944,0a0.88929,0.88929 0 1 0 0.64394,-0.276a0.88277,0.88277 0 0 0 -0.64394,0.276m117.19612,0a0.88927,0.88927 0 1 0 0.276,0.64395a0.88253,0.88253 0 0 0 -0.276,-0.64395m-12.32677,0a0.88929,0.88929 0 1 0 0.644,-0.276a0.88277,0.88277 0 0 0 -0.644,0.276m5.51944,0a0.88929,0.88929 0 1 0 0.64395,-0.276a0.88277,0.88277 0 0 0 -0.64395,0.276m-11.03888,0a0.88929,0.88929 0 1 0 0.644,-0.276a0.88277,0.88277 0 0 0 -0.644,0.276m-9.751,1.28787a0.88923,0.88923 0 1 0 -0.64394,0.276a0.88265,0.88265 0 0 0 0.64394,-0.276m3.95559,-0.64392a0.94314,0.94314 0 1 0 0.276,-0.64395a0.88265,0.88265 0 0 0 -0.276,0.64395m-16.28236,-0.64395a0.88929,0.88929 0 1 0 0.644,-0.276a0.8828,0.8828 0 0 0 -0.644,0.276m5.51944,0a0.88929,0.88929 0 1 0 0.644,-0.276a0.8828,0.8828 0 0 0 -0.644,0.276m-16.55832,0a0.88929,0.88929 0 1 0 0.644,-0.276a0.8828,0.8828 0 0 0 -0.644,0.276m5.51944,0a0.88929,0.88929 0 1 0 0.64395,-0.276a0.8828,0.8828 0 0 0 -0.64396,0.276l0.00001,0z" class="cls-8"/>
   </g>
   <g id="Layer0_9_FILL">
    <path id="svg_15" d="m361.87604,272.98087l0,5.38146l64.25548,60.39186l0,-5.38146l-64.25548,-60.39186m266.221,-57.21818l0.092,-3.44965l-46.0873,-43.4196l0.138,3.77162l45.85732,43.09763m186.603,-191.52457l0.046,1.9778l16.42038,16.42034l0,-1.28787l-16.46638,-17.11027z" class="cls-10"/>
    <path id="svg_16" d="m233.22709,401.62981l12.8787,0l115.77025,-123.26748l0,-5.38146l-128.649,128.64894m348.87464,-232.73637l-0.046,0l-155.92416,164.47929l0,5.38146l156.10817,-166.08913l-0.138,-3.77162m232.6444,-142.67752l-0.046,-1.9778l-186.51111,188.07488l-0.092,3.44965l186.64911,-189.54673z" class="cls-11"/>
    <path id="svg_17" d="m794.37013,5.84l15.73038,15.73041l-181.95752,171.01059l-45.94935,-48.847l-156.06212,146.6331l-64.25548,-68.395l-191.2026,179.65771l62.55365,0l128.649,-128.64894l64.25548,60.39186l155.92412,-164.47929l0.046,0l46.0873,43.4196l186.51105,-188.07492l16.4664,17.11027l0,-35.50839l-36.79631,0z" class="cls-12"/>
   </g>
   <g id="Symbol_2_0_Layer0_0_FILL">
    <path id="svg_18" d="m711.15044,572.254a1.76779,1.76779 0 0 0 -2,-2l-116,0a1.76779,1.76779 0 0 0 -2,2l0,16a1.76779,1.76779 0 0 0 2,2l116,0a1.76779,1.76779 0 0 0 2,-2l0,-16z" class="cls-13"/>
   </g>
   <g id="Symbol_2_0_Layer0_1_FILL">
    <path id="svg_19" d="m595.25044,570.254l-1.45,0l0,20l1.45,0l0,-20z" class="cls-14"/>
   </g>
   <g id="Symbol_2_0_Layer0_2_FILL">
    <path id="svg_20" d="m600.20044,570.254l-1.45,0l0,20l1.45,0l0,-20z" class="cls-14"/>
   </g>
   <g id="Symbol_2_0_Layer0_3_FILL">
    <path id="svg_21" d="m605.15044,570.254l-1.44995,0l0,20l1.44995,0l0,-20z" class="cls-14"/>
   </g>
   <g id="Symbol_2_0_Layer0_4_FILL">
    <path id="svg_22" d="m610.10039,570.254l-1.44995,0l0,20l1.44995,0l0,-20z" class="cls-14"/>
   </g>
   <g id="Symbol_2_0_Layer0_5_FILL">
    <path id="svg_23" d="m615.05044,570.254l-1.45,0l0,20l1.45,0l0,-20z" class="cls-14"/>
   </g>
   <g id="Symbol_2_0_Layer0_6_FILL">
    <path id="svg_24" d="m620.00044,570.254l-1.45,0l0,20l1.45,0l0,-20z" class="cls-14"/>
   </g>
   <g id="Symbol_2_0_Layer0_7_FILL">
    <path id="svg_25" d="m624.95044,570.254l-1.45,0l0,20l1.45,0l0,-20z" class="cls-14"/>
   </g>
   <g id="Symbol_2_0_Layer0_8_FILL">
    <path id="svg_26" d="m629.90044,570.254l-1.44995,0l0,20l1.44995,0l0,-20z" class="cls-14"/>
   </g>
   <g id="Symbol_2_0_Layer0_9_FILL">
    <path id="svg_27" d="m634.85039,570.254l-1.44995,0l0,20l1.44995,0l0,-20z" class="cls-14"/>
   </g>
   <g id="Symbol_2_0_Layer0_10_FILL">
    <path id="svg_28" d="m639.80044,570.254l-1.45,0l0,20l1.45,0l0,-20z" class="cls-14"/>
   </g>
   <g id="Symbol_2_0_Layer0_11_FILL">
    <path id="svg_29" d="m644.75044,570.254l-1.45,0l0,20l1.45,0l0,-20z" class="cls-14"/>
   </g>
   <g id="Symbol_2_0_Layer0_12_FILL">
    <path id="svg_30" d="m649.70044,570.254l-1.45,0l0,20l1.45,0l0,-20z" class="cls-14"/>
   </g>
   <g id="Symbol_2_0_Layer0_13_FILL">
    <path id="svg_31" d="m654.65044,570.254l-1.44995,0l0,20l1.44995,0l0,-20z" class="cls-14"/>
   </g>
   <g id="Symbol_2_0_Layer0_14_FILL">
    <path id="svg_32" d="m659.60039,570.254l-1.44995,0l0,20l1.44995,0l0,-20z" class="cls-14"/>
   </g>
   <g id="Symbol_2_0_Layer0_15_FILL">
    <path id="svg_33" d="m664.55044,570.254l-1.45,0l0,20l1.45,0l0,-20z" class="cls-14"/>
   </g>
   <g id="Symbol_2_0_Layer0_16_FILL">
    <path id="svg_34" d="m669.50044,570.254l-1.45,0l0,20l1.45,0l0,-20z" class="cls-14"/>
   </g>
   <g id="Symbol_2_0_Layer0_17_FILL">
    <path id="svg_35" d="m674.45044,570.254l-1.45,0l0,20l1.45,0l0,-20z" class="cls-14"/>
   </g>
   <g id="Symbol_2_0_Layer0_18_FILL">
    <path id="svg_36" d="m679.40044,570.254l-1.44995,0l0,20l1.44995,0l0,-20z" class="cls-14"/>
   </g>
   <g id="Symbol_2_0_Layer0_19_FILL">
    <path id="svg_37" d="m684.35039,570.254l-1.44995,0l0,20l1.44995,0l0,-20z" class="cls-14"/>
   </g>
   <g id="Symbol_2_0_Layer0_20_FILL">
    <path id="svg_38" d="m689.30044,570.254l-1.45,0l0,20l1.45,0l0,-20z" class="cls-14"/>
   </g>
   <g id="Symbol_2_0_Layer0_21_FILL">
    <path id="svg_39" d="m694.25044,570.254l-1.45,0l0,20l1.45,0l0,-20z" class="cls-14"/>
   </g>
   <g id="Symbol_2_0_Layer0_22_FILL">
    <path id="svg_40" d="m699.20044,570.254l-1.45,0l0,20l1.45,0l0,-20z" class="cls-14"/>
   </g>
   <g id="Symbol_2_0_Layer0_23_FILL">
    <path id="svg_41" d="m704.15044,570.254l-1.44995,0l0,20l1.44995,0l0,-20z" class="cls-14"/>
   </g>
   <g id="Symbol_2_0_Layer0_24_FILL">
    <path id="svg_42" d="m709.30044,570.254l-1.45,0l0,20l1.45,0l0,-20z" class="cls-14"/>
   </g>
   <g id="Symbol_2_0_Layer0_25_FILL">
    <path id="svg_43" d="m591.15044,588.254a1.76777,1.76777 0 0 0 2,2l116,0a1.76777,1.76777 0 0 0 2,-2l-120,0m120,-16a1.76777,1.76777 0 0 0 -2,-2l-116,0a1.76777,1.76777 0 0 0 -2,2l120,0z" class="cls-15"/>
   </g>
   <g id="Symbol_2_0_Layer0_0_FILL-2">
    <path id="svg_44" d="m718.40044,552.254a1.76779,1.76779 0 0 0 -2,-2l-116,0a1.76779,1.76779 0 0 0 -2,2l0,16a1.76779,1.76779 0 0 0 2,2l116,0a1.76779,1.76779 0 0 0 2,-2l0,-16z" class="cls-13"/>
   </g>
   <g id="Symbol_2_0_Layer0_1_FILL-2">
    <path id="svg_45" d="m602.50044,550.254l-1.45,0l0,20l1.45,0l0,-20z" class="cls-14"/>
   </g>
   <g id="Symbol_2_0_Layer0_2_FILL-2">
    <path id="svg_46" d="m607.45044,550.254l-1.45,0l0,20l1.45,0l0,-20z" class="cls-14"/>
   </g>
   <g id="Symbol_2_0_Layer0_3_FILL-2">
    <path id="svg_47" d="m612.40044,550.254l-1.44995,0l0,20l1.44995,0l0,-20z" class="cls-14"/>
   </g>
   <g id="Symbol_2_0_Layer0_4_FILL-2">
    <path id="svg_48" d="m617.35039,550.254l-1.44995,0l0,20l1.44995,0l0,-20z" class="cls-14"/>
   </g>
   <g id="Symbol_2_0_Layer0_5_FILL-2">
    <path id="svg_49" d="m622.30044,550.254l-1.45,0l0,20l1.45,0l0,-20z" class="cls-14"/>
   </g>
   <g id="Symbol_2_0_Layer0_6_FILL-2">
    <path id="svg_50" d="m627.25044,550.254l-1.45,0l0,20l1.45,0l0,-20z" class="cls-14"/>
   </g>
   <g id="Symbol_2_0_Layer0_7_FILL-2">
    <path id="svg_51" d="m632.20044,550.254l-1.45,0l0,20l1.45,0l0,-20z" class="cls-14"/>
   </g>
   <g id="Symbol_2_0_Layer0_8_FILL-2">
    <path id="svg_52" d="m637.15044,550.254l-1.44995,0l0,20l1.44995,0l0,-20z" class="cls-14"/>
   </g>
   <g id="Symbol_2_0_Layer0_9_FILL-2">
    <path id="svg_53" d="m642.10039,550.254l-1.44995,0l0,20l1.44995,0l0,-20z" class="cls-14"/>
   </g>
   <g id="Symbol_2_0_Layer0_10_FILL-2">
    <path id="svg_54" d="m647.05044,550.254l-1.45,0l0,20l1.45,0l0,-20z" class="cls-14"/>
   </g>
   <g id="Symbol_2_0_Layer0_11_FILL-2">
    <path id="svg_55" d="m652.00044,550.254l-1.45,0l0,20l1.45,0l0,-20z" class="cls-14"/>
   </g>
   <g id="Symbol_2_0_Layer0_12_FILL-2">
    <path id="svg_56" d="m656.95044,550.254l-1.45,0l0,20l1.45,0l0,-20z" class="cls-14"/>
   </g>
   <g id="Symbol_2_0_Layer0_13_FILL-2">
    <path id="svg_57" d="m661.90044,550.254l-1.44995,0l0,20l1.44995,0l0,-20z" class="cls-14"/>
   </g>
   <g id="Symbol_2_0_Layer0_14_FILL-2">
    <path id="svg_58" d="m666.85039,550.254l-1.44995,0l0,20l1.44995,0l0,-20z" class="cls-14"/>
   </g>
   <g id="Symbol_2_0_Layer0_15_FILL-2">
    <path id="svg_59" d="m671.80044,550.254l-1.45,0l0,20l1.45,0l0,-20z" class="cls-14"/>
   </g>
   <g id="Symbol_2_0_Layer0_16_FILL-2">
    <path id="svg_60" d="m676.75044,550.254l-1.45,0l0,20l1.45,0l0,-20z" class="cls-14"/>
   </g>
   <g id="Symbol_2_0_Layer0_17_FILL-2">
    <path id="svg_61" d="m681.70044,550.254l-1.45,0l0,20l1.45,0l0,-20z" class="cls-14"/>
   </g>
   <g id="Symbol_2_0_Layer0_18_FILL-2">
    <path id="svg_62" d="m686.65044,550.254l-1.44995,0l0,20l1.44995,0l0,-20z" class="cls-14"/>
   </g>
   <g id="Symbol_2_0_Layer0_19_FILL-2">
    <path id="svg_63" d="m691.60039,550.254l-1.44995,0l0,20l1.44995,0l0,-20z" class="cls-14"/>
   </g>
   <g id="Symbol_2_0_Layer0_20_FILL-2">
    <path id="svg_64" d="m696.55044,550.254l-1.45,0l0,20l1.45,0l0,-20z" class="cls-14"/>
   </g>
   <g id="Symbol_2_0_Layer0_21_FILL-2">
    <path id="svg_65" d="m701.50044,550.254l-1.45,0l0,20l1.45,0l0,-20z" class="cls-14"/>
   </g>
   <g id="Symbol_2_0_Layer0_22_FILL-2">
    <path id="svg_66" d="m706.45044,550.254l-1.45,0l0,20l1.45,0l0,-20z" class="cls-14"/>
   </g>
   <g id="Symbol_2_0_Layer0_23_FILL-2">
    <path id="svg_67" d="m711.40044,550.254l-1.44995,0l0,20l1.44995,0l0,-20z" class="cls-14"/>
   </g>
   <g id="Symbol_2_0_Layer0_24_FILL-2">
    <path id="svg_68" d="m716.55044,550.254l-1.45,0l0,20l1.45,0l0,-20z" class="cls-14"/>
   </g>
   <g id="Symbol_2_0_Layer0_25_FILL-2">
    <path id="svg_69" d="m598.40044,568.254a1.76777,1.76777 0 0 0 2,2l116,0a1.76777,1.76777 0 0 0 2,-2l-120,0m120,-16a1.76777,1.76777 0 0 0 -2,-2l-116,0a1.76777,1.76777 0 0 0 -2,2l120,0z" class="cls-15"/>
   </g>
   <g id="Symbol_2_0_Layer0_0_FILL-3">
    <path id="svg_70" d="m706.10044,532.254a1.76778,1.76778 0 0 0 -2,-2l-116,0a1.76779,1.76779 0 0 0 -2,2l0,16a1.76779,1.76779 0 0 0 2,2l116,0a1.76778,1.76778 0 0 0 2,-2l0,-16z" class="cls-13"/>
   </g>
   <g id="Symbol_2_0_Layer0_1_FILL-3">
    <path id="svg_71" d="m590.20044,530.254l-1.45,0l0,20l1.45,0l0,-20z" class="cls-14"/>
   </g>
   <g id="Symbol_2_0_Layer0_2_FILL-3">
    <path id="svg_72" d="m595.15044,530.254l-1.44995,0l0,20l1.44995,0l0,-20z" class="cls-14"/>
   </g>
   <g id="Symbol_2_0_Layer0_3_FILL-3">
    <path id="svg_73" d="m600.10044,530.254l-1.45,0l0,20l1.45,0l0,-20z" class="cls-14"/>
   </g>
   <g id="Symbol_2_0_Layer0_4_FILL-3">
    <path id="svg_74" d="m605.05044,530.254l-1.45,0l0,20l1.45,0l0,-20z" class="cls-14"/>
   </g>
   <g id="Symbol_2_0_Layer0_5_FILL-3">
    <path id="svg_75" d="m610.00044,530.254l-1.45,0l0,20l1.45,0l0,-20z" class="cls-14"/>
   </g>
   <g id="Symbol_2_0_Layer0_6_FILL-3">
    <path id="svg_76" d="m614.95044,530.254l-1.45,0l0,20l1.45,0l0,-20z" class="cls-14"/>
   </g>
   <g id="Symbol_2_0_Layer0_7_FILL-3">
    <path id="svg_77" d="m619.90044,530.254l-1.44995,0l0,20l1.44995,0l0,-20z" class="cls-14"/>
   </g>
   <g id="Symbol_2_0_Layer0_8_FILL-3">
    <path id="svg_78" d="m624.85044,530.254l-1.45,0l0,20l1.45,0l0,-20z" class="cls-14"/>
   </g>
   <g id="Symbol_2_0_Layer0_9_FILL-3">
    <path id="svg_79" d="m629.80044,530.254l-1.45,0l0,20l1.45,0l0,-20z" class="cls-14"/>
   </g>
   <g id="Symbol_2_0_Layer0_10_FILL-3">
    <path id="svg_80" d="m634.75044,530.254l-1.45,0l0,20l1.45,0l0,-20z" class="cls-14"/>
   </g>
   <g id="Symbol_2_0_Layer0_11_FILL-3">
    <path id="svg_81" d="m639.70044,530.254l-1.45,0l0,20l1.45,0l0,-20z" class="cls-14"/>
   </g>
   <g id="Symbol_2_0_Layer0_12_FILL-3">
    <path id="svg_82" d="m644.65044,530.254l-1.44995,0l0,20l1.44995,0l0,-20z" class="cls-14"/>
   </g>
   <g id="Symbol_2_0_Layer0_13_FILL-3">
    <path id="svg_83" d="m649.60044,530.254l-1.45,0l0,20l1.45,0l0,-20z" class="cls-14"/>
   </g>
   <g id="Symbol_2_0_Layer0_14_FILL-3">
    <path id="svg_84" d="m654.55044,530.254l-1.45,0l0,20l1.45,0l0,-20z" class="cls-14"/>
   </g>
   <g id="Symbol_2_0_Layer0_15_FILL-3">
    <path id="svg_85" d="m659.50044,530.254l-1.45,0l0,20l1.45,0l0,-20z" class="cls-14"/>
   </g>
   <g id="Symbol_2_0_Layer0_16_FILL-3">
    <path id="svg_86" d="m664.45044,530.254l-1.45,0l0,20l1.45,0l0,-20z" class="cls-14"/>
   </g>
   <g id="Symbol_2_0_Layer0_17_FILL-3">
    <path id="svg_87" d="m669.40044,530.254l-1.44995,0l0,20l1.44995,0l0,-20z" class="cls-14"/>
   </g>
   <g id="Symbol_2_0_Layer0_18_FILL-3">
    <path id="svg_88" d="m674.35044,530.254l-1.45,0l0,20l1.45,0l0,-20z" class="cls-14"/>
   </g>
   <g id="Symbol_2_0_Layer0_19_FILL-3">
    <path id="svg_89" d="m679.30044,530.254l-1.45,0l0,20l1.45,0l0,-20z" class="cls-14"/>
   </g>
   <g id="Symbol_2_0_Layer0_20_FILL-3">
    <path id="svg_90" d="m684.25044,530.254l-1.45,0l0,20l1.45,0l0,-20z" class="cls-14"/>
   </g>
   <g id="Symbol_2_0_Layer0_21_FILL-3">
    <path id="svg_91" d="m689.20044,530.254l-1.45,0l0,20l1.45,0l0,-20z" class="cls-14"/>
   </g>
   <g id="Symbol_2_0_Layer0_22_FILL-3">
    <path id="svg_92" d="m694.15044,530.254l-1.44995,0l0,20l1.44995,0l0,-20z" class="cls-14"/>
   </g>
   <g id="Symbol_2_0_Layer0_23_FILL-3">
    <path id="svg_93" d="m699.10044,530.254l-1.45,0l0,20l1.45,0l0,-20z" class="cls-14"/>
   </g>
   <g id="Symbol_2_0_Layer0_24_FILL-3">
    <path id="svg_94" d="m704.25044,530.254l-1.45,0l0,20l1.45,0l0,-20z" class="cls-14"/>
   </g>
   <g id="Symbol_2_0_Layer0_25_FILL-3">
    <path id="svg_95" d="m586.10044,548.254a1.76777,1.76777 0 0 0 2,2l116,0a1.76777,1.76777 0 0 0 2,-2l-120,0m120,-16a1.76777,1.76777 0 0 0 -2,-2l-116,0a1.76777,1.76777 0 0 0 -2,2l120,0z" class="cls-15"/>
   </g>
   <g id="Symbol_2_0_Layer0_0_FILL-4">
    <path id="svg_96" d="m730.70044,512.254a1.76779,1.76779 0 0 0 -2,-2l-116,0a1.76778,1.76778 0 0 0 -2,2l0,16a1.76778,1.76778 0 0 0 2,2l116,0a1.76779,1.76779 0 0 0 2,-2l0,-16z" class="cls-13"/>
   </g>
   <g id="Symbol_2_0_Layer0_1_FILL-4">
    <path id="svg_97" d="m614.80044,510.254l-1.45,0l0,20l1.45,0l0,-20z" class="cls-14"/>
   </g>
   <g id="Symbol_2_0_Layer0_2_FILL-4">
    <path id="svg_98" d="m619.75044,510.254l-1.45,0l0,20l1.45,0l0,-20z" class="cls-14"/>
   </g>
   <g id="Symbol_2_0_Layer0_3_FILL-4">
    <path id="svg_99" d="m624.70044,510.254l-1.45,0l0,20l1.45,0l0,-20z" class="cls-14"/>
   </g>
   <g id="Symbol_2_0_Layer0_4_FILL-4">
    <path id="svg_100" d="m629.65038,510.254l-1.45,0l0,20l1.45,0l0,-20z" class="cls-14"/>
   </g>
   <g id="Symbol_2_0_Layer0_5_FILL-4">
    <path id="svg_101" d="m634.60039,510.254l-1.44995,0l0,20l1.44995,0l0,-20z" class="cls-14"/>
   </g>
   <g id="Symbol_2_0_Layer0_6_FILL-4">
    <path id="svg_102" d="m639.55044,510.254l-1.45,0l0,20l1.45,0l0,-20z" class="cls-14"/>
   </g>
   <g id="Symbol_2_0_Layer0_7_FILL-4">
    <path id="svg_103" d="m644.50044,510.254l-1.45,0l0,20l1.45,0l0,-20z" class="cls-14"/>
   </g>
   <g id="Symbol_2_0_Layer0_8_FILL-4">
    <path id="svg_104" d="m649.45044,510.254l-1.45,0l0,20l1.45,0l0,-20z" class="cls-14"/>
   </g>
   <g id="Symbol_2_0_Layer0_9_FILL-4">
    <path id="svg_105" d="m654.40038,510.254l-1.44994,0l0,20l1.45,0l-0.00006,-20z" class="cls-14"/>
   </g>
   <g id="Symbol_2_0_Layer0_10_FILL-4">
    <path id="svg_106" d="m659.35039,510.254l-1.44995,0l0,20l1.44995,0l0,-20z" class="cls-14"/>
   </g>
   <g id="Symbol_2_0_Layer0_11_FILL-4">
    <path id="svg_107" d="m664.30044,510.254l-1.45,0l0,20l1.45,0l0,-20z" class="cls-14"/>
   </g>
   <g id="Symbol_2_0_Layer0_12_FILL-4">
    <path id="svg_108" d="m669.25044,510.254l-1.45,0l0,20l1.45,0l0,-20z" class="cls-14"/>
   </g>
   <g id="Symbol_2_0_Layer0_13_FILL-4">
    <path id="svg_109" d="m674.20044,510.254l-1.45,0l0,20l1.45,0l0,-20z" class="cls-14"/>
   </g>
   <g id="Symbol_2_0_Layer0_14_FILL-4">
    <path id="svg_110" d="m679.15038,510.254l-1.45,0l0,20l1.45,0l0,-20z" class="cls-14"/>
   </g>
   <g id="Symbol_2_0_Layer0_15_FILL-4">
    <path id="svg_111" d="m684.10039,510.254l-1.44995,0l0,20l1.44995,0l0,-20z" class="cls-14"/>
   </g>
   <g id="Symbol_2_0_Layer0_16_FILL-4">
    <path id="svg_112" d="m689.05044,510.254l-1.45,0l0,20l1.45,0l0,-20z" class="cls-14"/>
   </g>
   <g id="Symbol_2_0_Layer0_17_FILL-4">
    <path id="svg_113" d="m694.00044,510.254l-1.45,0l0,20l1.45,0l0,-20z" class="cls-14"/>
   </g>
   <g id="Symbol_2_0_Layer0_18_FILL-4">
    <path id="svg_114" d="m698.95044,510.254l-1.45,0l0,20l1.45,0l0,-20z" class="cls-14"/>
   </g>
   <g id="Symbol_2_0_Layer0_19_FILL-4">
    <path id="svg_115" d="m703.90038,510.254l-1.44994,0l0,20l1.45,0l-0.00006,-20z" class="cls-14"/>
   </g>
   <g id="Symbol_2_0_Layer0_20_FILL-4">
    <path id="svg_116" d="m708.85039,510.254l-1.44995,0l0,20l1.44995,0l0,-20z" class="cls-14"/>
   </g>
   <g id="Symbol_2_0_Layer0_21_FILL-4">
    <path id="svg_117" d="m713.80044,510.254l-1.45,0l0,20l1.45,0l0,-20z" class="cls-14"/>
   </g>
   <g id="Symbol_2_0_Layer0_22_FILL-4">
    <path id="svg_118" d="m718.75044,510.254l-1.45,0l0,20l1.45,0l0,-20z" class="cls-14"/>
   </g>
   <g id="Symbol_2_0_Layer0_23_FILL-4">
    <path id="svg_119" d="m723.70044,510.254l-1.45,0l0,20l1.45,0l0,-20z" class="cls-14"/>
   </g>
   <g id="Symbol_2_0_Layer0_24_FILL-4">
    <path id="svg_120" d="m728.85039,510.254l-1.44995,0l0,20l1.44995,0l0,-20z" class="cls-14"/>
   </g>
   <g id="Symbol_2_0_Layer0_25_FILL-4">
    <path id="svg_121" d="m610.70044,528.254a1.76777,1.76777 0 0 0 2,2l116,0a1.76777,1.76777 0 0 0 2,-2l-120,0m120,-16a1.76777,1.76777 0 0 0 -2,-2l-116,0a1.76777,1.76777 0 0 0 -2,2l120,0z" class="cls-15"/>
   </g>
   <g id="Symbol_2_0_Layer0_0_FILL-5">
    <path id="svg_122" d="m718.40044,492.254a1.76779,1.76779 0 0 0 -2,-2l-116,0a1.76779,1.76779 0 0 0 -2,2l0,16a1.76779,1.76779 0 0 0 2,2l116,0a1.76779,1.76779 0 0 0 2,-2l0,-16z" class="cls-13"/>
   </g>
   <g id="Symbol_2_0_Layer0_1_FILL-5">
    <path id="svg_123" d="m602.50044,490.254l-1.45,0l0,20l1.45,0l0,-20z" class="cls-14"/>
   </g>
   <g id="Symbol_2_0_Layer0_2_FILL-5">
    <path id="svg_124" d="m607.45044,490.254l-1.45,0l0,20l1.45,0l0,-20z" class="cls-14"/>
   </g>
   <g id="Symbol_2_0_Layer0_3_FILL-5">
    <path id="svg_125" d="m612.40044,490.254l-1.44995,0l0,20l1.44995,0l0,-20z" class="cls-14"/>
   </g>
   <g id="Symbol_2_0_Layer0_4_FILL-5">
    <path id="svg_126" d="m617.35039,490.254l-1.44995,0l0,20l1.44995,0l0,-20z" class="cls-14"/>
   </g>
   <g id="Symbol_2_0_Layer0_5_FILL-5">
    <path id="svg_127" d="m622.30044,490.254l-1.45,0l0,20l1.45,0l0,-20z" class="cls-14"/>
   </g>
   <g id="Symbol_2_0_Layer0_6_FILL-5">
    <path id="svg_128" d="m627.25044,490.254l-1.45,0l0,20l1.45,0l0,-20z" class="cls-14"/>
   </g>
   <g id="Symbol_2_0_Layer0_7_FILL-5">
    <path id="svg_129" d="m632.20044,490.254l-1.45,0l0,20l1.45,0l0,-20z" class="cls-14"/>
   </g>
   <g id="Symbol_2_0_Layer0_8_FILL-5">
    <path id="svg_130" d="m637.15044,490.254l-1.44995,0l0,20l1.44995,0l0,-20z" class="cls-14"/>
   </g>
   <g id="Symbol_2_0_Layer0_9_FILL-5">
    <path id="svg_131" d="m642.10039,490.254l-1.44995,0l0,20l1.44995,0l0,-20z" class="cls-14"/>
   </g>
   <g id="Symbol_2_0_Layer0_10_FILL-5">
    <path id="svg_132" d="m647.05044,490.254l-1.45,0l0,20l1.45,0l0,-20z" class="cls-14"/>
   </g>
   <g id="Symbol_2_0_Layer0_11_FILL-5">
    <path id="svg_133" d="m652.00044,490.254l-1.45,0l0,20l1.45,0l0,-20z" class="cls-14"/>
   </g>
   <g id="Symbol_2_0_Layer0_12_FILL-5">
    <path id="svg_134" d="m656.95044,490.254l-1.45,0l0,20l1.45,0l0,-20z" class="cls-14"/>
   </g>
   <g id="Symbol_2_0_Layer0_13_FILL-5">
    <path id="svg_135" d="m661.90044,490.254l-1.44995,0l0,20l1.44995,0l0,-20z" class="cls-14"/>
   </g>
   <g id="Symbol_2_0_Layer0_14_FILL-5">
    <path id="svg_136" d="m666.85039,490.254l-1.44995,0l0,20l1.44995,0l0,-20z" class="cls-14"/>
   </g>
   <g id="Symbol_2_0_Layer0_15_FILL-5">
    <path id="svg_137" d="m671.80044,490.254l-1.45,0l0,20l1.45,0l0,-20z" class="cls-14"/>
   </g>
   <g id="Symbol_2_0_Layer0_16_FILL-5">
    <path id="svg_138" d="m676.75044,490.254l-1.45,0l0,20l1.45,0l0,-20z" class="cls-14"/>
   </g>
   <g id="Symbol_2_0_Layer0_17_FILL-5">
    <path id="svg_139" d="m681.70044,490.254l-1.45,0l0,20l1.45,0l0,-20z" class="cls-14"/>
   </g>
   <g id="Symbol_2_0_Layer0_18_FILL-5">
    <path id="svg_140" d="m686.65044,490.254l-1.44995,0l0,20l1.44995,0l0,-20z" class="cls-14"/>
   </g>
   <g id="Symbol_2_0_Layer0_19_FILL-5">
    <path id="svg_141" d="m691.60039,490.254l-1.44995,0l0,20l1.44995,0l0,-20z" class="cls-14"/>
   </g>
   <g id="Symbol_2_0_Layer0_20_FILL-5">
    <path id="svg_142" d="m696.55044,490.254l-1.45,0l0,20l1.45,0l0,-20z" class="cls-14"/>
   </g>
   <g id="Symbol_2_0_Layer0_21_FILL-5">
    <path id="svg_143" d="m701.50044,490.254l-1.45,0l0,20l1.45,0l0,-20z" class="cls-14"/>
   </g>
   <g id="Symbol_2_0_Layer0_22_FILL-5">
    <path id="svg_144" d="m706.45044,490.254l-1.45,0l0,20l1.45,0l0,-20z" class="cls-14"/>
   </g>
   <g id="Symbol_2_0_Layer0_23_FILL-5">
    <path id="svg_145" d="m711.40044,490.254l-1.44995,0l0,20l1.44995,0l0,-20z" class="cls-14"/>
   </g>
   <g id="Symbol_2_0_Layer0_24_FILL-5">
    <path id="svg_146" d="m716.55044,490.254l-1.45,0l0,20l1.45,0l0,-20z" class="cls-14"/>
   </g>
   <g id="Symbol_2_0_Layer0_25_FILL-5">
    <path id="svg_147" d="m598.40044,508.254a1.76777,1.76777 0 0 0 2,2l116,0a1.76777,1.76777 0 0 0 2,-2l-120,0m120,-16a1.76777,1.76777 0 0 0 -2,-2l-116,0a1.76777,1.76777 0 0 0 -2,2l120,0z" class="cls-15"/>
   </g>
   <g id="Symbol_1_0_Layer0_0_FILL">
    <path id="svg_148" d="m742.0733,491.72008a58.34675,58.34675 0 1 0 17.06593,41.23392a56.17934,56.17934 0 0 0 -17.06593,-41.23392z" class="cls-16"/>
   </g>
   <g id="Symbol_1_0_Layer0_1_FILL">
    <path id="svg_149" d="m734.38832,580.54793a0.14551,0.14551 0 0 0 -0.106,-0.05305l-6.678,0a0.15958,0.15958 0 0 0 0,0.31805l6.678,0a0.15044,0.15044 0 0 0 0.106,-0.265m5.565,-4.558a0.14566,0.14566 0 0 0 -0.106,-0.053l-6.678,0a0.15955,0.15955 0 0 0 0,0.318l6.678,0a0.15043,0.15043 0 0 0 0.106,-0.265m4.452,-4.505a0.14557,0.14557 0 0 0 -0.106,-0.053l-6.678,0a0.15955,0.15955 0 0 0 0,0.318l6.678,0a0.15044,0.15044 0 0 0 0.106,-0.265m3.65694,-4.505a0.14578,0.14578 0 0 0 -0.106,-0.053l-6.678,0a0.15954,0.15954 0 0 0 0,0.318l6.678,0a0.1504,0.1504 0 0 0 0.106,-0.265m-27.93091,18.285a0.14634,0.14634 0 0 0 0.106,0.05305l6.678,0a0.15958,0.15958 0 0 0 0,-0.31805l-6.678,0a0.15043,0.15043 0 0 0 -0.106,0.265m-12.455,4.558a0.14579,0.14579 0 0 0 0.106,0.053l6.678,0a0.15954,0.15954 0 0 0 0,-0.318l-6.678,0a0.15043,0.15043 0 0 0 -0.106,0.265m45.84489,-31.906a0.14583,0.14583 0 0 0 -0.106,-0.053l-6.678,0a0.15955,0.15955 0 0 0 0,0.318l6.678,0a0.15043,0.15043 0 0 0 0.106,-0.265m1.961,-4.558a0.14556,0.14556 0 0 0 -0.106,-0.053l-6.731,0a0.15954,0.15954 0 0 0 0,0.318l6.731,0a0.15039,0.15039 0 0 0 0.106,-0.265m-5.353,-4.558a0.15954,0.15954 0 0 0 0,0.318l6.678,0a0.15954,0.15954 0 0 0 0,-0.318l-6.678,0m7.844,-4.505a0.14593,0.14593 0 0 0 -0.106,-0.053l-6.678,0a0.15955,0.15955 0 0 0 0,0.318l6.678,0a0.15043,0.15043 0 0 0 0.106,-0.265m-13.78,18.33794a0.14611,0.14611 0 0 0 0.106,0.053l6.731,0a0.15955,0.15955 0 0 0 0,-0.318l-6.731,0a0.15043,0.15043 0 0 0 -0.106,0.265m7.844,-27.13587a0.146,0.146 0 0 0 0.106,0.053l6.678,0a0.15955,0.15955 0 0 0 0,-0.318l-6.678,0a0.15043,0.15043 0 0 0 -0.106,0.265m-0.212,4.24a0.15954,0.15954 0 0 0 0,0.318l6.678,0a0.15955,0.15955 0 0 0 0,-0.318l-6.678,0m0.371,-9.063a0.15958,0.15958 0 0 0 0,0.31805l6.678,0a0.15958,0.15958 0 0 0 0,-0.31805l-6.678,0m4.823,-13.515a0.14568,0.14568 0 0 0 -0.106,-0.053l-6.678,0a0.15954,0.15954 0 0 0 0,0.318l6.678,0a0.15043,0.15043 0 0 0 0.106,-0.265m1.007,4.505a0.14578,0.14578 0 0 0 -0.106,-0.053l-6.678,0a0.15954,0.15954 0 0 0 0,0.318l6.678,0a0.15043,0.15043 0 0 0 0.106,-0.265m0.636,4.558a0.14567,0.14567 0 0 0 -0.106,-0.053l-6.678,0a0.15958,0.15958 0 0 0 0,0.318l6.678,0a0.1504,0.1504 0 0 0 0.106,-0.265m-9.858,-13.674a0.15955,0.15955 0 0 0 0,0.318l6.678,0a0.15954,0.15954 0 0 0 0,-0.318l-6.678,0m-2.014,-4.24a0.14608,0.14608 0 0 0 0.106,0.053l6.678,0a0.15954,0.15954 0 0 0 0,-0.318l-6.678,0a0.1504,0.1504 0 0 0 -0.106,0.265m-2.385,-4.558a0.14625,0.14625 0 0 0 0.106,0.053l6.678,0a0.15954,0.15954 0 0 0 0,-0.318l-6.678,0a0.1504,0.1504 0 0 0 -0.106,0.265m-2.968,-4.505a0.1465,0.1465 0 0 0 0.106,0.053l6.678,0a0.15955,0.15955 0 0 0 0,-0.318l-6.678,0a0.15044,0.15044 0 0 0 -0.106,0.265m-3.551,-4.77a0.15955,0.15955 0 0 0 0,0.318l6.678,0a0.15954,0.15954 0 0 0 0,-0.318l-6.678,0m2.385,-4.399a0.18731,0.18731 0 0 0 -0.159,-0.159l-6.678,0a0.15954,0.15954 0 0 0 0,0.318l6.678,0a0.18728,0.18728 0 0 0 0.159,-0.159m-12.243,-4.66395a0.15954,0.15954 0 0 0 0,0.318l6.678,0a0.15954,0.15954 0 0 0 0,-0.318l-6.678,0m-7.367,-4.293a0.14634,0.14634 0 0 0 0.106,0.053l6.678,0a0.15958,0.15958 0 0 0 0,-0.31805l-6.678,0a0.15043,0.15043 0 0 0 -0.106,0.265m-11.713,-4.505a0.14644,0.14644 0 0 0 0.106,0.053l6.678,0a0.15958,0.15958 0 0 0 0,-0.318l-6.678,0a0.15043,0.15043 0 0 0 -0.106,0.265z" class="cls-17"/>
   </g>
   <g id="Symbol_1_0_Layer0_2_FILL">
    <path id="svg_150" d="m735.39533,491.72008a58.34675,58.34675 0 1 0 17.06593,41.23392a56.17922,56.17922 0 0 0 -17.06593,-41.23392z" class="cls-13"/>
   </g>
   <g id="Symbol_1_0_Layer0_3_FILL">
    <path id="svg_151" d="m726.93612,500.16842a46.374,46.374 0 1 0 13.564,32.77272a44.6512,44.6512 0 0 0 -13.564,-32.77272z" class="cls-18"/>
   </g>
   <g id="Symbol_1_0_Layer0_4_FILL">
    <path id="svg_152" d="m683.02599,514.35481a11.17253,11.17253 0 0 0 -3.2097,8.25352a12.242,12.242 0 0 0 0.94762,5.04381a10.96809,10.96809 0 0 0 2.62889,3.69879a17.37963,17.37963 0 0 0 4.035,2.78178a57.20443,57.20443 0 0 0 5.59407,2.41488a12.31469,12.31469 0 0 1 4.64641,2.69005a5.52983,5.52983 0 0 1 1.31446,3.8822a4.91191,4.91191 0 0 1 -1.49787,3.76a5.985,5.985 0 0 1 -4.15731,1.37558a6.0597,6.0597 0 0 1 -4.82986,-1.89523a7.84848,7.84848 0 0 1 -1.71183,-5.44123l-8.62032,0q0,6.11374 3.36254,9.81251q3.36256,3.66823 9.47626,4.34076l0,5.89971l4.73813,0l0,-5.93031a13.92443,13.92443 0 0 0 8.712,-3.72935a11.16567,11.16567 0 0 0 3.17913,-8.25351a12.0667,12.0667 0 0 0 -0.85593,-4.73813a10.42965,10.42965 0 0 0 -2.41493,-3.63767a15.63066,15.63066 0 0 0 -3.88219,-2.87346a52.67054,52.67054 0 0 0 -5.83859,-2.72057a14.49211,14.49211 0 0 1 -4.891,-2.81233a5.046,5.046 0 0 1 -1.31447,-3.63767a5.23277,5.23277 0 0 1 1.345,-3.82107a4.99718,4.99718 0 0 1 3.79051,-1.40615a4.90759,4.90759 0 0 1 3.97391,1.80355q1.43665,1.74238 1.43671,5.3495l8.65092,0a14.42316,14.42316 0 0 0 -2.99573,-9.47625a12.53488,12.53488 0 0 0 -8.25338,-4.43252l0,-6.45l-4.79925,0l0,6.38884a13.4313,13.4313 0 0 0 -8.5592,3.75997z" class="cls-19"/>
   </g>
   <g id="Symbol_1_0_Layer0_5_FILL">
    <path id="svg_153" d="m681.96599,514.35481a11.17253,11.17253 0 0 0 -3.2097,8.25352a12.242,12.242 0 0 0 0.94762,5.04381a10.96809,10.96809 0 0 0 2.62889,3.69879a17.3797,17.3797 0 0 0 4.035,2.78178a57.2031,57.2031 0 0 0 5.59406,2.41488a12.31461,12.31461 0 0 1 4.64641,2.69005a5.52978,5.52978 0 0 1 1.31446,3.8822a4.91194,4.91194 0 0 1 -1.49786,3.76a5.985,5.985 0 0 1 -4.15732,1.37558a6.05966,6.05966 0 0 1 -4.82985,-1.89523a7.84844,7.84844 0 0 1 -1.71184,-5.44123l-8.62032,0q0,6.11374 3.36254,9.81251q3.36257,3.66823 9.47626,4.34076l0,5.89971l4.73813,0l0,-5.93031a13.92441,13.92441 0 0 0 8.712,-3.72935a11.16571,11.16571 0 0 0 3.17914,-8.25351a12.0667,12.0667 0 0 0 -0.85594,-4.73813a10.42976,10.42976 0 0 0 -2.41492,-3.63767a15.63053,15.63053 0 0 0 -3.8822,-2.87346a52.67054,52.67054 0 0 0 -5.83859,-2.72057a14.49221,14.49221 0 0 1 -4.891,-2.81233a5.046,5.046 0 0 1 -1.31447,-3.63767a5.23281,5.23281 0 0 1 1.345,-3.82107a4.99718,4.99718 0 0 1 3.79051,-1.40615a4.90761,4.90761 0 0 1 3.97392,1.80355q1.43664,1.74238 1.4367,5.3495l8.65093,0a14.42316,14.42316 0 0 0 -2.99574,-9.47625a12.53486,12.53486 0 0 0 -8.25337,-4.43252l0,-6.45l-4.79926,0l0,6.38884a13.4313,13.4313 0 0 0 -8.55919,3.75997z" class="cls-20"/>
   </g>
   <g id="Symbol_3_0_Layer0_0_FILL">
    <path id="svg_154" d="m849.08916,206.02912l2.588,-9.65928l-12.24731,7.07123l9.65927,2.58805m51.39374,117.29705l28.46847,-106.252l-77.27417,-20.70435l-2.588,9.65928l-9.65927,-2.58805l-25.88045,96.59274l86.93342,23.29238z" class="cls-21"/>
   </g>
   <path d="m839.42989,203.44107l9.65927,2.58805l2.588,-9.65928" class="cls-22" id="Symbol_3_0_Layer0_0_1_STROKES"/>
   <g id="Symbol_3_0_Layer0_1_FILL">
    <path id="svg_155" d="m848.17209,212.37048a13.14626,13.14626 0 1 0 9.96032,-1.30465a12.646,12.646 0 0 0 -9.96032,1.30465z" class="cls-7"/>
   </g>
   <g id="Symbol_3_0_Layer0_2_FILL">
    <path id="svg_156" d="m913.06786,237.7167l1.04816,-3.912l-38.63709,-10.35217l-1.04816,3.912l38.63709,10.35217z" class="cls-7"/>
   </g>
   <g id="Symbol_3_0_Layer0_3_FILL">
    <path id="svg_157" d="m891.67888,240.268l1.04816,-3.912l-19.31854,-5.17609l-1.04816,3.912l19.31854,5.17609z" class="cls-7"/>
   </g>
   <g id="Symbol_3_0_Layer0_4_FILL">
    <path id="svg_158" d="m906.09308,263.74843l1.04816,-3.912l-67.6149,-18.1163l-1.04816,3.912l67.6149,18.1163z" class="cls-7"/>
   </g>
   <g id="Symbol_3_0_Layer0_5_FILL">
    <path id="svg_159" d="m903.45328,273.60089l1.04816,-3.912l-67.6149,-18.1163l-1.04816,3.912l67.6149,18.1163z" class="cls-7"/>
   </g>
   <g id="Symbol_3_0_Layer0_6_FILL">
    <path id="svg_160" d="m900.81344,283.45335l1.04816,-3.912l-67.6149,-18.1163l-1.04816,3.912l67.6149,18.1163z" class="cls-7"/>
   </g>
   <g id="Symbol_3_0_Layer0_7_FILL">
    <path id="svg_161" d="m869.34432,285.58145l1.04816,-3.912l-38.70904,-10.37145l-1.04816,3.912l38.70904,10.37145z" class="cls-7"/>
   </g>
   <g id="Symbol_3_0_Layer0_8_FILL">
    <path id="svg_162" d="m885.93832,300.58729l1.04816,-3.912l-57.97921,-15.53457l-1.04815,3.912l57.9792,15.53457z" class="cls-7"/>
   </g>
   <g id="Layer0_17_FILL">
    <path id="svg_163" d="m336.15044,188.754a4.85272,4.85272 0 0 0 -1.5,-3.55a4.76912,4.76912 0 0 0 -3.5,-1.45a4.95146,4.95146 0 0 0 -5,5a4.76912,4.76912 0 0 0 1.45,3.5a4.85272,4.85272 0 0 0 3.55,1.5a5.12652,5.12652 0 0 0 5,-5z" class="cls-1"/>
   </g>
   <g id="Layer0_18_FILL">
    <path id="svg_164" d="m210.65044,299.154a4.85272,4.85272 0 0 0 -1.5,-3.55a4.76909,4.76909 0 0 0 -3.5,-1.45a4.95148,4.95148 0 0 0 -5,5a4.76912,4.76912 0 0 0 1.45,3.5a4.85272,4.85272 0 0 0 3.55,1.5a5.12652,5.12652 0 0 0 5,-5z" class="cls-1"/>
   </g>
   <g id="Layer0_19_FILL">
    <path id="svg_165" d="m416.15044,243.954a4.85272,4.85272 0 0 0 -1.5,-3.55a4.76908,4.76908 0 0 0 -3.5,-1.45a4.95146,4.95146 0 0 0 -5,5a4.76914,4.76914 0 0 0 1.45,3.5a4.85272,4.85272 0 0 0 3.55,1.5a5.12652,5.12652 0 0 0 5,-5z" class="cls-1"/>
   </g>
   <g id="Layer0_20_FILL">
    <path id="svg_166" d="m506.15044,170.254a4.85272,4.85272 0 0 0 -1.5,-3.55a4.76912,4.76912 0 0 0 -3.5,-1.45a4.95146,4.95146 0 0 0 -5,5a4.76912,4.76912 0 0 0 1.45,3.5a4.85272,4.85272 0 0 0 3.55,1.5a5.12652,5.12652 0 0 0 5,-5z" class="cls-1"/>
   </g>
   <g id="Layer0_21_FILL">
    <path id="svg_167" d="m626.15044,270.254a4.85272,4.85272 0 0 0 -1.5,-3.55a4.76912,4.76912 0 0 0 -3.5,-1.45a4.95146,4.95146 0 0 0 -5,5a4.76912,4.76912 0 0 0 1.45,3.5a4.85272,4.85272 0 0 0 3.55,1.5a5.12652,5.12652 0 0 0 5,-5z" class="cls-1"/>
   </g>
   <g id="Layer0_22_FILL">
    <path id="svg_168" d="m706.10044,210.254a4.85272,4.85272 0 0 0 -1.5,-3.55a4.76912,4.76912 0 0 0 -3.5,-1.45a4.95146,4.95146 0 0 0 -5,5a4.76912,4.76912 0 0 0 1.45,3.5a4.85272,4.85272 0 0 0 3.55,1.5a5.12652,5.12652 0 0 0 5,-5z" class="cls-1"/>
   </g>
   <g id="Layer0_23_MEMBER_0_FILL">
    <path id="svg_169" d="m118.08877,103.552l-4.59959,-7.96733l-13.33661,7.69933l4.59959,7.96732l13.33661,-7.69932z" class="cls-1"/>
   </g>
   <g id="Layer0_23_MEMBER_1_FILL">
    <path id="svg_170" d="m100.74255,111.81235a1.76767,1.76767 0 0 0 -0.73211,2.73194l28.29742,49.01634a1.76771,1.76771 0 0 0 2.73194,0.73212l18.96567,-10.949a1.76769,1.76769 0 0 0 0.73212,-2.73193l-28.29743,-49.01635a1.76768,1.76768 0 0 0 -2.73194,-0.73211l-18.96567,10.94899z" class="cls-2"/>
   </g>
   <g id="Layer0_23_MEMBER_2_FILL">
    <path id="svg_171" d="m131.09657,116.88372l-2.0248,-3.50734l-22.42975,12.94882l2.02481,3.50734l22.42974,-12.94882z" class="cls-1"/>
   </g>
   <g id="Layer0_23_MEMBER_3_FILL">
    <path id="svg_172" d="m127.69658,110.98369l-2.02481,-3.50734l-22.42975,12.94883l2.02481,3.50734l22.42975,-12.94883z" class="cls-1"/>
   </g>
   <g id="Layer0_23_MEMBER_4_FILL">
    <path id="svg_173" d="m97.38887,21.3944a43.23841,43.23841 0 0 0 -52.79216,30.4776a43.23863,43.23863 0 0 0 30.47755,52.7921a41.611,41.611 0 0 0 32.7694,-4.32938a43.10394,43.10394 0 0 0 -10.45479,-78.9403m-28.61028,11.40342a34.90928,34.90928 0 0 1 47.68432,12.77841a35.02129,35.02129 0 0 1 -12.77841,47.68432a34.79892,34.79892 0 0 1 -47.68432,-12.77841a34.68962,34.68962 0 0 1 12.77841,-47.68432z" class="cls-1"/>
   </g>
   <g id="Layer0_23_MEMBER_5_FILL">
    <path id="svg_174" d="m101.98744,38.46692a1.4939,1.4939 0 0 0 -0.70486,-0.92094a32.76072,32.76072 0 0 0 -10.45992,-3.71814a1.42407,1.42407 0 0 0 -1.12759,0.24686a1.47251,1.47251 0 0 0 -0.616,0.933a1.50375,1.50375 0 0 0 0.24683,1.12757a1.52539,1.52539 0 0 0 0.958,0.65938a29.8764,29.8764 0 0 1 9.522,3.39355a1.42634,1.42634 0 0 0 1.12938,0.15626a1.46138,1.46138 0 0 0 0.92093,-0.70481a1.48651,1.48651 0 0 0 0.13126,-1.1727m-40.40381,8.315a1.55184,1.55184 0 0 0 -0.94592,0.66152a31.29211,31.29211 0 0 0 -4.08105,11.13132a29.27517,29.27517 0 0 0 0.31144,11.53974l0,0a36.219,36.219 0 0 0 1.27043,4.00064a1.60406,1.60406 0 0 0 0.83473,0.8459a1.307,1.307 0 0 0 1.09768,0.00134a1.43234,1.43234 0 0 0 0.87092,-0.79145a1.34632,1.34632 0 0 0 -0.02364,-1.141a33.19827,33.19827 0 0 1 -1.11369,-3.62917l-0.04331,0.025a26.34819,26.34819 0 0 1 -0.26284,-10.35552a28.40424,28.40424 0 0 1 3.71993,-10.05678a1.37729,1.37729 0 0 0 0.19954,-1.1544a1.4203,1.4203 0 0 0 -0.70483,-0.92089a1.40128,1.40128 0 0 0 -1.12943,-0.1562l0.00004,-0.00005z" class="cls-21"/>
   </g>
   <path d="m21.15044,592.654l900,0" class="cls-23" id="Layer0_24_1_STROKES"/>
   <g id="Layer0_25_MEMBER_0_FILL">
    <path id="svg_175" d="m142.85044,501.754l-10,0l0,85.05l10,0l0,-85.05z" class="cls-4"/>
   </g>
   <g id="Layer0_25_MEMBER_1_FILL">
    <path id="svg_176" d="m69.60044,408.104q-1.54961,4.25061 2.1,8.45a123.73569,123.73569 0 0 1 8.85,12.15q5.1996,7.90641 6.9,20.7a159.80967,159.80967 0 0 0 3.95,20.7a36.26765,36.26765 0 0 0 9,15.1a36.8826,36.8826 0 0 0 17.45,10.9q7.2,1.9 20,0.5q14.8,-1.55 20.35,-1a40.18779,40.18779 0 0 1 15.25,4.8a44.46613,44.46613 0 0 1 4.5,2.8q0.40938,0.32667 0.8,0.6q19.26056,13.81429 28.35,-0.55a4.24575,4.24575 0 0 0 0.1,-0.5a47.52128,47.52128 0 0 0 -3.65,-5.75a43.5663,43.5663 0 0 0 -19.6,-15.15a63.59673,63.59673 0 0 0 -10.95,-3.05q-7.55,-1.39993 -11.25,-2.1q-13.8,-2.70008 -20.55,-8.1q-9.85,-7.7 -14.4,-27.6q-1.681,-8.04008 -2.85,-13.15q-20.37541,-33.92094 -35.1,-31a47.32416,47.32416 0 0 0 -11.5,3.45q-6,2.9 -7.75,7.8z" class="cls-24"/>
    <path id="svg_177" d="m123.20044,424.554a72.37142,72.37142 0 0 0 -5.5,-15.55a43.87438,43.87438 0 0 0 -16.35,-17.15a43.11606,43.11606 0 0 0 -45.45,-0.05a44.5316,44.5316 0 0 0 -11.45,9.7q-5.45,7.1 4.45,10.95a1.941,1.941 0 0 0 0.25,0.1q8.55,3.2 16.25,15.95a98.7083,98.7083 0 0 1 6.95,14.5q1.8,4.65006 4.35,11.9q2.5,6.35 6.45,19.5q3.9,11.55 9.05,18q16.75,20.7 60.6,16.65a104.54992,104.54992 0 0 1 11.05,-0.6a25.62129,25.62129 0 0 1 10.45,2.2q9.1,4.3 12.45,16.65a65.2251,65.2251 0 0 1 1.9,14.3q2.4,8.75 9.75,8q6.85,-0.64993 10.35,-7.25a30.23556,30.23556 0 0 0 3.5,-10.9a67.37109,67.37109 0 0 0 -0.05,-11.35a41.92065,41.92065 0 0 0 -5,-17.35a4.24575,4.24575 0 0 1 -0.1,0.5q-9.08945,14.36426 -28.35,0.55q-0.39063,-0.27319 -0.8,-0.6a44.46613,44.46613 0 0 0 -4.5,-2.8a40.18779,40.18779 0 0 0 -15.25,-4.8q-5.55,-0.55 -20.35,1q-12.8,1.4 -20,-0.5a36.8826,36.8826 0 0 1 -17.45,-10.9a36.26765,36.26765 0 0 1 -9,-15.1a159.80967,159.80967 0 0 1 -3.95,-20.7q-1.70038,-12.79357 -6.9,-20.7a123.73569,123.73569 0 0 0 -8.85,-12.15q-3.6496,-4.19934 -2.1,-8.45q1.75,-4.9 7.75,-7.8a47.32416,47.32416 0 0 1 11.5,-3.45q14.72462,-2.9209 35.1,31q-0.40019,-1.83337 -0.75,-3.3z" class="cls-12"/>
   </g>
   <g id="Layer0_25_MEMBER_2_MEMBER_0_FILL">
    <path id="svg_178" d="m244.21896,570.7782l-8.48761,0l3.06494,11.62151l6.26752,0l-0.84485,-11.62151z" class="cls-25"/>
   </g>
   <g id="Layer0_25_MEMBER_2_MEMBER_1_FILL">
    <path id="svg_179" d="m199.39675,570.92819l-8.749,0l0,11.62151l6.52894,0l2.22006,-11.62151z" class="cls-25"/>
   </g>
   <g id="Layer0_25_MEMBER_2_MEMBER_2_FILL">
    <path id="svg_180" d="m121.30044,449.104l0.15,4.05q-2.1,27.4 22.45,28.2l69.35,0.25q2.55,10.9 9.05,41.9q6.65,29.25 13.4,47.25l8.5,0l-5.25,-86.25q-0.65,-14.40006 -4.2,-20.65q-4.4,-7.95 -15.8,-10.05l-97.65,-4.7z" class="cls-26"/>
   </g>
   <path d="m221.80044,480.254l16.65,83.25l5.35,0m-10.65,0l5.3,0" class="cls-27" id="Layer0_25_MEMBER_2_MEMBER_3_1_STROKES"/>
   <g id="Layer0_25_MEMBER_2_MEMBER_4_FILL">
    <path id="svg_181" d="m109.30044,450.154l-2.2,15q-2.25,27.45 22.45,28.2l62.25,-2.85q-2.05,32.5 -1.15,80.4l8.75,0l24.4,-85.75q3.4,-12.3 -1.05,-20.25q-4.4,-7.95 -15.8,-10.05l-58.5,-4.7l-39.15,0z" class="cls-28"/>
   </g>
   <g id="Layer0_25_MEMBER_2_MEMBER_5_FILL">
    <path id="svg_182" d="m188.15044,585.554l0,6.9l4.6,0l0.75,-2.05l5,2.05l18.2,0q0.6,-5.65 -7.6,-6.25l-6.95,0l-4.7,-4.7l-6.65,0a4.83179,4.83179 0 0 0 -2.65,4.05z" class="cls-2"/>
   </g>
   <g id="Layer0_25_MEMBER_2_MEMBER_6_FILL">
    <path id="svg_183" d="m188.50044,438.804q4.65,0.95 5.65,-0.75a11.03909,11.03909 0 0 0 -5.3,-3.7a9.56772,9.56772 0 0 0 -4.1,0.1q-1.85,0.3 -3,0.45l0,3.5a7.00664,7.00664 0 0 0 3,1.2a6.02271,6.02271 0 0 0 2.2,-0.3a12.00744,12.00744 0 0 0 1.55,-0.5z" class="cls-25"/>
   </g>
   <g id="Layer0_25_MEMBER_2_MEMBER_7_FILL">
    <path id="svg_184" d="m145.60044,427.604q-0.5,-0.15006 -0.95,-0.3l-14.2,10.5a109.25945,109.25945 0 0 0 21.2,2.9a231.68147,231.68147 0 0 0 32.05,-0.9a9.85366,9.85366 0 0 0 0.15,-6a191.63452,191.63452 0 0 1 -28.5,-3.75a90.88413,90.88413 0 0 1 -9.75,-2.45z" class="cls-29"/>
   </g>
   <g id="Layer0_25_MEMBER_2_MEMBER_8_FILL">
    <path id="svg_185" d="m152.50044,366.954a36.07977,36.07977 0 0 1 3.6,-15.65l-20.5,-6.35a25.619,25.619 0 0 1 -5.2,15.3l0,4.55l19.5,6.15l2.6,-4z" class="cls-25"/>
   </g>
   <g id="Layer0_25_MEMBER_2_MEMBER_9_FILL">
    <path id="svg_186" d="m156.95044,382.904q-4,-10.05 -4.45,-15.95a24.023,24.023 0 0 1 -14.05,-0.85a17.1932,17.1932 0 0 1 -8.05,-5.85q-13.5,11.25 -17.3,17.1q-3.8,5.75 -5.25,15.45q-1.8,11.35006 0.95,29.1q2.7,17.25 0.5,28.45l38.25,0a55.97181,55.97181 0 0 1 -0.8,-9.1q0.3,-6.3999 5.55,-15.8q5.1,-9.4 7.3,-14.65q3.4,-8.09994 2.3,-13.05a96.289,96.289 0 0 0 -4.95,-14.85z" class="cls-30"/>
   </g>
   <g id="Layer0_25_MEMBER_2_MEMBER_10_FILL">
    <path id="svg_187" d="m153.20044,359.804a39.62078,39.62078 0 0 1 2.9,-8.5l-20.05,-6.2q0.79531,4.61956 7.85,10.2a19.603,19.603 0 0 0 9.3,4.5z" class="cls-31"/>
   </g>
   <g id="Layer0_25_MEMBER_2_MEMBER_11_FILL">
    <path id="svg_188" d="m168.50044,327.754q-4.65,-4.29995 -12.4,-4.4l-20.6,20.55q-0.5,3.45 8.45,9.3q10.2,7.15 17.1,3.35q4.9,-3.2 8.25,-13.1a24.7778,24.7778 0 0 0 -0.8,-15.7z" class="cls-25"/>
   </g>
   <g id="Layer0_25_MEMBER_2_MEMBER_12_FILL">
    <path id="svg_189" d="m132.50698,346.4277q1.07457,2.27215 5.0487,2.40858q8.33739,0.32423 16.21159,-5.4193q6.986,-5.03826 14.683,-15.70208a24.18019,24.18019 0 0 1 0.7874,15.7484q6.07985,-2.30436 5.373,-15.28521q-1.099,-12.42069 -11.95028,-16.62846q-18.26094,-6.30189 -26.12377,5.373q-4.215,6.48464 -5.09507,16.4895q-0.75711,8.20887 1.06543,13.01557z" class="cls-2"/>
   </g>
   <g id="Layer0_25_MEMBER_2_MEMBER_13_FILL">
    <path id="svg_190" d="m169.16229,440.53294q-2.32514,-0.20888 -3.81286,-0.45221l-1.16462,4.34667a9.63567,9.63567 0 0 0 3.33062,2.44529a8.96085,8.96085 0 0 0 2.79517,0.3866q1.04358,-0.031 2.05178,-0.1232q5.38839,2.68613 7.16518,0.88452q-2.28774,-4.59873 -5.25532,-6.27386a13.54171,13.54171 0 0 0 -5.10995,-1.21381z" class="cls-25"/>
   </g>
   <g id="Layer0_25_MEMBER_2_MEMBER_14_FILL">
    <path id="svg_191" d="m128.30044,375.954q-5.65,-2 -9.85,6.25a135.43842,135.43842 0 0 0 -7.9,24.6q-3.4,14.95 -3.2,24.75a15.56689,15.56689 0 0 0 1.05,6.1a5.75617,5.75617 0 0 0 3.45,3.1l0.1,0q5.55,1.35 24.55,3.25q21,2.05 28.85,1.3a9.56546,9.56546 0 0 0 0.2,-6q-7,-0.35 -24.85,-5.1q-16.85,-4.55 -17.2,-5.4q-0.6,-1.25 0.05,-5q0.6,-3.75 5,-17.45q4.55,-14.30007 5.55,-20.25q0.5,-7.85 -5.8,-10.15z" class="cls-32"/>
   </g>
   <g id="Layer0_25_MEMBER_2_MEMBER_15_FILL">
    <path id="svg_192" d="m131.94279,343.76233a18.32389,18.32389 0 0 1 -1.85275,6.62359a27.10155,27.10155 0 0 1 -5.88247,7.92052q-2.22327,2.08435 -7.59624,6.20672a80.16366,80.16366 0 0 0 -7.45737,6.29936a38.63844,38.63844 0 0 0 -9.86593,16.25791q-0.60217,1.89906 -1.019,3.79814a4.924,4.924 0 0 0 -0.18523,0.92638l-0.18535,0.92637a76.21839,76.21839 0 0 0 0,29.922q1.48218,8.89321 -0.7874,13.803q-2.455,5.18772 -9.03216,5.28035q4.63192,3.14968 11.16288,1.25061q3.057,-0.88007 4.58551,-4.95611a21.7709,21.7709 0 0 0 1.06536,-8.70794q-0.50955,-9.49534 -0.46319,-14.54411a66.04706,66.04706 0 0 1 1.06536,-11.25547a76.92011,76.92011 0 0 1 6.16031,-19.45391a46.88822,46.88822 0 0 1 11.2555,-14.91474a73.17475,73.17475 0 0 0 9.9123,-10.14382a20.5622,20.5622 0 0 0 3.61278,-8.24475a12.94915,12.94915 0 0 0 0,-6.02144q-1.06526,-3.14968 -2.77913,-3.24232q-1.54613,-0.09242 -1.71378,2.26966z" class="cls-2"/>
   </g>
   <g id="Layer0_25_MEMBER_2_MEMBER_16_FILL">
    <path id="svg_193" d="m235.80044,585.404l0,6.9l4.6,0l0.75,-2.05l5,2.05l18.2,0q0.6,-5.65 -7.6,-6.25l-6.95,0l-4.7,-4.7l-6.65,0a4.83177,4.83177 0 0 0 -2.65,4.05z" class="cls-2"/>
   </g>
   <path d="m123.15044,450.254l-2.25,12.85q-0.12735,9.68481 8.75,11.1l60,0q10.93106,1.35589 11.575,12.15l-8.325,79l8.05,0m-10.4,0l2.35,0l-0.05,0.55" class="cls-27" id="Layer0_25_MEMBER_2_MEMBER_17_1_STROKES"/>
   <g id="Layer0_25_MEMBER_3_FILL">
    <path id="svg_194" d="m108.80044,591.704l58.15,0q-29.32089,-14.51156 -58.15,0z" class="cls-2"/>
   </g>
   <g id="Layer0_25_MEMBER_4_MEMBER_0_FILL">
    <path id="svg_195" d="m182.75044,452.604l0,-3.45l-36.6,0l0,3.45l36.6,0z" class="cls-33"/>
   </g>
   <g id="Layer0_25_MEMBER_4_MEMBER_1_FILL">
    <path id="svg_196" d="m267.85044,404.454l-67.5,0l-25.2,48.15l67.5,0l25.2,-48.15z" class="cls-4"/>
    <path id="svg_197" d="m199.75044,403.104l0.6,1.35l67.5,0l-0.6,-1.35l-67.5,0z" class="cls-34"/>
    <path id="svg_198" d="m200.35044,404.454l-0.6,-1.35l-25.2,48.15l0.6,1.35l25.2,-48.15z" class="cls-33"/>
   </g>
   <g id="Layer0_25_MEMBER_4_MEMBER_2_FILL">
    <path id="svg_199" d="m228.25044,428.904a4.10242,4.10242 0 0 0 -0.05,-3.9a3.47,3.47 0 0 0 -3.25,-1.6a7.79477,7.79477 0 0 0 -4.55,1.6a9.07008,9.07008 0 0 0 -3.15,3.9a4.297,4.297 0 0 0 0.05,3.9a3.59,3.59 0 0 0 3.3,1.6a7.57856,7.57856 0 0 0 4.5,-1.6a8.61267,8.61267 0 0 0 3.15,-3.9z" class="cls-35"/>
   </g>
   <path d="m122.40044,546.379q-35.733,-5.458 -62.6,-32.325q-33.65,-33.64994 -33.65,-81.3t33.65,-81.35q27.33555,-27.295 63.85,-32.45" class="cls-36" id="Layer0_26_1_STROKES"/>
   <path d="m851.15044,160.254a10.07286,10.07286 0 0 1 -10,10a10.0056,10.0056 0 1 1 10,-10z" class="cls-37" id="Layer0_27_1_STROKES"/>
   <path d="m101.15044,195.254a5.12652,5.12652 0 0 1 -5,5a4.8527,4.8527 0 0 1 -3.55,-1.5a4.76927,4.76927 0 0 1 -1.45,-3.5a4.95145,4.95145 0 0 1 5,-5a4.76911,4.76911 0 0 1 3.5,1.45a4.85272,4.85272 0 0 1 1.5,3.55z" class="cls-37" id="Layer0_28_1_STROKES"/>
   <path d="m346.15044,542.754a2.56326,2.56326 0 0 1 -2.5,2.5a2.45493,2.45493 0 0 1 -1.8,-0.75a2.37412,2.37412 0 0 1 -0.7,-1.75a2.39776,2.39776 0 0 1 2.5,-2.5a2.37438,2.37438 0 0 1 1.75,0.7a2.45483,2.45483 0 0 1 0.75,1.8z" class="cls-23" id="Layer0_29_1_STROKES"/>
   <path d="m626.15044,37.754a7.51132,7.51132 0 1 1 -2.2,-5.3a7.22408,7.22408 0 0 1 2.2,5.3z" class="cls-23" id="Layer0_30_1_STROKES"/>
   <path d="m881.15044,460.254a10.07286,10.07286 0 0 1 -10,10a10.00558,10.00558 0 1 1 10,-10z" class="cls-23" id="Layer0_31_1_STROKES"/>
   <path d="m391.15044,25.254a5.12652,5.12652 0 0 1 -5,5a4.85272,4.85272 0 0 1 -3.55,-1.5a4.76915,4.76915 0 0 1 -1.45,-3.5a4.95145,4.95145 0 0 1 5,-5a4.76927,4.76927 0 0 1 3.5,1.45a4.85273,4.85273 0 0 1 1.5,3.55z" class="cls-37" id="Layer0_32_1_STROKES"/>
   <path d="m854.30044,187.104l86.55,23.15l-34.15,130" class="cls-37" id="Layer0_33_1_STROKES"/>
   <g id="Layer0_34_MEMBER_0_FILL">
    <path id="svg_200" d="m847.45044,323.204l0,-27.6l-20.6,9.4l0,16.05l8.5,4.35l12.1,-2.2z" class="cls-25"/>
   </g>
   <g id="Layer0_34_MEMBER_1_FILL">
    <path id="svg_201" d="m841.75044,587.304l7.4,0l0,-4.2l-7.4,0l0,4.2z" class="cls-25"/>
   </g>
   <g id="Layer0_34_MEMBER_2_FILL">
    <path id="svg_202" d="m784.40044,587.104l7.4,0l0.6,-4.2l-7.4,0l-0.6,4.2z" class="cls-25"/>
   </g>
   <g id="Layer0_34_MEMBER_3_FILL">
    <path id="svg_203" d="m810.10044,398.904q-4.45,0.5 -6.1,7.4l-20.5,176.9l10.2,0l34.4,-136.45l12.8,137.15l8.6,0.1l12.35,-160.1q2.14993,-18.3 -11.65,-21.1l-40.1,-3.9z" class="cls-28"/>
   </g>
   <path d="m840.55044,580.254l7.6,0l7.75,-153.15q-0.42837,-14.64487 -6.25,-20.9m-1.5,174.05l1.65,0" class="cls-38" id="Layer0_34_MEMBER_4_1_STROKES"/>
   <g id="Layer0_34_MEMBER_5_FILL">
    <path id="svg_204" d="m847.45044,323.204l-18.5,-2.3a63.26209,63.26209 0 0 0 -21.75,4.5l-0.7,11.25a103.5658,103.5658 0 0 0 -2.3,13.6a106.79776,106.79776 0 0 0 -0.2,17.35q1.40012,24 0,38.7q27.15,8.15 56.25,0.65a514.25442,514.25442 0 0 1 2.95,-58.2l5.85,-9.3q-7.4001,-10.4 -21.6,-16.25z" class="cls-18"/>
   </g>
   <g id="Layer0_34_MEMBER_6_FILL">
    <path id="svg_205" d="m837.20044,408.754l-5.2,4.95a14.13359,14.13359 0 0 0 4.35,6.05l6.05,-3.45q-4.65006,-3.2 -5.2,-7.55z" class="cls-25"/>
    <path id="svg_206" d="m858.45044,338.704q-5.5,4.6 -3.45,14.85l5.8,24.9q1.35,6.25 -2.75,10.35l-20.85,19.95q0.55005,4.34994 5.2,7.55l34.15,-19.8a9.87737,9.87737 0 0 0 4.25,-5.9a17.3578,17.3578 0 0 0 -0.2,-7.35l-11.55,-43.8a8.06163,8.06163 0 0 0 -5.4,-2.55a7.02889,7.02889 0 0 0 -5.2,1.8z" class="cls-39"/>
   </g>
   <g id="Layer0_34_MEMBER_7_FILL">
    <path id="svg_207" d="m729.35044,308.404q2.5,-5.44995 9.2,-6.55l-8.1,-7.45q-3.35,0.9 -7,5.2l5.9,8.8z" class="cls-25"/>
    <path id="svg_208" d="m810.60044,349.304l2.15,-23.9l-43.3,0a13.62193,13.62193 0 0 1 -8.5,-3.6l-22.4,-19.95q-6.7,1.1 -9.2,6.55l23,32.15a15.13189,15.13189 0 0 0 10.2,5.6l48.05,3.15z" class="cls-18"/>
   </g>
   <g id="Layer0_34_MEMBER_8_FILL">
    <path id="svg_209" d="m826.85044,305.004l0,12.25q10.14359,-3.12382 15.85,-9.55l2.35,-11l-18.2,8.3z" class="cls-40"/>
   </g>
   <g id="Layer0_34_MEMBER_9_FILL">
    <path id="svg_210" d="m819.60044,282.554l0,16.7a13.432,13.432 0 0 0 1.4,7.5a9.54022,9.54022 0 0 0 5.2,4.6a18.02118,18.02118 0 0 0 11.2,-0.25a16.87155,16.87155 0 0 0 8.55,-7.3q1.9,-4.15 1.45,-11.2l0,-8.5l-20.55,-9.7l-7.25,8.15z" class="cls-25"/>
   </g>
   <g id="Layer0_34_MEMBER_10_FILL">
    <path id="svg_211" d="m823.80044,265.604q-2.79994,2.2 -1.75,9.15q-4.65,-1.05 -5.9,2.25q-1.25,3.75 3.45,9.1q4.55,-1.85 7.25,-8.55q1.95,8.05 16.8,11.7l0,6.35l1.9,0l0.4,-4.4a4.62622,4.62622 0 0 0 0.1,-0.9a18.34041,18.34041 0 0 1 0.3,-2.2q0.25,-0.6 1.05,-0.45l-0.6,15.4q6.05,-7 7.85,-12.35q1.5,-4.85 0.45,-8.2a9.70244,9.70244 0 0 0 -2.1,-4a46.12362,46.12362 0 0 0 -3.3,-3.4a56.27581,56.27581 0 0 0 -9.5,-7.25a23.92466,23.92466 0 0 0 -11.1,-3.5q-3.6,-0.3 -5.3,1.25z" class="cls-2"/>
   </g>
   <g id="Layer0_34_MEMBER_11_FILL">
    <path id="svg_212" d="m846.95044,296.854a4.6812,4.6812 0 0 0 3.65,-1.65a6.49746,6.49746 0 0 0 1.15,-4.55a2.759,2.759 0 0 0 -2.35,-2.25q-1.95,-0.3 -2.45,1.9l0,6.55z" class="cls-25"/>
   </g>
   <g id="Layer0_34_MEMBER_12_FILL">
    <path id="svg_213" d="m730.35044,295.604a10.98814,10.98814 0 0 0 -0.1,-5.25a10.047,10.047 0 0 0 -0.85,-2.1a76.29315,76.29315 0 0 0 -7.25,-10.2q-1.6,-0.4 -0.95,1.4l2.85,5.55a10.86259,10.86259 0 0 0 -5.4,3.25a2.43984,2.43984 0 0 0 -0.5,1.75a17.20325,17.20325 0 0 0 0.5,4.8a8.50792,8.50792 0 0 0 2.65,3.85a10.07153,10.07153 0 0 0 3.35,1.2a13.01,13.01 0 0 1 5.7,-4.25z" class="cls-25"/>
   </g>
   <g id="Layer0_34_MEMBER_13_FILL">
    <path id="svg_214" d="m832.00044,413.704a12.47857,12.47857 0 0 0 -4.65,5.4a15.15331,15.15331 0 0 0 -1.85,7.05q1.25,1.35 2.85,0.05a11.42029,11.42029 0 0 0 2.65,-3.6q3.95,1.35 5.35,-2.85a6.22524,6.22524 0 0 0 -4.35,-6.05z" class="cls-25"/>
   </g>
   <g id="Layer0_34_MEMBER_14_FILL">
    <path id="svg_215" d="m847.45044,323.204l-18.5,-2.3q-1.04992,0.05 -2.1,0.15q0.75,9.9 10.8,9.65q6.4,-0.95 9.8,-7.5z" class="cls-25"/>
   </g>
   <g id="Layer0_34_MEMBER_15_FILL">
    <path id="svg_216" d="m765.80044,590.904l0,1.6l28.7,0a8.41183,8.41183 0 0 0 -2.1,-6.15l-8.95,-0.25l-17.65,4.8z" class="cls-8"/>
   </g>
   <g id="Layer0_34_MEMBER_16_FILL">
    <path id="svg_217" d="m849.85044,586.554l-8.95,-0.25l-17.65,4.8l0,1.6l28.7,0a8.41227,8.41227 0 0 0 -2.1,-6.15z" class="cls-8"/>
   </g>
   <path d="m821.80044,409.954l0,20.3l4.65,4.7l3.2,3.2m-45.8,142.1l7.4,0l35.2,-145.3m-35.2,145.3l3.2,0" class="cls-38" id="Layer0_34_MEMBER_17_1_STROKES"/>
  </g>
 </g>
</svg>