<svg width="1762" height="1326" xmlns="http://www.w3.org/2000/svg">
 <defs>
  <style>.cls-1{fill:#ebf2f7;}.cls-2{fill:#03b497;}.cls-3{fill:#86a2d4;}.cls-4{fill:#618cc8;}.cls-29,.cls-5{fill:#2b3174;}.cls-6{fill:#7291ca;}.cls-7{fill:#fff;}.cls-8,.cls-9{fill:#bcd6f0;}.cls-8{opacity:0.4;}.cls-9{opacity:0.5;}.cls-10{fill:#f9a98f;}.cls-11{fill:#567fba;}.cls-12{fill:#e2656c;}.cls-13{fill:#cee0f3;}.cls-14{fill:#f5a720;}.cls-15{fill:#dc8f27;}.cls-16{fill:#f27071;}.cls-17{fill:#414e9b;}.cls-18{fill:#a9c5e7;}.cls-19,.cls-28{fill:#424c9b;}.cls-20,.cls-25,.cls-26,.cls-27{fill:none;stroke-miterlimit:10;}.cls-20,.cls-25{stroke:#a9c5e7;}.cls-20{stroke-width:5.19514px;}.cls-21{fill:#2d2d2d;}.cls-22{fill:#e86a70;}.cls-23{fill:#e76a6f;}.cls-24{fill:#e76a70;}.cls-25,.cls-26{stroke-width:5px;}.cls-26,.cls-27{stroke:#2b3174;}.cls-27{stroke-width:2px;}.cls-28{font-size:72px;}.cls-28,.cls-29{font-family:MyriadPro-Regular, Myriad Pro;}.cls-29{font-size:50px;}</style>
 </defs>
 <title>Artboard 12</title>
 <g>
  <title>background</title>
  <rect fill="none" id="canvas_background" height="1328" width="1764" y="-1" x="-1"/>
 </g>
 <g>
  <title>Layer 1</title>
  <g id="svg_198">
   <path id="svg_1" d="m1.01524,363.86046c0.41823,-41.77409 9.78835,-82.59327 28.98028,-116.847c56.09847,-100.12281 184.61431,-148.539 288.69434,-179.00375c133.32467,-39.02479 277.50834,-41.75167 411.68364,-5.13548c102.95416,28.096 206.80724,78.63779 311.32858,57.0914c65.79247,-13.56269 122.40527,-50.80142 189.8319,-59.25466c69.34017,-8.69314 140.8889,2.45571 205.43456,28.75306c121.129,49.35068 233.99776,152.65789 279.13641,278.58232c22.41127,62.52129 25.95406,130.74909 3.45585,193.794c-27.14987,76.07985 -90.25928,115.529 -133.19405,179.89475c-48.99963,73.458 1.2778,144.30541 -18.66321,221.96363c-9.5296,37.11206 -37.48629,67.34379 -69.917,87.74948c-127.31988,80.11057 -310.78057,82.3145 -450.85558,40.282c-97.98089,-29.40127 -194.8943,-84.54186 -295.79383,-67.69035c-39.1426,6.53731 -75.55983,23.68148 -112.82891,37.31589c-71.39346,26.11829 -153.80393,47.21929 -229.36182,56.07685c-72.70992,8.52374 -152.66821,-3.43237 -205.47663,-54.13529c-64.56617,-61.99247 -75.442,-169.688 -55.69269,-252.82925c10.88847,-45.8385 30.04121,-93.22118 17.68524,-140.83749c-15.65942,-60.34037 -72.68618,-84.53642 -108.1172,-129.40832c-38.7002,-49.01221 -56.94921,-114.49943 -56.32988,-176.36179z" class="cls-1"/>
   <rect id="svg_2" height="24.09432" width="1188.15759" y="867.16311" x="233.5373" class="cls-2"/>
   <polygon id="svg_3" points="1402.645751953125,1326.2900390625 1383.6357421875,1326.2900390625 1302.15576171875,928 1294.6357421875,891.260009765625 1342.645751953125,891.260009765625 1347.7156982421875,928 1402.645751953125,1326.2900390625 " class="cls-3"/>
   <polygon id="svg_4" points="374.645751953125,891.260009765625 367.1257629394531,928 285.645751953125,1326.2900390625 266.6357421875,1326.2900390625 321.5657653808594,928 326.6357421875,891.260009765625 374.645751953125,891.260009765625 " class="cls-3"/>
   <polygon id="svg_5" points="1347.7156982421875,928 1302.15576171875,928 1294.6357421875,891.260009765625 1342.645751953125,891.260009765625 1347.7156982421875,928 " class="cls-4"/>
   <polygon id="svg_6" points="374.645751953125,891.260009765625 367.1257629394531,928 321.5657653808594,928 326.6357421875,891.260009765625 374.645751953125,891.260009765625 " class="cls-4"/>
   <polygon id="svg_7" points="901.9237670898438,857.6719970703125 742.7157592773438,857.6719970703125 749.583740234375,816.736083984375 756.4527587890625,775.801025390625 884.7527465820312,775.801025390625 893.3387451171875,816.736083984375 901.9237670898438,857.6719970703125 " class="cls-3"/>
   <rect id="svg_8" rx="8.18692" height="16.37386" width="197.44943" y="850.92791" x="720.98278" class="cls-5"/>
   <polygon id="svg_9" points="893.3387451171875,816.736083984375 749.583740234375,816.736083984375 756.4527587890625,775.801025390625 884.7527465820312,775.801025390625 893.3387451171875,816.736083984375 " class="cls-6"/>
   <path id="svg_10" d="m1167.89409,358.74774l0,402.609a20.22557,20.22557 0 0 1 -20.22726,20.22038l-651.099,0a20.2212,20.2212 0 0 1 -20.2273,-20.22038l0,-402.609a20.2271,20.2271 0 0 1 20.2273,-20.2273l651.099,0a20.23147,20.23147 0 0 1 20.22726,20.2273z" class="cls-3"/>
   <path id="svg_11" d="m1167.89409,694.89167l0,66.465a20.22557,20.22557 0 0 1 -20.22726,20.22038l-651.099,0a20.2212,20.2212 0 0 1 -20.2273,-20.22038l0,-66.465l691.55356,0z" class="cls-5"/>
   <rect id="svg_12" height="306.28741" width="643.39619" y="363.56493" x="499.45415" class="cls-7"/>
   <circle id="svg_13" r="12.04009" cy="738.23438" cx="820.74363" class="cls-3"/>
   <rect id="svg_14" rx="20.9769" height="336" width="604.8" y="205" x="256.97576" class="cls-8"/>
   <rect id="svg_15" rx="22.47525" height="360" width="648" y="142" x="177.77576" class="cls-9"/>
   <rect id="svg_16" rx="20.9769" height="336" width="604.8" y="322" x="879.77576" class="cls-8"/>
   <rect id="svg_17" rx="22.47525" height="360" width="648" y="277" x="906.77576" class="cls-9"/>
   <path id="svg_18" d="m822.14542,833.76188a56.67392,56.67392 0 0 0 -23.16708,4.71188c-9.20258,8.52628 -0.20258,26.52628 9.48461,29.92614l47.21756,0l0,-1.1029a33.39609,33.39609 0 0 0 -33.53509,-33.53512z" class="cls-10"/>
   <path id="svg_19" d="m602.64001,1297.00004l19.8983,0s53.398,-222.15535 45.93614,-262.57376l-55.42079,0l-10.41365,262.57376z" class="cls-11"/>
   <path id="svg_20" d="m643.07337,1297.00004l-40.43336,0l-3.03617,27.36015l89.46938,0l0,0c0,-15.11064 -26.11646,-27.36015 -45.99985,-27.36015z" class="cls-5"/>
   <path id="svg_21" d="m570.11576,575.77997c-0.41,5.75 -2.22,7.96 -6.61005,8.56l-15.4,0.25l-1.06,-2.69l13.21,-0.95c3.51,-0.48 4.95,-2.23 5.28,-6.82c0.34,-4.64 -1.01,-11.56 -1.47,-14.58c-0.93,-6.14 -3.98,-5.59 -3.98,-5.59s-0.82,-0.01 -8.93,0.15a41.538,41.538 0 0 0 -13.89,2.98l-1.11,-2.8s5.38,-3.36 15.95,-3.58c10.16,-0.22 11.17,-0.2 11.17,-0.2s3.83,-0.69 5,7.01c0.56005,3.78007 2.26005,12.45 1.84005,18.26z" class="cls-12"/>
   <path id="svg_22" d="m565.53576,574.13004c-0.33,4.59 -1.77,6.34 -5.28,6.82l-13.21,0.95l-9.78,-24.81a41.538,41.538 0 0 1 13.89,-2.98c8.11,-0.16 8.93,-0.15 8.93,-0.15s3.05,-0.55 3.98,5.59c0.46,3.02 1.81,9.94 1.47,14.58z" class="cls-13"/>
   <path id="svg_23" d="m449.74029,655.38356l79.0842,0s26.279,2.16634 26.279,-15.19223a237.74769,237.74769 0 0 0 -2.73488,-33.96021s8.1499,0 9.35729,-5.6927c1.0665,-5.02843 -4.87278,-12.93034 -10.11736,-21.64825c-4.81062,-7.99654 -8.89907,-11.2956 -10.10646,-21.55844s-1.165,-16.9035 -4.18347,-22.63861l-104.78367,17.20534l12.7842,88.29287l4.42115,15.19223z" class="cls-10"/>
   <path id="svg_24" d="m583.36354,700.50804s51.6112,169.13548 215.61479,137.96574l9.48464,29.9261s-98.86964,23.62922 -152.3463,11.19279s-86.4332,-62.804 -86.4332,-62.804l13.68007,-116.28063z" class="cls-14"/>
   <polygon id="svg_25" points="515.4967651367188,676 443.291748046875,676 439.7967529296875,653.114013671875 515.4967651367188,653.114013671875 515.4967651367188,676 " class="cls-15"/>
   <path id="svg_26" d="m562.22161,966.64769s169.91462,4.35275 212.82032,26.11651c0,0 16.63186,1.66461 16.63186,30.36883s-14.3019,151.62978 -49.12391,274.75046l-19.89829,0l9.32732,-249.77717s-236.29222,9.32732 -281.06337,5.5964c0,0 -36.06566,-0.20085 -41.66205,-30.56969c0,0 -8.7055,-47.22922 13.05825,-56.55654l139.90987,0.0712z" class="cls-3"/>
   <path id="svg_27" d="m762.46312,1296.63985l-40.43336,0l-3.03617,27.36019l89.46938,0l0,0c0,-15.11065 -26.11651,-27.36019 -45.99985,-27.36019z" class="cls-5"/>
   <path id="svg_28" d="m569.68345,966.57647c14.47084,-94.65662 18.872,-174.71788 14.47084,-262.83225c0,0 -6.16162,-28.1154 -69.5381,-31.63631c-46.50772,-2.58376 -94.514,-2.83082 -122.36421,4.13754a27.958,27.958 0 0 0 -19.66006,18.02843c-3.763,10.92934 -6.40139,29.14435 -1.453,57.93485c9.68252,56.33464 51.17284,214.36776 51.17284,214.36776l147.37169,-0.00002z" class="cls-14"/>
   <path id="svg_29" d="m518.9944,1015.32763s0.198,17.31163 -21.79686,19.09409c0,0 -56.32689,3.8211 -105.78042,4.18225l-0.34948,0c-28.23918,0.19809 -54.18337,-0.74554 -66.05454,-4.18225c0,0 -29.91675,-1.56111 -35.01938,-31.18662c0,0 -14.01471,-115.89246 -2.33,-211.94531c1.398,-11.47505 4.65993,-33.98253 37.34935,-43.18592c22.93851,-6.454 53.927,-12.89637 88.72513,-11.92941a232.60282,232.60282 0 0 1 46.13329,5.80159s33.60972,6.79187 44.31592,49.88457c0.00003,0 31.96716,124.81628 14.80699,223.46701z" class="cls-5"/>
   <path id="svg_30" d="m532.97419,1015.32763s0.198,17.31163 -21.79685,19.09409c0,0 -67.6389,4.59 -119.76022,4.18225c49.45353,-0.36115 105.78042,-4.18225 105.78042,-4.18225c21.99488,-1.78246 21.79686,-19.09409 21.79686,-19.09409c17.16017,-98.65073 -14.807,-223.467 -14.807,-223.467c-10.7062,-43.0927 -44.31592,-49.88457 -44.31592,-49.88457a232.60282,232.60282 0 0 0 -46.13329,-5.80159a237.767,237.767 0 0 1 60.11308,5.80159s33.60973,6.79187 44.31592,49.88457c0.00004,-0.00001 31.96717,124.81627 14.807,223.467z" class="cls-16"/>
   <path id="svg_31" d="m649.13576,1072.33997c-3.14,5.39 -8.67,7.24 -13.98,8.38c0,0 -187.05,10.68994 -290.01,4.17993c0,0 -12.93,-0.26989 -21.34,-4.99c-4.06,-2.27986 -7.06,-5.58986 -7.06,-10.39986c0,0 -2.38995,-15.99 9.45,-17.18005c0,0 182.21,-10.03992 243.49,-11.22c0,0 58.91,-2.37 68.97,0c0,0 12.43,2.37 13.02,18.34c0.21,5.73995 -0.79,9.87005 -2.54,12.88998z" class="cls-16"/>
   <rect id="svg_32" height="201.38321" width="55.53211" y="1082.53212" x="447.51881" class="cls-5"/>
   <circle id="svg_33" r="27.61331" cy="979.7107" cx="373.59156" class="cls-17"/>
   <path id="svg_34" d="m373.9964,1297.89777l215.15307,0c0,-3.68232 -13.22546,-24.19494 -114.37371,-19.46372c-72,3.36781 -88.68028,5.78651 -100.77936,19.46372z" class="cls-5"/>
   <circle id="svg_35" r="12.09907" cy="1311.90093" cx="576.87483" class="cls-5"/>
   <circle id="svg_36" r="12.09907" cy="1311.90093" cx="382.41315" class="cls-5"/>
   <path id="svg_37" d="m484.49391,640.19133l-39.17477,0s-6.54338,-18.19129 -24.87286,-38.55294c-17.35886,-19.28338 -19.27647,-56.58576 -8.08368,-71.50948s47.88026,-24.87287 47.88026,-24.87287s13.68008,-25.49469 28.6038,-7.46186c0,0 28.60379,-33.57837 39.17476,-1.24364c0,0 34.822,-20.52012 25.49469,23.0074c0,0 -6.74035,21.44206 -14.92372,21.14193c0,0 -27.982,-3.1091 -27.36016,13.68008l6.21822,35.44383l-11.81461,0s-2.48729,-28.3574 -15.54554,-28.48059s-9.95678,42.16067 -9.95678,42.16067l4.36039,36.68747z" class="cls-5"/>
   <path id="svg_38" d="m487.16945,571.82044c0.90555,0 80.23544,-17.72994 80.23544,-17.72994a95.20389,95.20389 0 0 1 2.25175,12.52932l-80.37425,9.42649l-2.11294,-4.22587z" class="cls-16"/>
   <path id="svg_39" d="m649.13576,1072.33997c-3.14,5.39 -8.67,7.24 -13.98,8.38c0,0 -187.05,10.68994 -290.01,4.17993c0,0 -12.93,-0.26989 -21.34,-4.99l325.33,-7.56993z" class="cls-5"/>
   <circle id="svg_40" r="12.09907" cy="1311.90093" cx="479.64399" class="cls-5"/>
   <path id="svg_41" d="m681.77576,943.46997c-0.03,7.13 -15.05,8.4 -19.45,8.63c-14.18,0.73 -40.83,0.25 -56.81,0s-13.02,19.77 -13.02,19.77l9.44,117.76c-0.49,7.38 -14.76,8.88 -28.37,10.65c-13.61,1.78 -76.34,3.55994 -76.34,3.55994c-5.93341,0.00012 -5.93341,-13.61988 0,-13.62c14.8,3.80005 45.57,7.11 60.36,5.33008c14.79,-1.77 17.16,-4.14014 18.94,-20.12012c1.77,-15.98 -3.56,-50.88989 -6.84,-92.30993c-1.76,-22.1 0.73,-32.63 5.26,-38.25c3.97,-4.9 9.52,-6.04993 15.19,-7.87c20.32,-6.55 46.04,-9.3 61.57,-8.92c19.47,0.49011 26.89,5 29.19,10.56006a12.34421,12.34421 0 0 1 0.88,4.82997z" class="cls-17"/>
   <path id="svg_42" d="m680.89576,938.64004c-44.12,-1.64 -98.12,7.36 -105.95,6.23c3.97,-4.9 9.52,-6.04993 15.19,-7.87c20.32,-6.55 46.04,-9.3 61.57,-8.92c19.47,0.49 26.89,4.99992 29.19,10.56z" class="cls-16"/>
   <path id="svg_43" d="m356.38895,994.95278s-3.55051,81.66182 0,99.41439c0,0 -2.28342,17.16082 17.20261,18.93608s79.253,3.69675 79.253,3.69675c5.24151,0.00012 5.24151,-7.83887 0,-7.839c0,0 -49.47767,0.59172 -61.42749,-1.18354c0,0 -7.80756,-0.59175 -7.80756,-7.101s7.80756,-105.92367 7.80756,-105.92367l-35.02812,-0.00001z" class="cls-17"/>
   <path id="svg_44" d="m1584.22424,268.7532l0,324.41125a12.92646,12.92646 0 0 1 -12.92646,12.92646l-615.59556,0a12.92647,12.92647 0 0 1 -12.92646,-12.92646l0,-324.41125a15.7532,15.7532 0 0 1 15.7532,-15.7532l609.94209,0a15.75319,15.75319 0 0 1 15.75319,15.7532z" class="cls-18"/>
   <path id="svg_45" d="m1584.22424,268.7532l0,25.44074l-641.44848,0l0,-25.44074a15.7532,15.7532 0 0 1 15.7532,-15.7532l609.94209,0a15.75319,15.75319 0 0 1 15.75319,15.7532z" class="cls-3"/>
   <rect id="svg_46" height="176.54545" width="306.01212" y="335.38788" x="960.43031" class="cls-3"/>
   <rect id="svg_47" height="82.38788" width="300.12727" y="335.38788" x="1272.32728" class="cls-3"/>
   <rect id="svg_48" height="88.27273" width="141.23636" y="423.66061" x="1272.32728" class="cls-3"/>
   <rect id="svg_49" height="88.27273" width="147.12121" y="423.66061" x="1425.33334" class="cls-3"/>
   <rect id="svg_50" height="17.65455" width="500.21212" y="270.65455" x="995.7394" class="cls-18"/>
   <rect id="svg_51" height="11.7697" width="47.07879" y="273.59697" x="1501.83637" class="cls-5"/>
   <rect id="svg_52" height="11.7697" width="41.19394" y="276.53939" x="948.66061" class="cls-5"/>
   <rect id="svg_53" height="11.7697" width="41.19394" y="311.84849" x="1023.98667" class="cls-3"/>
   <rect id="svg_54" height="11.7697" width="41.19394" y="311.84849" x="966.31515" class="cls-3"/>
   <rect id="svg_55" height="11.7697" width="41.19394" y="311.84849" x="1081.65818" class="cls-3"/>
   <rect id="svg_56" height="11.7697" width="41.19394" y="311.84849" x="1139.3297" class="cls-3"/>
   <rect id="svg_57" height="11.7697" width="41.19394" y="311.84849" x="1197.00121" class="cls-3"/>
   <rect id="svg_58" height="11.7697" width="41.19394" y="311.84849" x="1254.67273" class="cls-3"/>
   <rect id="svg_59" height="8.50034" width="116.0029" y="522.00891" x="969.25752" class="cls-5"/>
   <rect id="svg_60" height="7.19259" width="279.47092" y="534.43248" x="969.25752" class="cls-3"/>
   <rect id="svg_61" height="7.19259" width="253.31604" y="544.89443" x="969.25752" class="cls-3"/>
   <rect id="svg_62" height="8.50034" width="83.3093" y="522.00891" x="1285.59814" class="cls-3"/>
   <rect id="svg_63" height="7.19259" width="96.38674" y="534.43248" x="1285.59814" class="cls-3"/>
   <rect id="svg_64" height="7.19259" width="83.3093" y="544.89443" x="1285.59814" class="cls-3"/>
   <rect id="svg_65" height="8.50034" width="83.3093" y="522.00891" x="1434.68097" class="cls-3"/>
   <rect id="svg_66" height="7.19259" width="96.38674" y="534.43248" x="1434.68097" class="cls-3"/>
   <rect id="svg_67" height="7.19259" width="83.3093" y="544.89443" x="1434.68097" class="cls-3"/>
   <rect id="svg_68" height="15.69293" width="54.72909" y="560.9143" x="969.25758" class="cls-5"/>
   <rect id="svg_69" height="15.69293" width="54.72909" y="560.9143" x="1285.59814" class="cls-5"/>
   <rect id="svg_70" height="15.69293" width="54.72909" y="560.9143" x="1434.68097" class="cls-5"/>
   <rect id="svg_71" height="9.80759" width="111.93901" y="351.74575" x="1281.78207" class="cls-5"/>
   <rect id="svg_72" height="9.80759" width="269.98218" y="363.56431" x="1281.78207" class="cls-19"/>
   <rect id="svg_73" height="9.80759" width="269.98218" y="375.38287" x="1281.78207" class="cls-19"/>
   <rect id="svg_74" height="13.7948" width="58.20639" y="392.08786" x="1281.78207" class="cls-5"/>
   <rect id="svg_75" rx="18" height="369" width="657" y="244" x="933.77576" class="cls-20"/>
   <rect id="svg_76" rx="9.69353" height="351" width="624.90698" y="97" x="146.38737" class="cls-18"/>
   <rect id="svg_77" height="8.31543" width="148.2417" y="130.81738" x="212.39005" class="cls-5"/>
   <rect id="svg_78" height="8.31543" width="8.15771" y="149.36768" x="212.39005" class="cls-21"/>
   <rect id="svg_79" height="8.31543" width="27.34717" y="149.36768" x="224.3837" class="cls-2"/>
   <rect id="svg_80" height="8.31543" width="15.19336" y="149.36768" x="257.16593" class="cls-21"/>
   <rect id="svg_81" height="8.31543" width="15.19385" y="149.36768" x="275.71574" class="cls-21"/>
   <rect id="svg_82" height="8.31543" width="72.7627" y="149.36768" x="294.26554" class="cls-22"/>
   <rect id="svg_83" height="8.31543" width="15.8335" y="149.36768" x="375.99894" class="cls-2"/>
   <rect id="svg_84" height="8.31543" width="11.99512" y="149.36768" x="395.18888" class="cls-21"/>
   <rect id="svg_85" height="8.31543" width="69.56445" y="149.36768" x="411.18009" class="cls-21"/>
   <rect id="svg_86" height="8.31543" width="127.13281" y="149.36768" x="483.46085" class="cls-2"/>
   <rect id="svg_87" height="8.31543" width="127.13281" y="149.36768" x="613.67033" class="cls-5"/>
   <rect id="svg_88" height="8.31543" width="8.15771" y="165.02881" x="212.39005" class="cls-21"/>
   <rect id="svg_89" height="8.31543" width="27.34717" y="165.02881" x="224.3837" class="cls-21"/>
   <rect id="svg_90" height="8.31543" width="15.19336" y="165.02881" x="257.16593" class="cls-2"/>
   <rect id="svg_91" height="8.31543" width="15.19385" y="165.02881" x="275.71574" class="cls-21"/>
   <rect id="svg_92" height="8.31543" width="72.7627" y="165.02881" x="294.26554" class="cls-21"/>
   <rect id="svg_93" height="8.31543" width="15.8335" y="165.02881" x="375.99894" class="cls-21"/>
   <rect id="svg_94" height="8.31543" width="11.99512" y="165.02881" x="395.18888" class="cls-22"/>
   <rect id="svg_95" height="8.31543" width="69.56445" y="165.02881" x="411.18009" class="cls-2"/>
   <rect id="svg_96" height="8.31543" width="127.13281" y="165.02881" x="483.46085" class="cls-23"/>
   <rect id="svg_97" height="8.31543" width="127.13281" y="165.02881" x="613.67033" class="cls-21"/>
   <rect id="svg_98" height="8.31543" width="8.15771" y="178.24854" x="212.39005" class="cls-21"/>
   <rect id="svg_99" height="8.31543" width="27.34717" y="178.24854" x="224.3837" class="cls-21"/>
   <rect id="svg_100" height="8.31543" width="15.19336" y="178.24854" x="257.16593" class="cls-21"/>
   <rect id="svg_101" height="8.31543" width="15.19385" y="178.24854" x="275.71574" class="cls-21"/>
   <rect id="svg_102" height="8.31543" width="72.7627" y="178.24854" x="294.26554" class="cls-2"/>
   <rect id="svg_103" height="8.31543" width="10.07666" y="406.81738" x="236.05704" class="cls-21"/>
   <rect id="svg_104" height="8.31543" width="27.34717" y="406.81738" x="249.96964" class="cls-2"/>
   <rect id="svg_105" height="8.31543" width="17.75244" y="406.81738" x="282.75187" class="cls-21"/>
   <rect id="svg_106" height="8.31543" width="8.15771" y="406.81738" x="303.86027" class="cls-21"/>
   <rect id="svg_107" height="8.31543" width="10.71631" y="406.81738" x="468.59074" class="cls-21"/>
   <rect id="svg_108" height="8.31543" width="147.60205" y="406.81738" x="317.29288" class="cls-5"/>
   <rect id="svg_109" height="8.31543" width="143.12451" y="195.36377" x="212.39005" class="cls-5"/>
   <rect id="svg_110" height="8.31543" width="8.79736" y="210.65723" x="212.39005" class="cls-21"/>
   <rect id="svg_111" height="8.31543" width="15.8335" y="178.24854" x="375.99894" class="cls-21"/>
   <rect id="svg_112" height="8.31543" width="11.99512" y="178.24854" x="395.18888" class="cls-21"/>
   <rect id="svg_113" height="8.31543" width="69.56445" y="178.24854" x="411.18009" class="cls-21"/>
   <rect id="svg_114" height="8.31543" width="127.13281" y="178.24854" x="483.46085" class="cls-5"/>
   <rect id="svg_115" height="8.31543" width="127.13281" y="178.24854" x="613.67033" class="cls-2"/>
   <rect id="svg_116" height="8.31543" width="36.94189" y="210.65723" x="225.82267" class="cls-2"/>
   <rect id="svg_117" height="8.31543" width="24.78857" y="210.65723" x="266.83927" class="cls-21"/>
   <rect id="svg_118" height="8.31543" width="10.07666" y="210.65723" x="294.26554" class="cls-21"/>
   <rect id="svg_119" height="8.31543" width="56.771" y="210.65723" x="308.41691" class="cls-2"/>
   <rect id="svg_120" height="8.31543" width="22.86963" y="229.84717" x="242.17326" class="cls-21"/>
   <rect id="svg_121" height="8.31543" width="82.35742" y="229.84717" x="272.95548" class="cls-22"/>
   <rect id="svg_122" height="8.31543" width="82.35742" y="244.3457" x="272.95548" class="cls-2"/>
   <rect id="svg_123" height="8.31543" width="10.07666" y="260.97656" x="242.1337" class="cls-21"/>
   <rect id="svg_124" height="8.31543" width="10.07666" y="275.95996" x="211.43058" class="cls-21"/>
   <rect id="svg_125" height="8.31543" width="36.30225" y="275.95996" x="224.54337" class="cls-21"/>
   <rect id="svg_126" height="8.31543" width="194.93604" y="290.94336" x="211.43058" class="cls-5"/>
   <rect id="svg_127" height="8.31543" width="284.48779" y="310.44336" x="211.43058" class="cls-5"/>
   <rect id="svg_128" height="8.31543" width="226.91895" y="392.62891" x="211.43058" class="cls-5"/>
   <rect id="svg_129" height="8.31543" width="98.98828" y="324.67041" x="211.43058" class="cls-5"/>
   <rect id="svg_130" height="8.31543" width="7.51807" y="275.95996" x="265.08244" class="cls-21"/>
   <rect id="svg_131" height="8.31543" width="13.2749" y="341.78613" x="183.00529" class="cls-21"/>
   <rect id="svg_132" height="8.31543" width="36.30225" y="341.78613" x="199.31681" class="cls-2"/>
   <rect id="svg_133" height="8.31543" width="7.51807" y="341.78613" x="239.85538" class="cls-21"/>
   <rect id="svg_134" height="8.31543" width="10.47559" y="375.68799" x="183.00529" class="cls-21"/>
   <rect id="svg_135" height="8.31543" width="23.50928" y="375.68799" x="196.51701" class="cls-24"/>
   <rect id="svg_136" height="8.31543" width="7.51807" y="375.68799" x="224.2631" class="cls-21"/>
   <rect id="svg_137" height="8.31543" width="165.51221" y="244.3457" x="365.52384" class="cls-5"/>
   <rect id="svg_138" height="8.31543" width="31.82471" y="210.65723" x="374.86173" class="cls-21"/>
   <rect id="svg_139" height="8.31543" width="6.87793" y="210.65723" x="410.68253" class="cls-21"/>
   <rect id="svg_140" height="8.31543" width="6.87793" y="210.65723" x="410.68253" class="cls-21"/>
   <rect id="svg_141" height="8.31543" width="52.93311" y="210.65723" x="422.1962" class="cls-2"/>
   <rect id="svg_142" height="8.31543" width="10.07617" y="210.65723" x="479.46525" class="cls-21"/>
   <rect id="svg_143" rx="10.19064" height="369" width="647.21389" y="88" x="135.23391" class="cls-25"/>
   <line id="svg_144" y2="1324" x2="1761.77576" y1="1324" x1="51.77576" class="cls-26"/>
   <path id="svg_145" d="m1131.10369,1135.00004l109.34414,0a8.32793,8.32793 0 0 1 8.32793,8.32789l0,9.67211a0,0 0 0 1 0,0l-126,0a0,0 0 0 1 0,0l0,-9.67207a8.32793,8.32793 0 0 1 8.32793,-8.32793z" class="cls-5"/>
   <rect id="svg_146" height="162" width="108" y="1153" x="1131.77576" class="cls-3"/>
   <circle id="svg_147" r="4.5" cy="1166.5" cx="1226.27576" class="cls-11"/>
   <circle id="svg_148" r="4.5" cy="1200.25" cx="1226.27576" class="cls-11"/>
   <circle id="svg_149" r="4.5" cy="1234" cx="1226.27576" class="cls-11"/>
   <circle id="svg_150" r="4.5" cy="1267.75" cx="1226.27576" class="cls-11"/>
   <circle id="svg_151" r="4.5" cy="1301.5" cx="1226.27576" class="cls-11"/>
   <circle id="svg_152" r="4.5" cy="1166.5" cx="1199.27576" class="cls-11"/>
   <circle id="svg_153" r="4.5" cy="1200.25" cx="1199.27576" class="cls-11"/>
   <circle id="svg_154" r="4.5" cy="1234" cx="1199.27576" class="cls-11"/>
   <circle id="svg_155" r="4.5" cy="1267.75" cx="1199.27576" class="cls-11"/>
   <circle id="svg_156" r="4.5" cy="1301.5" cx="1199.27576" class="cls-11"/>
   <circle id="svg_157" r="4.5" cy="1166.5" cx="1172.27576" class="cls-11"/>
   <circle id="svg_158" r="4.5" cy="1200.25" cx="1172.27576" class="cls-11"/>
   <circle id="svg_159" r="4.5" cy="1234" cx="1172.27576" class="cls-11"/>
   <circle id="svg_160" r="4.5" cy="1267.75" cx="1172.27576" class="cls-11"/>
   <circle id="svg_161" r="4.5" cy="1301.5" cx="1172.27576" class="cls-11"/>
   <circle id="svg_162" r="4.5" cy="1166.5" cx="1145.27576" class="cls-11"/>
   <circle id="svg_163" r="4.5" cy="1200.25" cx="1145.27576" class="cls-11"/>
   <circle id="svg_164" r="4.5" cy="1234" cx="1145.27576" class="cls-11"/>
   <circle id="svg_165" r="4.5" cy="1267.75" cx="1145.27576" class="cls-11"/>
   <circle id="svg_166" r="4.5" cy="1301.5" cx="1145.27576" class="cls-11"/>
   <path id="svg_167" d="m1131.77576,1315.00004l108,0a9,9 0 0 1 9,9l0,0a0,0 0 0 1 0,0l-126,0a0,0 0 0 1 0,0l0,0a9,9 0 0 1 9,-9z" class="cls-5"/>
   <circle id="svg_168" r="13.5" cy="788.5" cx="1433.27576" class="cls-27"/>
   <circle id="svg_169" r="13.5" cy="167.5" cx="1172.27576" class="cls-27"/>
   <circle id="svg_170" r="9" cy="496" cx="1653.77576" class="cls-27"/>
   <circle id="svg_171" r="13.5" cy="626.5" cx="272.27576" class="cls-27"/>
   <circle id="svg_172" r="13.5" cy="959.5" cx="983.27576" class="cls-27"/>
   <circle id="svg_173" r="4.5" cy="41.5" cx="533.27576" class="cls-27"/>
   <circle id="svg_174" r="13.5" cy="356.5" cx="56.27576" class="cls-27"/>
   <circle id="svg_175" r="4.5" cy="149.5" cx="1379.27576" class="cls-27"/>
   <circle id="svg_176" r="9" cy="190" cx="915.77576" class="cls-27"/>
   <circle id="svg_177" r="9" cy="721" cx="1257.77576" class="cls-27"/>
   <line id="svg_178" y2="955" x2="1482.77576" y1="928" x1="1455.77576" class="cls-27"/>
   <line id="svg_179" y2="955" x2="1455.77576" y1="928" x1="1482.77576" class="cls-27"/>
   <line id="svg_180" y2="361" x2="1644.77576" y1="334" x1="1617.77576" class="cls-27"/>
   <line id="svg_181" y2="361" x2="1617.77576" y1="334" x1="1644.77576" class="cls-27"/>
   <line id="svg_182" y2="208" x2="1041.77576" y1="181" x1="1014.77576" class="cls-27"/>
   <line id="svg_183" y2="208" x2="1014.77576" y1="181" x1="1041.77576" class="cls-27"/>
   <line id="svg_184" y2="28" x2="339.77576" y1="1" x1="312.77576" class="cls-27"/>
   <line id="svg_185" y2="28" x2="312.77576" y1="1" x1="339.77576" class="cls-27"/>
   <line id="svg_186" y2="856" x2="195.77576" y1="829" x1="168.77576" class="cls-27"/>
   <line id="svg_187" y2="856" x2="168.77576" y1="829" x1="195.77576" class="cls-27"/>
   <text id="svg_188" x="1320.77576" y="784" class="cls-28">{ }</text>
   <text id="svg_189" x="1212.77576" y="154" class="cls-29">&lt;/&gt;</text>
   <text id="svg_190" x="132.77576" y="568" class="cls-29">&lt;/&gt;</text>
   <circle id="svg_191" r="45" cy="64" cx="969.77576" class="cls-1"/>
   <circle id="svg_192" r="18" cy="145" cx="1653.77576" class="cls-1"/>
   <circle id="svg_193" r="22.5" cy="113.5" cx="1577.27576" class="cls-1"/>
   <circle id="svg_194" r="22.5" cy="824.5" cx="1631.27576" class="cls-1"/>
   <circle id="svg_195" r="18" cy="757" cx="1662.77576" class="cls-1"/>
   <circle id="svg_196" r="40.5" cy="698.5" cx="101.27576" class="cls-1"/>
   <circle id="svg_197" r="18" cy="622" cx="42.77576" class="cls-1"/>
  </g>
 </g>
</svg>