<svg width="1835" height="1329" xmlns="http://www.w3.org/2000/svg">
 <defs>
  <style>.cls-1,.cls-12,.cls-29,.cls-33,.cls-35,.cls-36{fill:none;}.cls-2{fill:#dbe2f2;}.cls-3{fill:#2b3174;}.cls-4{fill:#fff;}.cls-5{fill:#becce8;}.cls-6{fill:#cfdcf1;}.cls-7{fill:#6e8cb7;}.cls-8{fill:#86a2d4;}.cls-28,.cls-9{fill:#becee9;}.cls-10{opacity:0.1;}.cls-11{clip-path:url(#clip-path);}.cls-12{stroke:#fef3f4;stroke-width:6.27192px;}.cls-12,.cls-29,.cls-33,.cls-35,.cls-36{stroke-linecap:round;stroke-linejoin:round;}.cls-13{fill:#3b468a;}.cls-14{fill:#5766ab;}.cls-15{fill:#df8f26;}.cls-16{fill:#f5a720;}.cls-17{fill:#7692ca;}.cls-18{fill:#525eaa;}.cls-19{fill:#4e59a5;}.cls-20{fill:#f9ae85;}.cls-21{fill:#36af98;}.cls-22{fill:#3dbda7;}.cls-23{fill:#f9af86;}.cls-24{fill:#22275a;}.cls-25{fill:#394a9d;}.cls-26{fill:#3b498a;}.cls-27{fill:#f16365;}.cls-28{opacity:0.3;}.cls-29{stroke:#fff;stroke-width:9.78734px;}.cls-30{fill:#df8c63;}.cls-31{fill:#3a4a9e;}.cls-32{fill:#e99a23;}.cls-33,.cls-35,.cls-36{stroke:#5672b7;}.cls-33{stroke-width:7.31724px;}.cls-34{fill:#5672b7;}.cls-35{stroke-width:3.13596px;}.cls-36{stroke-width:2.71997px;}</style>
  <clipPath id="clip-path">
   <rect id="svg_1" height="601.05937" width="1247.06753" y="897.7407" x="360.93707" class="cls-1"/>
  </clipPath>
 </defs>
 <title>Artboard 14</title>
 <g>
  <title>background</title>
  <rect fill="none" id="canvas_background" height="1331" width="1837" y="-1" x="-1"/>
 </g>
 <g>
  <title>Layer 1</title>
  <g id="svg_205">
   <path id="svg_2" d="m1788.79103,808.85512a296.52449,296.52449 0 0 1 -67.904,189.27628l-1634.51571,0a348.06006,348.06006 0 0 1 27.74285,-390.63634a272.10375,272.10375 0 0 1 -36.23085,-136.09029c0,-151.00705 122.41749,-273.42453 273.42453,-273.42453a272.7215,272.7215 0 0 1 97.35072,17.8436a81.433,81.433 0 0 1 123.881,-33.34576c36.50258,-105.61917 136.822,-181.4781 254.84916,-181.4781c147.9234,0 268.00971,119.12477 269.56723,266.67174a91.83583,91.83583 0 0 1 51.70164,53.38453c93.12759,0.45994 172.38387,59.57281 202.71909,142.2995a114.53667,114.53667 0 0 1 93.253,51.37754a299.49937,299.49937 0 0 1 46.43306,-3.60637c164.42897,0.00003 297.72828,133.29934 297.72828,297.7282z" class="cls-2"/>
   <path id="svg_3" d="m1526.07976,1000.99326l-1260.04,0c-6.83116,0 -11.52152,-4.69035 -11.52152,-10.4762l0,-676.599a10.4762,10.4762 0 0 1 10.4762,-10.4762l1260.04,0a10.4762,10.4762 0 0 1 10.47621,10.4762l0,676.599c0.00001,5.78585 -4.69036,10.4762 -9.43089,10.4762z" class="cls-3"/>
   <rect id="svg_4" height="601.05937" width="1247.06753" y="382.43754" x="270.69273" class="cls-4"/>
   <path id="svg_5" d="m1019.26537,601.35522l-0.27293,9.90682l-0.44912,16.3l-269.589,0l-0.35227,-16.3l-0.907,-42.6302a6.61006,6.61006 0 0 1 0.12329,-1.67307c0,-0.01763 0.00876,-0.02644 0.00876,-0.04407a6.62818,6.62818 0 0 1 0.66046,-1.86688a5.83348,5.83348 0 0 1 5.11632,-3.21424l93.88154,0l19.76081,28.92791l0.45788,0.66927l1.955,2.862l143.68854,0.40516a6.08886,6.08886 0 0 1 5.82091,5.33642a6.5876,6.5876 0 0 1 0.09681,1.32088z" class="cls-5"/>
   <path id="svg_6" d="m1019.26537,597.83284l-0.09685,2.20152a6.08886,6.08886 0 0 0 -5.82091,-5.33642l-143.68854,-0.40516l-1.955,-2.862l-0.45788,-0.66927l-19.76081,-28.92791l-93.88152,0a5.83348,5.83348 0 0 0 -5.11632,3.21424a6.62818,6.62818 0 0 0 -0.66046,1.86688c-0.00876,-0.89824 -0.01757,-1.58514 -0.01757,-2.02544c0,-0.34334 0,-0.546 0.00881,-0.57231a6.0532,6.0532 0 0 1 5.78554,-5.12519l95.6428,0l21.57487,31.57855l142.52613,0.40515c3.33749,-0.00002 6.01456,3.01159 5.91771,6.65736z" class="cls-6"/>
   <polygon id="svg_7" points="986.6826171875,578.0189208984375 986.6826171875,672.2347412109375 778.9216918945312,672.2347412109375 778.9216918945312,605.9788818359375 806.8806762695312,578.0189208984375 986.6826171875,578.0189208984375 " class="cls-7"/>
   <polygon id="svg_8" points="806.8806762695312,578.0189208984375 806.8806762695312,605.973876953125 778.9216918945312,605.973876953125 806.8806762695312,578.0189208984375 " class="cls-8"/>
   <polygon id="svg_9" points="991.0855712890625,583.302734375 991.0855712890625,677.518798828125 783.3246459960938,677.518798828125 783.3246459960938,611.26171875 811.28369140625,583.302734375 991.0855712890625,583.302734375 " class="cls-8"/>
   <polygon id="svg_10" points="811.28369140625,583.302734375 811.28369140625,611.2579345703125 783.3246459960938,611.2579345703125 811.28369140625,583.302734375 " class="cls-9"/>
   <rect id="svg_11" height="4.48655" width="51.76792" y="603.32006" x="838.89197" class="cls-9"/>
   <rect id="svg_12" height="4.48655" width="152.15709" y="616.23319" x="821.98111" class="cls-9"/>
   <rect id="svg_13" height="4.48655" width="51.76792" y="603.32006" x="898.25251" class="cls-9"/>
   <rect id="svg_14" height="4.48655" width="152.15709" y="633.40502" x="821.98111" class="cls-9"/>
   <rect id="svg_15" height="4.48655" width="152.15709" y="650.57685" x="821.98111" class="cls-9"/>
   <polygon id="svg_16" points="1018.99267578125,611.26171875 1018.5435791015625,627.561767578125 748.9546508789062,627.561767578125 748.6016845703125,611.26171875 1018.99267578125,611.26171875 " class="cls-10"/>
   <path id="svg_17" d="m1025.63747,766.96015l-287.25008,0l-5.80549,-141.687a6.45635,6.45635 0 0 1 6.44737,-6.79667l283.4766,0a6.45636,6.45636 0 0 1 6.45342,6.651l-3.32182,141.83267z" class="cls-5"/>
   <path id="svg_18" d="m1045.17082,670.97858l-0.324,11.75985l-0.53313,19.3489l-320.01452,0l-0.41815,-19.3489l-1.07665,-50.604a7.84636,7.84636 0 0 1 0.14636,-1.986c0,-0.02093 0.0104,-0.03139 0.0104,-0.05232a7.86748,7.86748 0 0 1 0.784,-2.21607a6.92461,6.92461 0 0 1 6.07331,-3.81545l111.44167,0l23.457,34.33876l0.54353,0.79445l2.32064,3.39729l170.56489,0.48094a7.22776,7.22776 0 0 1 6.90968,6.33457a7.81963,7.81963 0 0 1 0.11497,1.56798z" class="cls-5"/>
   <path id="svg_19" d="m1045.17082,666.79729l-0.115,2.6133a7.22776,7.22776 0 0 0 -6.90968,-6.33457l-170.56489,-0.48094l-2.32059,-3.39724l-0.54353,-0.79445l-23.457,-34.33876l-111.4417,0a6.92461,6.92461 0 0 0 -6.07331,3.81545a7.86748,7.86748 0 0 0 -0.784,2.21607c-0.0104,-1.06625 -0.02086,-1.88163 -0.02086,-2.40429c0,-0.40756 0,-0.64809 0.01046,-0.67936a7.18541,7.18541 0 0 1 6.8677,-6.08383l113.53234,0l25.61035,37.48518l169.18506,0.48093c3.9618,-0.00005 7.13962,3.57487 7.02465,7.90251z" class="cls-6"/>
   <polygon id="svg_20" points="1006.49365234375,643.2779541015625 1006.49365234375,755.1168212890625 759.8717041015625,755.1168212890625 759.8717041015625,676.4669189453125 793.0606689453125,643.2779541015625 1006.49365234375,643.2779541015625 " class="cls-7"/>
   <polygon id="svg_21" points="793.0606689453125,643.2779541015625 793.0606689453125,676.4619140625 759.8717041015625,676.4619140625 793.0606689453125,643.2779541015625 " class="cls-8"/>
   <polygon id="svg_22" points="1011.7205810546875,649.5499267578125 1011.7205810546875,761.388916015625 765.09765625,761.388916015625 765.09765625,682.73876953125 798.2866821289062,649.5499267578125 1011.7205810546875,649.5499267578125 " class="cls-8"/>
   <polygon id="svg_23" points="798.2866821289062,649.5499267578125 798.2866821289062,682.73388671875 765.09765625,682.73388671875 798.2866821289062,649.5499267578125 " class="cls-9"/>
   <rect id="svg_24" height="5.32574" width="61.45089" y="673.31093" x="831.05932" class="cls-9"/>
   <rect id="svg_25" height="5.32574" width="180.61745" y="688.63941" x="810.98536" class="cls-9"/>
   <rect id="svg_26" height="5.32574" width="61.45089" y="673.31093" x="901.52301" class="cls-9"/>
   <rect id="svg_27" height="5.32574" width="180.61745" y="709.02316" x="810.98536" class="cls-9"/>
   <rect id="svg_28" height="5.32574" width="180.61745" y="729.40691" x="810.98536" class="cls-9"/>
   <polygon id="svg_29" points="1044.8465576171875,682.73876953125 1044.3135986328125,702.0869140625 724.2996826171875,702.0869140625 723.8806762695312,682.73876953125 1044.8465576171875,682.73876953125 " class="cls-10"/>
   <path id="svg_30" d="m1052.73479,867.55922l-340.979,0l-6.89139,-168.189a7.664,7.664 0 0 1 7.65333,-8.068l336.49972,0a7.664,7.664 0 0 1 7.6605,7.895l-3.94316,168.362z" class="cls-5"/>
   <g id="svg_31" class="cls-11">
    <rect id="svg_32" height="209.06413" width="342.86517" y="567.4593" x="319.8228" class="cls-9"/>
    <rect id="svg_33" height="58.53796" width="166.20598" y="606.13616" x="407.62973" class="cls-4"/>
    <circle id="svg_34" r="7.44641" cy="724.77343" cx="542.08235" class="cls-3"/>
    <circle id="svg_35" r="7.44641" cy="724.77343" cx="440.72845" class="cls-3"/>
    <line id="svg_36" y2="724.77343" x2="542.08235" y1="724.77343" x1="440.72845" class="cls-12"/>
    <rect id="svg_37" height="209.06413" width="342.86517" y="819.76849" x="319.8228" class="cls-9"/>
    <rect id="svg_38" height="58.53796" width="166.20598" y="858.44536" x="407.62973" class="cls-4"/>
    <circle id="svg_39" r="7.44641" cy="977.08263" cx="542.08235" class="cls-3"/>
    <circle id="svg_40" r="7.44641" cy="977.08263" cx="440.72845" class="cls-3"/>
    <line id="svg_41" y2="977.08263" x2="542.08235" y1="977.08263" x1="440.72845" class="cls-12"/>
    <rect id="svg_42" height="209.06413" width="342.86517" y="329.01729" x="319.8228" class="cls-9"/>
    <rect id="svg_43" height="58.53796" width="166.20598" y="367.69415" x="407.62973" class="cls-4"/>
    <circle id="svg_44" r="7.44641" cy="486.33142" cx="542.08235" class="cls-3"/>
    <circle id="svg_45" r="7.44641" cy="486.33142" cx="440.72845" class="cls-3"/>
    <line id="svg_46" y2="486.33142" x2="542.08235" y1="486.33142" x1="440.72845" class="cls-12"/>
    <rect id="svg_47" height="209.06413" width="342.86517" y="329.01729" x="708.61413" class="cls-9"/>
    <rect id="svg_48" height="58.53796" width="166.20598" y="367.69415" x="796.42106" class="cls-4"/>
    <circle id="svg_49" r="7.44641" cy="486.33142" cx="930.87368" class="cls-3"/>
    <circle id="svg_50" r="7.44641" cy="486.33142" cx="829.51978" class="cls-3"/>
    <line id="svg_51" y2="486.33142" x2="930.87368" y1="486.33142" x1="829.51978" class="cls-12"/>
    <rect id="svg_52" height="209.06413" width="342.86517" y="567.4593" x="1115.49883" class="cls-9"/>
    <rect id="svg_53" height="58.53796" width="166.20598" y="606.13616" x="1203.30576" class="cls-4"/>
    <circle id="svg_54" r="7.44641" cy="724.77343" cx="1337.75837" class="cls-3"/>
    <circle id="svg_55" r="7.44641" cy="724.77343" cx="1236.40448" class="cls-3"/>
    <line id="svg_56" y2="724.77343" x2="1337.75837" y1="724.77343" x1="1236.40448" class="cls-12"/>
    <rect id="svg_57" height="209.06413" width="342.86517" y="819.76849" x="1115.49883" class="cls-9"/>
    <rect id="svg_58" height="58.53796" width="166.20598" y="858.44536" x="1203.30576" class="cls-4"/>
    <circle id="svg_59" r="7.44641" cy="977.08263" cx="1337.75837" class="cls-3"/>
    <circle id="svg_60" r="7.44641" cy="977.08263" cx="1236.40448" class="cls-3"/>
    <line id="svg_61" y2="977.08263" x2="1337.75837" y1="977.08263" x1="1236.40448" class="cls-12"/>
    <rect id="svg_62" height="209.06413" width="342.86517" y="329.01729" x="1115.49883" class="cls-9"/>
    <rect id="svg_63" height="58.53796" width="166.20598" y="367.69415" x="1203.30576" class="cls-4"/>
    <circle id="svg_64" r="7.44641" cy="486.33142" cx="1337.75837" class="cls-3"/>
    <circle id="svg_65" r="7.44641" cy="486.33142" cx="1236.40448" class="cls-3"/>
    <line id="svg_66" y2="486.33142" x2="1337.75837" y1="486.33142" x1="1236.40448" class="cls-12"/>
   </g>
   <path id="svg_67" d="m1535.50978,335.39811l0,47.03943l-1280.98812,0l0,-47.03943l102.88043,0l0,-10.8295a5.89542,5.89542 0 0 1 5.89562,-5.89563l67.40226,0a5.88877,5.88877 0 0 1 5.89562,5.89563l0,10.8295l1098.91419,0z" class="cls-13"/>
   <rect id="svg_68" rx="5.2266" height="23.69393" width="1128.24942" y="346.5482" x="356.40902" class="cls-14"/>
   <circle id="svg_69" r="8.27965" cy="320.73763" cx="283.29338" class="cls-13"/>
   <circle id="svg_70" r="8.27965" cy="320.73763" cx="309.88568" class="cls-13"/>
   <circle id="svg_71" r="8.27965" cy="320.73763" cx="336.47797" class="cls-13"/>
   <rect id="svg_72" rx="2.64504" height="5.29008" width="25.32828" y="347.28945" x="1494.93364" class="cls-14"/>
   <rect id="svg_73" rx="2.64504" height="5.29008" width="25.32828" y="356.90779" x="1494.93364" class="cls-14"/>
   <rect id="svg_74" rx="2.64504" height="5.29008" width="25.32828" y="366.52612" x="1494.93364" class="cls-14"/>
   <polygon id="svg_75" points="290.3346862792969,356.61785888671875 290.3346862792969,363.809814453125 281.02069091796875,363.809814453125 281.02069091796875,369.0888671875 272.14569091796875,360.2138671875 281.02069091796875,351.3388671875 281.02069091796875,356.61785888671875 290.3346862792969,356.61785888671875 " class="cls-14"/>
   <polygon id="svg_76" points="299.9766845703125,356.61785888671875 299.9766845703125,363.809814453125 309.2906494140625,363.809814453125 309.2906494140625,369.0888671875 318.1656494140625,360.2138671875 309.2906494140625,351.3388671875 309.2906494140625,356.61785888671875 299.9766845703125,356.61785888671875 " class="cls-14"/>
   <path id="svg_77" d="m348.69455,360.14084a10.401,10.401 0 1 1 -19.56837,-4.90255a1.04284,1.04284 0 1 1 1.83971,0.9826a8.30822,8.30822 0 1 0 15.638,3.91995a8.26461,8.26461 0 0 0 -6.58551,-8.11169l1.95475,2.25792a1.03961,1.03961 0 0 1 -0.79446,1.72474a1.00628,1.00628 0 0 1 -0.784,-0.35537l-3.61683,-4.19174a1.05853,1.05853 0 0 1 -0.25087,-0.83625a1.07173,1.07173 0 0 1 0.48087,-0.73174l4.704,-2.9896a1.05709,1.05709 0 0 1 1.44254,0.32405a1.03656,1.03656 0 0 1 -0.324,1.44255l-2.1325,1.3589a10.366,10.366 0 0 1 7.99667,10.10823z" class="cls-14"/>
   <path id="svg_78" d="m1045.17082,745.8119l-0.324,11.75986l-0.53313,19.34889l-320.01452,0l-0.41815,-19.34889l-1.07665,-50.604a7.84644,7.84644 0 0 1 0.14636,-1.986c0,-0.02093 0.0104,-0.03139 0.0104,-0.05232a7.86748,7.86748 0 0 1 0.784,-2.21607a6.92461,6.92461 0 0 1 6.07331,-3.81545l111.44167,0l23.457,34.33876l0.54353,0.79446l2.32064,3.39729l170.56489,0.48093a7.22776,7.22776 0 0 1 6.90968,6.33458a7.81959,7.81959 0 0 1 0.11497,1.56796z" class="cls-15"/>
   <path id="svg_79" d="m1045.17082,741.63062l-0.115,2.6133a7.22776,7.22776 0 0 0 -6.90968,-6.33458l-170.56489,-0.48093l-2.32064,-3.39729l-0.54353,-0.79446l-23.457,-34.33876l-111.44165,0a6.92461,6.92461 0 0 0 -6.07331,3.81545a7.86748,7.86748 0 0 0 -0.784,2.21607c-0.0104,-1.06624 -0.02086,-1.88162 -0.02086,-2.40428c0,-0.40757 0,-0.6481 0.01046,-0.67936a7.18541,7.18541 0 0 1 6.8677,-6.08384l113.53234,0l25.61035,37.48518l169.18506,0.48094c3.9618,0 7.13962,3.57491 7.02465,7.90256z" class="cls-16"/>
   <polygon id="svg_80" points="1006.49365234375,718.1107177734375 1006.49365234375,829.949951171875 759.8717041015625,829.949951171875 759.8717041015625,751.2999267578125 793.0606689453125,718.1107177734375 1006.49365234375,718.1107177734375 " class="cls-7"/>
   <polygon id="svg_81" points="793.0606689453125,718.1107177734375 793.0606689453125,751.294921875 759.8717041015625,751.294921875 793.0606689453125,718.1107177734375 " class="cls-8"/>
   <polygon id="svg_82" points="1011.7205810546875,724.3829345703125 1011.7205810546875,836.221923828125 765.09765625,836.221923828125 765.09765625,757.57177734375 798.2866821289062,724.3829345703125 1011.7205810546875,724.3829345703125 " class="cls-8"/>
   <polygon id="svg_83" points="798.2866821289062,724.3829345703125 798.2866821289062,757.56689453125 765.09765625,757.56689453125 798.2866821289062,724.3829345703125 " class="cls-9"/>
   <rect id="svg_84" height="5.32574" width="61.45089" y="748.14426" x="831.05932" class="cls-9"/>
   <rect id="svg_85" height="5.32574" width="180.61745" y="763.47273" x="810.98536" class="cls-9"/>
   <rect id="svg_86" height="5.32574" width="61.45089" y="748.14426" x="901.52301" class="cls-9"/>
   <rect id="svg_87" height="5.32574" width="180.61745" y="783.85648" x="810.98536" class="cls-9"/>
   <rect id="svg_88" height="5.32574" width="180.61745" y="804.24024" x="810.98536" class="cls-9"/>
   <polygon id="svg_89" points="1044.8465576171875,757.57177734375 1044.3135986328125,776.9208984375 724.2996826171875,776.9208984375 723.8806762695312,757.57177734375 1044.8465576171875,757.57177734375 " class="cls-10"/>
   <path id="svg_90" d="m1052.73479,942.39254l-340.979,0l-6.89139,-168.189a7.664,7.664 0 0 1 7.65333,-8.068l336.49972,0a7.664,7.664 0 0 1 7.6605,7.89505l-3.94316,168.36195z" class="cls-16"/>
   <rect id="svg_91" height="265.51144" width="437.98935" y="865.37568" x="665.82393" class="cls-17"/>
   <rect id="svg_92" height="73.80738" width="214.32527" y="915.07066" x="778.14684" class="cls-4"/>
   <polygon id="svg_93" points="1098.586669921875,849.7799072265625 668.9596557617188,849.7799072265625 665.8236694335938,865.375732421875 1103.8135986328125,865.375732421875 1098.586669921875,849.7799072265625 " class="cls-5"/>
   <path id="svg_94" d="m829.51072,1063.99707a9.40789,9.40789 0 1 1 -9.40789,-9.40789a9.32944,9.32944 0 0 1 9.40789,9.40789z" class="cls-18"/>
   <path id="svg_95" d="m960.17587,1063.99707a9.40789,9.40789 0 1 1 -9.40789,-9.40789a9.32911,9.32911 0 0 1 9.40789,9.40789z" class="cls-18"/>
   <path id="svg_96" d="m828.13089,1067.13303a8.149,8.149 0 0 1 -0.324,2.26826a9.41408,9.41408 0 0 1 -15.40808,0a8.14937,8.14937 0 0 1 -0.324,-2.26826a8.02809,8.02809 0 1 1 16.05617,0l-0.00009,0z" class="cls-3"/>
   <path id="svg_97" d="m958.79597,1067.13303a8.14941,8.14941 0 0 1 -0.32411,2.26826a9.414,9.414 0 0 1 -15.408,0a8.14941,8.14941 0 0 1 -0.32411,-2.26826a8.02813,8.02813 0 0 1 16.05624,0l-0.00002,0z" class="cls-3"/>
   <path id="svg_98" d="m950.76785,1069.21321l0,6.71095a14.19545,14.19545 0 0 1 -14.19545,14.19546l-102.27414,0a14.19546,14.19546 0 0 1 -14.19546,-14.19546l0,-6.71095" class="cls-12"/>
   <path id="svg_99" d="m291.9855,887.71433s-0.34343,18.95688 1.37373,22.56292s5.83834,4.808 5.32319,8.92922s-3.606,7.09728 -8.58579,5.09409c0,0 -2.74746,-1.83148 -7.41384,1.27516a9.20655,9.20655 0 0 1 -6.655,0.03475c-3.27451,-1.42423 -1.55735,-16.02009 -1.55735,-16.02009l7.38378,-20.43419l10.13128,-1.44186z" class="cls-19"/>
   <path id="svg_100" d="m306.23366,952.13729l14.286,18.54425l28.92054,-26.20993l5.2266,5.76939l-31.70806,35.33335s-2.09064,3.846 -6.9688,-1.03212s-20.59887,-22.30017 -20.59887,-22.30017l10.84259,-10.10477z" class="cls-20"/>
   <path id="svg_101" d="m361.26979,946.48207c-3.84684,1.79805 -5.29979,2.22654 -7.29638,4.5262l-5.18475,-5.40423a5.18464,5.18464 0 0 0 1.63069,-3.75279s-0.56451,-7.08718 1.683,-9.805a8.51947,8.51947 0 0 1 5.4984,-2.41475a4.74678,4.74678 0 0 1 3.85724,1.36943c2.6133,2.80139 4.67255,8.03846 4.67255,8.03846s2.02787,4.22314 -4.86075,7.44268z" class="cls-20"/>
   <path id="svg_102" d="m385.99158,901.02109a6.00835,6.00835 0 0 1 -2.60284,4.934l-6.70047,-9.86789a5.96172,5.96172 0 0 1 9.30331,4.93388l0,0.00001z" class="cls-3"/>
   <path id="svg_103" transform="rotate(56.897071838378906 1329.75341796875,-231.23348999023446) " d="m1765.65891,1217.29629l21.869,0a2.00408,2.00408 0 0 1 2.00408,2.00408l0,3.92366a2.00408,2.00408 0 0 1 -2.00408,2.00408l-21.869,0a0,0 0 0 1 0,0l0,-7.93183a0,0 0 0 1 0,0.00001z" class="cls-3"/>
   <path id="svg_104" d="m366.13049,939.0394c-0.19861,1.80838 0.25087,0.993 -2.007,3.29278c-2.26833,2.31012 -5.33111,-2.01752 -5.33111,-2.01752s-3.69,-3.59585 -1.73527,-5.94782a4.19373,4.19373 0 0 0 0.54359,-4.73533a4.74678,4.74678 0 0 1 3.85724,1.36943c2.6133,2.80139 4.67255,8.03846 4.67255,8.03846z" class="cls-20"/>
   <path id="svg_105" d="m390.22512,919.66957a2.05,2.05 0 0 1 -2.84324,-0.54358l-0.28226,-0.418l-21.43954,-31.54783l-0.18815,-0.2718a2.05416,2.05416 0 0 1 3.3973,-2.31011l21.89948,32.23765a2.05154,2.05154 0 0 1 -0.54359,2.85367z" class="cls-19"/>
   <path id="svg_106" d="m387.09966,918.70796l-28.23412,4.28579l-7.55765,-10.84s11.29991,-19.75659 14.35223,-24.99365l21.43954,31.54786z" class="cls-3"/>
   <path id="svg_107" transform="rotate(-36.210750579833984 -858.5263671874999,18.327331542968704) " d="m-425.4743,1454.52619l2.11081,0a0,0 0 0 1 0,0l0,11.04839a0,0 0 0 1 0,0l-2.11081,0a4.37085,4.37085 0 0 1 -4.37085,-4.37085l0,-2.3067a4.37085,4.37085 0 0 1 4.37085,-4.37084z" class="cls-3"/>
   <path id="svg_108" d="m354.43178,913.83149a4.84079,4.84079 0 0 0 -3.99867,-2.18441a11.33493,11.33493 0 0 0 -7.0906,2.728l-3.136,2.60822s-2.6133,2.22316 -0.784,6.01044l5.74926,7.71447s2.09065,2.352 5.6186,0s5.48794,-3.91995 5.48794,-3.91995s3.26662,-1.69865 2.352,-5.09594c-0.61372,-2.2796 -2.81594,-5.79469 -4.19853,-7.86083z" class="cls-19"/>
   <path id="svg_109" d="m283.58502,928.09492s7.31724,0.34844 11.15008,5.92348l11.49853,17.07357s2.95481,3.48441 -1.48434,7.66569l-3.97972,4.52683s-3.94383,4.18417 -8.66343,-1.04532l-6.77892,-25.78169l-1.7422,-8.36256z" class="cls-21"/>
   <path id="svg_110" d="m275.04158,1063.3954l-8.29307,56.37395l-14.56648,70.58807l-7.89236,-1.25471s-0.491,-49.07985 2.09064,-65.18792a55.47812,55.47812 0 0 1 2.36323,-8.61264a20.27977,20.27977 0 0 0 1.45276,-7.211l1.06572,-47.24054l23.77956,2.54479z" class="cls-20"/>
   <path id="svg_111" d="m304.74929,1119.51403l0,74.09233l-7.94447,0s-5.82245,-40.7675 -7.69355,-60.62859c-1.43208,-15.1153 0.33451,-19.90295 -1.04532,-28.64182c-1.23347,-7.80851 -6.136,-27.98325 -6.51233,-41.91733l20.41504,0a545.02872,545.02872 0 0 1 2.78063,57.09541z" class="cls-20"/>
   <path id="svg_112" d="m321.09573,1200.57517l-24.27,0s-2.78752,-4.0588 0,-10.21775l7.92244,0s4.64586,4.99149 16.60619,7.212a1.523,1.523 0 0 1 1.256,1.49121l0,0a1.51459,1.51459 0 0 1 -1.51463,1.51454z" class="cls-3"/>
   <path id="svg_113" d="m244.25238,1197.43921s5.18549,-0.69688 12.85118,4.52972c0,0 3.4844,2.09064 9.05944,0a13.6424,13.6424 0 0 0 -5.2266,-4.56061s-6.26572,-4.50463 -9.40788,-9.377l-7.27614,-1.39376a20.28731,20.28731 0 0 0 -2.48019,6.9688s-0.3847,3.65718 2.48019,3.83285z" class="cls-3"/>
   <path id="svg_114" d="m249.42199,1066.61545s29.90048,10.12016 54.28086,-3.22c0,0 -1.25471,-58.28362 -14.26022,-65.19573a185.16312,185.16312 0 0 1 -29.77517,-1.25472s-11.03257,5.75384 -13.00551,24.25508c-1.38003,12.94109 2.76004,45.41537 2.76004,45.41537z" class="cls-3"/>
   <path id="svg_115" d="m295.08008,966.77178s-3.82591,4.18129 -2.78059,11.84344l-0.70035,14.98986s0.70035,7.39049 -4.52626,7.39049l-23.35242,0a8.187,8.187 0 0 1 -1.42169,-0.25087a9.5415,9.5415 0 0 1 -6.93041,-10.20234c0.53306,-5.373 1.24393,-16.57877 -0.84671,-25.16094c-2.03839,-8.33117 -12.293,-25.66254 -5.78066,-33.80563c1.20215,-1.49486 6.73187,-3.44948 13.27559,-4.71428c6.66915,-1.28585 14.394,-1.8607 19.6834,-0.51232a11.37951,11.37951 0 0 1 3.97221,1.74573s5.92695,1.04532 14.28952,21.95173c0,0 3.74226,7.66219 -4.88163,16.72513z" class="cls-22"/>
   <path id="svg_116" d="m239.33311,958.75766s0.69688,16.72513 2.78752,32.0565c0,0 -0.09387,5.29278 4.48279,6.13079l45.88857,4.04831l2.24311,-7.74c-13.18148,0.69684 -32.75338,-8.72425 -40.21683,-6.62041l0,-25.08769l-15.18516,-2.7875z" class="cls-20"/>
   <path id="svg_117" d="m293.37109,994.03714s9.27612,-6.40684 13.82608,-4.277c2.14992,1.00636 -3.49432,3.77385 -3.49432,3.77385s4.334,0.029 3.98273,3.411a8.48856,8.48856 0 0 1 -6.1378,7.03c-3.52226,0.75477 -10.17366,-4.29666 -10.17366,-4.29666s2.62595,-6.52175 1.99697,-5.64119z" class="cls-20"/>
   <path id="svg_118" d="m250.68687,930.24284s-11.00532,2.38179 -13.79284,17.36472l0,13.24073a22.934,22.934 0 0 0 19.16518,4.78634l3.58776,-17.48429c1.95133,-7.83938 0.56748,-14.41577 -8.9601,-17.9075z" class="cls-21"/>
   <path id="svg_119" d="m290.09666,887.71433l0,20.674s-0.17172,10.8181 -14.59586,10.8181c0,0 -9.44437,-0.17171 -12.19183,-6.35349a88.01046,88.01046 0 0 1 -4.46461,-13.56555l14.84216,-13.39384l16.41014,1.82078z" class="cls-20"/>
   <path id="svg_120" d="m275.66846,938.95584c-7.53678,0.25086 -11.88529,-7.82957 -13.65188,-12.09431c6.66915,-1.28585 14.394,-1.8607 19.6834,-0.51232c0.86758,3.97225 1.75614,12.35563 -6.03152,12.60663z" class="cls-20"/>
   <rect id="svg_121" height="13.00963" width="10.18383" y="915.08529" x="267.03411" class="cls-20"/>
   <path id="svg_122" d="m250.25853,906.67121c-1.54544,4.63633 -6.18177,4.99806 -6.86863,10.3121s1.37372,12.06066 12.53526,12.63682s15.62615,0.23273 16.1413,-2.51472s-2.0606,-2.80485 -5.03235,-8.42911c-1.92613,-3.64532 -7.38713,-12.69195 -2.86659,-16.81313c1.60514,-1.46334 3.77775,-0.51515 3.94947,2.404l1.37373,-0.34343l-0.17172,-3.09089s0.38382,-2.12559 5.15148,-2.74745c3.94946,-0.51515 2.06059,-4.63633 5.49491,-6.18178s10.66141,1.5154 13.7523,-2.09064c0,0 4.6213,-5.29314 -1.56047,-8.55574c-5.667,-2.99092 -4.55152,-0.78675 -11.867,-5.426a17.42039,17.42039 0 0 0 -7.08527,-2.63925a17.64905,17.64905 0 0 0 -12.47173,2.742a22.09,22.09 0 0 0 -6.5138,7.35421a23.72738,23.72738 0 0 0 -2.96215,12.06675c0.05622,3.47502 -0.05537,8.48616 -0.99874,11.31626z" class="cls-19"/>
   <rect id="svg_123" transform="rotate(45 1230.62353515625,-876.1856079101562) " height="21.31418" width="80.44553" y="527.14468" x="2286.45842" class="cls-9"/>
   <path id="svg_124" d="m1149.51566,920.25122a23.18208,23.18208 0 0 0 0.06512,15.7682s0.95346,2.78465 0,10.27582s10.81716,16.59675 10.81716,16.59675l2.66505,0l-3.99757,-42.64077l-9.54976,0z" class="cls-23"/>
   <path id="svg_125" d="m1221.0355,978.77763a208.49883,208.49883 0 0 1 24.42185,72.06094s2.92884,9.77184 -10.08412,12.88106s-38.553,0 -38.553,0l0,-16.21237s22.22311,-3.6176 31.1066,0.60206l-21.3628,-37.02438l14.47147,-32.30731z" class="cls-23"/>
   <path id="svg_126" d="m895.60632,666.86926a120.59864,120.59864 0 1 0 120.59858,120.59864a120.59474,120.59474 0 0 0 -120.59858,-120.59864zm0,222.852a102.25331,102.25331 0 1 1 102.25328,-102.25334a102.25932,102.25932 0 0 1 -102.25328,102.25332l0,0.00002z" class="cls-3"/>
   <path id="svg_127" d="m895.60632,678.92184a108.54613,108.54613 0 1 0 108.546,108.54606a108.54508,108.54508 0 0 0 -108.546,-108.54606zm0,210.7994a102.25331,102.25331 0 1 1 102.25328,-102.25334a102.25932,102.25932 0 0 1 -102.25328,102.25334z" class="cls-24"/>
   <path id="svg_128" d="m1199.94342,1092.87617l0,0a22.60415,22.60415 0 0 1 -31.9671,0l-154.7473,-154.7473l31.96713,-31.96713l154.7473,154.74731a22.60414,22.60414 0 0 1 -0.00003,31.96712z" class="cls-13"/>
   <path id="svg_129" d="m1231.66653,1263.24621l14.79035,52.98524l-31.85615,0s-0.97519,-4.55088 15.11542,-9.58935l-13.32757,-36.2445l15.27795,-7.15139z" class="cls-23"/>
   <path id="svg_130" d="m1209.31195,1320.70384l38.9374,0s1.13772,-4.47242 -2.183,-6.98885c0,0 -2.36784,2.27544 -13.09491,2.27544c0,0 -10.65694,1.13772 -14.0701,-0.97519c0,0 -1.30025,-3.41315 -2.27544,-3.25062a15.99823,15.99823 0 0 0 -9.10175,6.68455s-1.62536,2.25467 1.7878,2.25467z" class="cls-25"/>
   <path id="svg_131" d="m1217.94252,1069.93891s-0.50653,6.14286 2.53264,14.75383s9.624,25.8329 9.624,37.98956s-8.10444,51.15927 -15.19583,68.88773c0,0 -2.53819,5.50072 1.04533,12.66318c0,0 18.20272,48.62664 22.25494,66.3551c0,0 -7.59792,5.5718 -21.27416,8.10443c0,0 -24.31331,-51.15927 -29.37859,-65.342c0,0 -4.05222,-6.58486 -3.54569,-18.74152s-0.04382,-74.45953 -0.04382,-74.45953l0,-48.1201l33.98118,-2.09068z" class="cls-19"/>
   <path id="svg_132" d="m1183.96136,1273.83046l10.4733,53.31138l-34.49558,0s-0.52266,-4.70394 17.24779,-10.97586l-13.20954,-40.02515l19.98403,-2.31037z" class="cls-23"/>
   <path id="svg_133" d="m1183.96136,1181.78639s14.17806,-46.75676 13.87782,-53.30168l-11.755,-15.62878l-2.12282,68.93046z" class="cls-26"/>
   <path id="svg_134" d="m1159.38792,1329.39649l36.84674,0s1.13772,-4.47243 -2.183,-6.98885c0,0 -2.36784,2.27544 -13.09491,2.27544c0,0 -8.5663,1.13772 -11.97946,-0.97519c0,0 -1.30025,-3.41316 -2.27544,-3.25063a15.99834,15.99834 0 0 0 -9.10175,6.68455s-1.62534,2.25468 1.78782,2.25468z" class="cls-25"/>
   <path id="svg_135" d="m1155.13312,1072.02956s-18.235,94.2141 -18.235,124.60574c0,20.76763 24.81985,86.10966 24.81985,86.10966s14.18276,4.55875 25.32637,-5.06527c0,0 -4.12443,-20.83541 -9.956,-40.434c-4.431,-14.89154 -10.73119,-28.62719 -11.82469,-34.53208c0,0 30.36353,-58.21839 33.87488,-79.99907l0,-50.685l-44.00541,0.00002z" class="cls-19"/>
   <path id="svg_136" d="m1217.94258,1069.93896s1.19289,-35.60259 4.61422,-55.1042c0,0 6.8668,-33.54613 -7.1848,-43.10883c-10.61093,-7.22116 -35.23976,-7.56776 -53.42959,0.32322c-7.08833,3.075 -14.00856,7.90691 -14.00856,26.38212c0,0 6.88051,35.96274 6.88051,58.14379l0.31877,15.45454a185.9001,185.9001 0 0 0 62.80945,-2.09064z" class="cls-27"/>
   <path id="svg_137" d="m1168.01834,986.88994s-1.98161,37.63155 -23.93334,75.26309c0,0 -3.83285,6.9688 -14.286,0s-37.63155,-33.10182 -47.73631,-44.60035l7.31724,-6.9688s37.98,24.04237 45.29723,32.40494c0,0 7.45473,-67.22925 24.44908,-69.58228c10.83007,-1.49953 8.8921,13.4834 8.8921,13.4834z" class="cls-23"/>
   <path id="svg_138" d="m1063.35431,988.25421s-3.62787,10.76284 6.23093,19.80008s12.4774,9.49839 12.4774,9.49839l7.31724,-6.9688s-0.214,-7.04821 -4.45872,-11.97761a38.2872,38.2872 0 0 1 -5.8879,-8.74331s-4.79912,2.999 -1.09542,9.83873c0,0 0.82156,0.92177 -0.13693,3.11262l-14.4466,-14.5601z" class="cls-23"/>
   <path id="svg_139" d="m1151.05089,927.93284s-8.53442,-11.51993 1.04532,-20.64278c0,0 12.08706,-12.33369 31.86515,-7.82013s15.17719,26.41011 15.17719,26.41011a13.38069,13.38069 0 0 0 5.28518,9.2376c5.132,4.10561 5.307,10.72007 2.14029,17.13436s6.07091,13.96848 6.07091,13.96848s16.42241,18.84866 -7.52694,25.69133c-15.79175,4.51193 -31.286,1.1399 -40.00908,-1.68074a15.2427,15.2427 0 0 1 -9.92986,-19.32367a27.94409,27.94409 0 0 1 3.75091,-7.05054a16.85716,16.85716 0 0 0 -3.76347,-13.00107c-5.132,-6.50054 -1.71066,-15.73815 -1.71066,-15.73815s1.36853,-4.78987 -2.39494,-7.1848z" class="cls-19"/>
   <circle id="svg_140" r="102.24942" cy="787.4682" cx="895.60555" class="cls-28"/>
   <path id="svg_141" d="m895.60555,702.19042a85.27778,85.27778 0 0 1 85.27778,85.27778" class="cls-29"/>
   <path id="svg_142" d="m1389.39327,894.2295a64.97917,64.97917 0 0 0 11.72492,-20.73958s1.37006,-6.28309 8.38775,-3.98721s7.98594,7.25357 5.33391,11.45621s-11.46168,13.68133 -18.99609,19.22974l-6.45049,-5.95916z" class="cls-30"/>
   <path id="svg_143" d="m1407.04535,869.00652l-9.15313,19.19727a1.85793,1.85793 0 0 0 0.76683,2.4193l8.29066,4.65922a1.85794,1.85794 0 0 0 2.58187,-0.80878l9.24088,-19.04919a1.85793,1.85793 0 0 0 -0.747,-2.42243l-8.37841,-4.80729a1.85794,1.85794 0 0 0 -2.6017,0.8119z" class="cls-5"/>
   <path id="svg_144" d="m1406.29288,1209.57466s-2.95156,6.07674 -17.53573,8.50744l0,2.08345l28.30024,0s-0.69448,-10.24365 -3.81966,-10.59089l-6.94485,0z" class="cls-31"/>
   <path id="svg_145" d="m1476.78305,1222.249l11.459,0l11.28537,-8.50743s-1.04173,-5.38226 -4.34053,-6.5976l-6.25036,0.8681l-3.99328,9.0283l-8.1602,2.25707l0,2.95156z" class="cls-31"/>
   <path id="svg_146" d="m1414.9704,1211.02837l-9.75629,0c-0.45763,-25.42834 0.3484,-74.56616 -2.7876,-97.56317l3.83288,-94.52078s39.37374,5.66848 51.91759,-3.391c0,0 13.14134,11.39757 12.89229,30.32092c-0.2935,22.30033 0.89633,60.12379 1.27884,71.82688a8.72394,8.72394 0 0 0 2.27668,5.55827c4.59036,5.084 15.15572,19.93629 18.39621,51.53111l3.83285,34.14714l-8.711,0.69688s-25.78457,-61.32547 -31.01118,-69.688c0,0 -8.36256,-19.51265 -10.80164,-31.35962s-10.45321,-51.56915 -10.45321,-51.56915s0,25.43613 -13.24073,56.27309c0,0 -1.7422,0.8711 1.39376,7.143c0,0 5.57505,10.80164 0,40.07062l-9.05945,50.52381z" class="cls-19"/>
   <path id="svg_147" d="m1413.92508,914.5894s-9.05945,3.05231 -11.49853,8.8434c-1.11374,2.64434 -6.303,9.865 1.04532,39.85458c1.92811,7.86893 2.01424,18.514 0.34844,32.40494c-2.31217,19.28095 2.43908,23.25206 2.43908,23.25206s35.5409,9.15288 51.91759,-3.391c0,0 5.57505,-42.85814 3.83285,-62.3708c0,0 -0.70808,-27.83673 -8.711,-34.10866c-8.58928,-6.73141 -27.87523,-7.70413 -39.37375,-4.48452z" class="cls-16"/>
   <path id="svg_148" d="m1424.72672,1015.55341s26.11062,-22.87159 37.62035,-24.5023c0,0 -8.97182,-36.31663 -10.38526,-45.7084c-2.17511,-14.45275 -4.671,-22.09707 -3.367,-29.1253c0,0 14.46036,-2.0601 24.56512,20.58851c0,0 8.01413,19.98656 5.575,54.24519c0,0 0.46194,12.55715 -13.58917,16.83662l-36.24714,14.20689l-4.1719,-6.54121z" class="cls-32"/>
   <path id="svg_149" d="m1389.27801,892.19526s-34.02974,40.10648 -38.54388,51.21823c0,0 -7.63933,13.19521 8.85467,11.11175s45.48873,-12.67434 45.48873,-12.67434l7.26076,-26.63662s-12.99025,-2.18448 -26.18546,10.8371l-8.16019,7.98657l21.616,-34.89784l-10.33063,-6.94485z" class="cls-16"/>
   <path id="svg_150" d="m1415.4948,898.09838l0,17.3693a6.07674,6.07674 0 0 0 6.07674,6.07674l5.035,0a6.07674,6.07674 0 0 0 6.07674,-6.07674l0,-17.3693l-17.18848,0z" class="cls-30"/>
   <path id="svg_151" d="m1381.65183,1041.87408l35.57918,-2.44811s3.38709,0 2.21441,-3.99329l-16.1041,-53.4753s-0.1733,-2.08345 -3.73269,-1.90983s-34.81119,1.90983 -34.81119,1.90983s-4.16691,0.52086 -2.60432,6.94484s14.93141,50.00289 14.93141,50.00289s0.20722,3.26623 4.5273,2.96897z" class="cls-5"/>
   <path id="svg_152" d="m1390.06398,983.35055l-0.30318,-2.80151a1.279,1.279 0 0 0 -1.34851,-1.1289l-2.94787,0.18821a4.17823,4.17823 0 0 0 0.25086,-2.52972a6.46991,6.46991 0 0 0 -6.18821,-4.90262a4.04013,4.04013 0 0 0 -4.25453,4.90262a5.8094,5.8094 0 0 0 1.7562,3.07331l-2.20562,0.14623a1.26148,1.26148 0 0 0 -1.16029,1.52613l0.42862,2.09064a1.78873,1.78873 0 0 0 1.80839,1.42175l12.76332,-0.37643a1.44725,1.44725 0 0 0 1.40082,-1.60971zm-9.12576,-4.00353a2.98155,2.98155 0 0 1 -2.8537,-2.26839a1.86376,1.86376 0 0 1 1.96521,-2.25793a2.99316,2.99316 0 0 1 2.8537,2.25793a1.87228,1.87228 0 0 1 -1.96521,2.26839z" class="cls-3"/>
   <path id="svg_153" d="m1436.34529,897.21107c-1.87617,3.21629 -8.86478,4.47 -13.06952,4.94023a18.28495,18.28495 0 0 1 -7.675,-0.70388c-6.51867,-2.1124 -5.87282,-5.86779 -5.87282,-5.86779l0,-6.64266c-0.95509,-14.26219 5.14049,-23.31778 5.14049,-23.31778l27.07422,0l4.88431,24.22618s0.46758,6.20974 -6.838,7.20769l-3.64368,0.15801z" class="cls-30"/>
   <path id="svg_154" d="m1415.4948,853.37919s-4.421,1.17223 -4.22564,7.03341s5.17112,6.838 8.73979,7.22877s13.0611,0.39075 18.57194,7.42416c0,0 2.77562,5.565 -3.67167,12.6488l1.563,2.1995l4.68894,-3.90745s4.29819,1.36761 1.95372,7.61953a18.57427,18.57427 0 0 1 -6.76957,3.58516l-4.1763,2.97759s11.3735,2.08949 16.68013,-5.91818c4.00632,-6.04551 10.48165,-17.05586 0.12692,-27.21522c0,0 1.563,-6.64266 -8.47948,-8.6099c0,0 -7.34471,-0.38152 -17.70043,-1.54947c-0.00002,0 -6.00629,-0.58612 -7.30135,-3.5167z" class="cls-3"/>
   <path id="svg_155" d="m1416.19532,926.92069s-2.11078,46.72884 -2.41792,68.20628l5.18623,8.44256l5.12542,-8.27571s0,-54.77732 -4.0801,-67.33261l5.98072,-4.48941l-1.90058,-2.97626c-3.0044,1.49155 -5.61043,0.82074 -7.89375,-1.60422l-3.857,3.49744l3.85698,4.53193z" class="cls-19"/>
   <path id="svg_156" d="m1415.4948,1031.40638s2.14346,-3.26578 9.23192,-4.82837a7.7462,7.7462 0 0 0 4.32944,-4.6026a4.53,4.53 0 0 0 -1.23231,-4.51581c-1.51506,-1.4907 -4.26545,-2.95368 -8.54817,-0.95162c0,0 -10.58452,5.44181 -9.54772,13.19521c0.90545,6.77122 5.76684,1.70319 5.76684,1.70319z" class="cls-30"/>
   <path id="svg_157" d="m1415.4948,909.8214a44.89545,44.89545 0 0 0 -4.63236,7.13956a10.18284,10.18284 0 0 0 1.07312,11.00025l0,0s3.55923,-6.41679 8.07338,-6.77122c0.00001,0 -4.51414,-7.80576 -4.51414,-11.36859z" class="cls-5"/>
   <path id="svg_158" d="m1432.68329,912.81528a39.56165,39.56165 0 0 1 -12.67434,8.37471l6.33717,9.72278s11.70838,-7.22052 12.23477,-17.32633c0,0 0,-3.5082 -5.724,-3.5082l-0.1736,2.73704z" class="cls-5"/>
   <circle id="svg_159" r="24.29891" cy="222.50348" cx="1182.83845" class="cls-2"/>
   <circle id="svg_160" r="17.37606" cy="198.20458" cx="1587.79674" class="cls-2"/>
   <circle id="svg_161" r="12.54385" cy="107.51821" cx="494.39135" class="cls-2"/>
   <circle id="svg_162" r="9.40789" cy="155.60296" cx="410.76569" class="cls-2"/>
   <circle id="svg_163" r="12.89785" cy="663.07595" cx="19.81577" class="cls-2"/>
   <circle id="svg_164" r="27.17834" cy="483.83364" cx="1665.15047" class="cls-2"/>
   <circle id="svg_165" r="16.82016" cy="542.3716" cx="1719.50714" class="cls-2"/>
   <circle id="svg_166" r="10.45321" cy="258.04438" cx="1267.92862" class="cls-2"/>
   <line id="svg_167" y2="329.01729" x2="1614.97508" y1="329.01729" x1="1558.52776" class="cls-33"/>
   <line id="svg_168" y2="242.21882" x2="1600.25532" y1="295.28763" x1="1547.63625" class="cls-33"/>
   <line id="svg_169" y2="234.57331" x2="1497.26585" y1="272.35111" x1="1497.26585" class="cls-33"/>
   <line id="svg_170" y2="329.01729" x2="1654.2236" y1="329.01729" x1="1637.97213" class="cls-33"/>
   <polygon id="svg_171" points="567.9246826171875,1088.6639404296875 558.7356567382812,1079.474853515625 537.7656860351562,1100.4449462890625 521.9796752929688,1084.657958984375 542.9486694335938,1063.6888427734375 533.753662109375,1054.492919921875 578.8026733398438,1043.61474609375 567.9246826171875,1088.6639404296875 " class="cls-34"/>
   <circle id="svg_172" r="13.97751" cy="585.39342" cx="1820.95091" class="cls-35"/>
   <circle id="svg_173" r="8.51581" cy="485.41574" cx="1615.70175" class="cls-36"/>
   <circle id="svg_174" r="10.43314" cy="1046.21615" cx="1525.0775" class="cls-36"/>
   <circle id="svg_175" r="3.35817" cy="1033.22788" cx="1301.37889" class="cls-36"/>
   <circle id="svg_176" r="6.79458" cy="189.05322" cx="1285.69908" class="cls-36"/>
   <circle id="svg_177" r="5.74926" cy="155.60296" cx="459.89576" class="cls-36"/>
   <circle id="svg_178" r="11.49853" cy="50.02558" cx="589.51553" class="cls-36"/>
   <circle id="svg_179" r="12.54385" cy="600.03431" cx="13.54385" class="cls-36"/>
   <circle id="svg_180" r="10.43314" cy="1046.21615" cx="61.6286" class="cls-36"/>
   <line id="svg_181" y2="90.22164" x2="1174.0538" y1="98.45877" x1="1182.29092" class="cls-36"/>
   <line id="svg_182" y2="70.18284" x2="1154.015" y1="77.92867" x1="1161.76082" class="cls-36"/>
   <line id="svg_183" y2="98.45877" x2="1154.015" y1="90.22164" x1="1162.25213" class="cls-36"/>
   <line id="svg_184" y2="78.41997" x2="1174.0538" y1="70.18284" x1="1182.29092" class="cls-36"/>
   <line id="svg_185" y2="1066.75148" x2="1708.58782" y1="1074.9886" x1="1716.82495" class="cls-36"/>
   <line id="svg_186" y2="1046.71268" x2="1688.54902" y1="1054.45851" x1="1696.29485" class="cls-36"/>
   <line id="svg_187" y2="1074.9886" x2="1688.54902" y1="1066.75148" x1="1696.78615" class="cls-36"/>
   <line id="svg_188" y2="1054.94981" x2="1708.58782" y1="1046.71268" x1="1716.82495" class="cls-36"/>
   <line id="svg_189" y2="424.99484" x2="25.71661" y1="433.23197" x1="33.95373" class="cls-36"/>
   <line id="svg_190" y2="404.95605" x2="5.67781" y1="412.70187" x1="13.42364" class="cls-36"/>
   <line id="svg_191" y2="433.23197" x2="5.67781" y1="424.99484" x1="13.91494" class="cls-36"/>
   <line id="svg_192" y2="413.19317" x2="25.71661" y1="404.95605" x1="33.95373" class="cls-36"/>
   <line id="svg_193" y2="161.5038" x2="930.03731" y1="169.74092" x1="938.27443" class="cls-36"/>
   <line id="svg_194" y2="141.465" x2="909.99851" y1="149.21082" x1="917.74434" class="cls-36"/>
   <line id="svg_195" y2="169.74092" x2="909.99851" y1="161.5038" x1="918.23564" class="cls-36"/>
   <line id="svg_196" y2="149.70213" x2="930.03731" y1="141.465" x1="938.27443" class="cls-36"/>
   <line id="svg_197" y2="712.02188" x2="1630.11839" y1="720.259" x1="1638.35552" class="cls-36"/>
   <line id="svg_198" y2="691.98308" x2="1610.0796" y1="699.72891" x1="1617.82542" class="cls-36"/>
   <line id="svg_199" y2="720.259" x2="1610.0796" y1="712.02188" x1="1618.31672" class="cls-36"/>
   <line id="svg_200" y2="700.22021" x2="1630.11839" y1="691.98308" x1="1638.35552" class="cls-36"/>
   <line id="svg_201" y2="757.19564" x2="195.42964" y1="765.43276" x1="203.66677" class="cls-36"/>
   <line id="svg_202" y2="737.15684" x2="175.39084" y1="744.90267" x1="183.13667" class="cls-36"/>
   <line id="svg_203" y2="765.43276" x2="175.39084" y1="757.19564" x1="183.62797" class="cls-36"/>
   <line id="svg_204" y2="745.39397" x2="195.42964" y1="737.15684" x1="203.66677" class="cls-36"/>
  </g>
 </g>
</svg>