<svg width="1928" height="1334" xmlns="http://www.w3.org/2000/svg">
 <defs>
  <style>.cls-1{fill:#dfe8ef;}.cls-2{opacity:0.1;}.cls-3{fill:#f5a720;}.cls-4{fill:#f9af86;}.cls-12,.cls-20,.cls-33,.cls-34,.cls-5{fill:none;}.cls-5{stroke:#3a4a9e;}.cls-33,.cls-5{stroke-linecap:round;stroke-linejoin:round;}.cls-6{fill:#43bea8;}.cls-7{fill:#0ab79a;}.cls-8{fill:#dd8a6c;}.cls-9{fill:#f5ac3c;}.cls-10{fill:#f9af84;}.cls-11{fill:#374ea0;}.cls-12{stroke:#aec7e8;}.cls-12,.cls-20,.cls-34{stroke-miterlimit:10;}.cls-13{fill:#30448c;}.cls-14{fill:#dc8e27;}.cls-15{fill:#3a4a9e;}.cls-16{fill:#231f20;}.cls-17{fill:#92b2dd;}.cls-18,.cls-31,.cls-32{fill:#86a2d4;}.cls-19{fill:#4b72a0;}.cls-20{stroke:#231f20;stroke-width:1.13211px;}.cls-21{fill:#6387ba;}.cls-22{fill:#becce8;}.cls-23{fill:#394a9d;}.cls-24{fill:#e69e7a;}.cls-25{fill:#f16366;}.cls-26{fill:#f9ab8f;}.cls-27{fill:#adbfdb;}.cls-28{fill:#c8d7ef;}.cls-29{fill:#fff;}.cls-30{fill:#6470b5;}.cls-31{font-size:58.54385px;}.cls-31,.cls-32{font-family:MyriadPro-Regular, Myriad Pro;}.cls-32{font-size:52px;}.cls-33{stroke:#86a2d4;stroke-width:4.21841px;}.cls-34{stroke:#30448c;stroke-width:2.2002px;}</style>
 </defs>
 <title>Artboard 13</title>
 <g>
  <title>background</title>
  <rect fill="none" id="canvas_background" height="1336" width="1930" y="-1" x="-1"/>
 </g>
 <g>
  <title>Layer 1</title>
  <g id="svg_124">
   <path id="svg_1" d="m1928.08291,815.43467c0,161.34126 -130.7931,292.148 -292.134,292.148l-1298.14444,0q-6.72717,0 -13.37247,-0.25891c-179.81152,-7.02037 -323.432,-155.01644 -323.432,-336.54553c0,-110.45517 53.17606,-208.47836 135.31882,-269.90148q-0.327,-6.86994 -0.32714,-13.82208c0,-156.52933 126.89471,-283.41006 283.42371,-283.41006a282.45377,282.45377 0 0 1 110.40062,22.31441a90.212,90.212 0 0 1 127.57628,-42.62538c38.46774,-106.33847 140.33507,-182.33346 259.9505,-182.33346a275.70524,275.70524 0 0 1 212.49989,99.68615a214.10785,214.10785 0 0 1 227.41222,27.781a120.8711,120.8711 0 0 1 158.88754,114.69436a121.71339,121.71339 0 0 1 -1.40408,18.49788c0.46359,-0.01364 0.94082,-0.01364 1.40408,-0.01364a172.38725,172.38725 0 0 1 146.70115,262.8678c148.73189,13.57678 265.23932,138.64476 265.23932,290.92094z" class="cls-1"/>
   <path id="svg_2" d="m1868.3243,1057.5874c0,61.56994 -188.51,111.49 -421.04,111.49c-46.62012,0 -91.47,-2.01 -133.38013,-5.72009c-55.16992,53.75 -213.47,92.55993 -400.1499,92.55993c-206.09,0 -377.59,-47.29992 -413.93,-109.7699c-25.21,1.25 -51.21,1.9 -77.79,1.9c-232.53,0 -421.03,-49.92 -421.03,-111.49c0,-61.58008 188.5,-111.49 421.03,-111.49c171.68,0 319.37,27.21 384.9,66.24c34.11,-2.8501 69.91,-4.37012 106.82,-4.37012c62.47,0 121.76,4.34009 175.07007,12.14014c74.15991,-31.80005 206.97,-52.9801 358.46,-52.9801c232.52995,0.00007 421.03996,49.91007 421.03996,111.49014z" class="cls-2"/>
   <path id="svg_3" d="m944.03888,1250.74869s-0.00019,77.59081 39.35963,83.06328c0,0 29.77446,-10.03286 -6.70865,-87.55946l-32.65098,4.49618z" class="cls-3"/>
   <path id="svg_4" d="m944.03888,1248.25251s5.54811,17.72205 21.94533,15.26482s11,-25 11,-25l-32.94533,9.73518z" class="cls-4"/>
   <path id="svg_5" d="m962.90464,1291.36089s10.54478,-8.08526 21.3402,-3.52042" class="cls-5"/>
   <path id="svg_6" d="m960.33994,1282.17025s10.54477,-8.08526 21.3402,-3.52042" class="cls-5"/>
   <path id="svg_7" d="m958.55134,1272.57465s10.54478,-8.08526 21.34021,-3.52042" class="cls-5"/>
   <path id="svg_8" d="m1144.66801,381.32575s31.93888,-82.172 127.29129,-87.513c0,0 118.08176,-24.45406 221.33337,179.41277c34.19912,67.525 39.98149,193.37926 178.2818,244.42611c0,0 110.75633,58.85385 48.14622,261.15783c0,0 -25.76678,148.06361 -277.93872,135.66581c-88.37482,-4.34487 -154.09542,-22.30664 -202.18628,-43.80747a222.45125,222.45125 0 0 1 -129.95056,-177.659c-14.00571,-121.29083 -27.63101,-346.49679 35.02288,-511.68305z" class="cls-6"/>
   <path id="svg_9" d="m1272.9925,348.00133s-53.85821,3.37306 -60.09685,116.04624s10.26982,312.9972 109.99072,376.12641c95.47179,60.43927 169.95481,58.88954 229.87668,41.84257c0,0 75.41912,-17.88527 89.36665,-52.33493s-144.12442,-34.33195 -178.21837,-77.78311s-42.51869,-213.91934 -61.05119,-267.45794c-12.9655,-37.45605 -60.54414,-152.57633 -129.86764,-136.43924z" class="cls-7"/>
   <path id="svg_10" d="m757.04831,361.32575s-31.93888,-82.172 -127.29129,-87.513c0,0 -118.08177,-24.45406 -221.33337,179.41277c-34.19912,67.525 -39.98149,193.37926 -178.2818,244.42611c0,0 -110.75633,58.85385 -48.14622,261.15783c0,0 25.76678,148.06361 277.93872,135.66581c88.37482,-4.34487 154.09541,-22.30664 202.18628,-43.80747a222.45125,222.45125 0 0 0 129.95056,-177.659c14.00571,-121.29083 27.63102,-346.49679 -35.02288,-511.68305z" class="cls-6"/>
   <path id="svg_11" d="m628.72381,328.00133s53.85822,3.37306 60.09686,116.04624s-10.26983,312.9972 -109.99072,376.12641c-95.47179,60.43927 -169.95481,58.88954 -229.87668,41.84257c0,0 -75.41912,-17.88527 -89.36665,-52.33493s144.12442,-34.33195 178.21836,-77.78311s42.5187,-213.91934 61.0512,-267.45794c12.9655,-37.45605 60.54414,-152.57633 129.86763,-136.43924z" class="cls-7"/>
   <path id="svg_12" d="m318.61614,669.92059l106.92938,-58.95354a12.96159,12.96159 0 0 0 6.37678,-8.45866l11.52191,-50.33587l32.928,0l-14.09159,80.90581a12.96158,12.96158 0 0 1 -7.9222,9.79708l-123.79753,49.9175l-11.94475,-22.87232z" class="cls-8"/>
   <path id="svg_13" d="m456.15421,454.10857s-26.63665,62.62173 -22.34518,92.01538l42.56318,0l0,-92.01538l-20.218,0z" class="cls-9"/>
   <polygon id="svg_14" points="151.72120666503906,1006.0623779296875 140.8732147216797,1042.7413330078125 169.2862091064453,1045.84033203125 179.10121154785156,1017.9443359375 151.72120666503906,1006.0623779296875 " class="cls-10"/>
   <path id="svg_15" d="m68.33059,1074.93991l106.65244,-9.18225l0,-19.91707l-34.11017,-5.62572l-74.36245,25.73646a4.6244,4.6244 0 0 0 -3.12767,4.37549l0,0a4.62439,4.62439 0 0 0 4.94785,4.61309z" class="cls-11"/>
   <polygon id="svg_16" points="237.47723388671875,1042.7413330078125 228.69522094726562,1073.2203369140625 200.355224609375,1066.50439453125 207.51422119140625,1033.4423828125 237.47723388671875,1042.7413330078125 " class="cls-10"/>
   <path id="svg_17" d="m228.69499,1089.23506l-104.2243,1.0332a6.32827,6.32827 0 0 1 -6.32827,-6.32827l0,0a6.32828,6.32828 0 0 1 4.90854,-6.167l71.03178,-16.4344a23.586,23.586 0 0 1 12.915,1.0332l24.82588,8.19518l-3.12863,18.66809z" class="cls-11"/>
   <path id="svg_18" d="m510.68071,741.51733l-192.06457,88.82834s-36.72937,20.31366 -43.46111,48.12889s-45.97136,144.39824 -45.97136,144.39824" class="cls-12"/>
   <line id="svg_19" y2="1029.38947" x2="250.06529" y1="1015.4019" x1="205.24441" class="cls-12"/>
   <path id="svg_20" d="m417.51731,708.44872l-207.06117,69.79267s-10.10054,3.43628 -15.15082,22.79566l-51.34443,205.37775l38.71875,17.67595l79.87847,-184.38966l230.71329,-65.59882l-75.75409,-65.65355z" class="cls-13"/>
   <rect id="svg_21" transform="rotate(24.30415916442871 590.155700683594,-463.84613037109375) " height="14.41111" width="53.13721" y="1052.83289" x="783.27716" class="cls-11"/>
   <line id="svg_22" y2="1009.07421" x2="189.18488" y1="990.2149" x1="148.01086" class="cls-12"/>
   <path id="svg_23" d="m168.59787,997.34333l55.00183,-166.571a37.454,37.454 0 0 1 22.22493,-23.254l173.15058,-66.001" class="cls-12"/>
   <rect id="svg_24" height="26.87502" width="51.4628" y="532.68644" x="427.76841" class="cls-14"/>
   <path id="svg_25" d="m462.12805,708.44872s-148.983,64.81183 -198.644,117.83969c0,0 -19.09213,15.15082 -36.76809,103.53059l-26.36036,105.06913l42.0856,13.61227s62.0952,-155.33375 69.67061,-178.06c0,0 171.51778,-33.78422 226.22906,-82.60352l-76.21282,-79.38816z" class="cls-15"/>
   <rect id="svg_26" transform="rotate(18.311199188232422 444.1385498046869,-517.4714355468749) " height="12.69531" width="53.13721" y="1024.87845" x="695.78318" class="cls-11"/>
   <path id="svg_27" d="m510.68071,741.51733l-192.06457,88.82834s-36.72937,20.31366 -43.46111,48.12889s-45.97136,144.39824 -45.97136,144.39824" class="cls-12"/>
   <line id="svg_28" y2="1029.38947" x2="250.06529" y1="1015.4019" x1="205.24441" class="cls-12"/>
   <path id="svg_29" d="m457.90015,448.98071s8.17946,-26.08159 26.04542,-29.46619c0,0 49.25652,-10.00756 88.27987,14.15414c0,0 26.921,11.34989 25.91925,48.41452c0,0 -1.00174,164.03345 -15.0262,244.80057c0,0 -7.01223,69.7479 -21.03668,80.76712c0,0 -23.04017,13.0227 -45.0786,-18.03145c0,0 -23.04018,-53.09257 -97.16944,-69.12052c0,0 -25.04366,-5.87406 -26.04541,-19.46585s27.92716,-7.431 41.07162,-23.60926c18.63984,-22.94204 -4.23252,-153.31446 23.04017,-228.44308z" class="cls-9"/>
   <path id="svg_30" d="m516.97061,555.06984l0,74.82412l-194.98685,71.13909l10.29256,18.63491l211.56931,-38.883s22.69165,-0.57181 29.413,-23.44417c0,0 10.04181,-58.32451 4.89553,-108.07189l-61.18355,5.80094z" class="cls-8"/>
   <path id="svg_31" d="m408.64426,312.95633s-7.57681,24.05876 0,36.13741c0,0 -2.67867,19.65547 -1.68373,25.85468c0,0 -0.03827,4.82161 10.29375,2.0664c0,0 3.80824,34.44006 13.61374,37.19526c0,0 9.99978,2.24484 56.29956,-12.39842c0,0 42.01687,-20.54042 39.95046,-38.16665l-47.88683,-57.57674l-70.58695,6.88806z" class="cls-8"/>
   <path id="svg_32" d="m533.31721,369.66181l12.84777,52.67479l-50.19639,25.62473s7.04142,-35.81765 -23.26583,-48.90487l37.97795,-37.35883l22.6365,7.96418z" class="cls-8"/>
   <ellipse id="svg_33" transform="rotate(-85.8718032836914 -472.25793457031244,768.8393554687499) " ry="2.18752" rx="3.55471" cy="1630.91541" cx="6.28907" class="cls-16"/>
   <path id="svg_34" d="m361.91221,720.83792l-49.0778,-89.15589a24.0844,24.0844 0 0 0 -21.20918,-12.6726l-125.81028,0c-3.59887,0 -5.48426,1.81536 -7.00332,7.28784l198.06166,96.46634l5.03892,-1.92569z" class="cls-17"/>
   <path id="svg_35" d="m411.67937,346.6654a7.83912,7.83912 0 0 1 3.27963,-3.18176a11.74966,11.74966 0 0 1 4.45444,-1.31214a16.72245,16.72245 0 0 1 4.6048,0.22364c0.74661,0.16827 1.48794,0.35541 2.21728,0.56555c0.71234,0.279 1.42963,0.523 2.12183,0.82916c-0.76,-0.082 -1.49506,-0.22626 -2.235,-0.33551l-2.21527,-0.26068a24.57,24.57 0 0 0 -4.38974,0.00519a14.3624,14.3624 0 0 0 -4.20877,1.00793a10.50189,10.50189 0 0 0 -3.6292,2.45862z" class="cls-16"/>
   <path id="svg_36" d="m422.03121,390.96258c2.11923,-0.36749 4.16263,-0.71344 6.15063,-1.267a24.8468,24.8468 0 0 0 2.90174,-1.02234a19.40661,19.40661 0 0 0 2.7254,-1.543a7.80611,7.80611 0 0 1 -2.34479,2.25379a12.48556,12.48556 0 0 1 -3.00329,1.30572a15.32563,15.32563 0 0 1 -3.20929,0.50855a11.84479,11.84479 0 0 1 -3.2204,-0.23572z" class="cls-16"/>
   <path id="svg_37" d="m422.03121,371.3681a2.313,2.313 0 0 1 0.18649,1.47839a3.44521,3.44521 0 0 1 -3.10461,2.837c0.30313,-0.411 0.61389,-0.73145 0.89657,-1.06311c0.28339,-0.3288 0.54441,-0.64862 0.78595,-0.97882a10.5884,10.5884 0 0 0 1.2356,-2.27346z" class="cls-16"/>
   <path id="svg_38" d="m356.87329,722.76361l-141.07264,2.0664l-57.1273,-95.33468a4.67119,4.67119 0 0 1 4.042,-7.01261l125.81027,0a24.08441,24.08441 0 0 1 21.20918,12.6726l47.13849,87.60829z" class="cls-18"/>
   <path id="svg_39" transform="rotate(-1.800719976425171 -95.2574234008832,-496.86248779296864) " d="m178.31373,734.51975l153.52248,0a6.41862,6.41862 0 0 1 6.41862,6.41862l0,1.19868a6.41863,6.41863 0 0 1 -6.41863,6.41863l-153.52247,0a6.41863,6.41863 0 0 1 -6.41863,-6.41863l0,-1.19868a6.41862,6.41862 0 0 1 6.41863,-6.41862z" class="cls-19"/>
   <ellipse id="svg_40" transform="rotate(-52.099369049072266 -870.7996826171875,192.10699462890628) " ry="10.14805" rx="8.06293" cy="1375.33259" cx="-561.30864" class="cls-20"/>
   <path id="svg_41" d="m353.71764,728.51347a7.081,7.081 0 0 0 7.63869,6.47135l105.37667,-7.678a6.64594,6.64594 0 0 0 6.65856,-6.58029l0,0a6.55812,6.55812 0 0 0 -6.65856,-6.50691l-106.28638,6.71088a7.1339,7.1339 0 0 0 -6.729,7.583l0.00002,-0.00003z" class="cls-21"/>
   <rect id="svg_42" height="26.87502" width="74.33516" y="532.68644" x="510.68071" class="cls-14"/>
   <path id="svg_43" d="m540.20526,380.45578s10.332,-35.56724 2.06641,-84.03073c0,0 0,-23.41924 -24.79684,-30.30725c0,0 -28.24084,-7.23241 -50.28248,-5.166c0,0 -20.664,-5.166 -34.44,-14.80923s-27.552,-15.15362 -38.9893,2.06641c0,0 -18.87,24.75979 -9.22677,55.08556c0,0 4.8216,18.96055 26.86324,21.027c0,0 39.40325,-8.61 52.69328,29.86587l12.27942,-2.42238l-9.17982,-14.01187s19.28643,-11.75889 19.97523,11.34058c0,0 -1.68442,9.68511 6.7346,14.67029c0,0 20.81745,13.40119 33.90467,17.4588c-0.00005,-0.00005 11.26865,3.87057 12.39836,-0.76705z" class="cls-11"/>
   <path id="svg_44" d="m953.93442,177.73087s-111.54491,-9.4074 -173.365,135.73538s-166.64542,445.14646 -166.64542,445.14646s-48.38093,138.4232 -21.50263,228.46548s69.88356,195.489 321.1956,203.55254c0,0 262.06335,11.37274 335.97866,-108.23566c0,0 81.97879,-83.43129 26.87829,-321.30419s-145.14271,-434.18549 -159.92582,-461.06378s-51.06876,-116.92057 -162.61368,-122.29623z" class="cls-22"/>
   <path id="svg_45" d="m952.59051,211.63945s-47.7595,0.41177 -80.01345,25.94615s-63.78542,108.44531 -74.53673,147.41884s-33.59787,202.93111 -41.66136,251.312s-13.85092,78.66954 -31.32181,123.01872c0,0 -31.84218,55.72193 -45.28132,78.56848s-5.37566,57.68727 28.22221,77.846c0,0 119.6084,44.45024 256.68769,39.07458s208.30677,-18.8148 229.8094,-56.44441s2.17871,-74.11393 -5.166,-93.96544c-13.43333,-36.308 -18.403,-72.68 -25.12261,-142.56354c0,0 -5.99708,-165.3015 -58.40975,-301.03688s-99.44968,-145.14276 -153.20627,-149.1745z" class="cls-18"/>
   <path id="svg_46" d="m1044.18361,468.37139c-37.39519,0 -26.45025,-57.582 -26.45025,-57.582c16.41739,-106.71308 8.08757,-131.33918 8.08757,-131.33918s-7.1755,-39.27839 -66.20755,-39.21934c-51.76755,0.05179 -52.433,33.74687 -52.433,33.74687s-18.96207,-4.56038 -29.907,10.03286s-6.38455,53.21078 -6.38455,53.21078s11.857,79.04048 5.47247,102.7545s-23.714,21.88986 -23.714,21.88986s35.42591,34.23137 96.60767,31.49514c0,-0.00002 73.95085,-3.89055 94.92864,-24.98949z" class="cls-23"/>
   <path id="svg_47" d="m983.39412,443.81733l-34.13991,30.66l-35.5,-30.66c5.3,-12.67 6.52,-23.02 6.26,-30.57c-0.32,-9.17 -2.83,-14.19 -2.83,-14.19l60.77,0a142.934,142.934 0 0 0 -0.49,21.07c1.05,17.74 5.92991,23.69 5.92991,23.69z" class="cls-4"/>
   <path id="svg_48" d="m977.46421,420.12733c-25.08,4.78 -46.30843,1.536 -57.45,-6.88c-0.32,-9.17 -2.83,-14.19 -2.83,-14.19l60.77,0a142.934,142.934 0 0 0 -0.49,21.07z" class="cls-24"/>
   <path id="svg_49" d="m823.46081,821.22433s-18.24155,26.45025 -7.29662,56.54882s29.18649,59.285 91.20777,62.93336l31.59785,315.2082l44.42867,0c-0.11742,-1.01151 28.64789,-275.98891 14.26915,-348.95513l-40.1314,-93.09809l-115.83386,0s-15.55604,2.74751 -18.24156,7.36284z" class="cls-13"/>
   <path id="svg_50" d="m1062.59832,830.34567l-225.66936,0c-10.47621,0 -16.51989,-12.083 -10.06036,-20.33075c0.32947,-0.42069 0.54463,-0.64317 0.54463,-0.64317s14.2892,-15.50836 24.32161,-67.49907s-24.32163,-201.56735 -24.32163,-201.56735l0,-4.31877c0,-32.83511 17.02721,-46.76271 40.73914,-60.44229c7.73866,-4.46344 15.28109,-9.39177 21.93491,-14.01021c13.73122,-9.52609 23.67062,-17.71937 23.67062,-17.71937l69.63781,0a286.3,286.3 0 0 0 25.63373,18.13267c6.74677,4.29809 14.59914,8.97853 23.29868,13.59691c29.188,15.50836 26.44994,39.22035 26.44994,39.22035c3.64723,16.41759 -15.50837,199.74888 -15.50837,224.37c0,24.63155 21.89348,59.28517 21.89348,59.28517a80.41744,80.41744 0 0 1 8.176,17.50354a11.19119,11.19119 0 0 1 -10.74083,14.42234z" class="cls-25"/>
   <path id="svg_51" d="m888.73234,329.65621s-1.69012,89.85831 57.74594,89.85831s59.43606,-76.33939 59.15437,-85.0717l-75.49225,-47.32142l-36.61937,10.70413l-4.78869,31.83068z" class="cls-4"/>
   <path id="svg_52" d="m1011.73642,370.40568a18.02589,18.02589 0 0 1 -18.02938,18.02938a16.89863,16.89863 0 0 1 -2.05606,-0.124c2.49,-5.79625 8.04862,-19.90982 9.8361,-34.17833a18.03238,18.03238 0 0 1 10.24934,16.27295z" class="cls-4"/>
   <path id="svg_53" d="m903.05394,386.57533a18.031,18.031 0 1 1 -9.93939,-34.65355c0.88854,6.92238 3.44052,21.71783 9.93939,34.65355z" class="cls-4"/>
   <path id="svg_54" d="m1009.02944,461.94738l-56.90876,93.12246l-62.0334,-93.53576c13.73122,-9.52609 23.67061,-17.71939 23.67061,-17.71939c26.6568,-5.62359 50.00153,-5.83929 69.63782,0a286.29724,286.29724 0 0 0 25.63373,18.13269z" class="cls-4"/>
   <path id="svg_55" d="m1013.64777,464.71162c12.08481,9.7685 54.39477,16.95349 76.92192,46.44716c9.89279,12.95214 19.11423,26.34664 21.69723,61.47549l1.0332,160.66285s1.54981,19.11423 -14.46482,24.28023a38.47374,38.47374 0 0 1 -23.54451,-1.62073c-9.47917,-3.8534 -14.64711,-13.45837 -14.91553,-23.68731c-2.02937,-77.33593 -14.23324,-149.303 -14.23324,-149.303l-32.49425,-118.25469z" class="cls-25"/>
   <path id="svg_56" d="m883.73868,465.81943c-27.33949,14.6442 -51.78827,13.27217 -71.64733,37.18537c-10.4125,12.53817 -21.00632,24.86433 -26.17454,59.70683l-13.34358,166.331s-2.95607,18.94776 12.6337,25.28145a38.47638,38.47638 0 0 0 23.37756,0.19209c10.55537,-3.33235 15.58142,-13.55027 16.904,-24.53986c9.00368,-74.81252 29.27466,-145.594 29.27466,-145.594l28.97553,-118.56288z" class="cls-25"/>
   <path id="svg_57" d="m1003.86343,778.24139c55.15179,-2.41589 79.88112,-7.58381 92.90547,-13.94823c17.02863,-8.32113 10.84861,-21.18063 10.84861,-21.18063s-4.1328,-12.915 -27.37984,-16.01462s-78.54387,28.472 -78.54387,28.472l2.16963,22.67148z" class="cls-4"/>
   <path id="svg_58" d="m791.72759,721.6537s-22.64887,5.05829 -21.55964,25.34141c0,0 -2.70772,22.59223 23.14778,30.20355c0,0 31.37014,10.09141 84.20517,3.12263l1.78054,-24.06325s-50.97665,-39.14853 -87.57385,-34.60434z" class="cls-4"/>
   <path id="svg_59" d="m914.78969,349.09368a15.0645,15.0645 0 0 1 4.98,-4.19415a13.23688,13.23688 0 0 1 6.59033,-1.54522a15.0791,15.0791 0 0 1 6.46827,1.761a17.83565,17.83565 0 0 1 5.10833,3.97839c-2.11487,-0.53424 -4.06769,-1.20507 -5.99951,-1.70989a25.2776,25.2776 0 0 0 -5.66681,-0.93213a18.67439,18.67439 0 0 0 -5.60791,0.70666c-1.89968,0.49599 -3.80562,1.24351 -5.8727,1.93534z" class="cls-16"/>
   <path id="svg_60" d="m960.25167,349.09368a15.06513,15.06513 0 0 1 4.97985,-4.19415a13.237,13.237 0 0 1 6.59034,-1.54522a15.0784,15.0784 0 0 1 6.46826,1.761a17.83336,17.83336 0 0 1 5.1084,3.97839c-2.11487,-0.53424 -4.06775,-1.20507 -5.99952,-1.70989a25.27746,25.27746 0 0 0 -5.66687,-0.93213a18.67332,18.67332 0 0 0 -5.60778,0.70666c-1.89978,0.49599 -3.80567,1.24351 -5.87268,1.93534z" class="cls-16"/>
   <ellipse id="svg_61" ry="4.05177" rx="3.15138" cy="361.69758" cx="928.00439" class="cls-16"/>
   <ellipse id="svg_62" ry="4.05177" rx="3.15138" cy="361.69758" cx="972.72393" class="cls-16"/>
   <path id="svg_63" d="m941.06008,380.45581a21.168,21.168 0 0 0 5.43951,1.00464a11.357,11.357 0 0 0 2.68524,-0.208a16.66438,16.66438 0 0 0 2.68,-0.79663a6.485,6.485 0 0 1 -2.46167,1.57275a7.661,7.661 0 0 1 -2.93464,0.464a9.32441,9.32441 0 0 1 -2.89471,-0.57312a7.81059,7.81059 0 0 1 -2.51373,-1.46364z" class="cls-16"/>
   <path id="svg_64" d="m934.15706,392.95514c2.11359,0.63079 4.16974,1.15747 6.22742,1.57458a38.58615,38.58615 0 0 0 6.1626,0.7135a26.426,26.426 0 0 0 6.11639,-0.47345a37.95035,37.95035 0 0 0 6.10431,-1.81463a14.77049,14.77049 0 0 1 -5.607,3.58245a17.25666,17.25666 0 0 1 -6.6845,1.05725a20.9579,20.9579 0 0 1 -6.59345,-1.30578a17.792,17.792 0 0 1 -5.72577,-3.33392z" class="cls-16"/>
   <path id="svg_65" d="m1648.87152,1020.10057s-5.25284,28.67792 3.50986,39.83044s29.47452,22.305 43.01687,22.305c0,0 11.15253,0 11.15253,5.57627c0,0 -5.57627,11.15252 -22.305,9.5593s-21.84164,-6.37287 -38.00552,-6.37287a24.03222,24.03222 0 0 1 -22.53675,3.18644s-8.99928,0.47318 -12.18572,-17.05221a184.63445,184.63445 0 0 1 5.01625,-21.98162c2.43572,-8.532 4.77965,-23.89827 5.57626,-35.05079l26.76122,0.00004z" class="cls-26"/>
   <path id="svg_66" d="m1346.364,573.78772c-40.37808,-28.07341 -41.48436,-86.68288 -25.001,-112.62735c21.01322,-33.07435 52.8343,-37.36 74.20418,-59.43388c18.84408,-19.46491 17.2191,-31.983 25.73734,-57.7011c5.53559,-16.713 24.28726,-50.89919 47.89969,-64.20761c14.015,-7.89914 43.50685,-14.5424 61.72528,-18.71626c23.28775,-5.33524 42.1991,15.62766 46.76729,37.11277c1.81682,8.5449 0.28382,68.114 3.53529,79.54682a111.2952,111.2952 0 0 1 3.57114,39.21522c-2.13594,26.90129 -12.71891,53.07164 -28.31805,74.95284c-35.68279,50.05286 -104.22348,106.0028 -169.423,99.65071l-40.69816,-17.79216z" class="cls-23"/>
   <path id="svg_67" d="m1776.41576,964.10133s11.8623,30.31314 29.38769,36.34159c0,0 14.10236,6.7173 39.59385,-3.09961c0,0 13.30575,-6.825 18.0854,0c0,0 0.79661,18.77419 -34.25417,23.55384c0,0 -19.91522,7.16948 -24.69487,17.52539c0,0 -5.57627,11.94913 -20.71183,5.57626c0,0 -11.38912,-6.69629 -15.37216,-26.61151c0,0 -9.32271,-27.73154 -21.27185,-42.86711l29.23794,-10.41885z" class="cls-26"/>
   <path id="svg_68" d="m1532.91512,472.85638s34.72351,50.26723 53.15053,78.26432a77.11,77.11 0 0 0 6.59806,8.63655c12.35385,14.00123 51.42388,55.07386 91.582,63.63215l-3.18643,30.27114s-88.44552,8.76269 -123.88364,-24.69488s-61.4,-82.84731 -61.4,-82.84731l37.13948,-73.26197z" class="cls-27"/>
   <path id="svg_69" d="m1480.31389,436.76826s40.67716,16.19893 52.60123,36.08812c0,0 -35.87245,163.27876 -35.87245,221.4312l-127.01814,-7.32612c-2.03248,-49.88127 -10.70766,-63.38629 -19.393,-110.33174c-11.77511,-63.64647 -20.87675,-118.93494 84.19013,-151.90885l45.49223,12.04739z" class="cls-22"/>
   <polygon id="svg_70" points="1563.1612548828125,660.830322265625 1594.30419921875,664.016357421875 1594.30419921875,690.6583251953125 1563.1612548828125,689.50830078125 1554.2132568359375,675.744384765625 1563.1612548828125,660.830322265625 " class="cls-26"/>
   <path id="svg_71" d="m1509.22839,719.6532c-4.77965,-42.22026 -24.93146,-45.93147 -24.93146,-45.93147l-58.15244,0s-101.96592,97.8369 15.93217,171.12491l168.08446,3.09961s-9.55931,16.019 -7.16948,69.39179s16.72878,107.54218 16.72878,107.54218s18.322,5.57626 30.27113,0l34.25418,-189.26946l-5.57626,-68.03517l-165.69462,0l-3.74646,-47.92239z" class="cls-13"/>
   <path id="svg_72" d="m1369.27461,673.72173s-36.33335,44.28727 -30.75709,104.51966s53.37279,71.3849 53.37279,71.3849s54.966,18.322 112.32184,-15.13556s121.08453,-75.67784 154.5421,-62.13549s17.52539,95.59306 17.52539,95.59306s21.50844,57.35583 73.288,111.52522c0,0 21.27184,-4.21963 26.84811,-15.37216c0,0 -56.32263,-193.33933 -83.40733,-225.20369c0,0 -26.28809,-70.89818 -131.26679,-39.931c0,0 -103.7328,20.01581 -134.00393,17.626c0,0 -22.305,-0.50467 -1.59322,-42.8709l-56.86987,-0.00004z" class="cls-15"/>
   <path id="svg_73" d="m1399.8564,454.50833s-46.24719,-8.76269 -63.98724,55.76262c0,0 -17.26685,90.16769 16.19071,126.80923c0,0 30.27114,43.19186 97.98288,48.76812c0,0 82.05071,7.64266 113.11845,3.65962l0,-28.67791s-105.15236,-20.71183 -132.23706,-29.47453c0,0 -20.71183,-24.69487 -12.74574,-84.44053c0,0.00001 22.30505,-85.23713 -18.322,-92.40662z" class="cls-28"/>
   <path id="svg_74" d="m1560.62721,344.57633s-15.30663,66.12484 -40.48287,65.32192c0,0 -16.01259,0.80292 -23.10165,-10.11335c0,0 -7.96609,-5.963 -10.35591,12.03276l0,27.71543s-7.16948,11.78882 -29.47453,7.80577c0,0 -15.13557,-3.81233 -26.28809,-22.618c0,0 19.91522,-23.58531 32.661,-80.14454c0,0 -7.96609,-25.49148 7.96609,-31.06774c0,0 9.5593,-3.18643 9.5593,11.94913c0,0 3.579,3.41033 11.94914,-4.77965c0,0 19.96533,-23.10165 39.85549,-23.10165s30.33291,22.305 27.14647,43.01687" class="cls-26"/>
   <path id="svg_75" d="m1458.00884,701.03305l283.07987,0a16.72773,16.72773 0 0 0 15.28477,-9.93121l52.16088,-117.30531a10.163,10.163 0 0 0 -9.28636,-14.2923l-163.74389,0a17.6415,17.6415 0 0 0 -16.30547,10.907l-49.66457,120.24667l-111.52523,0l0,10.37515z" class="cls-18"/>
   <ellipse id="svg_76" transform="rotate(-35.92205047607422 -391.82800292968756,737.9107666015625) " ry="17.14932" rx="19.54706" cy="1878.29684" cx="1362.9671" class="cls-29"/>
   <path id="svg_77" d="m1461.66164,328.95733c-12.05541,0 -22.73405,9.77283 -22.73405,21.82824a21.82822,21.82822 0 0 0 43.65159,0.46171c0.20343,-9.64079 -4.88557,-17.02724 -13.25577,-20.49013c-0.98988,-0.40953 -2.4791,0.823 -2.63674,2.3418a2.88907,2.88907 0 0 0 1.61145,2.85457a16.63785,16.63785 0 1 1 -24.16022,15.61774c-0.43912,-9.54511 8.11483,-17.52309 17.56319,-17.52309l-0.03945,-5.09084z" class="cls-29"/>
   <ellipse id="svg_78" transform="rotate(-70.14138793945312 185.80722045898423,1570.526611328125) " ry="2.94597" rx="4.65153" cy="2437.44829" cx="1787.64357" class="cls-16"/>
   <ellipse id="svg_79" transform="rotate(-70.14138793945312 166.906951904297,1543.60498046875) " ry="2.94597" rx="4.65153" cy="2410.52666" cx="1740.11952" class="cls-16"/>
   <path id="svg_80" d="m1508.71968,347.12493a10.447,10.447 0 0 1 4.22425,-2.9663a11.856,11.856 0 0 1 5.25732,-0.81952a9.50418,9.50418 0 0 1 5.09717,1.91272a8.43634,8.43634 0 0 1 3.01782,4.2716a28.53055,28.53055 0 0 0 -4.23132,-2.158a14.03455,14.03455 0 0 0 -4.13709,-0.938a25.31494,25.31494 0 0 0 -4.40735,0.08563c-1.52978,0.14972 -3.09973,0.37683 -4.8208,0.61187z" class="cls-16"/>
   <path id="svg_81" d="m1537.57808,345.71722a10.44774,10.44774 0 0 1 4.22425,-2.96637a11.85723,11.85723 0 0 1 5.25744,-0.81946a9.50384,9.50384 0 0 1 5.09705,1.91272a8.43646,8.43646 0 0 1 3.01782,4.27155a28.54115,28.54115 0 0 0 -4.23132,-2.158a14.03642,14.03642 0 0 0 -4.13709,-0.938a25.31592,25.31592 0 0 0 -4.40735,0.08563c-1.52978,0.14977 -3.09973,0.37688 -4.8208,0.61193z" class="cls-16"/>
   <path id="svg_82" d="m1515.52364,386.59356a19.68382,19.68382 0 0 0 3.29651,2.44757a17.75612,17.75612 0 0 0 7.60034,2.44385a29.885,29.885 0 0 0 4.1189,0.03565a19.77628,19.77628 0 0 1 -2.03174,0.56066a12.88443,12.88443 0 0 1 -10.1366,-2.37426a10.72385,10.72385 0 0 1 -2.84741,-3.11347z" class="cls-16"/>
   <path id="svg_83" d="m1523.03157,376.2702a14.83644,14.83644 0 0 0 4.7406,2.55957a6.12828,6.12828 0 0 0 2.55017,0.14892a10.02107,10.02107 0 0 0 2.59278,-0.83148a5.222,5.222 0 0 1 -2.40772,1.61621a5.30587,5.30587 0 0 1 -2.99743,0.06507a7.58366,7.58366 0 0 1 -4.4784,-3.55829z" class="cls-16"/>
   <path id="svg_84" d="m1056.57778,824.86152l-213.78734,0a10.26647,10.26647 0 0 1 -10.09063,-8.37447l-27.1461,-144.77855a10.26647,10.26647 0 0 1 10.09063,-12.15848l268.98441,0a10.26648,10.26648 0 0 1 10.079,12.2193l-28.051,144.77855a10.26647,10.26647 0 0 1 -10.07897,8.31365z" class="cls-30"/>
   <circle id="svg_85" r="12.25116" cy="746.33858" cx="941.624" class="cls-29"/>
   <path id="svg_86" d="m1012.04637,351.76498c-74.09281,-9.12077 -99.20195,-62.93335 -99.20195,-62.93335l-5.664,-13.68117l52.433,-20.32637l57.2079,30.09857l-4.77495,66.84232z" class="cls-23"/>
   <path id="svg_87" d="m883.09859,349.09369c34.08419,-11.26854 34.08419,-60.28216 34.08419,-60.28216l-35.21094,2.81687l1.12675,57.46529z" class="cls-23"/>
   <path id="svg_88" d="m812.66699,1150.48433s-13.9534,14.95661 -28.54664,50.52764c0,0 -17.20835,35.20766 -8.08758,45.24051s31.92272,-11.857 31.92272,-11.857s34.659,-28.27441 32.8348,-70.23l-28.1233,-13.68115z" class="cls-3"/>
   <path id="svg_89" d="m810.12046,1147.61707s-4.27123,23.1076 4.77547,28.78122c10.75254,6.74344 24.74374,0 30.27859,-12.54566l-35.05406,-16.23556z" class="cls-4"/>
   <path id="svg_90" d="m791.30197,1199.68415s13.28364,0.32951 18.81849,10.66123" class="cls-5"/>
   <path id="svg_91" d="m795.07744,1190.92108s13.28364,0.32951 18.81849,10.66123" class="cls-5"/>
   <path id="svg_92" d="m799.71121,1182.33023s13.28365,0.32951 18.8185,10.66123" class="cls-5"/>
   <path id="svg_93" d="m845.22955,1188.46755s97.35007,-200.10838 97.35007,-278.54706c0,0 40.49478,21.09891 57.82426,24.74723s56.66994,-0.4845 77.64772,-36.05553c0,0 22.92307,-28.702 0,-71.56964c0,0 -3.76943,-5.47246 -38.42838,-5.47246l-148.66866,0s-6.38454,-1.82416 -12.76909,13.68116s-35.571,103.06478 -53.81258,200.65709l-21.09891,127.021s30.09856,8.20874 41.95557,25.53821z" class="cls-15"/>
   <circle id="svg_94" r="32.19575" cy="117.64547" cx="614.6864" class="cls-1"/>
   <circle id="svg_95" r="10.5947" cy="167.01229" cx="527.19184" class="cls-1"/>
   <circle id="svg_96" r="20.6602" cy="472.85638" cx="73.7978" class="cls-1"/>
   <circle id="svg_97" r="30.04937" cy="36.0829" cx="1151.28224" class="cls-1"/>
   <circle id="svg_98" r="17.17107" cy="85.44972" cx="1363.77419" class="cls-1"/>
   <circle id="svg_99" r="17.17107" cy="27.49737" cx="1211.73669" class="cls-1"/>
   <circle id="svg_100" r="45.31552" cy="194.91527" cx="1585.19438" class="cls-1"/>
   <circle id="svg_101" r="32.19575" cy="85.44972" cx="411.67937" class="cls-1"/>
   <text id="svg_102" x="1188.12679" y="211.63947" class="cls-31">&lt;/&gt;</text>
   <text id="svg_103" x="594.01589" y="132.01074" class="cls-32">{ }</text>
   <g id="shopping_basket">
    <path id="svg_104" d="m300.27793,413.19809l-74.91085,15.37674l19.4475,33.3772a6.097,6.097 0 0 0 6.49293,2.89889l41.82393,-8.58508a6.097,6.097 0 0 0 4.85923,-5.60115l2.28726,-37.4666z" class="cls-18"/>
    <line id="svg_105" y2="391.38358" x2="263.07701" y1="415.77604" x1="287.71891" class="cls-33"/>
    <line id="svg_106" y2="393.59341" x2="252.3114" y1="425.72043" x1="239.27286" class="cls-33"/>
    <path id="svg_107" d="m263.84945,425.88943l0,0a2.82913,2.82913 0 0 1 3.34021,2.20247l4.91,23.92017a2.82912,2.82912 0 0 1 -2.20245,3.34026l0,0a2.82912,2.82912 0 0 1 -3.34021,-2.20247l-4.91,-23.92017a2.82913,2.82913 0 0 1 2.20245,-3.34026z" class="cls-29"/>
    <path id="svg_108" d="m283.17121,422.28504l0,0a2.82913,2.82913 0 0 1 2.95642,2.69582l1.12467,24.393a2.82913,2.82913 0 0 1 -2.69582,2.95643l0,0a2.82914,2.82914 0 0 1 -2.95643,-2.69582l-1.12466,-24.393a2.82912,2.82912 0 0 1 2.69582,-2.95643z" class="cls-29"/>
    <path id="svg_109" d="m244.6553,430.29733l0,0a2.82913,2.82913 0 0 1 3.67552,1.58066l9.04062,22.6837a2.82914,2.82914 0 0 1 -1.58066,3.67552l0,0a2.82914,2.82914 0 0 1 -3.67552,-1.58066l-9.04062,-22.68371a2.82913,2.82913 0 0 1 1.58066,-3.67551z" class="cls-29"/>
   </g>
   <path id="svg_110" d="m119.1763,830.76882a174.606,174.606 0 0 1 206.23337,-278.60361" class="cls-34"/>
   <path id="svg_111" d="m1649.18062,494.7799a134.74031,134.74031 0 1 1 134.74031,233.37707" class="cls-34"/>
   <circle id="svg_112" r="23.39384" cy="194.91527" cx="1399.3489" class="cls-34"/>
   <circle id="svg_113" r="10.23056" cy="117.64547" cx="939.90608" class="cls-34"/>
   <circle id="svg_114" r="21.0021" cy="218.30911" cx="709.27989" class="cls-34"/>
   <circle id="svg_115" r="7.44921" cy="171.52143" cx="231.82364" class="cls-34"/>
   <g id="Shopping_cart">
    <path id="svg_116" d="m1720.98805,440.02806a5.80877,5.80877 0 1 1 -5.8103,-5.80724a5.81733,5.81733 0 0 1 5.8103,5.80724z" class="cls-18"/>
    <path id="svg_117" d="m1684.70349,440.02806a5.8103,5.8103 0 1 1 -5.8103,-5.80724a5.81733,5.81733 0 0 1 5.8103,5.80724z" class="cls-18"/>
    <path id="svg_118" d="m1723.25527,429.23051l0,0.00611a3.47472,3.47472 0 0 1 -3.45739,3.4819l-45.71754,0a1.16188,1.16188 0 0 1 -1.06173,-1.62773l5.55334,-12.62418a1.162,1.162 0 0 1 1.06169,-0.69455l4.81285,0a1.16188,1.16188 0 0 1 1.06169,1.62774l-2.80569,6.37634l37.08313,0a3.48945,3.48945 0 0 1 3.46965,3.45437z" class="cls-18"/>
    <path id="svg_119" d="m1715.17857,441.18862a1.15569,1.15569 0 0 1 -0.81989,-0.33958l-8.39436,-8.39316a1.15961,1.15961 0 1 1 1.63979,-1.64009l8.39436,8.39316a1.15955,1.15955 0 0 1 -0.8199,1.97967z" class="cls-18"/>
    <path id="svg_120" d="m1678.89285,441.18862a1.15963,1.15963 0 0 1 -0.80824,-1.99132l8.63877,-8.39316a1.15973,1.15973 0 1 1 1.61649,1.66339l-8.63878,8.39316a1.15623,1.15623 0 0 1 -0.80824,0.32793z" class="cls-18"/>
    <path id="svg_121" d="m1669.95857,387.23976a1.15944,1.15944 0 0 1 -1.15963,-1.15709c-0.003,-0.47179 -0.13087,-4.56395 -3.60138,-4.56395l-6.18506,0a1.15963,1.15963 0 1 1 0,-2.31925l6.18506,0c4.68332,0 5.92063,4.50076 5.92063,6.88066a1.15949,1.15949 0 0 1 -1.15962,1.15963z" class="cls-18"/>
    <path id="svg_122" d="m1660.17414,380.36765a4.80213,4.80213 0 1 1 -4.8006,-4.80368a4.80665,4.80665 0 0 1 4.8006,4.80368z" class="cls-18"/>
    <path id="svg_123" d="m1729.46944,388.70524a3.72607,3.72607 0 0 1 -0.33043,1.54206l-12.86588,29.14638a1.16429,1.16429 0 0 1 -1.06169,0.69149l-35.58392,0a1.16393,1.16393 0 0 1 -1.11373,-0.83222l-9.67466,-32.84859a1.15931,1.15931 0 0 1 1.11066,-1.487l55.73182,0a3.79267,3.79267 0 0 1 3.78783,3.78788z" class="cls-18"/>
   </g>
  </g>
 </g>
</svg>