<svg width="1856" height="1389" xmlns="http://www.w3.org/2000/svg">
 <defs>
  <style>.cls-1{fill:#e9f0f7;}.cls-2{fill:#86a2d4;}.cls-3{fill:#2b3174;}.cls-4{fill:#feffff;}.cls-5{fill:#cee1ef;}.cls-6{fill:#e7f5fd;}.cls-12,.cls-30,.cls-31,.cls-32,.cls-7{fill:none;}.cls-7{stroke:#6860ab;stroke-width:4.11204px;}.cls-30,.cls-31,.cls-7{stroke-miterlimit:10;}.cls-8{fill:#394a9d;}.cls-9{fill:#f5a720;}.cls-10{fill:#e49225;}.cls-11{fill:#fdbb5a;}.cls-12,.cls-32{stroke:#fdbb5a;stroke-linecap:round;stroke-linejoin:round;}.cls-12{stroke-width:4px;}.cls-13{fill:#3dbda7;}.cls-14{fill:#f79979;}.cls-15{fill:#e5575e;}.cls-16{fill:#23275a;}.cls-17{fill:#f16366;}.cls-18{fill:#f26f77;}.cls-19{fill:#56639c;}.cls-20{fill:#7783c0;}.cls-21{fill:#fff;}.cls-22{fill:#f79978;}.cls-23{fill:#e4e5f4;}.cls-24{fill:#d1d3eb;}.cls-25{fill:#e88e72;}.cls-26{fill:#ef8a6b;}.cls-27{fill:#1f8e78;}.cls-28{fill:#98d5cd;}.cls-29{fill:#becce8;}.cls-30{stroke:#394a9d;}.cls-30,.cls-31{stroke-width:3px;}.cls-31{stroke:#fff;}.cls-32{stroke-width:1.38715px;}</style>
 </defs>
 <title>Artboard</title>
 <g>
  <title>background</title>
  <rect fill="none" id="canvas_background" height="1391" width="1858" y="-1" x="-1"/>
 </g>
 <g>
  <title>Layer 1</title>
  <g id="svg_173">
   <path id="svg_1" d="m818.75168,1350.24163c-145.87892,53.0508 -293.11255,53.91466 -437.13923,-12.95335c-99.04189,-45.9827 -191.631,-112.27369 -250.36627,-204.32734c-79.19758,-124.12354 -88.3109,-284.003 -49.79334,-426.11336c65.64477,-242.19585 244.09417,-490.9477 504.04635,-533.6377c109.06138,-17.91034 220.60738,-11.55667 330.65427,-21.79617c139.1033,-12.94308 274.34625,-52.24011 407.08091,-95.81489c63.3084,-20.78322 132.101,-42.65492 195.0176,-20.71421c57.60254,20.08756 97.003,72.67419 128.73576,124.776c72.89982,119.69388 125.55943,257.49472 115.23508,397.2603c-14.57725,197.33919 -152.759,366.8661 -315.4765,479.464c-91.61168,63.3938 -192.24724,112.51581 -292.655,159.88894c-101.67658,47.97178 -203.37657,100.59543 -307.54415,143.22483q-13.88835,5.68366 -27.79548,10.74295z" class="cls-1"/>
   <rect id="svg_2" height="283.35046" width="249.0249" y="903.95186" x="195.69183" class="cls-2"/>
   <rect id="svg_3" height="457.37056" width="249.0249" y="729.93176" x="502.46135" class="cls-2"/>
   <rect id="svg_4" height="813.40237" width="249.0249" y="373.89996" x="1116.00039" class="cls-2"/>
   <rect id="svg_5" height="636.24115" width="249.0249" y="551.06117" x="809.23087" class="cls-2"/>
   <rect id="svg_6" height="995.81763" width="249.0249" y="191.48469" x="1422.76991" class="cls-2"/>
   <path id="svg_7" d="m730.78843,197.19906l384.63358,0a57.37134,57.37134 0 0 1 57.37134,57.37134l0,899.64625a57.37131,57.37131 0 0 1 -57.37131,57.37131l-384.63365,0a57.37083,57.37083 0 0 1 -57.37083,-57.37083l0,-899.6472a57.37087,57.37087 0 0 1 57.37087,-57.37087z" class="cls-3"/>
   <path id="svg_8" d="m744.72802,215.77032l357.75488,0a49.92,49.92 0 0 1 49.92,49.92l0,873.93383a49.92083,49.92083 0 0 1 -49.92083,49.92083l-357.754,0a49.92,49.92 0 0 1 -49.92,-49.92l0,-873.93471a49.92,49.92 0 0 1 49.91995,-49.91995z" class="cls-4"/>
   <path id="svg_9" d="m1041.2028,209.9058l0,15.26c0,20.93 -13.47,37.9 -30.08,37.9l-185.72,0c-16.61,0 -30.06994,-16.97 -30.06994,-37.9l0,-15.26a46.66588,46.66588 0 0 1 0.24,-4.76l245.38995,0a46.52044,46.52044 0 0 1 0.23999,4.76z" class="cls-3"/>
   <path id="svg_10" d="m854.09611,222.14744l128.33769,0a2.36319,2.36319 0 0 1 2.36319,2.36319l0,9.08912a2.36275,2.36275 0 0 1 -2.36275,2.36275l-128.33813,0a2.36319,2.36319 0 0 1 -2.36319,-2.36319l0,-9.08868a2.36319,2.36319 0 0 1 2.36319,-2.36319z" class="cls-4"/>
   <rect id="svg_11" height="7.85564" width="3.40046" y="236.6575" x="1043.61073" class="cls-3"/>
   <rect id="svg_12" height="10.87328" width="3.4009" y="233.63986" x="1048.68287" class="cls-3"/>
   <rect id="svg_13" height="13.34504" width="3.40046" y="231.16811" x="1053.76067" class="cls-3"/>
   <rect id="svg_14" height="17.10129" width="3.4009" y="227.41186" x="1058.83284" class="cls-3"/>
   <path id="svg_15" d="m1087.10343,241.2727a3.15063,3.15063 0 1 1 -3.148,-3.15368a3.14932,3.14932 0 0 1 3.148,3.15368z" class="cls-3"/>
   <path id="svg_16" d="m1078.84796,239.206a5.57117,5.57117 0 0 1 10.02615,-0.40637a0.66984,0.66984 0 0 0 1.15583,-0.67625a6.91741,6.91741 0 0 0 -12.34613,0.40593c-0.37628,0.77653 0.78787,1.45759 1.16415,0.67669z" class="cls-3"/>
   <path id="svg_17" d="m1076.16082,237.42445a8.57075,8.57075 0 0 1 15.4004,-0.59952a0.67031,0.67031 0 0 0 1.15587,-0.678a9.91815,9.91815 0 0 0 -17.72043,0.6c-0.37322,0.77784 0.78788,1.45846 1.16416,0.67756l0,-0.00004z" class="cls-3"/>
   <path id="svg_18" d="m1074.1678,234.6331c3.9965,-7.52209 15.0028,-7.74838 19.56433,-0.63222c0.46653,0.726 1.6333,0.05319 1.1611,-0.67669c-5.086,-7.9254 -17.39342,-7.8103 -21.88914,0.63222c-0.40332,0.76476 0.75783,1.44407 1.16371,0.67669z" class="cls-3"/>
   <polygon id="svg_19" points="1128.60400390625,233.98388671875 1126.4281005859375,233.98388671875 1126.4281005859375,230.81988525390625 1103.2239990234375,230.81988525390625 1103.2239990234375,241.1058349609375 1126.4281005859375,241.1058349609375 1126.4281005859375,237.94091796875 1128.60400390625,237.94091796875 1128.60400390625,233.98388671875 " class="cls-3"/>
   <rect id="svg_20" height="8.56503" width="20.97831" y="231.67998" x="1104.32418" class="cls-3"/>
   <rect id="svg_21" height="7.18274" width="8.74362" y="232.63397" x="1115.91405" class="cls-4"/>
   <path id="svg_22" d="m744.69227,231.2601a3.75443,3.75443 0 0 1 3.75232,3.32111a0.29309,0.29309 0 0 0 0.03012,0.0811c0.01915,0.31 0.03052,0.63658 0.03052,0.978a9.50806,9.50806 0 0 1 -1.08745,4.54281a4.71812,4.71812 0 0 1 -3.99082,2.47568l-0.01919,0a0.38632,0.38632 0 0 1 -0.40592,-0.37584a0.4169,0.4169 0 0 1 0.395,-0.4225a3.86142,3.86142 0 0 0 3.3185,-2.06844a7.31726,7.31726 0 0 0 0.81229,-2.27947a3.77823,3.77823 0 0 1 -6.5899,-2.50751a3.75708,3.75708 0 0 1 3.75453,-3.74494zm2.98363,3.74492a2.97406,2.97406 0 1 0 -2.98363,2.9627a2.95492,2.95492 0 0 0 2.98363,-2.9627z" class="cls-3"/>
   <path id="svg_23" d="m752.55619,234.19011a0.81535,0.81535 0 1 1 -0.81273,0.81491a0.80965,0.80965 0 0 1 0.81273,-0.81491zm0,6.84016a0.81426,0.81426 0 1 1 -0.81273,0.81317a0.809,0.809 0 0 1 0.81273,-0.81317z" class="cls-3"/>
   <path id="svg_24" d="m755.37763,241.53474a0.40072,0.40072 0 0 1 0,-0.57074a0.4121,0.4121 0 0 1 0.58469,0a3.06614,3.06614 0 0 0 2.15172,0.87944a3.04491,3.04491 0 1 0 -2.15172,-5.19422a0.38721,0.38721 0 0 1 -0.56551,0a0.23266,0.23266 0 0 1 -0.099,-0.13037l0,-0.01482a0.0622,0.0622 0 0 1 -0.01657,-0.04971a0.27041,0.27041 0 0 1 -0.01918,-0.13037a0.65671,0.65671 0 0 0 0.01918,-0.08066l0.552,-4.59208a0.34368,0.34368 0 0 1 0.16743,-0.29387a0.35553,0.35553 0 0 1 0.25768,-0.09724l5.30584,0a0.40764,0.40764 0 0 1 0.412,0.40593a0.39791,0.39791 0 0 1 -0.412,0.40767l-4.96223,0l-0.41206,3.38826a3.85132,3.85132 0 0 1 1.94331,-0.521a3.84075,3.84075 0 0 1 3.843,3.85741a3.82808,3.82808 0 0 1 -1.12578,2.73641a3.95751,3.95751 0 0 1 -2.73642,1.124a3.86243,3.86243 0 0 1 -2.73638,-1.12404z" class="cls-3"/>
   <path id="svg_25" d="m765.16001,236.95966a7.2647,7.2647 0 0 1 1.09483,-3.98951a3.22849,3.22849 0 0 1 5.69824,0a7.40774,7.40774 0 0 1 1.10922,3.98951a7.31842,7.31842 0 0 1 -1.10922,3.973a3.21438,3.21438 0 0 1 -5.69824,0a7.17805,7.17805 0 0 1 -1.09483,-3.973zm0.7988,0a6.47356,6.47356 0 0 0 0.96051,3.53258a2.42406,2.42406 0 0 0 4.36405,0a6.87749,6.87749 0 0 0 0,-7.0669a2.42406,2.42406 0 0 0 -4.36405,0a6.47543,6.47543 0 0 0 -0.96051,3.53432z" class="cls-3"/>
   <rect id="svg_26" rx="41.22321" height="886.25653" width="432.47908" y="284.21782" x="705.54683" class="cls-5"/>
   <rect id="svg_27" rx="24.29422" height="96.20159" width="96.20159" y="311.00709" x="731.23201" class="cls-6"/>
   <rect id="svg_28" rx="24.29422" height="96.20159" width="96.20159" y="311.00709" x="873.68556" class="cls-6"/>
   <rect id="svg_29" rx="24.29422" height="96.20159" width="96.20159" y="311.00709" x="1016.1391" class="cls-6"/>
   <rect id="svg_30" rx="24.29422" height="96.20159" width="96.20159" y="459.84803" x="731.23201" class="cls-6"/>
   <rect id="svg_31" rx="24.29422" height="96.20159" width="96.20159" y="459.84803" x="873.68556" class="cls-6"/>
   <rect id="svg_32" rx="24.29422" height="96.20159" width="96.20159" y="459.84803" x="1016.1391" class="cls-6"/>
   <rect id="svg_33" rx="24.29422" height="96.20159" width="96.20159" y="608.68897" x="731.23201" class="cls-6"/>
   <rect id="svg_34" rx="24.29422" height="96.20159" width="96.20159" y="608.68897" x="873.68556" class="cls-6"/>
   <rect id="svg_35" rx="24.29422" height="96.20159" width="96.20159" y="608.68897" x="1016.1391" class="cls-6"/>
   <rect id="svg_36" rx="24.29422" height="96.20159" width="96.20159" y="757.52991" x="731.23201" class="cls-6"/>
   <rect id="svg_37" rx="24.29422" height="96.20159" width="96.20159" y="757.52991" x="873.68556" class="cls-6"/>
   <rect id="svg_38" rx="24.29422" height="96.20159" width="96.20159" y="757.52991" x="1016.1391" class="cls-6"/>
   <rect id="svg_39" rx="24.29422" height="96.20159" width="96.20159" y="906.37085" x="731.23201" class="cls-6"/>
   <rect id="svg_40" rx="24.29422" height="96.20159" width="96.20159" y="906.37085" x="873.68556" class="cls-6"/>
   <rect id="svg_41" rx="24.29422" height="96.20159" width="96.20159" y="906.37085" x="1016.1391" class="cls-6"/>
   <rect id="svg_42" rx="24.29422" height="96.20159" width="96.20159" y="1055.2118" x="731.23201" class="cls-6"/>
   <rect id="svg_43" rx="24.29422" height="96.20159" width="96.20159" y="1055.2118" x="873.68556" class="cls-6"/>
   <rect id="svg_44" rx="24.29422" height="96.20159" width="96.20159" y="1055.2118" x="1016.1391" class="cls-6"/>
   <line id="svg_45" y2="1216.30233" x2="1772.94596" y1="1216.30233" x1="82.94596" class="cls-7"/>
   <path id="svg_46" d="m975.76672,417.60416l0,80.53a20.93125,20.93125 0 0 1 -20.93,20.94l-381.25,0l-67.25,52.57l-1.51,-52.57l-39.18,0a20.93125,20.93125 0 0 1 -20.93,-20.94l0,-80.53a20.92911,20.92911 0 0 1 20.93,-20.93l489.19,0a20.92911,20.92911 0 0 1 20.93,20.93z" class="cls-8"/>
   <path id="svg_47" d="m859.7775,750.86176l0,80.53a20.93126,20.93126 0 0 0 20.93,20.94l381.25,0l67.25,52.57l1.51,-52.57l39.18,0a20.93126,20.93126 0 0 0 20.93,-20.94l0,-80.53a20.92912,20.92912 0 0 0 -20.93,-20.93l-489.19,0a20.92912,20.92912 0 0 0 -20.93,20.93z" class="cls-8"/>
   <path id="svg_48" d="m506.38811,429.73367l5.76137,11.67382l12.88283,1.872a4.37894,4.37894 0 0 1 2.42687,7.46913l-9.3221,9.0868l2.20065,12.83077a4.379,4.379 0 0 1 -6.35363,4.61618l-11.52275,-6.05787l-11.52275,6.05787a4.37894,4.37894 0 0 1 -6.35362,-4.61618l2.20065,-12.83077l-9.3221,-9.0868a4.37894,4.37894 0 0 1 2.42687,-7.46913l12.88282,-1.872l5.76138,-11.67382a4.37894,4.37894 0 0 1 7.85351,0z" class="cls-9"/>
   <path id="svg_49" d="m608.63811,429.73367l5.76137,11.67382l12.88283,1.872a4.37894,4.37894 0 0 1 2.42687,7.46913l-9.3221,9.0868l2.20065,12.83077a4.379,4.379 0 0 1 -6.35363,4.61618l-11.52275,-6.05787l-11.52275,6.05787a4.37894,4.37894 0 0 1 -6.35362,-4.61618l2.20065,-12.83077l-9.3221,-9.0868a4.37894,4.37894 0 0 1 2.42687,-7.46913l12.88282,-1.872l5.76138,-11.67382a4.37894,4.37894 0 0 1 7.85351,0z" class="cls-9"/>
   <path id="svg_50" d="m710.88811,429.73367l5.76137,11.67382l12.88283,1.872a4.37894,4.37894 0 0 1 2.42687,7.46913l-9.3221,9.0868l2.20065,12.83077a4.379,4.379 0 0 1 -6.35363,4.61618l-11.52275,-6.05787l-11.52275,6.05787a4.37894,4.37894 0 0 1 -6.35362,-4.61618l2.20065,-12.83077l-9.3221,-9.0868a4.37894,4.37894 0 0 1 2.42687,-7.46913l12.88282,-1.872l5.76138,-11.67382a4.37894,4.37894 0 0 1 7.85351,0z" class="cls-9"/>
   <path id="svg_51" d="m813.13811,429.73367l5.76137,11.67382l12.88283,1.872a4.37894,4.37894 0 0 1 2.42687,7.46913l-9.3221,9.0868l2.20065,12.83077a4.379,4.379 0 0 1 -6.35363,4.61618l-11.52275,-6.05787l-11.52275,6.05787a4.37894,4.37894 0 0 1 -6.35362,-4.61618l2.20065,-12.83077l-9.3221,-9.0868a4.37894,4.37894 0 0 1 2.42687,-7.46913l12.88282,-1.872l5.76138,-11.67382a4.37894,4.37894 0 0 1 7.85351,0z" class="cls-9"/>
   <path id="svg_52" d="m915.38811,429.73367l5.76137,11.67382l12.88283,1.872a4.37894,4.37894 0 0 1 2.42687,7.46913l-9.3221,9.0868l2.20065,12.83077a4.379,4.379 0 0 1 -6.35363,4.61618l-11.52275,-6.05787l-11.52275,6.05787a4.37894,4.37894 0 0 1 -6.35362,-4.61618l2.20065,-12.83077l-9.3221,-9.0868a4.37894,4.37894 0 0 1 2.42687,-7.46913l12.88282,-1.872l5.76138,-11.67382a4.37894,4.37894 0 0 1 7.85351,0z" class="cls-9"/>
   <path id="svg_53" d="m924.08442,767.79088l5.76138,11.67382l12.88282,1.872a4.379,4.379 0 0 1 2.42687,7.46914l-9.3221,9.0868l2.20065,12.83077a4.37894,4.37894 0 0 1 -6.35362,4.61618l-11.52275,-6.05787l-11.52275,6.05787a4.379,4.379 0 0 1 -6.35363,-4.61618l2.20065,-12.83077l-9.3221,-9.0868a4.379,4.379 0 0 1 2.42687,-7.46914l12.88283,-1.872l5.76142,-11.67382a4.37894,4.37894 0 0 1 7.85346,0z" class="cls-9"/>
   <path id="svg_54" d="m1026.33442,767.79088l5.76138,11.67382l12.88282,1.872a4.379,4.379 0 0 1 2.42687,7.46914l-9.3221,9.0868l2.20065,12.83077a4.37894,4.37894 0 0 1 -6.35362,4.61618l-11.52275,-6.05787l-11.52275,6.05787a4.379,4.379 0 0 1 -6.35363,-4.61618l2.20065,-12.83077l-9.3221,-9.0868a4.379,4.379 0 0 1 2.42687,-7.46914l12.88283,-1.872l5.76137,-11.67382a4.37894,4.37894 0 0 1 7.85351,0z" class="cls-9"/>
   <path id="svg_55" d="m1128.58442,767.79088l5.76138,11.67382l12.88282,1.872a4.379,4.379 0 0 1 2.42687,7.46914l-9.3221,9.0868l2.20065,12.83077a4.37894,4.37894 0 0 1 -6.35362,4.61618l-11.52275,-6.05787l-11.52275,6.05787a4.379,4.379 0 0 1 -6.35363,-4.61618l2.20065,-12.83077l-9.3221,-9.0868a4.379,4.379 0 0 1 2.42687,-7.46914l12.88283,-1.872l5.76137,-11.67382a4.37894,4.37894 0 0 1 7.85351,0z" class="cls-9"/>
   <path id="svg_56" d="m1230.83442,767.79088l5.76138,11.67382l12.88282,1.872a4.379,4.379 0 0 1 2.42687,7.46914l-9.3221,9.0868l2.20065,12.83077a4.37894,4.37894 0 0 1 -6.35362,4.61618l-11.52275,-6.05787l-11.52275,6.05787a4.379,4.379 0 0 1 -6.35363,-4.61618l2.20065,-12.83077l-9.3221,-9.0868a4.379,4.379 0 0 1 2.42687,-7.46914l12.88283,-1.872l5.76137,-11.67382a4.37894,4.37894 0 0 1 7.85351,0z" class="cls-9"/>
   <path id="svg_57" d="m1333.08442,767.79088l5.76138,11.67382l12.88282,1.872a4.379,4.379 0 0 1 2.42687,7.46914l-9.3221,9.0868l2.20065,12.83077a4.37894,4.37894 0 0 1 -6.35362,4.61618l-11.52275,-6.05787l-11.52275,6.05787a4.379,4.379 0 0 1 -6.35363,-4.61618l2.20065,-12.83077l-9.3221,-9.0868a4.379,4.379 0 0 1 2.42687,-7.46914l12.88283,-1.872l5.76137,-11.67382a4.37894,4.37894 0 0 1 7.85351,0z" class="cls-9"/>
   <path id="svg_58" d="m640.73912,118.54038l18.02944,10.00987l18.46706,-9.17747a6.93661,6.93661 0 0 1 9.89532,7.54l-3.94855,20.24024l14.43493,14.72722a6.93661,6.93661 0 0 1 -4.11315,11.741l-20.46977,2.49928l-9.54579,18.2794a6.93661,6.93661 0 0 1 -12.43738,-0.28367l-8.70247,-18.69559l-20.33455,-3.42994a6.93661,6.93661 0 0 1 -3.57358,-11.91631l15.09136,-14.0538l-3.02166,-20.39921a6.93661,6.93661 0 0 1 10.22879,-7.08102z" class="cls-10"/>
   <path id="svg_59" d="m782.21704,55.29288l13.841,15.28681l20.43955,-2.73551a6.93661,6.93661 0 0 1 6.937,10.327l-10.26163,17.88736l8.9178,18.59385a6.93662,6.93662 0 0 1 -7.67793,9.7887l-20.18287,-4.23179l-14.92805,14.22714a6.93661,6.93661 0 0 1 -11.68221,-4.27727l-2.21219,-20.50279l-18.14384,-9.801a6.93661,6.93661 0 0 1 0.45792,-12.43219l18.81571,-8.43964l3.71454,-20.28448a6.93661,6.93661 0 0 1 11.9652,-3.40619z" class="cls-10"/>
   <path id="svg_60" d="m930.51681,35.29646l9.1265,18.49231l20.40747,2.96538a6.93661,6.93661 0 0 1 3.84436,11.83173l-14.767,14.39425l3.486,20.325a6.93661,6.93661 0 0 1 -10.06467,7.31241l-18.253,-9.59616l-18.253,9.59616a6.93661,6.93661 0 0 1 -10.06467,-7.31241l3.486,-20.325l-14.76694,-14.39425a6.93661,6.93661 0 0 1 3.84436,-11.83173l20.40747,-2.96538l9.1265,-18.49231a6.93661,6.93661 0 0 1 12.44062,0z" class="cls-10"/>
   <path id="svg_61" d="m1077.03507,62.61738l3.93475,20.24293l18.9063,8.23467a6.93661,6.93661 0 0 1 0.593,12.42648l-18.03626,9.99758l-1.98927,20.52562a6.93661,6.93661 0 0 1 -11.635,4.404l-15.08177,-14.06409l-20.13575,4.45086a6.93661,6.93661 0 0 1 -7.78384,-9.70468l8.71522,-18.68966l-10.4553,-17.77484a6.93662,6.93662 0 0 1 6.82436,-10.40179l20.46807,2.51325l13.674,-15.43631a6.93661,6.93661 0 0 1 12.00149,3.27598z" class="cls-10"/>
   <path id="svg_62" d="m1212.6646,124.18722l-1.7571,20.54679l15.92983,13.09576a6.93661,6.93661 0 0 1 -2.83144,12.11412l-20.08414,4.67821l-7.53221,19.197a6.93661,6.93661 0 0 1 -12.39618,1.05061l-10.65558,-17.65551l-20.585,-1.23136a6.93662,6.93662 0 0 1 -4.82983,-11.46481l13.49863,-15.58991l-5.19,-19.958a6.93661,6.93661 0 0 1 9.41118,-8.13626l18.99819,8.02042l17.37739,-11.10336a6.93661,6.93661 0 0 1 10.64626,6.4363z" class="cls-10"/>
   <path id="svg_63" d="m637.32396,113.60712l18.02945,10.00988l18.46706,-9.17748a6.93662,6.93662 0 0 1 9.89532,7.54l-3.94855,20.24023l14.43493,14.72722a6.93661,6.93661 0 0 1 -4.11315,11.741l-20.46978,2.49929l-9.54578,18.2794a6.93662,6.93662 0 0 1 -12.43739,-0.28367l-8.70246,-18.6956l-20.33455,-3.42993a6.93661,6.93661 0 0 1 -3.57358,-11.91632l15.09135,-14.05379l-3.02166,-20.39922a6.93661,6.93661 0 0 1 10.22879,-7.08101z" class="cls-11"/>
   <path id="svg_64" d="m780.57424,49.52211l13.84094,15.28677l20.43956,-2.73551a6.93661,6.93661 0 0 1 6.937,10.327l-10.26154,17.8874l8.9178,18.59385a6.93662,6.93662 0 0 1 -7.67793,9.7887l-20.18292,-4.23179l-14.928,14.22714a6.93661,6.93661 0 0 1 -11.68221,-4.27727l-2.2122,-20.50279l-18.14383,-9.801a6.93661,6.93661 0 0 1 0.45792,-12.43219l18.81571,-8.43964l3.71454,-20.28448a6.93661,6.93661 0 0 1 11.96516,-3.40619z" class="cls-11"/>
   <path id="svg_65" d="m930.51681,29.29646l9.1265,18.49231l20.40747,2.96538a6.93661,6.93661 0 0 1 3.84436,11.83173l-14.767,14.39425l3.486,20.325a6.93661,6.93661 0 0 1 -10.06467,7.31241l-18.253,-9.59616l-18.253,9.59616a6.93661,6.93661 0 0 1 -10.06467,-7.31241l3.486,-20.325l-14.76694,-14.39425a6.93661,6.93661 0 0 1 3.84436,-11.83173l20.40747,-2.96538l9.1265,-18.49231a6.93661,6.93661 0 0 1 12.44062,0z" class="cls-11"/>
   <path id="svg_66" d="m1078.61507,56.82915l3.93474,20.24293l18.90631,8.23467a6.93661,6.93661 0 0 1 0.593,12.42648l-18.03626,9.99758l-1.98927,20.52562a6.93661,6.93661 0 0 1 -11.635,4.404l-15.08177,-14.06409l-20.13575,4.45086a6.93661,6.93661 0 0 1 -7.78384,-9.70468l8.71522,-18.68966l-10.4553,-17.77484a6.93661,6.93661 0 0 1 6.82436,-10.40179l20.46807,2.51325l13.674,-15.43631a6.93661,6.93661 0 0 1 12.00149,3.27598z" class="cls-11"/>
   <path id="svg_67" d="m1215.76878,119.05262l-1.7571,20.5468l15.92983,13.09575a6.93662,6.93662 0 0 1 -2.83144,12.11413l-20.08414,4.6782l-7.53221,19.197a6.93661,6.93661 0 0 1 -12.39618,1.05062l-10.65558,-17.65553l-20.585,-1.23137a6.93661,6.93661 0 0 1 -4.82983,-11.46481l13.49864,-15.5899l-5.19,-19.958a6.93662,6.93662 0 0 1 9.41119,-8.13626l18.99819,8.02042l17.37739,-11.10336a6.93661,6.93661 0 0 1 10.64624,6.43631z" class="cls-11"/>
   <line id="svg_68" y2="92.87181" x2="1226.74188" y1="108.58444" x1="1214.63154" class="cls-12"/>
   <line id="svg_69" y2="164.65083" x2="1266.21261" y1="159.71699" x1="1237.50662" class="cls-12"/>
   <line id="svg_70" y2="129.21687" x2="1232.47751" y1="134.53331" x1="1223.15363" class="cls-12"/>
   <line id="svg_71" y2="95.12851" x2="1146.2196" y1="111.42976" x1="1157.21956" class="cls-12"/>
   <line id="svg_72" y2="92.87181" x2="1187.79646" y1="116.64481" x1="1187.79646" class="cls-12"/>
   <line id="svg_73" y2="1.00001" x2="924.25273" y1="20.83082" x1="923.71765" class="cls-12"/>
   <line id="svg_74" y2="40.77015" x2="995.42283" y1="53.68676" x1="969.31655" class="cls-12"/>
   <line id="svg_75" y2="33.99738" x2="948.29112" y1="43.78485" x1="943.88607" class="cls-12"/>
   <line id="svg_76" y2="50.24155" x2="860.50164" y1="56.93899" x1="878.99148" class="cls-12"/>
   <line id="svg_77" y2="31.93403" x2="897.77613" y1="43.14792" x1="906.77547" class="cls-12"/>
   <line id="svg_78" y2="92.87181" x2="617.69034" y1="108.58444" x1="629.80068" class="cls-12"/>
   <line id="svg_79" y2="164.65083" x2="578.2196" y1="159.71699" x1="606.92559" class="cls-12"/>
   <line id="svg_80" y2="129.21687" x2="611.95471" y1="134.53331" x1="621.27859" class="cls-12"/>
   <line id="svg_81" y2="95.12851" x2="698.21261" y1="111.42976" x1="687.21265" class="cls-12"/>
   <line id="svg_82" y2="92.87181" x2="656.63575" y1="116.64481" x1="656.63575" class="cls-12"/>
   <circle id="svg_83" r="21.90569" cy="668.30559" cx="403.30742" class="cls-13"/>
   <path id="svg_84" d="m436.10296,721.43943l-65.58969,0a5.36431,5.36431 0 0 1 -5.28724,-6.22866a38.61609,38.61609 0 0 1 20.21511,-27.97054a26.01584,26.01584 0 0 0 35.72871,0a38.60488,38.60488 0 0 1 20.22032,27.97063a5.36439,5.36439 0 0 1 -5.28721,6.22857z" class="cls-13"/>
   <path id="svg_85" d="m442.39871,728.8717l-78.18212,0a7.90493,7.90493 0 0 1 -7.89575,-7.89575l0,-78.18154a7.905,7.905 0 0 1 7.89575,-7.89633l78.18212,0a7.905,7.905 0 0 1 7.89575,7.89633l0,78.18154a7.90493,7.90493 0 0 1 -7.89575,7.89575zm-78.18212,-90.40529a4.33244,4.33244 0 0 0 -4.32742,4.328l0,78.18154a4.33232,4.33232 0 0 0 4.32742,4.32742l78.18212,0a4.33269,4.33269 0 0 0 4.32742,-4.32742l0,-78.18154a4.33281,4.33281 0 0 0 -4.32742,-4.328l-78.18212,0z" class="cls-13"/>
   <circle id="svg_86" r="21.90569" cy="250.44097" cx="1511.36569" class="cls-5"/>
   <path id="svg_87" d="m1544.16117,303.57481l-65.58963,0a5.36432,5.36432 0 0 1 -5.28725,-6.22866a38.61616,38.61616 0 0 1 20.21511,-27.97054a26.01582,26.01582 0 0 0 35.72872,0a38.60487,38.60487 0 0 1 20.22031,27.97064a5.36438,5.36438 0 0 1 -5.28726,6.22856z" class="cls-5"/>
   <path id="svg_88" d="m1550.45696,311.00709l-78.18213,0a7.90492,7.90492 0 0 1 -7.89574,-7.89575l0,-78.18155a7.905,7.905 0 0 1 7.89574,-7.89633l78.18213,0a7.905,7.905 0 0 1 7.89575,7.89633l0,78.18155a7.90493,7.90493 0 0 1 -7.89575,7.89575zm-78.18213,-90.40529a4.33243,4.33243 0 0 0 -4.32741,4.328l0,78.18155a4.33231,4.33231 0 0 0 4.32741,4.32741l78.18213,0a4.33268,4.33268 0 0 0 4.32742,-4.32741l0,-78.18156a4.33281,4.33281 0 0 0 -4.32742,-4.328l-78.18213,0.00001z" class="cls-5"/>
   <rect id="svg_89" height="13.70626" width="13.40598" y="1185.41594" x="244.70308" class="cls-14"/>
   <polygon id="svg_90" points="147.68495178222656,1199.0289306640625 134.27894592285156,1199.0289306640625 136.220947265625,1185.5738525390625 149.62696838378906,1185.5738525390625 147.68495178222656,1199.0289306640625 " class="cls-14"/>
   <path id="svg_91" d="m209.11821,689.91767s33.3183,-0.799 50.65163,21.86764l34.24754,84.23085l-31.42827,18.17938l-32.81927,-79.74356l-20.65163,-44.53431z" class="cls-15"/>
   <path id="svg_92" d="m206.0699,626.08543l-6.30179,0l0,21.2568l8.5359,0c2.7509,0 2.7509,-8.08046 2.7509,-10.888c0.00005,-2.75313 -2.23187,-10.3688 -4.98501,-10.3688z" class="cls-3"/>
   <path id="svg_93" d="m134.95807,700.50659s-22.42336,7.52471 -29.60471,25.06875c0,0 -12.06365,24.86751 -10.21317,62.24723c0,0 -0.7402,24.42635 4.81125,42.93116c0,0 2.68938,9.35972 7.57092,12.7684l16.11524,-19.80023l11.32047,-26.27683l0,-96.93848z" class="cls-15"/>
   <polygon id="svg_94" points="267.29290771484375,1018.2288818359375 259.4929504394531,1188.7789306640625 242.8329620361328,1188.7789306640625 224.7129364013672,1034.7689208984375 180.43296813964844,890.5689697265625 261.08294677734375,884.8388671875 267.29290771484375,1018.2288818359375 " class="cls-16"/>
   <path id="svg_95" d="m144.68469,892.56779l76.64861,-5.72662l-24.7875,133.39071l-46.13449,167.9176l-15.45324,0l15.01278,-156.38081a178.53313,178.53313 0 0 0 0.44043,-22.02539l-5.72659,-117.17549z" class="cls-3"/>
   <path id="svg_96" d="m138.59974,898.30002c48.5581,7.62317 92.10773,4.22314 130.06885,-11.47669l-29.22263,-169.49131a33.12951,33.12951 0 0 0 -35.7233,-27.35751l-53.94722,5.02978a30.472,30.472 0 0 0 -27.50369,33.253l16.32799,170.04273z" class="cls-17"/>
   <path id="svg_97" d="m153.43651,766.45198s-1.33333,-15.66667 2.33333,-20s10.88226,-3.66667 10.88226,-3.66667s6.04339,-0.33333 27.74724,-4.66667c0,0 2.03717,2.66667 -3.6295,5l-13.62415,6.66667l3.95749,2.5s2.66666,3.5 -0.33334,6.5c0,0 -4.66666,8.82387 -20.66666,9.91194l-6.66667,-2.24527z" class="cls-14"/>
   <path id="svg_98" d="m103.62226,838.56263c5.17076,9.43572 18.50782,13.97567 24.63619,7.04238c8.76855,-9.92021 39.39365,-75.63581 39.39365,-75.63581l-13.86656,-8.19388l-48.28266,61.57649s-5.55144,8.51221 -1.88062,15.21082z" class="cls-18"/>
   <path id="svg_99" d="m192.99603,661.26261l-24.50481,0l-0.0001,34.23665c0,9.34387 24.50488,9.34387 24.50488,0l0.00003,-34.23665z" class="cls-14"/>
   <path id="svg_100" d="m226.06356,753.60788l-22.31786,0a2.62168,2.62168 0 0 1 -2.61323,-3.43159l11.0267,-46.23758a4.623,4.623 0 0 1 4.25,-3.43159l22.31779,0a2.62167,2.62167 0 0 1 2.61322,3.43159l-11.02669,46.23758a4.623,4.623 0 0 1 -4.24993,3.43159z" class="cls-19"/>
   <path id="svg_101" d="m228.06356,755.60788l-22.31786,0a2.62168,2.62168 0 0 1 -2.61323,-3.43159l11.0267,-46.23758a4.623,4.623 0 0 1 4.25,-3.43159l22.31779,0a2.62167,2.62167 0 0 1 2.61322,3.43159l-11.02669,46.23758a4.623,4.623 0 0 1 -4.24993,3.43159z" class="cls-20"/>
   <ellipse id="svg_102" transform="rotate(-41.60007858276367 -739.9747924804688,74.95379638671888) " ry="2.55433" rx="3.24044" cy="1194.53177" cx="-441.01854" class="cls-21"/>
   <path id="svg_103" d="m226.70131,750.59064l-16.58383,0a1.27956,1.27956 0 0 1 -1.27543,-1.67485l0,0a2.25635,2.25635 0 0 1 2.07427,-1.67485l16.58383,0a1.27956,1.27956 0 0 1 1.27543,1.67485l0,0a2.25635,2.25635 0 0 1 -2.07427,1.67485z" class="cls-21"/>
   <path id="svg_104" d="m207.89166,719.64019l-0.49676,2.083a3.94244,3.94244 0 0 0 3.46413,4.83951l26.41024,2.49481l4.611,-5.22522l-1.07372,-7.26946l1.07372,-4.50236s7.88043,7.28213 6.06372,12.86391s-1.574,17.95877 -1.574,17.95877l-11.16356,6.91655s-18.42032,-0.14132 -28.72017,-4.57567a9.67285,9.67285 0 0 1 -5.77231,-10.24765s-0.67852,-16.36181 7.17771,-15.33619z" class="cls-14"/>
   <path id="svg_105" d="m192.55009,686.56549l0,0a29.44262,29.44262 0 0 1 -29.44262,-29.44262l0,-31.79812l35.66769,0c7.73921,0 10.09463,6.13107 10.09463,18.67506l0,26.246a16.31965,16.31965 0 0 1 -16.3197,16.31968z" class="cls-14"/>
   <path id="svg_106" d="m216.94544,619.60446a8.73136,8.73136 0 0 1 -8.74868,8.74868l-36.34066,0l0,33.98525l-7.74868,7c-2.1939,0 -8.73921,-16.08517 -8.73921,-28.19872l0,-14.64395a15.63568,15.63568 0 0 1 15.63993,-15.63994l37.18862,0a8.74832,8.74832 0 0 1 8.74868,8.74868z" class="cls-3"/>
   <ellipse id="svg_107" ry="10.7676" rx="7.06624" cy="654.59917" cx="168.49122" class="cls-14"/>
   <path id="svg_108" d="m265.13955,818.08227c5.93644,8.20246 18.76764,7.15961 25.92725,0a18.33334,18.33334 0 0 0 0,-25.92725l-44.63029,-51.36971l-14.33333,7.66671c12.03478,27.83873 26.62778,60.77535 33.03637,69.63025z" class="cls-18"/>
   <path id="svg_109" d="m286.58514,1212.32188l0,5.36451l-41.48209,0a1.87,1.87 0 0 1 -1.87,-1.87l0,-17.54708a1.88066,1.88066 0 0 1 1.88066,-1.88066l11.99535,0a2.37,2.37 0 0 1 2.37,2.37l0,0.46977a6.96913,6.96913 0 0 0 6.96913,6.96912l14.01264,0a6.12433,6.12433 0 0 1 6.12431,6.12434z" class="cls-3"/>
   <path id="svg_110" d="m176.43533,1212.32188l0,5.36451l-41.48209,0a1.87,1.87 0 0 1 -1.87,-1.87l0,-17.54708a1.88065,1.88065 0 0 1 1.88065,-1.88066l11.99534,0a2.37,2.37 0 0 1 2.37,2.37l0,0.46977a6.96912,6.96912 0 0 0 6.96912,6.96912l14.01264,0a6.12433,6.12433 0 0 1 6.12434,6.12434z" class="cls-3"/>
   <rect id="svg_111" transform="rotate(-180 3114.077880859375,2753.2919921875) " height="38.27795" width="22.06483" y="4313.74508" x="4696.11135" class="cls-22"/>
   <rect id="svg_112" transform="rotate(-180 2878.404296875,2753.2919921875) " height="38.27795" width="22.06483" y="4313.74508" x="4342.60097" class="cls-22"/>
   <path id="svg_113" transform="rotate(149.99273681640625 3560.9326171875,913.8383789062501) " d="m5200.57072,2021.90448l0,0a11.73,11.73 0 0 1 11.73,11.73l0,65.57075a0,0 0 0 1 0,0l-23.46009,0a0,0 0 0 1 0,0l0,-65.57061a11.73009,11.73009 0 0 1 11.73009,-11.73014z" class="cls-22"/>
   <path id="svg_114" d="m1412.05815,784.32877l107.811,0s6.77132,12.35906 7.62243,36.27248c4.42644,124.42715 13.12669,346.7779 13.12669,346.7779c-13.411,3.83821 -26.14137,4.39944 -37.84168,0l-37.96888,-290.893a4.48666,4.48666 0 0 0 -5.8515,0.5985l-30.31833,289.52242c-12.66656,5.41769 -26.12308,4.88837 -40.15845,0c4.43316,-156.10071 8.86808,-299.19855 23.57872,-382.2783z" class="cls-3"/>
   <path id="svg_115" d="m1407.82138,628.87724c34.56622,-1.39195 101.16613,18.25959 134.089,28.53445c-5.40653,55.51946 -11.64676,105.36037 -22.04117,126.91714c-33.88733,10.939 -69.45191,12.29858 -107.408,0c-7.48815,-42.32178 -7.78181,-96.14168 -4.63983,-155.45159z" class="cls-13"/>
   <path id="svg_116" d="m1293.64696,645.23688s36.74378,52.73954 37.01826,53.08688a20.81161,20.81161 0 0 0 28.20687,4.13143l30.62,-21.31515l-14.69768,-21.11409l-29.90685,20.82154l-41.11354,-42.99594l-10.12706,7.38533z" class="cls-22"/>
   <rect id="svg_117" transform="rotate(142.72183227539062 3205.1464843749995,621.8865966796875) " height="33.29708" width="62.42872" y="1671.82202" x="4639.19906" class="cls-13"/>
   <polygon id="svg_118" points="1414.93310546875,679.9638671875 1477.60009765625,679.9638671875 1483.0850830078125,757.9609375 1418.5889892578125,757.9609375 1414.93310546875,679.9638671875 " class="cls-23"/>
   <path id="svg_119" d="m1406.09686,690.01834l62.6678,0l14.31982,67.943l-64.49556,0.00008a239.67437,239.67437 0 0 0 -12.49206,-67.94308z" class="cls-24"/>
   <rect id="svg_120" transform="rotate(60.412269592285156 1701.2097167968748,-1253.8251953125002) " height="33.29705" width="62.42966" y="-171.42922" x="3284.89466" class="cls-13"/>
   <path id="svg_121" d="m1499.22517,736.35144l76.63372,39.75574a12.56208,12.56208 0 0 0 16.12515,-6.91137l0,0a12.5647,12.5647 0 0 0 -7.082,-16.53529l-81.44182,-26.52424l-4.23505,10.21516z" class="cls-22"/>
   <path id="svg_122" d="m1503.46027,726.13626s-5.273,-9.791 -11.44435,-12.35315c-11.74157,-4.87483 -14.92917,-10.05434 -14.92917,-10.05434s-8.15714,-2.74209 -3.16454,6.70289s9.16227,7.9216 9.16227,7.9216s-18.48949,5.48419 -25.80174,17.67127c0,0 -1.52338,4.57015 3.9608,1.82806a65.34712,65.34712 0 0 1 8.63152,-3.33982l7.51636,9.12868s3.35145,3.35145 8.22628,0l17.84257,-9.14031l0,-8.36488z" class="cls-22"/>
   <path id="svg_123" d="m1499.22596,606.86788c-7.08008,16.6 -11.65,21.33 -12.63,35.65a9.09631,9.09631 0 0 1 -16.17,5.86a9.29585,9.29585 0 0 1 -2.07007,-5.86c-0.43994,-5.18 -0.43994,-4.05 -0.10986,-8.69a98.99647,98.99647 0 0 1 1.91992,-13.66c0.54,-2.6 1.16,-5.13 1.84009,-7.63l27.21992,-5.67z" class="cls-22"/>
   <path id="svg_124" d="m1491.84596,621.14788c-3.76,8.08 -16.58,11.43 -23.6,12.68a98.99647,98.99647 0 0 1 1.91992,-13.66l21.68008,0.98z" class="cls-25"/>
   <path id="svg_125" d="m1293.64696,613.2397s7.3365,-5.78886 11.90666,-1.52338c5.9932,5.59366 -1.77957,26.1352 -1.77957,26.1352l-10.12709,7.38536s-13.926,-2.52126 -17.95169,-16.42981c-2.74209,-9.4738 6.7029,-19.76828 6.7029,-19.76828l-1.82807,-21.6966s2.43742,-6.70289 5.78887,3.04677s7.28799,22.85074 7.28799,22.85074z" class="cls-22"/>
   <path id="svg_126" d="m1294.88996,633.04373c-4.424,-8.06048 2.37522,-11.95844 2.37522,-11.95844c-10.50081,4.05145 -10.60152,-2.66608 -10.60152,-2.66608l6.98332,-5.17951s7.3365,-5.78886 11.90666,-1.52338c5.9932,5.59366 -1.77952,26.13521 -1.77952,26.13521c-4.03702,1.15705 -7.52567,-0.98987 -8.88416,-4.8078z" class="cls-26"/>
   <path id="svg_127" d="m1475.29768,626.74708l0,0a17.21423,17.21423 0 0 0 20.25827,-13.50045l7.50538,-37.49314l-30.17375,-6.04019l-11.09038,36.7755a17.21422,17.21422 0 0 0 13.50048,20.25828z" class="cls-22"/>
   <path id="svg_128" d="m1470.29483,575.06068a11.38711,11.38711 0 0 0 5.41256,4.34606c-0.07176,0.172 2.22269,0.63133 3.45941,0.87889a18.59178,18.59178 0 0 1 14.56284,21.8755a17.89447,17.89447 0 0 1 -0.933,3.169a18.58193,18.58193 0 0 0 3.63811,-36.80069a18.89335,18.89335 0 0 0 -4.95089,-0.31993a11.57236,11.57236 0 1 0 -21.18907,6.85115l0.00004,0.00002z" class="cls-3"/>
   <ellipse id="svg_129" transform="rotate(-56.124088287353516 -217.26063537597656,1347.2501220703123) " ry="5.39941" rx="9.14592" cy="2360.01214" cx="1354.42854" class="cls-22"/>
   <path id="svg_130" d="m1569.59281,1216.85353l0,2.83336l-61.90355,0a3.06329,3.06329 0 0 1 -3.00807,-3.64273c1.05676,-17.55212 3.01245,-24.48108 5.29834,-27.50732c7.20583,1.25686 16.16193,0.83484 21.65643,0.18251a1.25843,1.25843 0 0 1 1.40839,1.25418l0,5.21751a8.08955,8.08955 0 0 0 0.16468,1.64508a8.48869,8.48869 0 0 0 0.63956,2.06594c1.40764,3.071 3.51525,5.20993 7.11648,5.20993l15.8862,0a12.71268,12.71268 0 0 1 12.68664,11.84581a7.13571,7.13571 0 0 1 0.0549,0.89573z" class="cls-13"/>
   <path id="svg_131" d="m1569.59281,1216.85353l0,2.83336l-63.74875,0a1.86455,1.86455 0 0 1 -1.86455,-1.86455l0,0a1.86454,1.86454 0 0 1 1.86455,-1.86454l63.6939,0a7.13571,7.13571 0 0 1 0.05485,0.89573z" class="cls-27"/>
   <path id="svg_132" d="m1540.13696,1204.11188l4.1072,0a0,0 0 0 1 0,0l0,3.45733a2.0536,2.0536 0 0 1 -2.0536,2.0536l0,0a2.0536,2.0536 0 0 1 -2.0536,-2.0536l0,-3.45733a0,0 0 0 1 0,0z" class="cls-28"/>
   <path id="svg_133" d="m1546.47971,1204.11188l4.1072,0a0,0 0 0 1 0,0l0,3.45733a2.0536,2.0536 0 0 1 -2.0536,2.0536l0,0a2.0536,2.0536 0 0 1 -2.0536,-2.0536l0,-3.45733a0,0 0 0 1 0,0z" class="cls-28"/>
   <path id="svg_134" d="m1354.15796,1216.85353l0,2.83336l61.90355,0a3.06329,3.06329 0 0 0 3.00807,-3.64273c-1.05676,-17.55212 -2.01245,-24.48108 -4.29834,-27.50732c-7.20583,1.25686 -17.16193,0.83484 -22.65643,0.18251a1.25843,1.25843 0 0 0 -1.40839,1.25418l0,5.21751a8.08955,8.08955 0 0 1 -0.16468,1.64508a8.48869,8.48869 0 0 1 -0.63956,2.06594c-1.40764,3.071 -3.51525,5.20993 -7.11648,5.20993l-15.8862,0a12.71268,12.71268 0 0 0 -12.68664,11.84581a7.13571,7.13571 0 0 0 -0.0549,0.89573z" class="cls-13"/>
   <path id="svg_135" d="m1354.15796,1216.85353l0,2.83336l63.74875,0a1.86455,1.86455 0 0 0 1.86455,-1.86455l0,0a1.86454,1.86454 0 0 0 -1.86455,-1.86454l-63.69385,0a7.13571,7.13571 0 0 0 -0.0549,0.89573z" class="cls-27"/>
   <path id="svg_136" transform="rotate(-180 2835.174560546875,2819.626953125) " d="m4288.7887,4429.63092l0,0a2.0536,2.0536 0 0 1 2.0536,2.0536l0,3.45733a0,0 0 0 1 0,0l-4.1072,0a0,0 0 0 1 0,0l0,-3.45733a2.0536,2.0536 0 0 1 2.0536,-2.0536z" class="cls-28"/>
   <path id="svg_137" transform="rotate(180 2822.489013671875,2819.626708984375) " d="m4269.76039,4429.63068l0,0a2.0536,2.0536 0 0 1 2.0536,2.0536l0,3.45733a0,0 0 0 1 0,0l-4.1072,0a0,0 0 0 1 0,0l0,-3.45733a2.0536,2.0536 0 0 1 2.0536,-2.0536z" class="cls-28"/>
   <path id="svg_138" d="m1310.08463,434.702l-46.842,0a35.14887,35.14887 0 0 0 -35.14892,35.149l0,46.84217a35.14887,35.14887 0 0 0 35.14892,35.149l17.48853,0l29.35351,29.35352l0,-29.35356a35.149,35.149 0 0 0 35.149,-35.149l0,-46.84215a35.149,35.149 0 0 0 -35.14904,-35.14898z" class="cls-29"/>
   <rect id="svg_139" height="10.58641" width="66.28416" y="467.20867" x="1253.23267" class="cls-21"/>
   <rect id="svg_140" height="10.58641" width="66.28416" y="487.91817" x="1253.23267" class="cls-21"/>
   <rect id="svg_141" height="10.58641" width="38.2768" y="508.62766" x="1253.23267" class="cls-21"/>
   <path id="svg_142" d="m557.50532,247.90248l-35.603,0a26.71543,26.71543 0 0 0 -26.71547,26.71551l0,35.60307a26.71543,26.71543 0 0 0 26.71547,26.71551l13.29241,0l22.31057,22.31057l0,-22.31057a26.7155,26.7155 0 0 0 26.71555,-26.71551l0,-35.60307a26.7155,26.7155 0 0 0 -26.71553,-26.71551z" class="cls-29"/>
   <rect id="svg_143" height="8.04636" width="50.38026" y="272.60966" x="514.29415" class="cls-21"/>
   <rect id="svg_144" height="8.04636" width="50.38026" y="288.35022" x="514.29415" class="cls-21"/>
   <rect id="svg_145" height="8.04636" width="29.09285" y="304.09077" x="514.29415" class="cls-21"/>
   <path id="svg_146" d="m114.95133,912.42427a179.7421,179.7421 0 1 1 207.73945,-277.531" class="cls-30"/>
   <circle id="svg_147" r="8.70202" cy="230.84946" cx="1350.27156" class="cls-30"/>
   <circle id="svg_148" r="23.3561" cy="490.56477" cx="1832.30206" class="cls-30"/>
   <circle id="svg_149" r="12.46298" cy="736.4528" cx="1731.86445" class="cls-30"/>
   <circle id="svg_150" r="7.39348" cy="366.64063" cx="344.33944" class="cls-30"/>
   <circle id="svg_151" r="9.01227" cy="656.3545" cx="593.23315" class="cls-30"/>
   <path id="svg_152" d="m1328.57119,606.69116a153.81246,153.81246 0 1 1 274.65868,130.87134" class="cls-31"/>
   <line id="svg_153" y2="126.9833" x2="858.90344" y1="119.81278" x1="851.73292" class="cls-32"/>
   <line id="svg_154" y2="126.9833" x2="851.73292" y1="119.81278" x1="858.90344" class="cls-32"/>
   <line id="svg_155" y2="246.24404" x2="628.4491" y1="239.07352" x1="621.27859" class="cls-32"/>
   <line id="svg_156" y2="246.24404" x2="621.27859" y1="239.07352" x1="628.4491" class="cls-32"/>
   <line id="svg_157" y2="179.79874" x2="1087.5472" y1="172.62822" x1="1080.37668" class="cls-32"/>
   <line id="svg_158" y2="179.79874" x2="1080.37668" y1="172.62822" x1="1087.5472" class="cls-32"/>
   <line id="svg_159" y2="69.01501" x2="1138.02591" y1="61.8445" x1="1130.85539" class="cls-32"/>
   <line id="svg_160" y2="69.01501" x2="1130.85539" y1="61.8445" x1="1138.02591" class="cls-32"/>
   <line id="svg_161" y2="42.47637" x2="677.00282" y1="35.30586" x1="669.8323" class="cls-32"/>
   <line id="svg_162" y2="42.47637" x2="669.8323" y1="35.30586" x1="677.00282" class="cls-32"/>
   <line id="svg_163" y2="215.77032" x2="1278.53122" y1="208.5998" x1="1271.3607" class="cls-32"/>
   <line id="svg_164" y2="215.77032" x2="1271.3607" y1="208.5998" x1="1278.53122" class="cls-32"/>
   <circle id="svg_165" r="6.01075" cy="223.04422" cx="512.95671" class="cls-11"/>
   <circle id="svg_166" r="6.05517" cy="312.13713" cx="1220.68671" class="cls-11"/>
   <circle id="svg_167" r="6.39317" cy="140.32154" cx="1379.94596" class="cls-11"/>
   <circle id="svg_168" r="4.0504" cy="467.20867" cx="368.94596" class="cls-11"/>
   <circle id="svg_169" r="6.34979" cy="608.68897" cx="495.18687" class="cls-11"/>
   <circle id="svg_170" r="4.0062" cy="585.09548" cx="634.94596" class="cls-11"/>
   <circle id="svg_171" r="4.68738" cy="329.10788" cx="1328.57119" class="cls-11"/>
   <circle id="svg_172" r="1.81904" cy="606.86993" cx="1214.63154" class="cls-11"/>
  </g>
 </g>
</svg>