<svg width="903" height="727" xmlns="http://www.w3.org/2000/svg">
 <defs>
  <style>.cls-1,.cls-18,.cls-29,.cls-30,.cls-36,.cls-4,.cls-47,.cls-5,.cls-7{fill:none;}.cls-2{fill:#e8f0f6;}.cls-3{fill:#7393d6;}.cls-4,.cls-5{stroke:#1c2877;}.cls-18,.cls-29,.cls-30,.cls-36,.cls-4,.cls-47,.cls-5,.cls-7{stroke-linecap:round;stroke-linejoin:round;}.cls-36,.cls-4{stroke-width:0.5px;}.cls-6{fill:#bdcdee;}.cls-7{stroke:#93b3f8;}.cls-18,.cls-29,.cls-7{stroke-width:2px;}.cls-8{clip-path:url(#clip-path);}.cls-10,.cls-12,.cls-9{isolation:isolate;}.cls-10{font-size:40px;}.cls-10,.cls-12,.cls-42{fill:#0058c2;}.cls-10,.cls-12{font-family:ArialMT, Arial;}.cls-11{clip-path:url(#clip-path-2);}.cls-12{font-size:30px;}.cls-13{clip-path:url(#clip-path-3);}.cls-14{fill:#82a3e6;}.cls-15{fill:#7091d4;}.cls-16{fill:#1c2777;}.cls-17{fill:#fff;}.cls-18{stroke:#bbd6f6;}.cls-19{fill:#00d0b0;}.cls-20{fill:#00b497;}.cls-21{clip-path:url(#clip-path-4);}.cls-22{fill:#f5a623;}.cls-23{fill:#feb63d;}.cls-24{fill:#9b6204;}.cls-25{fill:#b47308;}.cls-26{fill:#03e7c4;}.cls-27{fill:#ffaa8c;}.cls-28{fill:#5463de;}.cls-29,.cls-30{stroke:#1c2777;}.cls-30{stroke-width:3px;}.cls-31{fill:#bcceed;}.cls-32{fill-opacity:0.09804;}.cls-33{fill:#ffbd99;}.cls-34{fill:#e8a580;}.cls-35{fill:#6475f1;}.cls-36{stroke:#c7ceff;}.cls-37{fill:#e66b6f;}.cls-38{fill:#fe7270;}.cls-39{fill:#7989fe;}.cls-40{fill:#fdb086;}.cls-41{fill:#02bea1;}.cls-43{fill:#c6d8fd;}.cls-44{fill:#e1971c;}.cls-45{fill:#4e6fb1;}.cls-46{fill:#7a9bdd;}.cls-47{stroke:#f30;stroke-width:0.1px;}</style>
  <clipPath id="clip-path">
   <rect id="svg_1" height="58.45" width="40.1" y="617.20001" x="871.29999" class="cls-1"/>
  </clipPath>
  <clipPath id="clip-path-2">
   <rect id="svg_2" height="44.84931" width="50.04924" y="582.50003" x="73.70003" class="cls-1"/>
  </clipPath>
  <clipPath id="clip-path-3">
   <rect id="svg_3" height="58.45" width="44.9" y="248.3" x="271.10001" class="cls-1"/>
  </clipPath>
  <clipPath id="clip-path-4">
   <rect id="svg_4" height="58.45" width="41" y="244.14999" x="615" class="cls-1"/>
  </clipPath>
 </defs>
 <title>Artboard 1</title>
 <g>
  <title>background</title>
  <rect fill="none" id="canvas_background" height="729" width="905" y="-1" x="-1"/>
 </g>
 <g>
  <title>Layer 1</title>
  <g id="svg_103">
   <g id="Layer0_0_FILL">
    <path id="svg_5" d="m757.87654,10.1871a296.48351,296.48351 0 0 0 -163.85,5q-23.95,7.8 -64.8,27.1q-44.6001,21 -64.35,28.25a471.31558,471.31558 0 0 1 -55.6,16.2q-18.75,4.35 -56.95,11.6q-38,7.2 -56.9,11.6a474.3395,474.3395 0 0 0 -55.55,16.25a449.95394,449.95394 0 0 0 -72.1,34.55a463.23324,463.23324 0 0 0 -68.65,49.15q-33.45,29 -56.2,60.65q-24.65,34.35 -34.85,69.25q-9.9,33.75 -5.95,90.15q4.15,59.5 21.7,104.35a128.52385,128.52385 0 0 0 31.9,47.5a119.27273,119.27273 0 0 0 49.35,28.5q24.45,7.2 75.3,8.3q31.1,0.7 76.5,-1.05q37,-1.3 58.6,0.4q32.25,2.5 56.55,12.1a199.21512,199.21512 0 0 1 35.4,18.9q11,7.2 32.85,23.65q21.4,16.09992 32.9,23.55a195.06412,195.06412 0 0 0 35.45,18.55a177.58818,177.58818 0 0 0 45.2,10.55a307.71742,307.71742 0 0 0 46.8,0.95a473.566,473.566 0 0 0 136.5,-27q34.35,-12.25 57.55,-28.2q28.70006,-19.75 41.85,-45.95q10.1,-20.2501 11.85,-46.55q1.40012,-21.9 -3,-48.8q-2.00007,-11.95 -10,-47.8q-6.65,-29.70007 -8.6,-47.85a244.80567,244.80567 0 0 1 1.45,-61.85a241.53625,241.53625 0 0 1 16.9,-59.5q5.85,-13.7 16.65,-33.65q17.65,-32.6 17.9,-33.15q20.59992,-39.85 23.2,-69.6q2.55,-29.15 -8.95,-58.5a153.7274,153.7274 0 0 0 -32.3,-50.35a189.24321,189.24321 0 0 0 -47.75,-35.7a252.13049,252.13049 0 0 0 -56,-21.55z" class="cls-2"/>
   </g>
   <g id="Layer0_1_FILL">
    <path id="svg_6" d="m473.77654,50.9371a9.90288,9.90288 0 0 0 -10,10a10.00565,10.00565 0 1 0 10,-10z" class="cls-3"/>
   </g>
   <g id="Layer0_2_FILL">
    <path id="svg_7" d="m743.77654,602.6871a10.00558,10.00558 0 1 0 -10,10a10.07286,10.07286 0 0 0 10,-10z" class="cls-3"/>
   </g>
   <path d="m866.20659,76.46457a52.28595,52.28595 0 1 1 -15.336,-36.98936a50.26563,50.26563 0 0 1 15.336,36.98936z" class="cls-4" id="Layer0_3_1_STROKES"/>
   <path d="m113.77654,132.6871l-30,-30" class="cls-5" id="Layer0_4_1_STROKES"/>
   <path d="m133.77654,122.6871l0,-20" class="cls-5" id="Layer0_5_1_STROKES"/>
   <path d="m113.77654,152.6871l-30,0" class="cls-5" id="Layer0_6_1_STROKES"/>
   <path d="m858.77654,362.6871a5.12652,5.12652 0 0 1 -5,5a4.85262,4.85262 0 0 1 -3.55,-1.5a4.76924,4.76924 0 0 1 -1.45,-3.5a4.95146,4.95146 0 0 1 5,-5a4.769,4.769 0 0 1 3.5,1.45a4.85272,4.85272 0 0 1 1.5,3.55z" class="cls-5" id="Layer0_7_1_STROKES"/>
   <path d="m73.77654,317.6871a5.12652,5.12652 0 0 1 -5,5a4.85268,4.85268 0 0 1 -3.55,-1.5a4.76927,4.76927 0 0 1 -1.45,-3.5a4.95145,4.95145 0 0 1 5,-5a4.76912,4.76912 0 0 1 3.5,1.45a4.85272,4.85272 0 0 1 1.5,3.55z" class="cls-5" id="Layer0_8_1_STROKES"/>
   <g id="Layer0_9_FILL">
    <path id="svg_8" d="m624.42654,63.6871q-11.30007,-1.55 -10.9,-16.05a129.451,129.451 0 0 0 -23.4,-2.1a135.57152,135.57152 0 0 0 -23.8,2.1q0.45008,14.5 -10.85,16.05q2.05,26.45 9.55,38.4a68.75385,68.75385 0 0 0 13.1,14.6q2.35007,2 6.3,5q4.05,3.05 5.5,4.3q1.5,-1.25 5.5,-4.3q4,-3 6.35,-5a70.61,70.61 0 0 0 13.1,-14.6q7.5,-11.95 9.55,-38.4z" class="cls-6"/>
   </g>
   <path d="m809.32654,425.6371l-525.75,-324.95" class="cls-7" id="Layer0_10_MEMBER_0_1_STROKES"/>
   <path d="m93.77654,403.6871l715.55,63.1" class="cls-7" id="Layer0_10_MEMBER_1_1_STROKES"/>
   <path d="m73.27654,368.1871l174.6,-246.9" class="cls-7" id="Layer0_10_MEMBER_2_1_STROKES"/>
   <g id="Layer0_10_MEMBER_3_FILL">
    <path id="svg_9" d="m845.02654,411.5871l-30,17.3l0,34.55l30,17.3l29.95,-17.3l0,-34.55l-29.95,-17.3z" class="cls-6"/>
   </g>
   <path d="m845.02654,487.3871l-35.7,-20.6l0,-41.15l35.7,-20.6l35.7,20.6l0,41.15l-35.7,20.6z" class="cls-7" id="Layer0_10_MEMBER_3_1_STROKES"/>
   <g id="svg_10" class="cls-8">
    <g id="svg_11" class="cls-9">
     <text id="svg_12" x="827.07658" y="460.63705" class="cls-10">@</text>
    </g>
   </g>
   <g id="Layer0_10_MEMBER_5_MEMBER_0_FILL">
    <path id="svg_13" d="m69.87517,373.74889l-34.6306,-0.01722l-17.27446,29.92125l17.3311,29.98181l34.58728,-0.00772l17.27446,-29.92125l-17.28778,-29.95687z" class="cls-6"/>
   </g>
   <path d="m31.96201,439.35224l-20.61728,-35.68924l20.57414,-35.63663l41.21643,0.00928l20.61724,35.68924l-20.57415,35.63663l-41.21638,-0.00928z" class="cls-7" id="Layer0_10_MEMBER_5_MEMBER_0_1_STROKES"/>
   <g id="svg_14" class="cls-11">
    <g id="svg_15" class="cls-9">
     <text id="svg_16" x="29.44225" y="415.19284" class="cls-12">&lt;/&gt;</text>
    </g>
   </g>
   <g id="Layer0_10_MEMBER_6_MEMBER_0_FILL">
    <path id="svg_17" d="m247.87654,45.4871l-30,17.3l0,34.55l30,17.3l29.95,-17.3l0,-34.55l-29.95,-17.3z" class="cls-6"/>
   </g>
   <path d="m247.87654,121.2871l-35.7,-20.6l0,-41.15l35.7,-20.6l35.7,20.6l0,41.15l-35.7,20.6z" class="cls-7" id="Layer0_10_MEMBER_6_MEMBER_0_1_STROKES"/>
   <g id="svg_18" class="cls-13">
    <g id="svg_19" class="cls-9">
     <text id="svg_20" x="226.87651" y="91.73715" class="cls-10">{ }</text>
    </g>
   </g>
   <g id="Layer0_11_MEMBER_0_FILL">
    <path id="svg_21" d="m384.82654,573.6871l-16.7,56.75l171.3,0l-16.7,-56.75l-137.9,0z" class="cls-14"/>
    <path id="svg_22" d="m393.42654,544.4871l-8.6,29.2l137.9,0l-8.55,-29.2l-120.75,0z" class="cls-15"/>
   </g>
   <g id="Layer0_11_MEMBER_1_FILL">
    <path id="svg_23" d="m350.22654,626.8871a4.93606,4.93606 0 0 0 -1.45,3.55a4.769,4.769 0 0 0 1.45,3.5a4.85272,4.85272 0 0 0 3.55,1.5l200,0a5.12652,5.12652 0 0 0 5,-5a4.85262,4.85262 0 0 0 -1.5,-3.55a4.76929,4.76929 0 0 0 -3.5,-1.45l-200,0a4.93628,4.93628 0 0 0 -3.55,1.45z" class="cls-16"/>
   </g>
   <g id="Layer0_11_MEMBER_2_FILL">
    <path id="svg_24" d="m791.27654,149.4871q0,-17.55 -17.55,-17.55l-639.9,0q-17.55,0 -17.55,17.55l0,383.4q0,17.54992 17.55,17.55l639.9,0q17.54992,0 17.55,-17.55l0,-383.4m-22.5,2.45l0,330l-630,0l0,-330l630,0z" class="cls-16"/>
    <path id="svg_25" d="m768.77654,481.9371l0,-330l-630,0l0,330l630,0z" class="cls-17"/>
   </g>
   <path d="m175.47079,289.87325l22.11425,27.66917l38.27843,-5.7009l24.1593,30.27877l38.26552,-5.74923l24.17225,30.32711l-14.11916,35.97968l-38.33968,5.66555l-24.098,-30.24343l14.11913,-35.97968m-54.14245,39.61174l-22.41448,-28.20993l14.11914,-35.97967m28.77738,-70.91333l-35.7377,5.33073m35.7377,-5.33073l14.18038,-35.94436l38.25255,-5.79752l24.17224,30.32709l-14.18038,35.94436l-38.32667,5.71385l-24.09812,-30.24342z" class="cls-18" id="Layer0_12_1_STROKES"/>
   <g id="Layer0_13_FILL">
    <path id="svg_26" d="m363.27654,190.9871q1.4,49.8 -37.45,55.2q7.05,90.85 32.85,132.05a240.92976,240.92976 0 0 0 45.1,50.15q8.05,6.8 21.65,17.2q13.85,10.5 18.95,14.85q5.1,-4.34994 18.95,-14.85q13.65,-10.4 21.7,-17.2a241.58967,241.58967 0 0 0 45.05,-50.15q25.8501,-41.2 32.9,-132.05q-38.9,-5.4 -37.45,-55.2a443.3678,443.3678 0 0 0 -80.5,-7.25a463.57856,463.57856 0 0 0 -81.75,7.25m10.95,53q13.75,-15.8 13.2,-34.9q32.3,-5.8 59.25,-5.35q25,0.4 58.2,6.5q-0.55,19.95 10,34q10.3,13.55 26.5,15.8q-5.8,74.3 -26.9,108a198.69921,198.69921 0 0 1 -36.85,41q-6.6,5.55 -17.7,14.05q-11.3,8.65 -15.55,12.15q-4.15,-3.50007 -15.5,-12.15q-11.1,-8.5 -17.65,-14.05a196.80381,196.80381 0 0 1 -36.85,-41q-21.15,-33.7 -26.9,-108q14.2,-1.6 26.75,-16.05z" class="cls-19"/>
    <path id="svg_27" d="m387.42654,209.0871q0.55,19.1 -13.2,34.9q-12.55,14.45 -26.75,16.05q5.75,74.3 26.9,108a196.80381,196.80381 0 0 0 36.85,41q6.55,5.55 17.65,14.05q11.35,8.65 15.5,12.15q4.25,-3.50007 15.55,-12.15q11.1,-8.5 17.7,-14.05a198.69921,198.69921 0 0 0 36.85,-41q21.1,-33.7 26.9,-108q-16.2,-2.25 -26.5,-15.8q-10.55,-14.05 -10,-34q-33.2,-6.1 -58.2,-6.5q-26.95,-0.45 -59.25,5.35z" class="cls-20"/>
   </g>
   <path d="m716.97654,353.8371l-14.2,-32.45l-38.45,-4.4l-15.5,-35.5l-38.45,-4.35l-15.5,-35.55l22.95,-31.1l38.5,4.45l15.45,35.45l-22.95,31.1m62.55,-24.25l14.35,33.05l-22.95,31.1m-10.25,65.15l-35.9,-4.1l-23,31.05l-38.45,-4.3l-15.5,-35.55l23,-31.05l38.5,4.4l15.45,35.45" class="cls-18" id="Layer0_14_1_STROKES"/>
   <g id="svg_28" class="cls-21">
    <g id="svg_29" class="cls-9">
     <text id="svg_30" x="570.77654" y="87.58713" class="cls-10">[ ]</text>
    </g>
   </g>
   <g id="Layer0_16_MEMBER_0_FILL">
    <path id="svg_31" d="m478.87654,311.9871q-0.53358,-20.59995 -21.6,-20.6l-24.55,0q-21.11522,0 -21.65,20.6l0,16.75q0,21.65 21.65,21.65l24.55,0q21.59994,0 21.6,-21.65l0,-16.75z" class="cls-22"/>
    <path id="svg_32" d="m457.27654,291.3871q21.06638,0 21.6,20.6l0,-7.4q0,-21.65 -21.6,-21.65l-24.55,0q-21.65,0 -21.65,21.65l0,7.4q0.53475,-20.59995 21.65,-20.6l24.55,0z" class="cls-23"/>
   </g>
   <g id="Layer0_16_MEMBER_1_FILL">
    <path id="svg_33" d="m447.92654,340.6871l-5,0l0,-10.15a9.97744,9.97744 0 0 1 -6.45,-9.15a9.41985,9.41985 0 0 1 2.25,-6.25l-0.6,0.6a9.34,9.34 0 0 0 -2.85,6.85a9.97762,9.97762 0 0 0 6.45,9.15l0,10.15l6.2,0l0,-1.2z" class="cls-24"/>
    <path id="svg_34" d="m451.77654,315.7371a9.17643,9.17643 0 0 0 -6.8,-2.85a7.80027,7.80027 0 0 0 -8.5,8.5a9.97744,9.97744 0 0 0 6.45,9.15l0,10.15l5,0l0,-8.85a8.12881,8.12881 0 0 0 1.2,-0.5a9.52293,9.52293 0 0 0 2.65,-1.95a7.70377,7.70377 0 0 0 0.6,-0.65a8.95169,8.95169 0 0 0 2.3,-6.15a9.26022,9.26022 0 0 0 -2.9,-6.85z" class="cls-25"/>
   </g>
   <g id="Layer0_16_MEMBER_2_FILL">
    <path id="svg_35" d="m446.67654,252.0871l-1.65,0a24.241,24.241 0 0 0 -24.25,24.2l0,11.35a3.65019,3.65019 0 1 0 7.3,0l0,-11.35a17.07256,17.07256 0 0 1 16.95,-16.95l1.65,0a16.09659,16.09659 0 0 1 11.95,5a16.30829,16.30829 0 0 1 5,11.95l0,11.35a3.6502,3.6502 0 1 0 7.3,0l0,-11.35a24.241,24.241 0 0 0 -24.25,-24.2z" class="cls-25"/>
   </g>
   <g id="Layer0_17_FILL">
    <path id="svg_36" d="m431.97654,425.4371q-1.01994,-0.76675 -2.15,-1.65l-14.2,14.2q1.06228,0.8496 2.15,1.7q2.683,2.08923 5.65,4.35l14.2,-14.2q-2.469,-1.95 -5.65,-4.4m-59.45,-60.5l-13.65,13.6a223.31941,223.31941 0 0 0 17.35,22.7l13.35,-13.4a182.90527,182.90527 0 0 1 -15.2,-19.8q-0.94415,-1.50448 -1.85,-3.1m183.65,-63.65q0.40842,-2.27619 0.8,-4.6l-24.5,24.5q-0.60937,2.57011 -1.25,5.05q-1.93515,7.50119 -4.2,14.2l26.7,-26.7q1.30115,-6.04647 2.45,-12.45m-48.7,-71.3a48.57933,48.57933 0 0 0 7.4,14.25a42.06672,42.06672 0 0 0 9.25,9.05l16.45,-16.4q-10.58551,-9.03066 -13.75,-26.25l-19.35,19.35m-105.8,-23.2q10.99458,-1.5504 21.3,-2.35l20.75,-20.7q-9.75083,0.0297 -19.5,0.45l-22.55,22.6m-52.5,71.45q-0.91754,-8.34645 -1.65,-17.35l-18.3,18.35q1.12112,8.55038 2.45,16.55l17.5,-17.55z" class="cls-26"/>
   </g>
   <g id="Layer0_18_FILL">
    <path id="svg_37" d="m255.02654,319.5371a20.74514,20.74514 0 0 0 -8.85,4.6a20.35965,20.35965 0 0 0 -5.05,6.45l4.25,8.4a16.80582,16.80582 0 0 0 3.85,-1.05a17.77947,17.77947 0 0 0 5.9,-3.65l-0.1,-14.75z" class="cls-27"/>
   </g>
   <g id="Layer0_19_MEMBER_0_FILL">
    <path id="svg_38" d="m278.23071,299.86741a28.11737,28.11737 0 1 0 19.87742,8.21977a27.18159,27.18159 0 0 0 -19.87742,-8.21977m-19.43986,23.72169a6.05,6.05 0 0 1 4.438,-1.844a6.29632,6.29632 0 0 1 6.25076,6.25077a6.25076,6.25076 0 1 1 -10.68879,-4.40678l0.00003,0.00001z" class="cls-16"/>
   </g>
   <g id="Layer0_19_MEMBER_1_FILL">
    <path id="svg_39" d="m300.81181,315.82373l0,24.29947l18.75111,0l4.85989,-4.85989l4.85989,4.85989l6.88484,0l5.66988,-5.66987l5.66988,5.66987l0.81,0l5.66987,-5.66987l5.66988,5.66987l10.52977,0l12.14972,-12.14973l0,-12.14974l-81.52473,0z" class="cls-16"/>
   </g>
   <g id="Layer0_19_MEMBER_2_FILL">
    <path id="svg_40" d="m309.16308,321.97744l0,1.053l72.8984,0l0,-1.053l-72.8984,0m0,-3.5234l0,1.90344l72.8984,0l0,-1.90344l-72.8984,0z" class="cls-28"/>
   </g>
   <path d="m795.11754,567.31192a90.12857,90.12857 0 0 1 15.82288,-1.39612a86.05885,86.05885 0 0 1 15.55688,1.39612q-0.26595,9.63985 7.24665,10.67041q-1.36286,17.58471 -6.34912,25.52929a46.94123,46.94123 0 0 1 -8.70923,9.70649q-1.56235,1.3297 -4.22162,3.32409q-2.65933,2.02771 -3.65656,2.85877q-0.964,-0.83094 -3.65649,-2.85877q-2.62618,-1.99447 -4.18842,-3.32409a45.71043,45.71043 0 0 1 -8.70922,-9.70649q-4.98624,-7.94457 -6.34906,-25.52929q7.51248,-1.03051 7.21331,-10.67041z" class="cls-29" id="Layer0_20_1_STROKES"/>
   <path d="m12.77654,635.4371l870,0" class="cls-30" id="Layer0_21_1_STROKES"/>
   <g id="Layer0_22_MEMBER_0_FILL">
    <path id="svg_41" d="m33.32654,453.6871q-17.54993,0 -17.55,17.55l0,44.9q0,17.55 17.55,17.55l214.9,0q17.54993,0 17.55,-17.55l0,-44.9q0,-17.55 -17.55,-17.55l-214.9,0z" class="cls-31"/>
   </g>
   <g id="Layer0_22_MEMBER_1_FILL">
    <path id="svg_42" d="m63.97065,472.45905a13.36739,13.36739 0 0 0 -22.821,9.48118a13.3625,13.3625 0 0 0 13.39495,13.39492a13.36966,13.36966 0 0 0 9.426,-22.8761m12.73344,42.83068a21.37042,21.37042 0 0 0 -6.44938,-14.66277a22.07127,22.07127 0 0 0 -7.88264,-5.12645a14.6733,14.6733 0 0 1 -7.66213,2.03956a14.975,14.975 0 0 1 -7.77235,-2.03956a22.01186,22.01186 0 0 0 -7.88257,5.12645a21.1525,21.1525 0 0 0 -6.39433,14.66277l44.0434,0z" class="cls-17"/>
   </g>
   <g id="Layer0_22_MEMBER_2_FILL">
    <path id="svg_43" d="m91.57654,478.8371l0,10l160,0l0,-10l-160,0z" class="cls-17"/>
   </g>
   <g id="Layer0_22_MEMBER_3_FILL">
    <path id="svg_44" d="m91.63814,499.1371l0,10l131.75049,0l0,-10l-131.75049,0z" class="cls-17"/>
   </g>
   <g id="Layer0_23_FILL">
    <path id="svg_45" d="m251.42654,329.1371q6.14236,-3.37148 3.95,-8.6l-8.9,6.45l0.3,6.7q4.53264,0.35646 4.65,-4.55z" class="cls-27"/>
   </g>
   <g id="Layer0_24_MEMBER_0_FILL">
    <path id="svg_46" d="m639.72654,193.6871q-17.54992,0 -17.55,17.55l0,44.9q0,17.55 17.55,17.55l214.9,0q17.54993,0 17.55,-17.55l0,-44.9q0,-17.55 -17.55,-17.55l-214.9,0z" class="cls-31"/>
   </g>
   <g id="Layer0_24_MEMBER_1_FILL">
    <path id="svg_47" d="m668.47067,214.3091a13.36739,13.36739 0 0 0 -22.821,9.48119a13.36251,13.36251 0 0 0 13.39495,13.39492a13.36967,13.36967 0 0 0 9.426,-22.87611m12.73343,42.83069a21.37042,21.37042 0 0 0 -6.44938,-14.66278a22.07121,22.07121 0 0 0 -7.88263,-5.12644a14.67344,14.67344 0 0 1 -7.66213,2.03956a14.975,14.975 0 0 1 -7.77235,-2.03956a22.01183,22.01183 0 0 0 -7.88257,5.12644a21.15255,21.15255 0 0 0 -6.39434,14.66278l44.0434,0z" class="cls-17"/>
   </g>
   <g id="Layer0_24_MEMBER_2_FILL">
    <path id="svg_48" d="m696.07654,220.6871l0,10l160,0l0,-10l-160,0z" class="cls-17"/>
   </g>
   <g id="Layer0_24_MEMBER_3_FILL">
    <path id="svg_49" d="m696.07654,240.9871l0,10l100,0l0,-10l-100,0z" class="cls-17"/>
   </g>
   <g id="Layer0_24_MEMBER_4_FILL">
    <path id="svg_50" d="m789.32654,193.6871l-2.5,11.65l24.85,68.35l42.95,0q17.54993,0 17.55,-17.55l0,-31.3l-31.15,-31.15l-51.7,0z" class="cls-32"/>
   </g>
   <g id="Layer0_25_MEMBER_0_FILL">
    <path id="svg_51" d="m822.72654,65.8371q-1.0545,9.38322 -9.85,13.55l1.55,12.95l14.05,-6.85l-5.75,-19.65z" class="cls-33"/>
    <path id="svg_52" d="m812.87654,79.3871q8.79555,-4.16681 9.85,-13.55l-10.5,8.25l0.65,5.3z" class="cls-34"/>
   </g>
   <g id="Layer0_25_MEMBER_1_FILL">
    <path id="svg_53" d="m822.22654,48.6371l-19.55,0.4q-1.25,2.05 -1.8,7.7q-0.50007,5.3 -0.5,14.75q-0.0001,9.75 11.2,6.15q10.05,-4.4 12.95,-13.25l-2.3,-15.75z" class="cls-33"/>
   </g>
   <g id="Layer0_25_MEMBER_2_FILL">
    <path id="svg_54" d="m794.57654,40.7371a6.87808,6.87808 0 0 0 1,6q2.65,4.25 9.2,5.1a42.85334,42.85334 0 0 0 10.5,-0.35q4.2,0 5.45,4.65a75.3564,75.3564 0 0 1 2.7,10.3a0.14405,0.14405 0 0 1 0.05,0.1l0,0.05q0.15,0.8 0.75,0.9a0.96035,0.96035 0 0 0 1,-0.5q8.54992,-13.3 7.7,-21.1a5.24694,5.24694 0 0 0 -1.55,-3.8a4.15592,4.15592 0 0 0 -3.8,-1q-3.35,0.6 -3.6,0.6a14.502,14.502 0 0 1 -3.6,0.05q-3.64993,-0.2 -11.85,-3.05q-6.85,-2.4 -10.1,-1.55a5.21237,5.21237 0 0 0 -3.85,3.6z" class="cls-35"/>
   </g>
   <g id="Layer0_25_MEMBER_3_FILL">
    <path id="svg_55" d="m821.37654,59.7371a6.06989,6.06989 0 0 0 -2.25,2.65a2.79348,2.79348 0 0 0 -0.1,2.7a2.233,2.233 0 0 0 2.15,1.1a5.55419,5.55419 0 0 0 3.15,-1.1a6.76717,6.76717 0 0 0 2.3,-2.7a2.96453,2.96453 0 0 0 0.05,-2.65a2.233,2.233 0 0 0 -2.15,-1.1a5.55454,5.55454 0 0 0 -3.15,1.1z" class="cls-33"/>
   </g>
   <g id="Layer0_25_MEMBER_4_FILL">
    <path id="svg_56" d="m767.4628,288.63756l-0.7836,4.73719l-8.94006,4.23851l1.13975,-9.58118l8.58391,0.60548z" class="cls-33"/>
   </g>
   <g id="Layer0_25_MEMBER_5_FILL">
    <path id="svg_57" d="m813.73035,289.59925l-7.76469,2.74257l-2.20831,-7.551l8.1565,-2.8138l1.8165,7.62223z" class="cls-33"/>
   </g>
   <g id="Layer0_25_MEMBER_6_FILL">
    <path id="svg_58" d="m832.92654,178.3871l-28.5,-10.3l-31.2,24.5l-16.1,96.9l12.65,0l23.8,-86.25l39.35,-24.85z" class="cls-35"/>
   </g>
   <path d="m757.72654,285.9371l6.05,0l18.275,-80.175a20.22768,20.22768 0 0 1 2.225,-6.625a22.25641,22.25641 0 0 1 5.05,-5.25l27.25,-21.35m-52.8,113.4l6.85,0" class="cls-36" id="Layer0_25_MEMBER_7_1_STROKES"/>
   <g id="Layer0_25_MEMBER_8_FILL">
    <path id="svg_59" d="m757.63898,295.74182l7.94277,-3.45494a2.60234,2.60234 0 0 1 2.74257,1.24663l3.31246,5.73448l-5.02213,5.91255l-2.84943,-2.31516l-6.87423,8.477l-17.63083,0q-0.36313,-3.0055 4.55908,-4.2029a20.19276,20.19276 0 0 0 8.47706,-3.88235a16.85607,16.85607 0 0 0 5.34268,-7.51531z" class="cls-35"/>
   </g>
   <g id="Layer0_25_MEMBER_9_FILL">
    <path id="svg_60" d="m851.17654,165.7371q-1.1,-29.55 -6.4,-50.5q-5.40006,-21.2 -14.9,-33.25l-18.3,10.15l-3.4,73.6l43,0z" class="cls-37"/>
   </g>
   <g id="Layer0_25_MEMBER_10_FILL">
    <path id="svg_61" d="m773.67654,159.6371q-2.45,2.05 -3.1,10.7l2.15,0a18.791,18.791 0 0 1 2.2,-5a12.08024,12.08024 0 0 0 4.3,1.75q3.85,0.15 7.35,-3.7l6.35,-0.8l-0.75,-7.1l-4,0.6q-7.29992,-2.1 -14.5,3.55z" class="cls-33"/>
   </g>
   <g id="Layer0_25_MEMBER_11_FILL">
    <path id="svg_62" d="m863.67654,123.8871q-1.1,-1.5 -2.2,-2.95a349.04677,349.04677 0 0 0 -26.25,-31.1q-6.935,-2.66541 -11.55,4.25a18.70349,18.70349 0 0 0 -3.2,8.2a10.798,10.798 0 0 0 3.2,9q7.59988,8 9.9,10.75q4.60007,5.65 4.65,8.5q0.05,4 -13.95,11.05a177.57812,177.57812 0 0 1 -33.85,12.65l1.8,13q31.25007,-6.45 55.65,-17.35a0.04421,0.04421 0 0 1 0.05,-0.05q23.95,-12.4 15.75,-25.95z" class="cls-38"/>
   </g>
   <g id="Layer0_25_MEMBER_12_FILL">
    <path id="svg_63" d="m805.28894,292.34182l7.94277,-3.45493a2.60235,2.60235 0 0 1 2.74258,1.24662l3.31245,5.73449l-5.02213,5.91255l-2.84942,-2.31516l-6.87424,8.477l-17.63082,0q-0.36314,-3.00552 4.55907,-4.2029a20.19288,20.19288 0 0 0 8.47706,-3.88235a16.856,16.856 0 0 0 5.34268,-7.51532z" class="cls-35"/>
   </g>
   <g id="Layer0_25_MEMBER_13_FILL">
    <path id="svg_64" d="m851.97654,171.3371a26.68651,26.68651 0 0 0 -0.8,-6.3l-45.45,0l-36.9,8.3q-7.39993,1.9 -9.45,5.3q-2.00007,3.35 0.3,9.65l0.1,0.2l37.65,91.75l2.8,6.85l13.3,-4.45l-25.65,-88.45l41.05,0q10.65,-0.35 16.95,-6.9q6.1,-6.3 6.1,-15.95z" class="cls-39"/>
   </g>
   <g id="Layer0_25_MEMBER_14_FILL">
    <path id="svg_65" d="m759.57654,172.7871l0.5,1.9l39.45,-7l0,-1.75l-39.95,6.85z" class="cls-22"/>
    <path id="svg_66" d="m746.77654,125.2371l-2.7,0.75l13.7,50.65l2.55,-1l-0.25,-0.95l-0.5,-1.9l-12.8,-47.55z" class="cls-23"/>
   </g>
   <path d="m798.82654,283.6871l6.8,-2.35l-31.625,-91.65q-1.22488,-4 0.075,-5.7q1.35,-1.75 6.2,-2.35l42.1,-3.3q4.90008,-0.45 6.9,-4.25q1.30005,-2.45 2.2,-9.05m-25.85,116.3l6.85,-2.35" class="cls-36" id="Layer0_25_MEMBER_15_1_STROKES"/>
   <g id="Layer0_26_MEMBER_0_FILL">
    <path id="svg_67" d="m519.12654,391.6371a34.54558,34.54558 0 0 0 -5,-6.1q-1.529,-1.26953 -2.65,0q-0.87689,1.0935 4.65,8.15a8.45336,8.45336 0 0 0 -2.95,4.15a8.67846,8.67846 0 0 0 -0.45,5.2a4.61706,4.61706 0 0 0 2.25,3.15a11.1681,11.1681 0 0 0 3.45,1q1.85038,0.27951 3.3,0.65q0.67584,0.16563 1.25,0.3l3.5,-4.85q-4.04313,-6.96427 -7.35,-11.65z" class="cls-40"/>
   </g>
   <g id="Layer0_26_MEMBER_1_FILL">
    <path id="svg_68" d="m591.92654,396.2371l-5,-4.95q-7.55007,18.25 -25.85,39.75l-34.1,-30.05l-6.05,7.55l32.8,39.55a9.55691,9.55691 0 0 0 9.4,4.25q6.05007,-1.5 13.7,-7.7a122.01262,122.01262 0 0 0 15.1,-15l0,-33.4z" class="cls-41"/>
   </g>
   <g id="Layer0_26_MEMBER_2_FILL">
    <path id="svg_69" d="m639.5083,615.27452l8.94875,0l2.23525,9.73135l-8.94876,0l-2.23524,-9.73135z" class="cls-40"/>
   </g>
   <g id="Layer0_26_MEMBER_3_FILL">
    <path id="svg_70" d="m589.64897,615.27452l8.94875,0l0,9.73135l-8.94875,0l0,-9.73135z" class="cls-40"/>
   </g>
   <g id="Layer0_26_MEMBER_4_FILL">
    <path id="svg_71" d="m586.17654,616.7871l14.6,0l13.8,-146.25l-28.4,0l0,146.25z" class="cls-35"/>
   </g>
   <path d="m601.07654,613.6871l-14.9,0m7.6,0l6.65,-157.2" class="cls-36" id="Layer0_26_MEMBER_5_1_STROKES"/>
   <g id="Layer0_26_MEMBER_6_FILL">
    <path id="svg_72" d="m608.32654,525.3871l0.05,0.15l28.3,91.2l14.05,0q-16.55,-90.25 -16.35,-146.2l-35.45,0q2.1,17.30007 3.55,26.35a287.597,287.597 0 0 0 5.85,28.5z" class="cls-39"/>
   </g>
   <path d="m613.77654,443.6871l10,63.25l20,106.75l5.85,0m-13.9,0l8.05,0" class="cls-36" id="Layer0_26_MEMBER_7_1_STROKES"/>
   <g id="Layer0_26_MEMBER_8_FILL">
    <path id="svg_73" d="m634.37654,409.8871q-0.35,-12.99993 -4.45,-20.15q-4.2,-7.3 -12,-8.05l-20.45,0.5a9.09622,9.09622 0 0 0 -8.3,3.9q-2.85,4 -3,11.45l0,73l48.2,0l0,-60.65z" class="cls-19"/>
   </g>
   <g id="Layer0_26_MEMBER_9_MEMBER_0_FILL">
    <path id="svg_74" d="m569.70454,439.07556q-10.20094,0 -10.201,10.201l0,26.09828q0,10.201 10.201,10.201l124.9113,0q10.20095,0 10.201,-10.201l0,-26.0983q0,-10.201 -10.201,-10.201l-124.9113,0.00002z" class="cls-31"/>
   </g>
   <g id="Layer0_26_MEMBER_9_MEMBER_1_FILL">
    <path id="svg_75" d="m587.55524,450.00776a7.76982,7.76982 0 0 0 -13.26473,5.51095a7.767,7.767 0 0 0 7.78583,7.78582a7.77113,7.77113 0 0 0 5.4789,-13.29677m7.40133,24.8954a12.42161,12.42161 0 0 0 -3.74871,-8.52276a12.82889,12.82889 0 0 0 -4.5818,-2.97975a8.52893,8.52893 0 0 1 -4.45362,1.1855a8.70427,8.70427 0 0 1 -4.51769,-1.1855a12.79451,12.79451 0 0 0 -4.58176,2.97975a12.29494,12.29494 0 0 0 -3.71671,8.52276l25.60029,0z" class="cls-17"/>
   </g>
   <g id="Layer0_26_MEMBER_9_MEMBER_2_FILL">
    <path id="svg_76" d="m603.59127,453.7131l0,5.81253l93.00049,0l0,-5.81253l-93.00049,0z" class="cls-17"/>
   </g>
   <g id="Layer0_26_MEMBER_9_MEMBER_3_FILL">
    <path id="svg_77" d="m603.62093,465.51315l0,5.81253l76.57961,0l0,-5.81253l-76.57961,0z" class="cls-17"/>
   </g>
   <g id="Layer0_26_MEMBER_10_FILL">
    <path id="svg_78" d="m638.47654,471.7371a26.99569,26.99569 0 0 1 -1.75,3.05q-0.99993,1.44993 -2.85,3.95q-0.9,1.2 -5.35,7.1a4.56283,4.56283 0 0 0 -1.05,2.25a2.05513,2.05513 0 0 0 0.95,1.45a2.82817,2.82817 0 0 0 2,0.5a21.71712,21.71712 0 0 0 3.15,-0.55q1.95008,-0.5 4.25,-0.9a6.52509,6.52509 0 0 0 3.5,-1.45a8.20343,8.20343 0 0 0 2.3,-4.85a27.78648,27.78648 0 0 0 -0.05,-8.95l-5.1,-1.6z" class="cls-40"/>
   </g>
   <g id="Layer0_26_MEMBER_11_FILL">
    <path id="svg_79" d="m657.62654,423.4371a24.88534,24.88534 0 0 0 -3.6,-8.2a42.02484,42.02484 0 0 0 -7.45,-8.95l-16.9,-16.85a13.33211,13.33211 0 0 0 -8.35,-2.2a15.81088,15.81088 0 0 0 -8.5,2.45q-3.94995,2.5 -4.1,6.4q-0.2,4.55 4.9,9.8q12.35,7.35 15.85,10.3a20.503,20.503 0 0 1 7.25,10.85q1.79992,7.2 1.3,19.7q-0.4,7.8 -2.25,26.8l9.45,3q16.25008,-36.6 12.4,-53.1z" class="cls-41"/>
   </g>
   <g id="Layer0_26_MEMBER_12_MEMBER_0_FILL">
    <path id="svg_80" d="m611.10566,343.01101l0,25.75737q-2.31853,7.40772 -15.17544,9.86741l-8.77853,-12.18115a128.70534,128.70534 0 0 1 1.463,-19.22445q0.7252,-3.99042 3.26649,-4.21918l19.22448,0z" class="cls-40"/>
   </g>
   <g id="Layer0_26_MEMBER_12_MEMBER_1_FILL">
    <path id="svg_81" d="m610.56121,368.97252l0,11.60274a5.55612,5.55612 0 0 1 -2.00747,4.015a9.30693,9.30693 0 0 1 -4.2532,2.38179a13.69843,13.69843 0 0 1 -3.947,0.40831q-5.00441,-0.294 -5.30794,-4.83164l0,-9.39107l15.51561,-4.18513z" class="cls-40"/>
   </g>
   <g id="Layer0_26_MEMBER_12_MEMBER_2_FILL">
    <path id="svg_82" d="m611.02654,336.6371q-3.1,-1.95 -8.75,-0.7a33.8373,33.8373 0 0 1 -7.9,0.95a21.26924,21.26924 0 0 1 -8.05,-1.6a1.46082,1.46082 0 0 0 -1.95,0.7q-1.05,1.45005 -0.5,4.9a3.81947,3.81947 0 0 0 1.3,2.55a7.84751,7.84751 0 0 0 4.1,0.95l8.75,0q3,0.1 3.25,2.45l0,16.6a5.4676,5.4676 0 0 1 -2.6,3.55a3.89414,3.89414 0 0 1 -4.65,-1.25a6.72578,6.72578 0 0 0 -7.4,-2.3l0,13.6q0,5.05 5,3.8l11.05,-3.3a3.65956,3.65956 0 0 0 2.7,-3.35l0,-20.3q0.2,-3 2.7,-3q2.4,0.1 2.5,2.85l0,15.3q1.60007,0.5 1.7,-3.35a39.26353,39.26353 0 0 1 0.4,-5.75q0.05,-0.75 1.35,-8.7a33.79881,33.79881 0 0 0 0.2,-9.7a7.24245,7.24245 0 0 0 -3.2,-4.9z" class="cls-35"/>
   </g>
   <g id="Layer0_26_MEMBER_13_FILL">
    <path id="svg_83" d="m624.32654,630.1871a5.22776,5.22776 0 0 0 -4.55,4.25l33,0l0,-6.8q-0.3,-3.7 -2.55,-4.65a18.06683,18.06683 0 0 1 -8.95,-0.05q-6.55005,5.80005 -16.95,7.25z" class="cls-42"/>
   </g>
   <g id="Layer0_26_MEMBER_14_FILL">
    <path id="svg_84" d="m598.57654,622.9871a18.06682,18.06682 0 0 1 -8.95,-0.05q-6.55,5.80005 -16.95,7.25a5.22782,5.22782 0 0 0 -4.55,4.25l33,0l0,-6.8q-0.3,-3.7 -2.55,-4.65z" class="cls-42"/>
   </g>
   <g id="Layer0_27_MEMBER_0_FILL">
    <path id="svg_85" d="m145.37654,340.3371l0,4.45l19.2,1.95l0.75,-5l-19.95,-1.4z" class="cls-27"/>
   </g>
   <g id="Layer0_27_MEMBER_1_FILL">
    <path id="svg_86" d="m239.62654,346.6871l8.05,-6.15l-5.95,-11.6l-8.65,4.15l6.55,13.6z" class="cls-43"/>
    <path id="svg_87" d="m233.07654,333.0871l-29.3,11.85l-28.4,4.9l7.95,30.8l32.7,-15.3l23.6,-18.65l-6.55,-13.6z" class="cls-44"/>
   </g>
   <g id="Layer0_27_MEMBER_2_FILL">
    <path id="svg_88" d="m108.92654,595.5871l1.3501,-8.3l-13.2001,-1.75l-1.1,10.05l12.95,0z" class="cls-27"/>
   </g>
   <g id="Layer0_27_MEMBER_3_FILL">
    <path id="svg_89" d="m181.12654,558.1871l1.35009,-8.3l-13.20009,-1.75l-1.1,10.05l12.95,0z" class="cls-27"/>
   </g>
   <g id="Layer0_27_MEMBER_4_FILL">
    <path id="svg_90" d="m169.67654,428.2371l0,-4.8l-63.9,0l-0.35,4.8a333.47719,333.47719 0 0 0 64.25,0z" class="cls-45"/>
    <path id="svg_91" d="m132.32654,453.0371l5.5,5.6l32.65,33.1l-1.6,57.4l13.75,3.25l11.2,-68.1l-24.15,-45.45l0,-10.6a333.47719,333.47719 0 0 1 -64.25,0l-8.55,158.3l13.65,2.2l13.25,-57.5l8.55,-78.2z" class="cls-14"/>
    <path id="svg_92" d="m137.82654,458.6371l-5.5,-5.6l-8.55,78.2l14,-72.2l0.05,-0.4z" class="cls-46"/>
   </g>
   <g id="Layer0_27_MEMBER_5_FILL">
    <path id="svg_93" d="m169.67654,423.4371l9.7,-41.95l-51.6,-8.45l-22,50l63.9,0.4z" class="cls-43"/>
   </g>
   <g id="Layer0_27_MEMBER_6_FILL">
    <path id="svg_94" d="m142.52654,343.5371l-14.75,11.9q-10.15,9.4 -18.25,27q-3.5,7.7 -10.15,26.7q-1.05,3.1 -1.95,6.1q-7.05,23.45 -13.75,26.1q2.05,3.4 18.1,5.95q16.05,2.5 46,4.1q5.6,-4.20008 8.95,-12.55a143.26114,143.26114 0 0 0 5,-17.3a159.477,159.477 0 0 1 5.9,-19.85a72.58,72.58 0 0 1 11.75,-20.2q8.06678,-18.941 0,-31.7l-11.5,-1l-1.4,-2.75l-23.95,-2.5z" class="cls-22"/>
   </g>
   <g id="Layer0_27_MEMBER_7_FILL">
    <path id="svg_95" d="m122.72654,595.9871l-11.15,-2.95l-17.35,0l-0.45,4.4q-0.162,2.4896 2.04993,2.6l32.15007,0q0.89724,-2.12668 -5.25,-4.05z" class="cls-16"/>
   </g>
   <g id="Layer0_27_MEMBER_8_FILL">
    <path id="svg_96" d="m194.92654,558.5871l-11.15,-2.95l-17.35,0l-0.45,4.4q-0.162,2.48958 2.04993,2.6l32.15007,0q0.89724,-2.12667 -5.25,-4.05z" class="cls-16"/>
   </g>
   <g id="Layer0_27_MEMBER_9_FILL">
    <path id="svg_97" d="m182.02654,326.0371a12.38011,12.38011 0 0 1 -0.35,-2.15a5.97806,5.97806 0 0 0 1.1,-0.85a2.59309,2.59309 0 0 0 0.9,-2.25a2.47571,2.47571 0 0 0 -1.45,-1.7a13.04238,13.04238 0 0 1 -5.85,-8.25a7.33856,7.33856 0 0 0 -5.1,-4.15q-12.2,-2.55 -21.1,-0.45l-2.2,35.45a96.22285,96.22285 0 0 0 23.15,0.75q7.55,-0.6 10.2,-2.35a3.36141,3.36141 0 0 0 1.7,-3.3a63.80956,63.80956 0 0 0 -1,-10.75z" class="cls-27"/>
   </g>
   <g id="Layer0_27_MEMBER_10_FILL">
    <path id="svg_98" d="m167.77654,307.9371q4.55,0.75 6.4,-1.4q2.15,-4.1 -2.45,-7.15q-11.8,-5.55 -23.05,-2.45a19.05349,19.05349 0 0 0 -7.55,4.85a15.41651,15.41651 0 0 0 -3.95,8.4q-2.55,2 -2.65,7.2a20.50433,20.50433 0 0 0 2.95,10.65l7.55,13.45a51.22418,51.22418 0 0 0 12.75,-0.3q4.8,-0.8 7.15,-3.55a8.958,8.958 0 0 0 1.7,-3a3.79645,3.79645 0 0 0 -0.1,-3a3.72273,3.72273 0 0 0 -1.15,-1.15a7.404,7.404 0 0 1 -1.45,-1.1a6.8357,6.8357 0 0 1 -1.95,-3.35a4.55955,4.55955 0 0 1 0,-1.9a2.82167,2.82167 0 0 1 0.7,-1.45a2.96891,2.96891 0 0 1 3.5,-0.85a6.86016,6.86016 0 0 1 1.35,0.95a10.28852,10.28852 0 0 1 1.75,1.9q0.21231,0.29846 0.4,0.6l2.9,-1.95l-7.7,-10.15a2.72263,2.72263 0 0 1 -0.5,-3.45a3.35355,3.35355 0 0 1 3.4,-1.8z" class="cls-45"/>
   </g>
   <g id="Layer0_27_MEMBER_11_FILL">
    <path id="svg_99" d="m75.77654,599.9871l0,33.7l141.4,0l0,-71.4l-71,0l0,37.7l-70.4,0z" class="cls-39"/>
   </g>
   <g id="Layer0_27_MEMBER_12_FILL">
    <path id="svg_100" d="m258.37654,341.8871l-0.3,0.2a14.79987,14.79987 0 0 1 -3.35,1.4a5.6111,5.6111 0 0 1 -0.95,0.2a5.6111,5.6111 0 0 0 0.95,-0.2q-0.77439,-1.15489 -1.75,-2.9a16.99362,16.99362 0 0 0 -4.35,5.25q-1.226,2.225 -2.05,3.5l4,7l4.55,-2.45q-0.65763,-0.068 -1.35,-0.2q0.69237,0.132 1.35,0.2a10.70357,10.70357 0 0 0 8.65,-2.4l0.05,-0.05a6.96193,6.96193 0 0 0 2.15,-3.85a5.08782,5.08782 0 0 0 -1.05,-3.9a5.617,5.617 0 0 0 -3.2,-2.2a4.98694,4.98694 0 0 0 -3.35,0.4z" class="cls-27"/>
   </g>
   <path d="m254.72654,343.5121a15.86094,15.86094 0 0 0 3.35,-1.425l0.325,-0.175a4.827,4.827 0 0 1 3.325,-0.425a5.617,5.617 0 0 1 3.2,2.2a5.08782,5.08782 0 0 1 1.05,3.9a6.96193,6.96193 0 0 1 -2.15,3.85l-0.05,0.05a10.70357,10.70357 0 0 1 -8.65,2.4l-4.525,2.475l-4,-7.025q0.799,-1.275 2.025,-3.5a16.83494,16.83494 0 0 1 4.375,-5.25q0.95058,1.7451 1.725,2.925a7.60567,7.60567 0 0 1 -0.95,0.175m0,10q0.69237,0.132 1.35,0.2" class="cls-47" id="Layer0_27_MEMBER_12_1_STROKES"/>
   <g id="Layer0_27_MEMBER_13_FILL">
    <path id="svg_101" d="m244.02654,363.4371l-6.75,-14.1l-23.9,7.15l-34,-6.7l0,31.75l38.2,-1.75l26.45,-16.35z" class="cls-22"/>
    <path id="svg_102" d="m244.02654,363.4371l8.35,-5.6l-6,-11.2l-9.1,2.7l6.75,14.1z" class="cls-43"/>
   </g>
  </g>
 </g>
</svg>