<?xml version="1.0" encoding="utf-8"?>
<!-- Generator: Adobe Illustrator 23.0.3, SVG Export Plug-In . SVG Version: 6.00 Build 0)  -->
<svg version="1.1" id="Layer_1" xmlns="http://www.w3.org/2000/svg" xmlns:xlink="http://www.w3.org/1999/xlink" x="0px" y="0px"
	 viewBox="0 0 2000 2000" style="enable-background:new 0 0 2000 2000;" xml:space="preserve">
<style type="text/css">
	.st0{fill:#F2F2F2;}
	.st1{fill:#BFBFE7;}
	.st2{fill:#D4D4FF;}
	.st3{fill:#7F80CF;}
	.st4{fill:#3F40B7;}
	.st5{opacity:0.1;}
	.st6{fill:#FADD8A;}
	.st7{fill:#FFC107;}
	.st8{fill:#FFFFFF;}
	.st9{fill:#B2B2D6;}
	.st10{fill:#2A2B7A;}
	.st11{opacity:0.65;}
	.st12{clip-path:url(#SVGID_2_);}
	.st13{fill:#32378E;}
	.st14{fill:#D39807;}
	.st15{fill:url(#SVGID_3_);}
	.st16{fill:#F8CC4F;}
	.st17{clip-path:url(#SVGID_5_);}
	.st18{fill:url(#SVGID_6_);}
	.st19{opacity:0.07;}
	.st20{opacity:0.04;}
	.st21{fill:#CECEF4;}
	.st22{fill:#15153D;}
	.st23{fill:#291D88;}
	.st24{fill:#ECD3BE;}
	.st25{fill:#0054B0;}
	.st26{fill:#FEFEFE;}
	.st27{fill:#FAF1F3;}
	.st28{fill:#4C52D6;}
	.st29{fill:#FFDF97;}
	.st30{fill:#242424;}
	.st31{fill:#DDA519;}
	.st32{fill:#3A3FA3;}
	.st33{fill:#F8F7F2;}
</style>
<g>
	<path class="st0" d="M663.61,1289.79c-259.53,67.64-365.5,94.99-62.51,105.93c255.24,9.22,395.5-10.28,324.86,20.84
		c-70.64,31.12,52.39,61.2,202.82,14.71s361.01-60.48,475.87-79.56c114.86-19.08,77.89-88.52-114.86-95.32
		S663.61,1289.79,663.61,1289.79z"/>
	<path class="st0" d="M647.14,613.65c-306.31,180.44-197.7,815.7,115.12,501.37s658.02,64.26,828.71-63.89
		S1207.85,283.34,647.14,613.65z"/>
	<g>
		<path class="st8" d="M653.53,743.57v62.49c0,5.32-3.19,10.11-7.84,12.23c-1.73,0.8-3.46,1.2-5.45,1.2h-82.17
			c-7.45,0-13.43-6.12-13.43-13.43v-62.49c0-0.93,0.13-1.73,0.4-2.53c0.13-0.93,0.53-1.86,0.93-2.79c0.27-0.67,0.66-1.2,1.06-1.86
			c0.53-0.66,1.06-1.33,1.73-1.86c0.53-0.66,1.2-1.2,1.86-1.6c0.53-0.4,1.06-0.66,1.6-0.8c0.93-0.53,1.73-0.8,2.79-1.06
			c0.93-0.27,1.99-0.4,3.06-0.4h82.17C647.41,730.67,653.26,736.52,653.53,743.57z"/>
		<path class="st4" d="M653.53,743.55c-0.29,7.04-6.12,12.76-13.28,12.76h-82.17c-4.27,0-8.08-1.96-10.51-5.02
			c-1.73-2.14-2.83-4.79-2.94-7.74c0-0.92,0.12-1.73,0.4-2.48c0.12-0.92,0.52-1.91,0.92-2.83c0.29-0.64,0.69-1.15,1.04-1.85
			c0.58-0.64,1.1-1.33,1.73-1.85c0.58-0.69,1.21-1.21,1.91-1.62c0.52-0.4,1.04-0.64,1.56-0.81c0.92-0.52,1.73-0.75,2.83-1.04
			c0.92-0.29,1.96-0.4,3.06-0.4h82.17C647.41,730.67,653.24,736.5,653.53,743.55z"/>
		<g>
			<path class="st1" d="M586.51,784.39c-0.4-0.13-0.66-0.13-1.06-0.27v-0.13c0.8-0.27,1.46-0.67,2.13-1.06
				c3.06-1.73,4.52-4.39,4.52-7.45c0-1.2-0.27-2.39-0.8-3.46c-1.2-2.93-4.39-5.19-9.57-5.19c-3.99,0-7.58,1.33-9.57,2.79l1.33,3.59
				c1.6-1.2,4.39-2.39,7.31-2.39c4.52,0,6.38,2.53,6.38,5.45c0,4.26-4.52,6.12-8.11,6.12h-2.79v3.72h2.79
				c1.73,0,3.46,0.27,5.05,0.93c2.39,1.06,4.25,3.06,4.25,6.25c0.13,3.06-1.86,7.05-8.11,7.05c-3.46,0-6.65-1.33-8.11-2.26
				l-1.33,3.86c1.73,1.2,5.32,2.39,9.44,2.39c8.78,0,13.3-5.05,13.3-10.9C593.56,788.78,590.37,785.59,586.51,784.39z"/>
			<path class="st1" d="M610.85,767.37l-7.84,4.25l0.93,3.86l6.25-3.46h0.13v31.78h4.79v-36.43H610.85z"/>
		</g>
		<path class="st1" d="M572.29,727.48v6.38c0,2.13-1.73,3.86-3.86,3.86c-2.13,0-3.86-1.73-3.86-3.86v-6.38
			c0-2.13,1.73-3.86,3.86-3.86C570.56,723.62,572.29,725.35,572.29,727.48z"/>
		<path class="st1" d="M632.25,727.48v6.38c0,2.13-1.73,3.86-3.86,3.86c-0.4,0-0.8-0.13-1.2-0.27c-1.6-0.4-2.66-1.86-2.66-3.59
			v-6.38c0-2.13,1.73-3.86,3.86-3.86C630.52,723.62,632.25,725.35,632.25,727.48z"/>
	</g>
	<g>
		<g>
			<path class="st2" d="M1579.99,980.07c0.28,9.87-4.59,20.63-15.55,30.25c-22.77,19.93,30.58,23.74,23.55,59.27
				c-7,35.28-21.52,44.27-13.17,63.78c8.35,19.51,42.63,26.14,31.18,137.36c4.38,10.29-25.16,23.05-29.66,12.61
				c-59.22-41.06-97.04-77.45-76.78-105.67c12.1-16.88,10.39-30.52,2.96-45.14c-4.69-9.81-12.05-20.02-19.38-31.91
				c-18.42-29.86,12.52-46.1,28.44-64.92c15.92-18.82-28.39-48.76-4.43-66.37c23.84-17.74,36.68-30.54,56.51-16.84
				C1573.82,959.49,1579.79,969.43,1579.99,980.07z"/>
			<g>
				<path class="st8" d="M1596.05,1288.42c-1.77,0.76-3.87,0.13-4.92-1.55c-4.25-6.88-103.68-169.9-54.55-294.56
					c0.8-2.03,3.09-3.03,5.13-2.23c2.03,0.8,3.03,3.09,2.23,5.13c-47.67,120.96,52.9,285.85,53.92,287.5
					c1.15,1.86,0.58,4.3-1.29,5.44C1596.4,1288.26,1596.23,1288.35,1596.05,1288.42z"/>
			</g>
		</g>
		<g>
			<path class="st1" d="M1791.26,1023.15c-2.72,9.88-8.21,22.02-15.36,35.47c-22.24,41.68-38.43,7.71-28.36,28.55
				c10.09,20.98-52.88,12.04-55.4,30.62c-2.51,18.72,48.17,24.39,43.14,61.69c-4.89,37.28-82.11,21.44-134.92,65.88
				c-13.3,10.57-20.57,7.68-24.21-3.25c0,0-9.69-45.82,7.9-85.84c15.06-34.46-11.84-61.77-14.86-92.17
				c-0.46-5.07-0.35-10.07,0.69-15.32c12.71-61.48,50.35,38.26,69.33,21.76c18.99-16.36-34.38-49.7-22.45-76.59
				c11.93-26.89,32.08,4.26,72.39-21.68c40.3-25.94,35.92-69.05,63.72-76.48c27.8-7.43-22.56,68.45-4.02,55.33
				c18.54-13.12,18.96,9.27,8.41,29.07c-10.42,19.79-31.36,34.86,7.32,21.02C1790.77,991.9,1796.99,1002.39,1791.26,1023.15z"/>
			<path class="st26" d="M1593.82,1077.66c2.16-0.26,5.23,0.5,7.94,5.59c3.31,6.28,5.78,12.97,7.32,19.9
				c0.46,2.04,0.83,4.1,1.21,6.15c0.87,4.78,1.7,9.29,3.48,13.48c3.24,7.6,10.21,14.77,17.95,18.8c3.84-2.65,7.75-5.39,11.22-8.44
				c12.44-10.95,21.39-27.88,25.88-48.96c1.58-7.41,2.58-14.99,3.29-22.59c-4.06-2.13-8.43-4.6-11.6-8.58
				c-4.37-5.51-5.35-12.39-6.29-19.05c-0.23-1.56-0.44-3.11-0.71-4.64c-1.12-6.48-3.21-12.75-6.2-18.63
				c-1.18-2.34-3.19-4.88-4.98-4.5c-1.37,0.33-2.79-0.54-3.1-1.93c-0.32-1.39,0.54-2.78,1.93-3.1c4.05-0.95,7.96,1.68,10.76,7.19
				c3.22,6.34,5.46,13.1,6.67,20.08c0.28,1.58,0.51,3.19,0.73,4.81c0.89,6.25,1.72,12.15,5.23,16.56c2.06,2.59,5.01,4.52,7.99,6.18
				c0.43-5.54,0.79-11.06,1.1-16.52c0.24-4.19,0.48-8.39,0.77-12.57c0.44-6.4,1.04-12.62,3.47-18.37
				c5.15-12.19,16.91-19.33,29.53-26.15c1.26-0.67,2.82-0.21,3.51,1.04c0.67,1.26,0.21,2.82-1.04,3.51
				c-11.78,6.37-22.73,12.97-27.24,23.62c-2.12,5.02-2.65,10.54-3.07,16.71c-0.29,4.16-0.52,8.33-0.76,12.51
				c-0.55,9.51-1.17,19.23-2.32,28.9c6.23-0.11,10.59-1.6,14.29-5.13c2.92-2.78,5.2-6.16,7.62-9.73l1.67-2.45
				c2.98-4.3,6.72-9.09,11.85-12.03c4.41-2.51,9.68-3.65,16.13-3.48c1.78,0.05,3.72,0.45,5.77,0.84c2.79,0.57,5.99,1.2,7.83,0.59
				c1.36-0.44,2.81,0.29,3.26,1.65c0.44,1.36-0.29,2.81-1.65,3.26c-3.13,1.03-6.85,0.28-10.46-0.43c-1.83-0.37-3.57-0.71-4.9-0.74
				c-5.49-0.14-9.88,0.77-13.43,2.8c-4.23,2.42-7.39,6.47-10.17,10.48l-1.64,2.4c-2.46,3.64-5.01,7.41-8.33,10.58
				c-5.88,5.59-12.49,6.68-18.48,6.65c-0.55,3.8-1.2,7.58-2,11.34c-4.73,22.17-14.24,40.06-27.53,51.75
				c-4,3.52-8.42,6.58-12.71,9.53c-0.23,0.21-0.43,0.39-0.72,0.5c-6.58,4.54-12.78,8.9-17.47,14.84c-1.54,1.95-2.85,4.09-4.07,6.29
				c4.7,0.02,9.26,1.12,13.67,2.26l2.8,0.71c12.11,2.99,29.92,5.08,46.16-1.9c2.18-0.93,4.32-2.02,6.46-3.11
				c5.5-2.8,11.2-5.7,17.66-6.16c1.46-0.08,2.66,0.98,2.76,2.39c0.1,1.43-0.96,2.66-2.39,2.76c-5.42,0.39-10.41,2.93-15.69,5.61
				c-2.24,1.13-4.48,2.27-6.76,3.25c-12.96,5.57-26.72,5.83-38.21,4.3c-4.07-0.54-7.86-1.31-11.23-2.14l-2.85-0.72
				c-5.09-1.32-9.88-2.55-14.69-2.06c-0.12,0.02-0.22-0.03-0.34-0.03c-1.22,2.65-2.37,5.33-3.47,8l-11.1,26.95
				c-2.51,6.09-5.12,12.4-6.52,18.87c-3.41,15.8,0.51,32.82,10.51,45.52c0.88,1.12,0.69,2.75-0.43,3.63
				c-0.57,0.45-1.27,0.62-1.94,0.53c-0.65-0.09-1.26-0.41-1.69-0.96c-10.94-13.89-15.23-32.51-11.5-49.81
				c1.5-6.92,4.19-13.44,6.8-19.75l11.1-26.94c2.92-7.1,5.95-14.43,10.9-20.7c4.37-5.54,9.91-9.81,15.55-13.77
				c-7.84-4.74-14.51-12.13-17.92-20.12c-2.02-4.73-2.93-9.74-3.82-14.58c-0.36-2-0.73-3.99-1.17-5.97
				c-1.44-6.48-3.75-12.74-6.85-18.6c-1.18-2.23-2.19-2.95-2.73-2.87c-1.41,0.17-2.7-0.83-2.89-2.25
				C1591.4,1079.13,1592.4,1077.84,1593.82,1077.66z"/>
		</g>
		<g>
			<path class="st2" d="M1734.18,1158.93c-4.38,3.98-11.19,5.97-19.85,4.74c-17.97-2.58,1.14,23.19-17.78,33.88
				c-18.79,10.6-28.56,7.5-34.18,18.92c-5.62,11.42,4.76,29.62-50.35,67.86c-2.97,6.01-20.32-2.45-17.33-8.57
				c-4.45-43-2.66-74.44,18.1-76.24c12.41-1.09,17.96-7.19,21.71-16.29c2.63-5.97,4.4-13.31,6.95-21.29
				c6.4-20.05,25.88-12.32,40.67-12.42c14.79-0.1,11.11-31.97,28.48-27.95c17.39,3.92,28.23,4.77,29.75,19.14
				C1741.14,1148.08,1738.95,1154.68,1734.18,1158.93z"/>
			<g>
				<path class="st8" d="M1600.08,1286.72c-1.04-0.51-1.57-1.71-1.21-2.84c1.47-4.62,36.83-113.58,112.78-139.93
					c1.24-0.43,2.59,0.23,3.02,1.46c0.43,1.24-0.23,2.59-1.46,3.02c-73.69,25.56-109.46,135.77-109.81,136.88
					c-0.4,1.25-1.73,1.94-2.98,1.54C1600.29,1286.81,1600.18,1286.77,1600.08,1286.72z"/>
			</g>
		</g>
	</g>
	<g>
		<path class="st4" d="M1581.6,1286.05c0,13.66-10.47,23.99-25.91,23.99h-496.84c-15.44,0-30.25-10.98-34.46-24.89
			c0-0.26-0.26-0.26-0.26-0.38c-0.64-0.89-1.02-2.17-1.28-3.45l-4.98-26.16l-2.94-15.7l-6.25-32.16l-3.19-18v-0.13l-0.38-1.15
			l-5.36-29.99l-0.64-3.45l-1.15-5.74l-0.26-0.64v-0.26l-2.55-13.91l-1.02-6v-0.26l-0.89-5.1l-0.89-4.59v-0.38l-6.13-32.42
			l-1.28-6.64l-21.31-113.33c-0.38-2.17-0.64-4.08-0.64-6.25c0-0.51,0-0.64,0.26-1.15c1.02-12.63,11.36-21.57,25.27-21.57h349.56
			c0.38,0,0.38,0,0.64,0h147.02c12.51,0,24.63,7.27,31.14,17.61c2.3,3.32,4.08,7.27,4.72,11.36l0.64,2.55l1.28,7.53l4.72,24.38
			l0.89,4.98l0.64,3.83l0.38,1.91l9.44,50.67l2.04,10.59l17.23,91.63l1.53,7.27l20.8,110.65
			C1581.35,1282.99,1581.6,1284.52,1581.6,1286.05z"/>
	</g>
	<path class="st8" d="M1507.65,978.57l-1.5,5.36l-9.22,32.38l-52.1,181.18l-30.23,105.71c-0.64,2.36-1.72,4.72-2.79,6.86
		c-7.08,12.65-21.87,22.51-36.24,22.51H878.35c-3.86,0-7.5-0.64-10.51-2.14c-10.08-4.29-15.01-15.01-11.58-27.23L888,1192.98
		l9.86-34.09l29.59-102.92l22.3-77.4c2.14-7.29,6.86-14.37,13.29-19.51c0.21-0.21,0.21-0.21,0.43-0.43c7.29-6,16.29-9.65,25.09-9.65
		h497.22c7.93,0,14.37,2.79,18.22,7.72C1508.72,962.06,1510.22,969.99,1507.65,978.57z"/>
	<path class="st16" d="M1338.76,1123.19h73.58c7.73,0,15.74-6.05,17.88-13.52l20.44-71.07c2.15-7.47-2.38-13.52-10.11-13.52h-73.58
		c-7.73,0-15.74,6.05-17.88,13.52l-20.44,71.07C1326.5,1117.14,1331.03,1123.19,1338.76,1123.19z"/>
	<path class="st1" d="M1209.5,1123.19h73.58c7.73,0,15.74-6.05,17.88-13.52l20.44-71.07c2.15-7.47-2.38-13.52-10.11-13.52h-73.58
		c-7.73,0-15.74,6.05-17.88,13.52l-20.44,71.07C1197.24,1117.14,1201.77,1123.19,1209.5,1123.19z"/>
	<path class="st1" d="M1080.24,1123.19h73.58c7.73,0,15.74-6.05,17.88-13.52l20.44-71.07c2.15-7.47-2.38-13.52-10.11-13.52h-73.58
		c-7.73,0-15.74,6.05-17.88,13.52l-20.44,71.07C1067.99,1117.14,1072.51,1123.19,1080.24,1123.19z"/>
	<path class="st1" d="M950.98,1123.19h73.58c7.73,0,15.74-6.05,17.88-13.52l20.44-71.07c2.15-7.47-2.38-13.52-10.11-13.52H979.2
		c-7.73,0-15.74,6.05-17.88,13.52l-20.44,71.07C938.73,1117.14,943.25,1123.19,950.98,1123.19z"/>
	<g>
		<path class="st16" d="M1092.84,933.6c0,0.95-0.32,1.9-0.63,2.85h-14.57c-0.32-0.95-0.63-1.9-0.63-2.85
			c0-12.35-10.13-22.48-22.48-22.48s-22.48,10.13-22.48,22.48v15.52c0,12.35,10.13,22.48,22.48,22.48c4.43,0,7.92,3.48,7.92,7.92
			c0,4.43-3.48,7.92-7.92,7.92c-21.22,0-38.32-17.1-38.32-38.32V933.6c0-20.9,17.1-38.32,38.32-38.32
			C1075.42,895.28,1092.84,912.7,1092.84,933.6z"/>
	</g>
	<g>
		<path class="st16" d="M1246.16,933.57c0,1.01-0.34,1.93-0.67,2.86h-14.55c-0.34-0.92-0.59-1.85-0.59-2.86
			c0-11.6-9-21.28-20.43-22.37c-0.67-0.08-1.35-0.08-2.1-0.08c-12.36,0-22.45,10.09-22.45,22.45v15.56
			c0,12.28,9.92,22.28,22.12,22.45h0.34c4.46,0,7.9,3.53,7.9,7.9c0,4.46-3.45,7.99-7.9,7.99c-1.6,0-3.2-0.08-4.79-0.25
			c-18.92-2.35-33.47-18.5-33.47-38.09v-15.56c0-19.93,15.64-36.75,35.49-38.18c0.93-0.08,1.85-0.08,2.78-0.08
			C1228.75,895.31,1246.16,912.72,1246.16,933.57z"/>
	</g>
	<g>
		<path class="st16" d="M1399.37,933.54c0,1.07-0.21,1.93-0.43,2.79h-14.79c-0.21-0.86-0.43-1.72-0.43-2.79
			c0-9.01-5.36-16.72-13.08-20.37c-2.79-1.29-6-2.14-9.43-2.14c-12.44,0-22.51,10.08-22.51,22.51v17.8
			c0.43,3.86,1.93,7.72,4.07,10.72c4.07,5.79,10.94,9.43,18.44,9.43c4.29,0,7.93,3.64,7.93,7.93c0,4.5-3.64,8.15-7.93,8.15
			c-16.08,0-29.8-9.86-35.59-23.8c-0.43-1.29-0.64-2.36-1.07-3.43c-1.07-3.64-1.72-7.29-1.72-11.15v-15.65
			c0-20.8,17.15-38.17,38.38-38.17c9.65,0,18.65,3.65,25.52,9.86C1394.44,912.32,1399.37,922.39,1399.37,933.54z"/>
	</g>
	<g>
		<path class="st27" d="M1376.48,1107.13c-0.15,0-0.32-0.01-0.48-0.02c-1.83-0.15-3.5-1.12-4.53-2.65l-12.64-18.77
			c-1.86-2.77-1.12-6.52,1.64-8.38c2.76-1.86,6.51-1.15,8.39,1.63l8.39,12.47l49.19-52.7c2.28-2.43,6.11-2.56,8.53-0.29
			c2.44,2.28,2.57,6.1,0.3,8.54l-54.37,58.25C1379.75,1106.44,1378.14,1107.13,1376.48,1107.13z"/>
	</g>
	<path class="st1" d="M1297.03,1249.59h73.58c7.73,0,15.74-6.05,17.88-13.52l20.44-71.07c2.15-7.47-2.38-13.52-10.11-13.52h-73.58
		c-7.73,0-15.74,6.05-17.88,13.52l-20.44,71.07C1284.78,1243.54,1289.3,1249.59,1297.03,1249.59z"/>
	<path class="st1" d="M1167.78,1249.59h73.58c7.73,0,15.74-6.05,17.88-13.52l20.44-71.07c2.15-7.47-2.38-13.52-10.11-13.52h-73.58
		c-7.73,0-15.74,6.05-17.88,13.52l-20.44,71.07C1155.52,1243.54,1160.05,1249.59,1167.78,1249.59z"/>
	<path class="st16" d="M1038.52,1249.59h73.58c7.73,0,15.74-6.05,17.88-13.52l20.44-71.07c2.15-7.47-2.38-13.52-10.11-13.52h-73.58
		c-7.73,0-15.74,6.05-17.88,13.52l-20.44,71.07C1026.26,1243.54,1030.79,1249.59,1038.52,1249.59z"/>
	<path class="st1" d="M909.26,1249.59h73.58c7.73,0,15.74-6.05,17.88-13.52l20.44-71.07c2.15-7.47-2.38-13.52-10.11-13.52h-73.58
		c-7.73,0-15.74,6.05-17.88,13.52l-20.44,71.07C897.01,1243.54,901.53,1249.59,909.26,1249.59z"/>
	<g>
		<path class="st27" d="M1071.97,1231.18c-0.15,0-0.32-0.01-0.48-0.02c-1.83-0.15-3.5-1.12-4.53-2.65l-12.64-18.77
			c-1.86-2.77-1.12-6.52,1.64-8.38c2.76-1.86,6.51-1.15,8.39,1.63l8.39,12.47l49.19-52.7c2.28-2.43,6.11-2.56,8.53-0.3
			c2.44,2.28,2.57,6.1,0.29,8.54l-54.37,58.25C1075.24,1230.49,1073.64,1231.18,1071.97,1231.18z"/>
	</g>
	<g>
		<g>
			<g>
				<path class="st28" d="M932.91,1138.79c9.8-4.25,14.15-15.41,10.16-25.26l-9.87-23.48c-4-9.86-15.22-14.46-25.01-10.21
					l-11.3,4.57l-8.61,3.72c-1.02-1.08-2.05-2.17-3.07-3.25c-3.18-3.75-6.8-7.14-10.62-10.23l8.26-19.61l0.14-0.55
					c3.82-10-0.7-21.05-10.5-25.18l-23.55-9.49c-6.37-2.79-22.88-0.47-34.92,4.27c-3.88,1.38-7.41,3.2-9.88,5.05
					c-1.33,1.08-2.61,2.41-3.28,4.12l14.71,16.92c-6.38-0.43-12.7-0.61-19.36,0.06l-1.52-3.33l-6.78-16.57
					c-3.83-9.11-32.98-9.51-44.85-6.38c-0.75,0.16-1.75,0.38-2.44,0.8l-1.01,4.93c-10.1,4.05-14.65,15.52-10.71,25.12l8.55,19.85
					c-5.09,4.26-9.56,8.9-13.73,13.75l-13.55-5.66l-6.32-2.54c-9.81-4.13-41.76,0.53-45.95,10.09l0.05,0.25l11.17,23.46
					c-4.07,10.06,0.45,21.1,10.5,25.18l19.92,8.45c-0.49,6.13-0.61,12.7,0.01,19.11l-19.9,8.3c-0.25,0.05-0.5,0.11-0.69,0.41
					c-9.3,4.14-13.71,15.05-9.77,24.66l-2.62,36.96c0.58,1.44,1.85,2.47,3.37,3.45l0.25-0.05c7.53,3.32,24.33-2.46,32.74-5.88
					c0.45-0.36,0.95-0.47,1.19-0.52l20.15-8.35c3.95,4.89,8.6,9.37,13.44,13.54l-8.2,19.86c-4.13,9.81,0.7,21.05,10.5,25.18
					l6.81,15.52c0.61,0.39,1.41,0.47,2.47,0.5l0.3,0.2c11.31,1.44,35.15-7.98,38.95-16.93l4.6-11.22l3.54-8.89
					c6.43,0.68,12.75,0.86,19.41,0.19l-7.04,33.48c0.16,0.75,0.52,1.19,1.19,1.83c6.39,6.45,30.06-1.37,39.17-5.2l23.54-9.62
					c9.8-4.24,14.4-15.46,10.16-25.26l-8.3-19.9c1.14-0.77,1.97-1.74,2.81-2.71c4-3.24,7.64-6.91,10.68-10.98l18.45,7.73l1.72,0.67
					c9.75,3.88,21.05-0.7,25.18-10.5l9.74-23.6c4.13-9.81-0.7-21.05-10.5-25.18l-20.11-8.15c0.43-6.38,0.61-12.7-0.01-19.11
					L932.91,1138.79z M837.21,1231.01c-8.66,3.47-17.35,5.64-26.17,6.01c-31.76,2-62.41-14.83-77.06-44.59
					c-0.58-1.44-1.46-3.08-2.04-4.53c-17.12-41,2.36-88.2,43.36-105.32c0.5-0.11,1.19-0.52,1.69-0.63
					c12.55-4.85,25.56-6.4,38.17-4.98c28.2,3.23,53.61,21.21,65.21,49.02C897.49,1166.99,877.96,1213.95,837.21,1231.01z"/>
				<path class="st29" d="M880.37,1125.99c-11.6-27.81-37.02-45.79-65.21-49.02c-12.61-1.42-25.62,0.13-38.17,4.98
					c-0.5,0.11-1.19,0.52-1.69,0.63c-41,17.12-60.48,64.32-43.36,105.32c0.58,1.44,1.46,3.08,2.04,4.53
					c14.65,29.76,45.31,46.59,77.06,44.59c8.82-0.36,17.5-2.53,26.17-6.01C877.96,1213.95,897.49,1166.99,880.37,1125.99z
					 M786.49,1109.7c5.02-2.15,10.27-3.3,15.43-3.65c21.58-1.86,42.76,9.98,51.64,31.33c10.67,25.93-1.61,55.84-27.79,66.57
					c-6.97,2.84-14.01,4.12-21.14,3.86c-16.3-0.34-31.76-8.73-41.04-22.4c-1.66-2.78-3.31-5.55-4.53-8.69
					c-10.5-25.18,0.5-53.77,24.34-65.55C784.35,1110.69,785.54,1110.17,786.49,1109.7z"/>
			</g>
		</g>
		<g>
			<g>
				<path class="st4" d="M908.44,1144.17c9.8-4.25,14.4-15.46,10.41-25.32l-9.87-23.48c-2.26-5.52-6.74-9.25-12.09-10.96
					c-3.63-1.04-7.85-1.16-11.68,0.47c-0.3-0.2-0.75,0.16-1.25,0.27l-19.9,8.3c-4.26-5.08-8.91-9.56-13.69-13.48l8.4-20.17
					c0.81-2.27,1.37-4.49,1.38-6.85c0.1-7.87-4.34-15.01-11.88-18.33l-23.55-9.49c-3.44-1.34-7.21-1.82-10.7-1.05
					c-3.8,0.57-7.08,2.34-9.88,5.05c-1.33,1.08-2.61,2.41-3.28,4.12c-0.64,0.66-0.97,1.52-1.31,2.38l-4.85,11.27l-3.6,8.64
					c-6.13-0.49-12.45-0.67-19.11,0.01l-8.3-19.9c-3.42-8.41-12.03-13.06-20.63-11.7c-0.75,0.16-1.75,0.38-2.44,0.8
					c-0.8-0.09-1.25,0.27-2,0.44l-23.48,9.87c-9.85,4-14.4,15.46-10.46,25.07l8.3,19.9c-0.89,0.72-1.97,1.74-2.81,2.71
					c-3.7,3.43-7.34,7.11-10.68,10.98l-20.11-8.15c-7.53-3.32-16.17-0.9-21.42,4.97c-1.47,1.63-2.64,3.46-3.51,5.48l-9.54,23.3
					c-4.07,10.06,0.45,21.1,10.5,25.18l19.92,8.45c-0.49,6.13-0.61,12.7,0.01,19.11l-1.94,0.69l-17.96,7.61
					c-9.85,4-14.46,15.22-10.46,25.07l9.87,23.48c2.48,6.52,8.63,10.67,15.11,11.6l0.25-0.05c3.27,0.59,6.57,0.13,9.71-1.08
					l19.9-8.3c1.08,1.33,2.1,2.42,3.12,3.5c3.38,3.45,7,6.84,10.57,9.98l-8.2,19.86c-4.13,9.81,0.45,21.1,10.5,25.18l23.35,9.79
					c3.44,1.34,6.9,1.63,10.15,0.91l0.3,0.2c6.3-1.12,11.94-5.24,14.48-11.56l8.4-20.17c6.43,0.68,12.76,0.86,19.16,0.24l1.52,3.33
					l6.73,16.32c2.1,4.78,5.78,8.42,10.37,10.29c4.65,2.12,9.92,2.27,14.95,0.12l23.54-9.62c9.8-4.24,14.15-15.41,10.16-25.27
					l-8.3-19.9c5.09-4.26,9.62-8.66,13.48-13.69l13.55,5.66l6.62,2.73c8.03,3.21,17.41,0.63,22.5-5.99c0.98-1.52,2-2.8,2.67-4.51
					l9.74-23.6c3.88-9.75-0.7-21.05-10.5-25.18l-20.11-8.15c0.43-6.38,0.61-12.7-0.01-19.11L908.44,1144.17z M707.72,1193.22
					c-0.74-2.19-1.74-4.33-2.43-6.27c-12.63-39.63,6.67-82.87,45.78-99.05c8.41-3.42,17.15-5.34,25.91-5.95
					c10.87-0.56,21.68,1,31.63,4.57c20.7,7.23,38.29,23,47.53,44.79c17.12,41-2.41,87.96-43.41,105.07
					c-0.5,0.11-1.19,0.52-1.69,0.63C770.57,1252.97,724.73,1233.72,707.72,1193.22z"/>
				<path class="st16" d="M856.15,1131.31c-9.24-21.79-26.83-37.56-47.53-44.79c-9.95-3.57-20.76-5.13-31.63-4.57
					c-8.76,0.62-17.5,2.54-25.91,5.95c-39.11,16.18-58.41,59.42-45.78,99.05c0.69,1.94,1.68,4.08,2.43,6.27
					c17.01,40.5,62.85,59.75,103.32,43.8c0.5-0.11,1.2-0.52,1.69-0.63C853.74,1219.26,873.27,1172.31,856.15,1131.31z
					 M801.55,1209.26c-22.29,9.34-47.51,1.79-61.05-16.96c-2.27-3.17-4.09-6.69-5.66-10.27c-11.03-26.37,1.25-56.29,27.43-67.01
					c6.97-2.84,14.01-4.13,21.14-3.86c5.77,0.04,11.56,1.39,17.02,3.59c12.52,4.58,23.03,14.31,28.66,28
					c10.45,24.93-0.61,53.27-24.46,65.05C803.68,1208.27,802.49,1208.79,801.55,1209.26z"/>
			</g>
		</g>
	</g>
	<g>
		<g>
			<g>
				<path class="st6" d="M848.02,897.95c-0.51,2.3-1.02,4.72-1.79,7.15c-2.81,9.83-7.02,20.93-12.63,32.29
					c-1.02,2.3-2.3,4.59-3.45,6.89c-2.3,4.85-4.98,9.7-7.91,14.42c-1.4,2.3-2.81,4.47-4.08,6.76c-3.06,4.85-6.25,9.57-9.57,14.04
					c-2.42,3.32-4.98,6.64-7.4,9.7c-6,7.15-12.25,13.66-18.51,19.02c-1.79,1.53-3.57,2.94-5.49,4.21c-1.66,1.28-3.32,2.42-4.98,3.45
					c-0.26,0.13-0.38,0.25-0.51,0.25c-1.79,1.15-3.7,2.17-5.49,3.06c-1.66,0.77-3.19,1.4-4.72,1.91c-1.66,0.77-3.32,1.28-4.98,1.53
					c-0.77,0.26-1.53,0.38-2.3,0.51c-1.53,0.25-2.94,0.38-4.34,0.51c-8.3,0.38-16.08-2.17-23.74-7.15
					c-1.91-1.28-3.96-2.68-5.87-4.34c-1.91-1.53-3.83-3.32-5.74-5.23c-9.57-9.32-18.89-22.08-27.95-37.14
					c-7.78-12.89-15.31-27.31-22.97-42.5v-0.13c7.02-2.3,13.15-5.11,18.51-8.17c0.89-0.38,1.79-0.89,2.68-1.53
					c3.7-2.3,7.02-4.72,9.95-7.27l47.48,64.32c9.32-21.95,18.63-43.9,28.46-62.79c10.72-20.67,21.82-37.78,34.33-47.48
					c12.38-9.57,25.91-12.12,34.84-6.25c5.36,3.57,8.93,9.7,9.7,19.27C850.19,882.89,849.81,889.78,848.02,897.95z"/>
				<path class="st3" d="M848.03,897.98c-0.57,2.29-1,4.58-1.86,7.15c-3.29,11.72-8.86,25.45-16.01,39.17
					c-15.15-4-35.46-12.87-59.48-32.6c10.72-20.59,21.87-37.74,34.31-47.47c12.44-9.58,25.88-12.15,34.89-6.29
					c5.29,3.57,8.87,9.72,9.72,19.3C850.18,882.82,849.75,889.69,848.03,897.98z"/>
			</g>
			<path class="st5" d="M848.02,897.95c-0.51,2.3-1.02,4.72-1.79,7.15c-2.81,9.83-7.02,20.93-12.63,32.29
				c-1.02,2.3-2.3,4.59-3.45,6.89c-2.3,4.85-4.98,9.7-7.91,14.42c-1.4,2.3-2.81,4.47-4.08,6.76c-3.06,4.85-6.25,9.57-9.57,14.04
				c-2.42,3.32-4.85,6.51-7.4,9.7c-6,7.15-12.25,13.66-18.51,19.02c-1.79,1.53-3.57,2.94-5.49,4.21c-1.66,1.28-3.32,2.42-4.98,3.45
				c-0.26,0.13-0.38,0.25-0.51,0.25c-1.79,1.15-3.7,2.17-5.49,3.06c-1.66,0.77-3.19,1.4-4.72,1.91c-1.66,0.77-3.32,1.28-4.98,1.53
				c-0.77,0.26-1.53,0.38-2.3,0.51c-1.53,0.25-2.94,0.38-4.34,0.51c-8.3,0.38-16.08-2.17-23.74-7.15c-1.91-1.28-3.96-2.68-5.87-4.34
				c-1.91-1.53-3.83-3.32-5.74-5.23c-9.57-9.32-18.89-22.08-27.95-37.14c-7.78-12.76-15.44-27.18-22.97-42.5v-0.13
				c7.02-2.3,13.15-5.11,18.51-8.17c1.91,2.04,3.83,4.08,5.62,6.13c5.36,6.13,10.34,12.51,14.04,19.78
				c5.23,10.08,7.91,21.31,12.76,31.78c3.7,7.91,8.93,15.44,15.95,20.16c2.3,1.4,4.72,2.68,7.27,3.57
				c11.1,3.32,23.48-0.89,32.29-8.3c2.17-2.04,4.34-4.21,6.25-6.51c5.49-6.51,9.57-14.17,13.27-21.82
				c4.6-10.08,8.68-20.42,12.12-31.01c1.28-4.21,2.55-8.55,3.7-12.89c1.79-6.38,3.06-13.02,6.76-18.63
				c2.42-3.83,5.62-7.02,8.81-10.08c5.23-4.98,10.59-10.21,17.36-12.63c4.34-1.66,7.91-1.91,11.23-1.28
				C850.19,882.89,849.81,889.78,848.02,897.95z"/>
			<path class="st5" d="M846.24,905.1c-2.81,9.83-7.02,20.93-12.63,32.29c-1.02,2.3-2.3,4.59-3.45,6.89
				c-2.3,4.85-4.98,9.7-7.91,14.42c-1.4,2.3-2.81,4.47-4.08,6.76c-3.06,4.85-6.25,9.57-9.57,14.04c-2.42,3.32-4.85,6.51-7.4,9.7
				c-6,7.15-12.25,13.66-18.51,19.02c-1.79,1.53-3.57,2.94-5.49,4.21c-1.66,1.28-3.32,2.42-4.98,3.45
				c-0.26,0.13-0.38,0.25-0.51,0.25c-1.79,1.15-3.7,2.17-5.49,3.06c-1.66,0.77-3.19,1.4-4.72,1.91c-1.66,0.77-3.32,1.28-4.98,1.53
				c-0.77,0.26-1.53,0.38-2.3,0.51c-1.53,0.25-2.94,0.38-4.34,0.51c-8.3,0.38-16.08-2.17-23.74-7.15c-1.91-1.28-3.96-2.68-5.87-4.34
				c-1.91-1.53-3.83-3.32-5.74-5.23c-9.57-9.32-18.89-22.08-27.95-37.14c-7.78-12.76-15.44-27.18-22.97-42.5v-0.13
				c7.02-2.3,13.15-5.11,18.51-8.17c0.89-0.38,1.79-0.89,2.68-1.53c1.02,2.42,2.04,4.98,2.94,7.66c0.89,2.81,1.66,5.74,2.17,8.68
				c1.15,6.25,1.28,12.63,2.68,18.89c1.15,4.34,2.68,8.55,4.59,12.76c4.72,10.34,10.72,20.42,19.14,27.95
				c1.91,1.53,3.83,3.06,6.13,3.7c2.55,0.64,5.36,0.26,8.04-0.25l0.77-0.13c6.64-1.53,13.27-2.81,19.78-4.21
				c8.55-1.79,17.23-3.7,25.27-6.89c3.19-1.28,6.25-2.68,9.06-4.47c11.23-7.02,19.78-18.12,23.35-30.76
				c1.15-4.08,1.91-8.55,2.68-12.89c1.91-10.85,3.83-21.57,12.12-28.08C829.77,904.46,838.32,903.56,846.24,905.1z"/>
		</g>
		<g>
			<g>
				<polygon class="st6" points="600.45,1205.73 593.23,1213.36 570.22,1237.97 559.56,1249.4 553.49,1244.95 543.05,1237.26 
					550.92,1225.48 571.55,1194.62 580.21,1181.55 592.96,1196.81 				"/>
			</g>
			<g>
				<path class="st10" d="M573.93,1247.98c-0.21,1.1-0.81,2.01-1.76,2.97c-1.66,1.89-4.29,3.67-6.8,5.43
					c-20.48-5.18-39.14-10.95-52.75-18.35c-1.12-3.07-2.37-6.25-1.12-7.61c0.41-0.53,1.21-0.76,2.4-0.79
					c1.44,0.05,3.39,0.39,5.73,0.92c5.04,1.13,11.61,3,16.52,2.24c7.12-1.18,10.57-7.59,13.42-7.73c0.47-0.06,0.97,0.11,1.37,0.42
					c2.21,1.38,4.25,6,7,8.74c1.09,1.05,2.26,1.73,3.64,2.26c2.65,1.08,5.52,1.18,8.53,1.38l0.13,0.1
					C572.48,1241.5,574.71,1244.9,573.93,1247.98z"/>
			</g>
			<g>
				<path class="st10" d="M831.82,1077.58c-8.83,7.24-21.9,11.23-37.73,13.32c-23.33,3.07-52.59,1.91-81.73,0.74l-109.5,125.11
					c-3.25-1.12-6.6-2.11-9.63-3.38c-4.13-1.48-7.94-3.25-11.01-5.71c-0.25-0.09-0.5-0.17-0.65-0.39c-1.99-1.53-3.78-3.32-5.24-5.39
					c-1.85-2.26-3.36-4.69-4.77-7.24c-0.77-1.33-1.53-2.54-2.18-3.89c30.06-45.35,60.11-90.7,77.41-117.9
					c17.31-27.09,21.84-36.16,52.28-47.8c16.93-6.4,41.62-13.71,65.64-16.99l1.17-0.15c5.51-0.73,11.05-1.22,16.39-1.44
					c13.04-0.64,25.12,0.51,34.76,4.01C848.02,1022.13,853.44,1059.71,831.82,1077.58z"/>
			</g>
			<path class="st5" d="M831.82,1077.58c-8.83,7.24-21.9,11.23-37.73,13.32c-23.33,3.07-52.59,1.91-81.73,0.74l-109.5,125.11
				c-3.25-1.12-6.6-2.11-9.63-3.38l-23,24.62c2.25,3.52,4.49,6.92,3.7,10.01c-0.21,1.1-0.81,2.01-1.76,2.97
				c-1.66,1.89-4.29,3.67-6.8,5.43c-20.48-5.18-39.14-10.95-52.75-18.35c-0.54-1.36-1.09-2.84-1.38-4.11
				c-0.32-1.51-0.49-2.8,0.26-3.49c0.41-0.53,1.21-0.76,2.4-0.79c1.44,0.05,3.39,0.39,5.73,0.92c2.82,2.37,5.53,4.88,8.22,7.15
				c1.62,1.46,3.47,2.76,5.53,3.92c6.45,3.68,14,5.79,20.12,3.32c1.48-0.55,3.01-1.59,4.28-2.83c1.69-1.65,2.75-3.58,3.79-5.63
				c0.58-1.03,1.03-2.16,1.61-3.19c4.82-9.58,11.6-17.87,19.05-25.65c3.45-3.67,7.04-7.25,10.74-10.84
				c2.54-2.48,4.96-4.95,7.36-7.53c0.66-0.44,1.17-1.11,1.69-1.65c15.85-16.4,29.62-35.03,40.58-55.08
				c0.39-0.65,0.67-1.28,1.06-1.93c12.1-22.23,23.32-47.56,46.35-57.51c4.97-2.09,10.29-3.38,15.67-4.21
				c7.84-1.15,16.07-1.16,24.03-1.37c13.57-0.23,27.66-1.02,39.29-7.8s19.72-21.44,14.86-33.92c-3.14-8.42-10.99-13.7-19.16-17.76
				l1.17-0.15c5.51-0.73,11.05-1.22,16.39-1.44c13.04-0.64,25.12,0.51,34.76,4.01C848.02,1022.13,853.44,1059.71,831.82,1077.58z"/>
			<path class="st5" d="M831.82,1077.58c-8.83,7.24-21.9,11.23-37.73,13.32c-23.33,3.07-52.59,1.91-81.73,0.74l-109.5,125.11
				c-3.25-1.12-6.6-2.11-9.63-3.38l-23,24.62c2.25,3.52,4.49,6.92,3.7,10.01c-0.21,1.1-0.81,2.01-1.76,2.97
				c-1.66,1.89-4.29,3.67-6.8,5.43c-20.48-5.18-39.14-10.95-52.75-18.35c-0.54-1.36-1.09-2.84-1.38-4.11
				c6.34,2.86,12.65,7.28,19.52,7.81c0.84,0.01,1.79,0,2.61-0.11c7.7-0.42,14.52-5.73,19.43-11.86c5.56-6.7,9.53-14.61,15.49-21
				c2.4-2.58,5.21-4.86,8.04-6.9c7.33-5.02,15.67-8.74,23.99-12.58c9.77-4.63,19.51-9.49,26.69-17.47
				c10.09-11.23,13.39-26.1,16.65-41.2c2.56-12.27,5.21-24.78,11.56-35.4c10.27-17.1,30.51-27.39,50.45-26.32
				c1.92,0.1,3.74,0.34,5.7,0.68c6.84,1.25,13.37,3.73,20.37,4.36c13.53,1.32,26.81-4.72,38.55-11.63
				c6.99-4.02,13.88-8.75,17.99-15.61c7.23-12.16,3.42-28.36-5.32-39.5c-0.15-0.22-0.43-0.54-0.69-0.74
				c13.04-0.64,25.12,0.51,34.76,4.01C848.02,1022.13,853.44,1059.71,831.82,1077.58z"/>
		</g>
		<g>
			<g>
				<polygon class="st6" points="749.8,1278.28 747.82,1288.56 740.05,1328.35 738.32,1336.93 727.12,1336.13 724.23,1335.92 
					717.84,1335.45 718.11,1324.79 719.46,1284.3 719.89,1268.5 732.22,1272.48 738.34,1274.54 				"/>
			</g>
			<g>
				<path class="st10" d="M747.48,1335.84c0.52,3.03-2.05,7.07-4.5,11.09c-19.81,3.56-38.44,5.18-55.57,4.69
					c-3.01-2.94-6.02-5.89-2.93-7.73c0.22-0.15,0.45-0.18,0.67-0.33c1.92-0.85,5.42-1.43,9.26-2.17l0.12-0.02
					c4.29-0.92,9.04-2.02,12.22-4.11c6.05-3.9,6.51-11.23,9.09-12.53c0.22-0.15,0.45-0.18,0.69-0.21c0.47-0.06,0.95-0.01,1.59,0.27
					c2.48,0.75,5.86,3.76,9.11,4.88c0.38,0.19,0.87,0.24,1.23,0.31c1.12,0.33,2.2,0.43,3.26,0.29c0.37,0.07,0.6,0.04,0.95-0.01
					c2.46-0.32,4.73-1.22,7.12-2.13c0.13,0.1,0.13,0.1,0.26,0.2C743.44,1330.53,746.96,1332.81,747.48,1335.84z"/>
			</g>
			<g>
				<path class="st10" d="M878.14,1047.03c-9.01,26.71-51.39,50.9-93.88,75.22l-26.6,164.06c-3.24,0.78-6.58,1.7-9.84,2.25
					c-1.49,0.44-3.02,0.64-4.42,0.82c-0.7,0.09-1.41,0.19-2.01,0.14c-2.35,0.31-4.6,0.37-6.79,0.06c-0.6-0.04-1.34-0.18-1.95-0.34
					c-4.64-0.82-8.95-2.76-13.18-4.95c-1.3-0.78-2.69-1.43-3.99-2.22c1.42-54.46,2.86-108.81,3.15-141.05
					c0.29-32.25-0.54-42.16,19.17-68.25c10.25-13.64,26.24-31.72,43.73-46.55c13.48-11.79,28.04-21.7,41.5-26.34
					c2.39-0.91,4.68-1.57,7.01-2c1.17-0.15,2.21-0.41,3.27-0.55C864.15,993.29,886.8,1021.32,878.14,1047.03z"/>
			</g>
			<path class="st5" d="M878.14,1047.03c-9.01,26.71-51.39,50.9-93.88,75.22l-26.6,164.06c-3.24,0.78-6.58,1.7-9.84,2.25
				l-7.77,39.79c3.39,2.18,6.91,4.46,7.43,7.49c0.52,3.03-2.05,7.07-4.5,11.09c-19.81,3.56-38.44,5.18-55.57,4.69
				c-3.01-2.94-6.02-5.89-2.93-7.73c7.85,0.76,15.52,4.64,23.23,3.38c3.5-0.58,6.54-1.94,9.36-4.09c0,0,0,0,0.12-0.02
				c2.6-2.01,4.9-4.46,7.04-7.25c1.54-1.87,2.94-3.96,4.23-5.92c0.7-1.05,1.41-1.97,1.99-3.01c1.77-2.86,3.53-5.83,5.28-8.81
				l-0.02-0.12c4.13-7.58,7.23-15.74,6.37-24.1c-0.08-1.54-0.39-2.93-0.7-4.44c-0.67-3.25-1.7-6.58-2.37-9.83
				c-0.35-1.74-0.58-3.5-0.68-5.16c-1.62-18.63,7.9-36.94,13.34-55.43c5.54-18.62,6.97-38.61,4.07-57.91
				c-2.42-15.67-7.39-32.55-0.3-46.72c6.52-13.02,20.94-19.46,33.3-27.05c8.37-5.28,16.8-12.83,20.29-21.64
				c1.73-4.04,2.47-8.44,1.52-12.96c-2.44-12.2-14.61-19.43-25.6-25.02c-1.02-0.46-2.16-1.03-3.43-1.58
				c13.48-11.79,28.04-21.7,41.5-26.34c2.39-0.91,4.68-1.57,7.01-2c1.17-0.15,2.21-0.41,3.27-0.55
				C864.15,993.29,886.8,1021.32,878.14,1047.03z"/>
			<path class="st5" d="M878.14,1047.03c-9.01,26.71-51.39,50.9-93.88,75.22l-26.6,164.06c-3.24,0.78-6.58,1.7-9.84,2.25
				l-7.77,39.79c3.39,2.18,6.91,4.46,7.43,7.49c0.52,3.03-2.05,7.07-4.5,11.09c-19.81,3.56-38.44,5.18-55.57,4.69
				c-3.01-2.94-6.02-5.89-2.93-7.73c0.22-0.15,0.45-0.18,0.67-0.33c1.92-0.85,5.42-1.43,9.26-2.17l0.12-0.02
				c0.77,0.38,1.41,0.77,2.16,1.03c7.44,3.08,14.38,3.24,20.38,0.78c0,0,0,0,0.12-0.02c3.63-1.43,6.9-3.77,9.93-7.03
				c1.37-1.37,2.71-2.98,3.92-4.69c0.31-0.4,0.49-0.78,0.68-1.16c2.16-3.5,3.4-7.72,4.01-12.1l-0.02-0.12
				c1.24-9.59-0.53-20.33-3.08-28.82c-1.9-6.31-0.39-11.16-0.42-16.76c-0.03-2.02-0.19-4.15-0.85-6.45
				c-3.33-11.73-3.44-24.36-0.34-36.1c4.41-16.33,14.98-31.2,15.6-48.22c0.64-18.69-10.77-38.31-2.74-55.23
				c2.79-5.97,7.87-10.94,8.56-17.47c0.37-3.51-0.57-7.08,0.53-10.45c1.12-3.25,4.03-5.66,6.88-7.58
				c15.19-10.59,32.05-18.41,49.17-25.2c1.81-0.72,3.51-1.42,5.33-2.13c16.13-6.18,35.33-15.27,36.52-32.48
				c0.62-10.7-6.78-20.7-15.97-26.17c-3.87-2.23-7.79-3.87-11.89-5.12c2.39-0.91,4.68-1.57,7.01-2c1.17-0.15,2.21-0.41,3.27-0.55
				C864.15,993.29,886.8,1021.32,878.14,1047.03z"/>
		</g>
		<path class="st3" d="M902.64,892.43c-0.03,11.57-2.67,25.04-4.77,39.87c-0.22,1.94-0.55,4.01-0.75,6.06
			c-4.06,32.62-3.49,70.48-16.18,85.51c-4.22,5.09-9.87,7.5-16.32,8.35c-13.02,1.71-29.05-3.21-42.58-8.11
			c-20.29-7.35-34.82-14.38-49.34-21.42c2.82-3.95,5.54-7.77,8.24-11.7c3.31-4.73,6.38-9.55,9.18-14.57
			c6.77-11.98,11.76-24.81,12.65-39.84c1.53-26.44-9.64-59.69,7.54-75.07c5.86-5.3,15.1-8.55,25.3-9.89
			c19.82-2.61,43.64,1.65,55.79,11.5C900.19,870.21,902.83,880.24,902.64,892.43z"/>
		<path class="st5" d="M902.64,892.43c-0.06,13.13-3.36,28.83-5.52,45.94c-4.06,32.62-3.49,70.48-16.18,85.51
			c-4.22,5.09-9.87,7.5-16.32,8.35c-13.02,1.71-29.05-3.21-42.58-8.11c-20.29-7.35-34.82-14.38-49.34-21.42
			c2.82-3.95,5.54-7.77,8.24-11.7c4.01,2.34,7.34,5.95,10.75,9.2c6.01,5.77,12.74,10.73,19.97,14.91
			c5.18,3.14,11.01,5.71,16.99,4.92c3.63-0.48,6.98-2.23,9.9-4.52c13.73-10.75,16.04-30.38,15.78-47.76
			c-0.14-17.4-1.42-36.19,8.24-50.71c2.91-4.2,6.48-7.89,10.33-11.26c6.74-5.9,14.41-11.08,23.24-12.84
			C898.36,892.52,900.48,892.36,902.64,892.43z"/>
		<path class="st5" d="M897.87,932.31c-0.22,1.94-0.55,4.01-0.75,6.06c-4.06,32.62-3.49,70.48-16.18,85.51
			c-4.22,5.09-9.87,7.5-16.32,8.35c-13.02,1.71-29.05-3.21-42.58-8.11c-20.29-7.35-34.82-14.38-49.34-21.42
			c2.82-3.95,5.54-7.77,8.24-11.7c3.31-4.73,6.38-9.55,9.18-14.57c7.49,1.64,14.28,6.11,18.36,12.61
			c4.04,6.27,5.55,14.06,10.02,19.91c3.48,4.67,8.68,7.92,13.81,10.71c2.06,1.16,4.11,2.2,6.38,2.26c3.7-0.01,6.8-2.68,9.44-5.3
			c8.05-7.74,16.66-16.63,17.1-27.78c0.21-5.63-1.7-11.11-2.66-16.59c-1.8-10.02-0.43-20.46,3.84-29.73
			c2.16-4.46,5.15-8.91,9.49-11.27C882.58,927.64,890.68,929.32,897.87,932.31z"/>
		<g>
			<path class="st6" d="M857.88,851.45c-3.88,5.88-9.47,9.6-13.94,12.81c-2.06,1.58-4.21,2.46-6.44,2.76l-0.47,0.06
				c-2.24,0.18-4.58-0.35-6.41-1.54c-3.89-2.35-7.96-4.32-10.67-9.45c3.21-1.85,4.86-6.6,5.3-12.27c0.14-1.69,0.15-3.36,0.16-5.15
				c-0.1-8.93-2.7-18.73-6.69-22.74l20.39-6.38C837.52,820.01,847.42,850.79,857.88,851.45z"/>
			<path class="st5" d="M857.88,851.45c-3.88,5.88-9.47,9.6-13.94,12.81c-0.99-1.18-1.66-2.64-1.74-4.18
				c-0.16-2.13,1-4.19,1.54-6.41c1.02-4.07-0.66-8.62-3.67-11.57c-3.13-2.93-7.48-4.26-11.75-4.06c-1.07,0.02-1.99,0.26-2.9,0.62
				c-0.1-8.93-2.7-18.73-6.69-22.74l20.39-6.38C837.52,820.01,847.42,850.79,857.88,851.45z"/>
			<path class="st5" d="M857.88,851.45c-3.88,5.88-9.47,9.6-13.94,12.81c-2.06,1.58-4.21,2.46-6.44,2.76l-0.47,0.06
				c-1.26-2.34-1.73-5.02-1.37-7.69c0.13-0.85,0.39-1.6,0.9-2.26c0.29-0.52,0.73-0.81,1.15-1.23c1.74-1.3,3.34-2.71,5.06-4.13
				c0.42-0.41,0.96-0.84,1.25-1.36c1.38-2.21-0.41-4.96-2.1-6.88c-0.96-0.95-1.93-2.01-3.17-2.33c-1.97-0.46-3.85,0.63-5.54,1.44
				c-2.59,1.18-5.29,1.53-7.96,1.17c0.14-1.69,0.15-3.36,0.16-5.15c-0.1-8.93-2.7-18.73-6.69-22.74l20.39-6.38
				C837.52,820.01,847.42,850.79,857.88,851.45z"/>
		</g>
		<g>
			<path class="st6" d="M844.03,825.83l-3.07-40.76l-33.12,1.33c-1.09,20.69-2.19,41.39,3.75,47.45c1.11,1.14,2.47,1.76,4.03,1.96
				C822.39,836.7,833.5,832.79,844.03,825.83z"/>
		</g>
		<path class="st10" d="M741.75,1002.53l-52.49-5.5c-5.93-0.65-12.53-6.34-14.8-12.73l-11.67-32.46l-14.88-41.46
			c-2.29-6.5,0.68-11.18,6.49-10.52l52.48,5.38c5.45,0.6,11.45,5.41,14.23,11.13c0.31,0.56,0.51,1.13,0.7,1.7l26.43,73.94
			C750.63,998.38,747.67,1003.07,741.75,1002.53z"/>
		
			<ellipse transform="matrix(0.6391 -0.7691 0.7691 0.6391 -464.3957 856.3857)" class="st8" cx="680.34" cy="923.04" rx="3.61" ry="5.4"/>
		<g>
			<g>
				<path class="st6" d="M916.52,1043.67c-5.86,5.58-13.44,8.72-22.59,10.01c-37.03,4.86-97.94-23.02-158.84-50.75l3.72-11.58
					l3.43-11.3l3.86,0.86l4.58,1.14l31.6,7.15l96.51,22.02c-7.43-23.73-15.01-47.47-20.02-68.91c-4.86-21.45-7.15-40.75-4.29-55.62
					c3.15-15.3,11.72-26.02,22.3-27.31c4.29-0.57,8.72,0.29,13.3,2.86c0.43,0.29,0.86,0.43,1.29,0.86
					c3.72,2.29,7.43,5.86,11.01,10.72c0.57,0.57,1,1.29,1.43,1.72c1.72,2.57,3.57,5.43,5.29,8.72
					c6.43,12.01,12.44,28.59,16.87,46.89C935.96,973.33,937.53,1023.79,916.52,1043.67z"/>
			</g>
			<path class="st6" d="M751.99,987.65l0.02,0.12c0.34,2.58,0.39,5.67-0.56,8.42c-1.29,4.7-5.7,8.38-16.41,6.69
				c-17.3-2.73-17.72-18.66-16.33-28.03c0.53-4.13,1.47-6.99,1.47-6.99c2.13-3.74,12.27,12.58,18.71,6.24
				c0.54-0.43,1.05-1.09,1.54-1.87l-3.04-7.71c2.94-3.01,9.1,4.77,13.27,17.46C750.65,981.98,751.56,984.37,751.99,987.65z"/>
			<path class="st3" d="M925.95,931.15c-14.44,8.29-35.74,13.44-67.2,11.15c-4.86-21.45-7.15-40.75-4.29-55.62
				c3.15-15.3,11.72-26.02,22.3-27.31c4.29-0.57,8.72,0.29,13.3,2.86c0.43,0.29,0.86,0.43,1.29,0.86
				c3.72,2.29,7.43,5.86,11.01,10.72c0.57,0.57,1,1.29,1.43,1.72c1.72,2.57,3.57,5.43,5.29,8.72
				C915.52,896.26,921.52,912.85,925.95,931.15z"/>
		</g>
		<path class="st19" d="M916.58,1043.64c-5.93,5.67-13.51,8.82-22.66,10.02c-37.05,4.88-97.98-23.01-158.89-50.78
			c-17.3-2.73-17.72-18.66-16.33-28.03c6.79,4.47,12.87,11.67,20.06,16.45c2.09,1.39,4.27,2.54,6.52,3.32
			c2.02,0.81,4.1,1.25,6.17,1.57c3.89,0.56,7.85,0.76,11.74,1.32c0.37,0.07,0.85,0.13,1.22,0.2c3.17,0.54,6.29,1.56,9.32,2.83
			c0.12-0.02,0.23-0.03,0.38,0.19c4.01,1.5,7.84,3.38,11.68,5.38c7.42,3.79,14.7,7.49,22.12,11.28c3.84,2,7.67,3.88,11.49,5.76
			c0.13,0.1,0.25,0.09,0.38,0.19c12.1,5.8,24.44,10.74,37.74,12.09c5.31,0.49,10.9,0.35,16.26-0.59
			c12.25-2.09,23.74-8.14,30.38-18.43c4.65-7.29,6.5-15.89,7.4-24.47c1.61-16.79-0.54-34.04-6.34-49.98
			c-1.9-5.36-4.25-10.53-6.38-15.86c-1.58-3.85-3.04-7.71-4.17-11.74c-0.13-0.1-0.16-0.34-0.18-0.45c-2.7-9.66-3.3-20.56,1.25-29.51
			c1.23-2.43,3.08-4.7,5.22-6.53c0.83-0.94,1.81-1.67,2.8-2.28c1.76,2.51,3.57,5.37,5.31,8.61
			C930.51,923.84,946.48,1015.25,916.58,1043.64z"/>
		<path class="st20" d="M916.58,1043.64c-5.93,5.67-13.51,8.82-22.66,10.02c-37.05,4.88-97.98-23.01-158.89-50.78
			c-17.3-2.73-17.72-18.66-16.33-28.03c0.53-4.13,1.47-6.99,1.47-6.99c2.13-3.74,12.27,12.58,18.71,6.24
			c2.54,2.05,4.87,4.37,7.22,6.8c1.67,1.81,3.22,3.63,4.77,5.46c0.41,0.42,0.71,0.86,1.12,1.28l0.02,0.12
			c2.66,2.99,5.22,6.11,8.49,8.31c0.91,0.6,1.81,1.07,2.69,1.43c3.19,1.61,6.88,2.43,10.54,3.03c0.12-0.02,0.25,0.09,0.48,0.06
			c2.67,0.36,5.33,0.61,7.97,0.74c24.87,1.38,51.44,2.06,71.62,16.7c5.41,3.94,10.24,8.91,15.46,13.23c1.34,1.14,2.8,2.26,4.26,3.38
			c0.13,0.1,0.13,0.1,0.27,0.2c6.96,4.81,15.73,8.07,23.89,5.68c3.91-1.11,7.41-3.48,10.79-5.95c6.19-4.63,12.47-9.51,16.6-16.14
			c5.82-9.24,7.04-20.85,5.38-31.6c-1.54-10.77-5.76-21.07-9.83-31.15c-2.88-7.37-5.87-14.73-10.1-21.45
			c-3.16-4.95-6.97-9.46-10.78-13.97c-1.68-1.93-3.37-3.85-5.07-5.89c-4.41-5.38-8.59-10.92-11.33-17.24
			c-2.92-6.77-3.86-15.72,1.42-20.94c3.79-3.84,9.08-4.42,14.49-3.22c0.98,0.23,1.97,0.46,3.1,0.9c0.55,0.53,0.99,1.18,1.42,1.72
			c1.76,2.51,3.57,5.37,5.31,8.61C930.51,923.84,946.48,1015.25,916.58,1043.64z"/>
		<path d="M825.68,804.1c1.33-0.59,2.62-1.33,4.02-1.66c1.4-0.33,2.98-0.19,4.08,0.83c0.87,0.8,1.34,2.02,1.7,3.21
			c0.49,1.6,0.85,3.33,0.51,4.97c-0.92,4.41-6.43,6.55-6.54,11.08c-0.04,1.71,0.77,3.31,1.79,4.57c3.78,4.66,10.21,5.31,15.65,3.81
			c2.74-0.76,5.43-2,7.55-4.09c2.12-2.09,3.62-5.1,3.64-8.28c0.01-3.02-1.26-5.82-2.32-8.59c-1.04-2.73-1.89-5.55-2.53-8.43
			c-0.19-0.84-0.36-1.68-0.38-2.54c-0.07-3.07,1.75-5.75,3.57-8.03c1.82-2.28,3.84-4.65,4.32-7.67c0.38-2.4-0.35-5-1.89-6.72
			c-1.54-1.72-3.86-2.52-5.99-2.06c-2.46,0.53-4.44,2.52-6.46,4.18c-2.02,1.67-4.53,3.13-6.95,2.38c-3.74-1.16-4.84-6.6-7.88-9.31
			c-1.9-1.69-4.43-2.18-6.84-2.45c-2.32-0.26-4.66-0.37-6.99-0.34c-1.3,0.02-2.63,0.09-3.87,0.54c-3.26,1.2-5.41,4.85-8.62,6.21
			c-1.56,0.66-3.34,0.76-4.72,1.81c-1.6,1.22-2.33,3.47-2.63,5.62C795.44,800.39,812.88,809.77,825.68,804.1z"/>
	</g>
	<g>
		<path class="st16" d="M1149.64,498.75l-30.79,7.32l-30.79,7.32l19.12,8.88l-63.11,52.04l-24.58-25.52
			c-1.94-2.01-4.6-3.17-7.39-3.22c-0.06,0-0.13,0-0.19,0c-2.73,0-5.35,1.06-7.31,2.95l-61.94,59.75
			c-4.19,4.04-4.31,10.71-0.27,14.89c2.07,2.14,4.82,3.22,7.58,3.22c2.63,0,5.27-0.98,7.31-2.95l54.36-52.43v0l24.03,24.94
			c2.06,2.14,4.82,3.23,7.59,3.23c2.37,0,4.74-0.79,6.7-2.41l71.36-58.85v0l6.6,20.81L1149.64,498.75z"/>
	</g>
	<g>
		<path class="st4" d="M1244.87,734.99v40.5c0,4.05-3.1,7.15-7.15,7.15h-10.48c-3.81,0-7.15-3.1-7.15-7.15v-40.5
			c0-3.81,3.33-7.15,7.15-7.15h10.48C1241.77,727.84,1244.87,731.18,1244.87,734.99z"/>
		<path class="st1" d="M1286.56,696.64v106.72c0,4.05-3.1,7.15-7.15,7.15h-10.48c-3.81,0-7.15-3.1-7.15-7.15V696.64
			c0-3.81,3.33-7.15,7.15-7.15h10.48C1283.46,689.49,1286.56,692.83,1286.56,696.64z"/>
		<path class="st4" d="M1328.25,686.86v88.62c0,4.05-3.1,7.15-6.91,7.15h-10.72c-3.81,0-6.91-3.1-6.91-7.15v-88.62
			c0-3.81,3.1-7.15,6.91-7.15h10.72C1325.15,679.72,1328.25,683.05,1328.25,686.86z"/>
		<path class="st1" d="M1370.17,757.15v46.22c0,4.05-3.34,7.15-7.15,7.15h-10.72c-3.81,0-6.91-3.1-6.91-7.15v-46.22
			c0-3.81,3.1-7.15,6.91-7.15h10.72C1366.84,750,1370.17,753.33,1370.17,757.15z"/>
		<path class="st4" d="M1411.86,675.19v100.29c0,4.05-3.34,7.15-7.15,7.15h-10.48c-4.05,0-7.15-3.1-7.15-7.15V675.19
			c0-4.05,3.1-7.15,7.15-7.15h10.48C1408.53,668.05,1411.86,671.14,1411.86,675.19z"/>
	</g>
</g>
</svg>
